<svg width="41" height="41" viewBox="0 0 41 41" fill="none" xmlns="http://www.w3.org/2000/svg">
<path d="M3.41602 13.6667H6.83268L18.6808 18.8503C19.6873 19.2907 20.1502 20.4606 19.7174 21.4704L18.7247 23.7868C18.2896 24.8021 17.1138 25.2724 16.0986 24.8372L11.9577 23.0626" stroke="white" stroke-width="2" stroke-linecap="round" stroke-linejoin="round"/>
<path d="M3.86323 28.1473C3.36925 27.9003 2.76858 28.1006 2.52159 28.5945C2.2746 29.0885 2.47482 29.6892 2.9688 29.9362L3.86323 28.1473ZM19.2382 23.0223L18.3438 22.5751L17.4494 24.364L18.3438 24.8112L19.2382 23.0223ZM24.3575 26.7L24.8047 25.8056L24.3575 26.7ZM27.0408 28.3334H32.166V26.3334H27.0408V28.3334ZM33.166 29.3334V32.1667H35.166V29.3334H33.166ZM32.166 33.1667H15.5546V35.1667H32.166V33.1667ZM12.4241 32.4277L3.86323 28.1473L2.9688 29.9362L11.5296 34.2166L12.4241 32.4277ZM24.8047 25.8056L19.2382 23.0223L18.3438 24.8112L23.9103 27.5944L24.8047 25.8056ZM15.5546 33.1667C14.4678 33.1667 13.3961 32.9137 12.4241 32.4277L11.5296 34.2166C12.7793 34.8414 14.1574 35.1667 15.5546 35.1667V33.1667ZM33.166 32.1667C33.166 32.719 32.7183 33.1667 32.166 33.1667V35.1667C33.8229 35.1667 35.166 33.8236 35.166 32.1667H33.166ZM32.166 28.3334C32.7183 28.3334 33.166 28.7811 33.166 29.3334H35.166C35.166 27.6766 33.8229 26.3334 32.166 26.3334V28.3334ZM27.0408 26.3334C26.2645 26.3334 25.499 26.1527 24.8047 25.8056L23.9103 27.5944C24.8822 28.0804 25.954 28.3334 27.0408 28.3334V26.3334Z" fill="white"/>
<circle cx="30.7493" cy="13.6666" r="6.83333" stroke="white" stroke-width="2"/>
</svg>
