<svg width="37" height="33" viewBox="0 0 37 33" fill="none" xmlns="http://www.w3.org/2000/svg">
<path d="M11.666 19.9167H25.3327M11.666 13.0833H18.4993M35.5252 15.1617C35.5633 15.6027 35.5827 16.0491 35.5827 16.5C35.5827 24.9914 28.6991 31.875 20.2077 31.875H8.24935C4.4754 31.875 1.41602 28.8156 1.41602 25.0417V16.5C1.41602 8.00862 8.29964 1.125 16.791 1.125H20.2077C20.6586 1.125 21.1049 1.14441 21.546 1.18244M35.5827 6.25C35.5827 9.08046 33.2881 11.375 30.4577 11.375C27.6272 11.375 25.3327 9.08046 25.3327 6.25C25.3327 3.41954 27.6272 1.125 30.4577 1.125C33.2881 1.125 35.5827 3.41954 35.5827 6.25Z" stroke="white" stroke-width="2" stroke-linecap="round"/>
</svg>
