<svg width="37" height="33" viewBox="0 0 37 33" fill="none" xmlns="http://www.w3.org/2000/svg">
<path d="M18.4993 6.34117V30.6834M6.54102 10.1017C8.70338 10.4366 11.1156 10.9933 13.3743 11.8668M6.54102 16.935C7.63347 17.1042 8.78969 17.33 9.95768 17.6247M4.82299 1.14426C8.61272 1.57249 13.7043 2.72454 17.3323 5.26676C18.0295 5.75536 18.9692 5.75536 19.6664 5.26676C23.2944 2.72454 28.386 1.57249 32.1757 1.14426C34.0513 0.932316 35.5827 2.49854 35.5827 4.43093V23.6749C35.5827 25.6073 34.0513 27.1741 32.1757 27.3861C28.386 27.8143 23.2944 28.9663 19.6664 31.5086C18.9692 31.9971 18.0295 31.9971 17.3323 31.5086C13.7043 28.9663 8.61272 27.8143 4.82299 27.3861C2.94741 27.1741 1.41602 25.6073 1.41602 23.6749V4.43093C1.41602 2.49854 2.94741 0.932316 4.82299 1.14426Z" stroke="white" stroke-width="2" stroke-linecap="round"/>
</svg>
