<svg width="37" height="37" viewBox="0 0 37 37" fill="none" xmlns="http://www.w3.org/2000/svg">
<path d="M10.9827 21.5751L10.1827 22.1751H10.1827L10.9827 21.5751ZM13.0327 24.3084L13.8327 23.7084H13.8327L13.0327 24.3084ZM23.966 24.3084L23.166 23.7084V23.7084L23.966 24.3084ZM26.016 21.5751L25.216 20.9751H25.216L26.016 21.5751ZM13.3743 14.0834C12.8221 14.0834 12.3743 14.5311 12.3743 15.0834C12.3743 15.6357 12.8221 16.0834 13.3743 16.0834V14.0834ZM18.4993 16.0834C19.0516 16.0834 19.4993 15.6357 19.4993 15.0834C19.4993 14.5311 19.0516 14.0834 18.4993 14.0834V16.0834ZM13.3743 7.25008C12.8221 7.25008 12.3743 7.6978 12.3743 8.25008C12.3743 8.80237 12.8221 9.25008 13.3743 9.25008V7.25008ZM23.6243 9.25008C24.1766 9.25008 24.6243 8.80237 24.6243 8.25008C24.6243 7.6978 24.1766 7.25008 23.6243 7.25008V9.25008ZM34.5827 25.3334V30.4584H36.5827V25.3334H34.5827ZM30.4577 34.5834H6.54101V36.5834H30.4577V34.5834ZM2.41602 30.4584V25.3334H0.416016V30.4584H2.41602ZM6.54102 21.2084H8.24935V19.2084H6.54102V21.2084ZM10.1827 22.1751L12.2327 24.9084L13.8327 23.7084L11.7827 20.9751L10.1827 22.1751ZM28.7493 21.2084H30.4577V19.2084H28.7493V21.2084ZM24.766 24.9084L26.816 22.1751L25.216 20.9751L23.166 23.7084L24.766 24.9084ZM18.4993 28.0417C20.9649 28.0417 23.2867 26.8809 24.766 24.9084L23.166 23.7084C22.0644 25.1773 20.3354 26.0417 18.4993 26.0417V28.0417ZM28.7493 19.2084C27.3592 19.2084 26.0501 19.8629 25.216 20.9751L26.816 22.1751C27.2724 21.5665 27.9887 21.2084 28.7493 21.2084V19.2084ZM12.2327 24.9084C13.712 26.8809 16.0337 28.0417 18.4993 28.0417V26.0417C16.6633 26.0417 14.9343 25.1773 13.8327 23.7084L12.2327 24.9084ZM8.24935 21.2084C9.01001 21.2084 9.72628 21.5665 10.1827 22.1751L11.7827 20.9751C10.9486 19.8629 9.63953 19.2084 8.24935 19.2084V21.2084ZM6.54101 34.5834C4.26284 34.5834 2.41602 32.7366 2.41602 30.4584H0.416016C0.416016 33.8412 3.15827 36.5834 6.54101 36.5834V34.5834ZM34.5827 30.4584C34.5827 32.7366 32.7359 34.5834 30.4577 34.5834V36.5834C33.8404 36.5834 36.5827 33.8412 36.5827 30.4584H34.5827ZM36.5827 25.3334C36.5827 21.9507 33.8404 19.2084 30.4577 19.2084V21.2084C32.7359 21.2084 34.5827 23.0552 34.5827 25.3334H36.5827ZM2.41602 25.3334C2.41602 23.0552 4.26284 21.2084 6.54102 21.2084V19.2084C3.15827 19.2084 0.416016 21.9507 0.416016 25.3334H2.41602ZM33.166 20.2084V8.25008H31.166V20.2084H33.166ZM25.3327 0.416748H11.666V2.41675H25.3327V0.416748ZM3.83268 8.25008V20.2084H5.83268V8.25008H3.83268ZM11.666 0.416748C7.33979 0.416748 3.83268 3.92385 3.83268 8.25008H5.83268C5.83268 5.02842 8.44435 2.41675 11.666 2.41675V0.416748ZM33.166 8.25008C33.166 3.92385 29.6589 0.416748 25.3327 0.416748V2.41675C28.5543 2.41675 31.166 5.02842 31.166 8.25008H33.166ZM13.3743 16.0834H18.4993V14.0834H13.3743V16.0834ZM13.3743 9.25008H23.6243V7.25008H13.3743V9.25008Z" fill="white"/>
</svg>
