<svg width="37" height="37" viewBox="0 0 37 37" fill="none" xmlns="http://www.w3.org/2000/svg">
<path d="M11.3579 35.5834H25.6408C29.5849 35.5834 32.7822 32.5323 32.7822 28.7685V20.4357C32.7822 19.2258 33.2859 18.0655 34.1824 17.2099C36.2595 15.2278 35.9895 11.9436 33.6138 10.2948L22.6997 2.7202C20.1956 0.982265 16.8031 0.982264 14.299 2.7202L3.38488 10.2948C1.00921 11.9436 0.739183 15.2278 2.81632 17.2099C3.71283 18.0655 4.21648 19.2258 4.21648 20.4357V28.7685C4.21648 32.5323 7.41381 35.5834 11.3579 35.5834Z" stroke="white" stroke-width="2"/>
<path d="M21.916 25.3334C21.916 27.2204 20.3863 28.7501 18.4993 28.7501C16.6124 28.7501 15.0827 27.2204 15.0827 25.3334C15.0827 23.4464 16.6124 21.9167 18.4993 21.9167C20.3863 21.9167 21.916 23.4464 21.916 25.3334Z" stroke="white" stroke-width="2"/>
</svg>
