<svg width="935" height="736" viewBox="0 0 935 736" fill="none" xmlns="http://www.w3.org/2000/svg">
<path opacity="0.85" d="M279.717 1.85742L441.592 91.2867M441.592 91.2867V240.889M441.592 91.2867L603.467 1.85742M441.592 240.889H330.717C302.551 240.889 279.717 263.723 279.717 291.889V301.265M441.592 240.889H552.467C580.634 240.889 603.467 263.723 603.467 291.889V301.265M279.717 301.265L132.845 200.453C132.012 199.882 131.025 199.576 130.015 199.576H-45.7227M279.717 301.265V373.935M279.717 373.935H-45.7227M279.717 373.935V442.862M279.717 442.862V453.979C279.717 482.146 302.551 504.979 330.717 504.979H441.592M279.717 442.862L132.902 553.391C132.035 554.044 130.979 554.397 129.894 554.397H-45.7227M441.592 504.979H552.467C580.634 504.979 603.467 482.146 603.467 453.979V442.862M441.592 504.979V644.428M441.592 644.428L279.717 733.857M441.592 644.428L603.467 733.857M603.467 442.862L750.283 553.391C751.15 554.044 752.206 554.397 753.291 554.397H934.277M603.467 442.862V373.935M603.467 373.935H934.277M603.467 373.935V301.265M603.467 301.265L750.34 200.453C751.173 199.882 752.16 199.576 753.17 199.576H934.277" stroke="url(#paint0_radial_505_1114)" stroke-opacity="0.25" stroke-width="4"/>
<g filter="url(#filter0_b_505_1114)">
<rect x="196.277" y="214.631" width="495.642" height="318.774" rx="32" fill="#24445E" fill-opacity="1"/>
<rect x="197.277" y="215.631" width="493.642" height="316.774" rx="31" stroke="#31B5FF" stroke-opacity="0.5" stroke-width="2"/>
</g>
<g opacity="0.3" filter="url(#filter1_d_505_1114)">
<circle cx="556.179" cy="451.141" r="45.2453" fill="#49BCF0"/>
<g style="mix-blend-mode:hard-light" opacity="0.8">
<circle cx="615.823" cy="451.141" r="45.2453" fill="#94ACCF"/>
</g>
</g>
<g opacity="0.15" filter="url(#filter2_d_505_1114)">
<circle cx="556.179" cy="451.141" r="45.2453" fill="#49BCF0"/>
<g style="mix-blend-mode:hard-light" opacity="0.8">
<circle cx="615.823" cy="451.141" r="45.2453" fill="#94ACCF"/>
</g>
</g>
<g clip-path="url(#clip0_505_1114)">
<path d="M241.998 267.091C241.998 267.175 242.028 267.204 242.122 267.204H262.978C263.712 267.204 264.05 267.318 264.203 267.517C264.354 267.66 264.507 267.945 264.507 268.629V277.035C264.507 278.147 264.171 278.432 262.978 278.432H242.122C242.028 278.432 241.998 278.461 241.998 278.547V281.681C241.998 282.337 242.488 282.794 243.193 282.794H263.682C267.602 282.794 269.561 280.97 269.561 277.293V268.344C269.561 264.669 267.602 262.845 263.682 262.845H243.193C242.947 262.845 242.733 262.901 242.519 263.044L242.275 263.243C242.182 263.327 242.122 263.442 242.091 263.529C242.058 263.557 242.058 263.585 242.058 263.641C242.028 263.842 241.998 263.926 241.998 263.954V267.091Z" fill="white"/>
<path d="M279.617 281.711C279.617 281.938 279.71 282.251 279.954 282.481C279.985 282.565 280.047 282.565 280.077 282.593C280.291 282.736 280.536 282.795 280.812 282.795H303.138C303.384 282.795 303.689 282.767 303.935 282.565L304.025 282.481C304.272 282.223 304.333 281.91 304.333 281.683V279.546C304.333 279.374 304.333 279.26 304.303 279.232C304.209 278.691 303.658 278.434 303.138 278.434H280.782C280.382 278.434 280.168 278.549 279.894 278.803C279.741 279.005 279.647 279.232 279.647 279.487C279.617 279.518 279.617 279.63 279.617 279.831V281.711ZM279.647 263.871C279.647 263.986 279.617 264.098 279.617 264.213V266.123C279.617 266.35 279.677 266.664 279.954 266.919C280.047 266.949 280.015 266.977 280.107 267.006C280.322 267.205 280.599 267.205 280.812 267.205H303.014C303.261 267.205 303.598 267.149 303.872 266.919C304.149 266.664 304.209 266.35 304.209 266.092V263.955C304.209 263.927 304.179 263.843 304.149 263.642C304.055 263.272 303.905 263.157 303.568 262.958C303.414 262.874 303.23 262.846 303.014 262.846H280.966C280.719 262.815 280.352 262.874 280.077 263.101L279.924 263.215C279.71 263.415 279.677 263.672 279.647 263.871ZM279.617 274.073C279.647 274.33 279.771 274.529 279.954 274.672C279.985 274.756 280.047 274.756 280.077 274.787C280.322 274.986 280.599 274.986 280.812 274.986H302.71C303.445 274.986 303.905 274.557 303.905 273.873V271.765C303.905 271.593 303.905 271.479 303.872 271.451C303.842 271.252 303.658 270.938 303.445 270.854C303.23 270.653 302.954 270.653 302.74 270.653H281.026C280.752 270.625 280.382 270.653 280.107 270.882L279.954 270.994C279.771 271.196 279.677 271.423 279.677 271.621L279.617 271.964V274.073Z" fill="white"/>
<path d="M314.389 277.408C314.389 281.082 316.592 282.906 320.42 282.906H331.386L332.244 284.959C332.398 285.329 332.549 285.671 332.671 286.012C332.702 286.043 332.765 286.071 332.795 286.071H338.002C338.153 286.071 338.186 286.012 338.123 285.928L334.234 276.694C334.204 276.694 334.174 276.666 334.143 276.666H328.936C328.812 276.666 328.782 276.724 328.812 276.836C329.026 277.293 329.273 277.864 329.547 278.548H321.188C320.42 278.548 320.023 278.377 319.809 278.175C319.596 278.035 319.473 277.663 319.473 277.122V268.514C319.473 267.974 319.596 267.604 319.809 267.461C320.023 267.262 320.42 267.12 321.188 267.12H334.724C335.919 267.12 336.408 267.374 336.408 268.514V277.122C336.408 277.435 336.347 277.721 336.257 277.976C336.224 278.005 336.224 278.035 336.257 278.063L338.123 282.393C338.153 282.452 338.186 282.48 338.277 282.48C338.891 282.281 339.257 282.024 339.962 281.455C341.063 280.455 341.491 279.117 341.491 277.408V268.26C341.491 264.582 339.318 262.758 335.489 262.758H320.42C316.472 262.758 314.389 264.582 314.389 268.26V277.408Z" fill="white"/>
<path d="M352.742 262.845C352.037 262.845 351.547 263.299 351.547 263.954V277.293C351.547 280.856 353.477 282.794 357.428 282.794H372.771C376.692 282.794 378.653 280.97 378.653 277.293V263.954C378.653 263.727 378.592 263.413 378.345 263.156C378.07 262.901 377.734 262.845 377.457 262.845H374.763C374.059 262.845 373.567 263.299 373.567 263.954V277.035C373.567 278.147 373.231 278.432 372.036 278.432H358.193C356.998 278.432 356.63 278.147 356.63 277.035V263.954C356.63 263.727 356.571 263.413 356.293 263.156C356.05 262.901 355.712 262.845 355.439 262.845H352.742Z" fill="white"/>
<path d="M389.9 262.845C389.196 262.845 388.705 263.299 388.705 263.954V281.681C388.705 282.337 389.196 282.794 389.9 282.794H392.594C392.87 282.794 393.208 282.735 393.451 282.48C393.725 282.222 393.788 281.909 393.788 281.681V263.954C393.788 263.727 393.725 263.413 393.451 263.156C393.208 262.901 392.87 262.845 392.594 262.845H389.9Z" fill="white"/>
<path d="M403.509 262.845C402.805 262.845 402.314 263.299 402.314 263.954V266.091C402.314 266.349 402.375 266.662 402.653 266.918C402.929 267.147 403.264 267.204 403.509 267.204H413.096V281.681C413.096 281.909 413.157 282.222 413.431 282.48C413.678 282.735 414.015 282.794 414.289 282.794H416.922C417.199 282.794 417.536 282.735 417.781 282.48C418.057 282.222 418.118 281.909 418.118 281.681V267.204H427.674C428.379 267.204 428.9 266.777 428.9 266.091V263.954C428.9 263.699 428.776 263.413 428.562 263.156C428.285 262.929 427.948 262.845 427.674 262.845H403.509Z" fill="white"/>
<path d="M436.015 263.442C435.923 263.641 435.923 263.811 435.985 263.954C436.015 264.212 436.169 264.382 436.323 264.525C436.353 264.525 438.923 267.204 441.62 269.853L446.948 275.211V281.681C446.948 282.337 447.438 282.794 448.142 282.794H450.777C451.053 282.794 451.388 282.735 451.634 282.48C451.908 282.222 451.972 281.909 451.972 281.681V275.211L462.66 264.497C462.781 264.382 462.934 264.212 462.965 263.954C463.027 263.811 463.027 263.641 462.934 263.442C462.844 263.243 462.69 263.128 462.567 263.044C462.353 262.901 462.14 262.845 461.862 262.845H458.708C458.004 262.845 457.637 263.214 457.392 263.442L456.167 264.697L453.44 267.433L449.491 271.394L441.557 263.47C441.283 263.214 440.916 262.845 440.211 262.845H437.056C436.596 262.845 436.169 263.071 436.015 263.442Z" fill="white"/>
</g>
<path fill-rule="evenodd" clip-rule="evenodd" d="M262.875 325.697L274.01 331.811V341.526H263.122C262.338 341.526 261.702 342.162 261.702 342.947V345.196L253.275 339.447C252.279 338.767 251.1 338.403 249.894 338.403H239.146V331.697C239.146 328.383 241.833 325.697 245.146 325.697H262.875ZM263.388 323.697L263.183 323.584L263.121 323.697H245.146C240.728 323.697 237.146 327.279 237.146 331.697V372.913C237.146 377.331 240.728 380.913 245.146 380.913H304.991C309.409 380.913 312.991 377.331 312.991 372.913V331.697C312.991 327.279 309.409 323.697 304.991 323.697H286.898L286.836 323.584L286.631 323.697H263.388ZM267.031 325.697H282.989L275.01 330.078L267.031 325.697ZM287.144 325.697L276.01 331.811V341.526H286.897C287.682 341.526 288.318 342.162 288.318 342.947V345.196L296.744 339.447C297.741 338.767 298.919 338.403 300.125 338.403H310.991V331.697C310.991 328.383 308.304 325.697 304.991 325.697H287.144ZM310.991 340.403H300.125C299.321 340.403 298.536 340.646 297.871 341.099L288.318 347.617V351.581H310.991V340.403ZM310.991 353.581H288.318V357.289L297.849 364.422C298.541 364.94 299.382 365.22 300.246 365.22H310.991V353.581ZM310.991 367.22H300.246C298.95 367.22 297.689 366.8 296.651 366.023L288.318 359.787V362.064C288.318 362.849 287.682 363.485 286.897 363.485H276.01V372.432L287.799 378.906L287.795 378.913H304.991C308.304 378.913 310.991 376.226 310.991 372.913V367.22ZM283.656 378.913L275.01 374.165L266.363 378.913H283.656ZM262.224 378.913L262.22 378.906L274.01 372.432V363.485H263.122C262.338 363.485 261.702 362.849 261.702 362.064V359.787L253.368 366.023C252.331 366.8 251.069 367.22 249.773 367.22H239.146V372.913C239.146 376.226 241.833 378.913 245.146 378.913H262.224ZM239.146 365.22H249.773C250.637 365.22 251.478 364.94 252.17 364.422L261.702 357.289V353.581H239.146V365.22ZM239.146 351.581H261.702V347.617L252.148 341.099C251.484 340.646 250.698 340.403 249.894 340.403H239.146V351.581ZM263.702 347.089V343.526H275.01H286.318V347.089V352.581V357.79V361.485H275.01H263.702V357.79V352.581V347.089Z" fill="url(#paint1_radial_505_1114)"/>
<defs>
<filter id="filter0_b_505_1114" x="176.277" y="194.631" width="535.643" height="358.773" filterUnits="userSpaceOnUse" color-interpolation-filters="sRGB">
<feFlood flood-opacity="0" result="BackgroundImageFix"/>
<feGaussianBlur in="BackgroundImageFix" stdDeviation="10"/>
<feComposite in2="SourceAlpha" operator="in" result="effect1_backgroundBlur_505_1114"/>
<feBlend mode="normal" in="SourceGraphic" in2="effect1_backgroundBlur_505_1114" result="shape"/>
</filter>
<filter id="filter1_d_505_1114" x="490.934" y="389.896" width="190.135" height="130.491" filterUnits="userSpaceOnUse" color-interpolation-filters="sRGB">
<feFlood flood-opacity="0" result="BackgroundImageFix"/>
<feColorMatrix in="SourceAlpha" type="matrix" values="0 0 0 0 0 0 0 0 0 0 0 0 0 0 0 0 0 0 127 0" result="hardAlpha"/>
<feOffset dy="4"/>
<feGaussianBlur stdDeviation="10"/>
<feComposite in2="hardAlpha" operator="out"/>
<feColorMatrix type="matrix" values="0 0 0 0 0.14902 0 0 0 0 0.32549 0 0 0 0 0.431373 0 0 0 0.2 0"/>
<feBlend mode="normal" in2="BackgroundImageFix" result="effect1_dropShadow_505_1114"/>
<feBlend mode="normal" in="SourceGraphic" in2="effect1_dropShadow_505_1114" result="shape"/>
</filter>
<filter id="filter2_d_505_1114" x="490.934" y="389.896" width="190.135" height="130.491" filterUnits="userSpaceOnUse" color-interpolation-filters="sRGB">
<feFlood flood-opacity="0" result="BackgroundImageFix"/>
<feColorMatrix in="SourceAlpha" type="matrix" values="0 0 0 0 0 0 0 0 0 0 0 0 0 0 0 0 0 0 127 0" result="hardAlpha"/>
<feOffset dy="4"/>
<feGaussianBlur stdDeviation="10"/>
<feComposite in2="hardAlpha" operator="out"/>
<feColorMatrix type="matrix" values="0 0 0 0 0.14902 0 0 0 0 0.32549 0 0 0 0 0.431373 0 0 0 0.2 0"/>
<feBlend mode="normal" in2="BackgroundImageFix" result="effect1_dropShadow_505_1114"/>
<feBlend mode="normal" in="SourceGraphic" in2="effect1_dropShadow_505_1114" result="shape"/>
</filter>
<radialGradient id="paint0_radial_505_1114" cx="0" cy="0" r="1" gradientUnits="userSpaceOnUse" gradientTransform="translate(358.173 367.857) rotate(76.7615) scale(375.992 503.55)">
<stop stop-color="#31B5FF"/>
<stop offset="1" stop-color="#31B5FF" stop-opacity="0"/>
</radialGradient>
<radialGradient id="paint1_radial_505_1114" cx="0" cy="0" r="1" gradientUnits="userSpaceOnUse" gradientTransform="translate(228.5 385.5) rotate(-36.5428) scale(122.602 117.562)">
<stop stop-color="white" stop-opacity="0.24"/>
<stop offset="1" stop-color="white" stop-opacity="0.08"/>
</radialGradient>
<clipPath id="clip0_505_1114">
<rect width="222.113" height="24.6792" fill="white" transform="translate(242 262)"/>
</clipPath>
</defs>
</svg>
