<svg width="499" height="498" viewBox="0 0 499 498" fill="none" xmlns="http://www.w3.org/2000/svg">
<path fill-rule="evenodd" clip-rule="evenodd" d="M207.018 5.22112C94.3285 26.1706 13.934 114.041 1.4787 229.874C0.329984 240.559 0.0965045 249.304 0.961932 249.304C1.82736 249.304 26.6103 252.801 56.0349 257.075C85.4594 261.35 112.207 264.847 115.472 264.847C120.578 264.847 121.409 262.503 121.409 248.076C121.409 212.335 140.9 172.69 169.779 149.701C187.838 135.323 202.426 128.671 225.45 124.309L245.931 120.43V96.1723C245.931 70.0997 249.8 64.0937 261.786 71.567C268.784 75.9316 276.934 73.2084 277.429 66.335C278.518 51.2516 273.593 46.1161 262.76 51.0465C248.935 57.3354 245.931 52.7873 245.931 25.5738V0.607809L237.37 0.887592C232.66 1.04303 219.003 2.99218 207.018 5.22112ZM255.27 21.949V43.7379L265.752 42.0406C274.303 40.6541 277.167 41.6768 281.317 47.5896C284.112 51.578 286.401 57.7146 286.401 61.2274C286.401 64.7403 284.112 70.8768 281.317 74.8653C277.167 80.778 274.303 81.8008 265.752 80.4143L255.27 78.717V99.5701V120.423L273.765 123.933C300.076 128.929 319.514 139.408 340.154 159.733C358.474 177.773 372.081 201.638 375.275 221.325C379.552 247.721 377.445 245.844 403.946 246.842L428.044 247.749V261.739C428.044 275.255 428.387 275.762 438.183 276.704C449.758 277.817 453.833 272.103 448.531 262.208C441.72 249.5 446.972 246.195 473.968 246.195H498.991L497.126 225.211C494.393 194.469 487.335 170.439 471.789 138.945C434.189 62.7725 360.547 12.0665 273.17 2.18392L255.27 0.160156V21.949ZM378.251 264.07C372.897 298.303 362.424 318.457 337.14 343.186C319.769 360.179 294.784 372.501 270.701 375.952L253.714 378.389L252.761 401.667C251.687 427.97 249.399 432.185 238.811 427.367C229.335 423.055 221.026 427.628 221.026 437.153C221.026 447.62 228.227 452.731 236.635 448.236C248.838 441.717 251.821 446.14 252.801 472.204L253.714 496.445L272.93 495.923C313.132 494.829 367.623 473.326 405.387 443.65C454.533 405.034 491.896 336.354 497.082 275.1L499 252.412H477.05H455.097L456.712 264.424C458.066 274.506 457.154 277.254 451.053 281.522C434.351 293.205 414.957 282.15 418.556 263.001L420.545 252.412H400.31H380.075L378.251 264.07ZM0 270.844C0 274.068 26.8812 459.321 29.7607 475.94L31.5912 486.522L57.5883 460.698L83.5823 434.878L93.0521 442.836C127.498 471.781 195.854 498 236.866 498H245.931V476.18C245.931 454.63 245.837 454.382 238.372 456.253C220.323 460.779 207.896 446.252 215.053 428.996C218.956 419.586 228.999 415.336 239.481 418.656C245.582 420.59 245.931 419.536 245.931 399.128V377.55L231.144 376.129C215.516 374.625 179.993 360.256 173.963 353.004C171.112 349.572 175.187 343.914 194.152 324.976C207.22 311.925 217.913 300.339 217.913 299.226C217.913 298.113 203.556 295.365 186.005 293.115C168.453 290.867 122.576 284.298 84.0523 278.519C8.60447 267.201 0 266.414 0 270.844Z" fill="#183341"/>
<path d="M380.3 92.7392L358.704 114.376L353.443 109.105L362.334 100.198L354.151 91.9995L345.26 100.907L340 95.6363L361.596 74L366.856 79.2704L358.396 87.7462L366.579 95.9446L375.039 87.4688L380.3 92.7392Z" fill="#EDEDED"/>
<path d="M370.069 126.255C368.388 124.57 367.229 122.69 366.593 120.615C365.978 118.56 365.947 116.475 366.501 114.358C367.075 112.263 368.254 110.321 370.039 108.533C371.802 106.766 373.74 105.605 375.853 105.05C377.986 104.475 380.088 104.506 382.159 105.143C384.231 105.78 386.107 106.941 387.789 108.626C389.471 110.311 390.629 112.191 391.265 114.266C391.901 116.341 391.932 118.447 391.357 120.584C390.804 122.701 389.645 124.642 387.881 126.409C386.117 128.177 384.159 129.337 382.005 129.892C379.893 130.447 377.791 130.396 375.699 129.738C373.628 129.101 371.751 127.94 370.069 126.255ZM374.622 121.694C375.627 122.701 376.847 123.184 378.283 123.142C379.739 123.122 381.154 122.423 382.528 121.047C383.902 119.67 384.61 118.262 384.651 116.824C384.713 115.406 384.241 114.194 383.236 113.187C382.21 112.16 380.99 111.677 379.575 111.739C378.18 111.78 376.786 112.499 375.391 113.896C374.017 115.273 373.289 116.66 373.207 118.057C373.146 119.475 373.617 120.687 374.622 121.694Z" fill="#EDEDED"/>
<path d="M410.114 120.267L387.35 143.075L382.089 137.805L404.854 114.997L410.114 120.267Z" fill="#EDEDED"/>
<path d="M398.729 137.217C400.493 135.449 402.37 134.227 404.359 133.549C406.369 132.891 408.307 132.778 410.173 133.21C412.04 133.641 413.68 134.566 415.095 135.984C416.223 137.114 417.013 138.377 417.464 139.775C417.936 141.192 418.038 142.569 417.772 143.905L425.74 135.922L431 141.192L408.235 164L402.975 158.73L405.436 156.264C404.123 156.593 402.759 156.541 401.344 156.11C399.95 155.699 398.647 154.887 397.437 153.675C396.022 152.257 395.099 150.613 394.669 148.744C394.259 146.853 394.382 144.901 395.038 142.888C395.735 140.874 396.966 138.984 398.729 137.217ZM411.558 150.131C412.87 148.816 413.537 147.408 413.557 145.908C413.598 144.429 413.096 143.165 412.05 142.117C411.004 141.069 409.732 140.555 408.235 140.576C406.779 140.597 405.395 141.264 404.082 142.579C402.77 143.894 402.083 145.302 402.021 146.802C402.001 148.302 402.513 149.576 403.559 150.624C404.605 151.672 405.867 152.175 407.343 152.134C408.84 152.113 410.245 151.446 411.558 150.131Z" fill="#EDEDED"/>
<path d="M98.5666 133.844C100.211 132.778 101.978 132.367 103.867 132.611C105.733 132.833 107.344 133.622 108.7 134.977C110.655 136.932 111.522 139.175 111.3 141.707C111.078 144.195 109.744 146.661 107.3 149.104L96.3999 160L73 136.61L83.5333 126.081C85.9111 123.704 88.3111 122.393 90.7333 122.149C93.1777 121.882 95.3333 122.682 97.1999 124.548C98.5777 125.925 99.3555 127.436 99.5333 129.079C99.7332 130.701 99.411 132.289 98.5666 133.844ZM88.1666 140.375L91.8999 136.643C92.8333 135.71 93.3444 134.799 93.4333 133.911C93.5222 132.978 93.1666 132.111 92.3666 131.312C91.5666 130.512 90.6999 130.157 89.7666 130.246C88.8555 130.312 87.9333 130.812 87 131.745L83.2666 135.477L88.1666 140.375ZM101.7 145.506C102.655 144.551 103.178 143.607 103.267 142.674C103.355 141.696 102.989 140.797 102.167 139.975C101.344 139.153 100.422 138.786 99.3999 138.875C98.3999 138.942 97.4221 139.453 96.4666 140.408L92.3333 144.54L97.4999 149.704L101.7 145.506Z" fill="#EDEDED"/>
<path d="M118.139 101.085L136.739 119.677L131.039 125.375L128.506 122.843C128.75 124.242 128.628 125.697 128.139 127.207C127.65 128.674 126.806 130.006 125.606 131.206C124.184 132.627 122.617 133.572 120.906 134.038C119.173 134.482 117.406 134.404 115.606 133.805C113.806 133.205 112.095 132.094 110.473 130.473L99.6059 119.611L105.273 113.946L115.373 124.042C116.617 125.286 117.906 125.93 119.239 125.975C120.573 126.019 121.784 125.497 122.873 124.409C123.984 123.298 124.517 122.076 124.472 120.743C124.428 119.411 123.784 118.122 122.539 116.878L112.439 106.782L118.139 101.085Z" fill="#EDEDED"/>
<path d="M141.233 78L157 117.084L150.867 123.215L145.667 109.487L120.133 99.0914L126.5 92.7273L142.433 100.058L135.067 84.1641L141.233 78Z" fill="#EDEDED"/>
<path d="M69.478 346.889L72.9609 334.912L71.7609 333.718L64.0049 341.44L59 336.457L79.5462 316L87.9462 324.363C89.5657 325.976 90.6584 327.627 91.2242 329.317C91.8096 331.027 91.8876 332.659 91.4584 334.213C91.0486 335.748 90.2389 337.117 89.0291 338.322C87.6633 339.682 86.0535 340.507 84.1999 340.799C82.3657 341.11 80.4731 340.741 78.5219 339.692L75.1267 352.514L69.478 346.889ZM75.3024 330.192L78.4048 333.281C79.3218 334.194 80.2292 334.65 81.1267 334.65C82.0438 334.67 82.9121 334.271 83.7316 333.455C84.5121 332.678 84.8926 331.833 84.873 330.92C84.873 330.026 84.4145 329.123 83.4974 328.21L80.395 325.121L75.3024 330.192Z" fill="#EDEDED"/>
<path d="M101.917 362.402C101.449 362.869 100.932 363.325 100.366 363.772L89.0392 352.494C88.1026 353.582 87.6441 354.68 87.6636 355.787C87.7221 356.895 88.1709 357.866 89.0099 358.701C90.2587 359.945 91.6538 360.285 93.1953 359.721L98.5221 365.025C97.1757 365.822 95.7123 366.288 94.1318 366.424C92.5709 366.579 91.0099 366.365 89.4489 365.783C87.888 365.2 86.4441 364.248 85.1172 362.927C83.5173 361.334 82.4343 359.576 81.8685 357.652C81.3026 355.729 81.3026 353.786 81.8685 351.824C82.4343 349.862 83.566 348.036 85.2636 346.346C86.9611 344.656 88.7855 343.519 90.7367 342.936C92.7075 342.373 94.6587 342.373 96.5904 342.936C98.5221 343.5 100.298 344.588 101.917 346.2C103.498 347.774 104.571 349.503 105.137 351.387C105.703 353.272 105.712 355.166 105.166 357.07C104.639 358.993 103.556 360.77 101.917 362.402ZM98.1123 355.991C98.9708 355.137 99.3611 354.165 99.283 353.077C99.205 351.989 98.7269 351.008 97.8489 350.134C97.0099 349.299 96.0538 348.832 94.9806 348.735C93.927 348.658 92.8831 348.998 91.8489 349.755L98.1123 355.991Z" fill="#EDEDED"/>
<path d="M115.153 364.448C116.401 364.176 117.689 364.235 119.016 364.623C120.343 365.012 121.582 365.779 122.733 366.925C124.079 368.266 124.957 369.82 125.367 371.588C125.777 373.356 125.66 375.182 125.016 377.066C124.392 378.97 123.24 380.758 121.562 382.428C119.884 384.099 118.079 385.255 116.148 385.896C114.255 386.537 112.411 386.663 110.616 386.275C108.84 385.867 107.279 384.993 105.933 383.652C104.801 382.525 104.031 381.292 103.621 379.951C103.231 378.63 103.162 377.358 103.416 376.134L93.3478 386.158L88.3429 381.175L112.46 357.163L117.465 362.146L115.153 364.448ZM116.47 377.358C117.718 376.114 118.343 374.793 118.343 373.395C118.382 371.996 117.894 370.791 116.879 369.781C115.884 368.79 114.674 368.305 113.25 368.324C111.845 368.363 110.518 369.004 109.27 370.247C108.021 371.491 107.377 372.812 107.338 374.211C107.318 375.629 107.806 376.833 108.801 377.824C109.796 378.815 111.006 379.3 112.431 379.281C113.874 379.242 115.221 378.601 116.47 377.358Z" fill="#EDEDED"/>
<path d="M139.817 400.138C139.349 400.604 138.832 401.06 138.266 401.507L126.939 390.23C126.003 391.318 125.544 392.415 125.564 393.523C125.622 394.63 126.071 395.601 126.91 396.437C128.159 397.68 129.554 398.02 131.095 397.457L136.422 402.76C135.076 403.557 133.612 404.023 132.032 404.159C130.471 404.314 128.91 404.101 127.349 403.518C125.788 402.935 124.344 401.983 123.017 400.662C121.417 399.069 120.334 397.311 119.768 395.388C119.203 393.464 119.203 391.522 119.768 389.559C120.334 387.597 121.466 385.771 123.164 384.081C124.861 382.391 126.685 381.254 128.637 380.671C130.607 380.108 132.559 380.108 134.49 380.671C136.422 381.235 138.198 382.323 139.817 383.935C141.398 385.509 142.471 387.238 143.037 389.122C143.602 391.007 143.612 392.901 143.066 394.805C142.539 396.728 141.456 398.506 139.817 400.138ZM136.012 393.727C136.871 392.872 137.261 391.9 137.183 390.812C137.105 389.725 136.627 388.743 135.749 387.869C134.91 387.034 133.954 386.568 132.881 386.47C131.827 386.393 130.783 386.733 129.749 387.49L136.012 393.727Z" fill="#EDEDED"/>
<path d="M141.228 402.009C142.906 400.338 144.692 399.182 146.584 398.541C148.496 397.919 150.34 397.812 152.116 398.22C153.892 398.628 155.452 399.503 156.799 400.843C157.95 401.989 158.721 403.223 159.111 404.544C159.521 405.884 159.579 407.167 159.287 408.391L161.599 406.088L166.604 411.072L150.272 427.332L145.267 422.349L147.579 420.047C146.331 420.319 145.033 420.251 143.687 419.843C142.36 419.454 141.121 418.687 139.97 417.541C138.643 416.22 137.775 414.675 137.365 412.907C136.975 411.12 137.092 409.274 137.716 407.371C138.379 405.467 139.55 403.679 141.228 402.009ZM153.433 414.219C154.682 412.975 155.316 411.645 155.335 410.226C155.374 408.828 154.896 407.633 153.901 406.642C152.906 405.651 151.696 405.166 150.272 405.185C148.887 405.204 147.57 405.836 146.321 407.079C145.072 408.323 144.418 409.653 144.36 411.072C144.34 412.49 144.828 413.694 145.823 414.685C146.818 415.676 148.018 416.152 149.423 416.113C150.848 416.093 152.184 415.462 153.433 414.219Z" fill="#EDEDED"/>
<path d="M167.239 435.775L162.995 440L160.449 437.465C158.634 435.658 157.659 433.812 157.522 431.928C157.405 430.024 158.351 428.072 160.361 426.071L166.859 419.601L164.868 417.62L169.024 413.482L171.015 415.463L174.995 411.5L180 416.483L176.02 420.446L179.298 423.71L175.141 427.848L171.863 424.584L165.307 431.112C164.82 431.598 164.585 432.064 164.605 432.511C164.624 432.958 164.907 433.453 165.454 433.997L167.239 435.775Z" fill="#EDEDED"/>
<path d="M347.024 396.665L351.591 401.215L358.956 393.877L363.202 398.107L355.836 405.445L360.789 410.379L369.12 402.08L373.526 406.47L359.696 420.248L337.117 397.754L350.947 383.976L355.354 388.366L347.024 396.665Z" fill="#EDEDED"/>
<path d="M366.998 395.03C365.153 393.193 363.878 391.239 363.17 389.166C362.484 387.073 362.366 385.054 362.816 383.11C363.267 381.167 364.231 379.458 365.711 377.984C366.976 376.723 368.338 375.88 369.796 375.452C371.275 375.004 372.69 374.94 374.041 375.26L371.5 372.729L377 367.249L394.948 385.129L389.448 390.608L386.907 388.077C387.207 389.444 387.132 390.865 386.682 392.339C386.253 393.791 385.406 395.148 384.141 396.408C382.683 397.861 380.978 398.811 379.027 399.26C377.054 399.687 375.017 399.559 372.916 398.875C370.814 398.149 368.842 396.867 366.998 395.03ZM380.474 381.669C379.102 380.301 377.633 379.607 376.068 379.586C374.524 379.543 373.205 380.066 372.112 381.156C371.018 382.245 370.482 383.57 370.503 385.129C370.525 386.646 371.222 388.088 372.594 389.455C373.966 390.822 375.435 391.538 377 391.602C378.566 391.623 379.895 391.089 380.989 390C382.082 388.91 382.608 387.596 382.565 386.058C382.543 384.499 381.846 383.036 380.474 381.669Z" fill="#EDEDED"/>
<path d="M389.47 360.786C389.127 359.163 389.16 357.593 389.567 356.076C389.953 354.538 390.736 353.181 391.915 352.007L397.736 357.806L396.225 359.312C394.852 360.679 394.123 362.004 394.038 363.285C393.93 364.546 394.617 365.913 396.096 367.387L404.426 375.686L398.927 381.165L380.979 363.285L386.479 357.806L389.47 360.786Z" fill="#EDEDED"/>
<path d="M405.479 338.493C407.581 336.4 409.939 335.417 412.555 335.545C415.171 335.631 417.669 336.859 420.049 339.23L430.535 349.676L425.067 355.123L415.321 345.414C414.121 344.218 412.877 343.599 411.59 343.556C410.304 343.513 409.135 344.015 408.085 345.062C407.034 346.109 406.53 347.273 406.573 348.554C406.616 349.836 407.238 351.075 408.438 352.271L418.184 361.98L412.684 367.46L394.737 349.58L400.237 344.101L402.617 346.472C402.381 345.126 402.51 343.759 403.003 342.37C403.474 340.96 404.3 339.668 405.479 338.493Z" fill="#EDEDED"/>
</svg>
