<svg width="50" height="50" viewBox="0 0 50 50" fill="none" xmlns="http://www.w3.org/2000/svg">
<path d="M25 0C11.1826 0 0 11.1814 0 25C0 38.8175 11.1814 50 25 50C38.8176 50 50 38.8186 50 25C50 11.1824 38.8186 0 25 0ZM26.2317 26.0359L19.4173 34.1378C18.8451 34.8181 17.8296 34.9056 17.1496 34.3335C16.4694 33.7613 16.3817 32.7461 16.9539 32.0659L23.3906 24.4131V6.22607C23.3906 5.33725 24.1112 4.61666 25 4.61666C25.8888 4.61666 26.6094 5.33725 26.6094 6.22607V25C26.6094 25.379 26.4756 25.7459 26.2317 26.0359Z" fill="white"/>
</svg>
