<svg width="201" height="24" viewBox="0 0 201 24" fill="none" xmlns="http://www.w3.org/2000/svg">
<path d="M0 4.95234C0 5.03418 0.0272819 5.06148 0.111856 5.06148H18.9855C19.6501 5.06148 19.9557 5.17259 20.0941 5.36631C20.2305 5.50516 20.3696 5.78269 20.3696 6.44764V14.6222C20.3696 15.7033 20.0649 15.9813 18.9855 15.9813H0.111856C0.0272819 15.9813 0 16.0089 0 16.0932V19.1408C0 19.7782 0.443702 20.2227 1.08136 20.2227H19.6229C23.1698 20.2227 24.9431 18.4493 24.9431 14.873V6.17012C24.9431 2.59622 23.1698 0.822634 19.6229 0.822634H1.08136C0.858385 0.822634 0.664689 0.877428 0.471233 1.01635L0.250745 1.20955C0.166419 1.29139 0.111856 1.40301 0.0843261 1.48759C0.0545638 1.51482 0.0545638 1.54212 0.0545638 1.59673C0.0272819 1.79241 0 1.87425 0 1.90149V4.95234Z" fill="white"/>
<path d="M34.043 19.1681C34.043 19.3891 34.1273 19.6939 34.3482 19.9173C34.3755 19.9992 34.4321 19.9992 34.4593 20.0265C34.6531 20.1656 34.8741 20.2227 35.124 20.2227H55.3279C55.5509 20.2227 55.8264 20.1954 56.0492 19.9992L56.131 19.9173C56.3544 19.6666 56.4092 19.3618 56.4092 19.1408V17.0626C56.4092 16.8962 56.4092 16.7846 56.382 16.7574C56.2974 16.2316 55.7989 15.9813 55.3279 15.9813H35.0968C34.7349 15.9813 34.5413 16.0932 34.2937 16.3407C34.1546 16.5369 34.0703 16.7574 34.0703 17.0056C34.043 17.0354 34.043 17.1445 34.043 17.3402V19.1681ZM34.0703 1.81955C34.0703 1.93117 34.043 2.04057 34.043 2.15219V4.00933C34.043 4.23029 34.0975 4.53511 34.3482 4.78337C34.4321 4.81314 34.4028 4.84038 34.4866 4.86768C34.6804 5.0614 34.9311 5.0614 35.124 5.0614H55.216C55.439 5.0614 55.7443 5.0068 55.9926 4.78337C56.2428 4.53511 56.2974 4.23029 56.2974 3.97956V1.90139C56.2974 1.87415 56.2701 1.79231 56.2428 1.59663C56.1582 1.23675 56.0219 1.12488 55.717 0.931927C55.5782 0.850086 55.4117 0.822529 55.216 0.822529H35.2632C35.0402 0.792749 34.7077 0.850082 34.4593 1.07027L34.321 1.18189C34.1273 1.37561 34.0975 1.62583 34.0703 1.81955ZM34.043 11.7402C34.0703 11.9909 34.1818 12.184 34.3482 12.3231C34.3755 12.4049 34.4321 12.4049 34.4593 12.4347C34.6804 12.6284 34.9311 12.6284 35.124 12.6284H54.9405C55.6054 12.6284 56.0219 12.2112 56.0219 11.5465V9.4957C56.0219 9.32929 56.0219 9.21767 55.9926 9.19036C55.9653 8.99716 55.7989 8.69189 55.6054 8.60998C55.4117 8.4143 55.1615 8.4143 54.9678 8.4143H35.3178C35.0695 8.38706 34.7349 8.4143 34.4866 8.63728L34.3482 8.74643C34.1818 8.94262 34.0975 9.16357 34.0975 9.35652L34.043 9.68935V11.7402Z" fill="white"/>
<path d="M65.5078 14.9844C65.5078 18.5578 67.5015 20.3311 70.9662 20.3311H80.8894L81.666 22.3278C81.805 22.6872 81.9415 23.02 82.0526 23.3522C82.0799 23.3819 82.1371 23.4092 82.1644 23.4092H86.8768C87.0133 23.4092 87.0431 23.3522 86.986 23.2701L83.4666 14.2899C83.4393 14.2899 83.412 14.2626 83.3847 14.2626H78.6723C78.5605 14.2626 78.5332 14.3197 78.5605 14.4283C78.7542 14.8727 78.9777 15.4283 79.2253 16.093H71.6608C70.9662 16.093 70.6069 15.9266 70.4132 15.7304C70.2202 15.5939 70.1085 15.2321 70.1085 14.7063V6.33553C70.1085 5.80975 70.2202 5.45039 70.4132 5.31147C70.6069 5.11776 70.9662 4.97941 71.6608 4.97941H83.9104C84.9917 4.97941 85.4336 5.2269 85.4336 6.33553V14.7063C85.4336 15.0112 85.379 15.2892 85.2971 15.5374C85.2672 15.5647 85.2672 15.5939 85.2971 15.6212L86.986 19.8325C87.0133 19.8899 87.0431 19.9171 87.125 19.9171C87.6806 19.7235 88.0126 19.4732 88.6501 18.9204C89.6469 17.9477 90.0342 16.6461 90.0342 14.9844V6.08804C90.0342 2.51141 88.0672 0.738075 84.6025 0.738075H70.9662C67.3929 0.738075 65.5078 2.51141 65.5078 6.08804V14.9844Z" fill="white"/>
<path d="M100.214 0.822634C99.5766 0.822634 99.1328 1.26409 99.1328 1.90149V14.873C99.1328 18.3377 100.879 20.2227 104.455 20.2227H118.339C121.888 20.2227 123.662 18.4493 123.662 14.873V1.90149C123.662 1.68054 123.607 1.37571 123.384 1.12498C123.135 0.877428 122.831 0.822634 122.58 0.822634H120.142C119.505 0.822634 119.06 1.26409 119.06 1.90149V14.6222C119.06 15.7033 118.756 15.9813 117.674 15.9813H105.147C104.066 15.9813 103.733 15.7033 103.733 14.6222V1.90149C103.733 1.68054 103.679 1.37571 103.428 1.12498C103.208 0.877428 102.902 0.822634 102.655 0.822634H100.214Z" fill="white"/>
<path d="M133.843 0.822634C133.206 0.822634 132.762 1.26409 132.762 1.90149V19.1408C132.762 19.7782 133.206 20.2227 133.843 20.2227H136.281C136.531 20.2227 136.837 20.1656 137.057 19.9173C137.305 19.6666 137.362 19.3618 137.362 19.1408V1.90149C137.362 1.68054 137.305 1.37571 137.057 1.12498C136.837 0.877428 136.531 0.822634 136.281 0.822634H133.843Z" fill="white"/>
<path d="M146.159 0.822634C145.522 0.822634 145.078 1.26409 145.078 1.90149V3.97964C145.078 4.23037 145.133 4.5352 145.384 4.78345C145.634 5.00688 145.937 5.06148 146.159 5.06148H154.835V19.1408C154.835 19.3618 154.89 19.6666 155.138 19.9173C155.361 20.1656 155.666 20.2227 155.914 20.2227H158.297C158.548 20.2227 158.853 20.1656 159.074 19.9173C159.324 19.6666 159.379 19.3618 159.379 19.1408V5.06148H168.027C168.665 5.06148 169.136 4.64682 169.136 3.97964V1.90149C169.136 1.65323 169.024 1.37571 168.831 1.12498C168.58 0.90473 168.275 0.822634 168.027 0.822634H146.159Z" fill="white"/>
<path d="M175.575 1.40301C175.491 1.59673 175.491 1.76238 175.547 1.90149C175.575 2.15228 175.714 2.31793 175.853 2.45704C175.88 2.45704 178.206 5.06148 180.647 7.63811L185.468 12.8486V19.1408C185.468 19.7782 185.912 20.2227 186.549 20.2227H188.933C189.183 20.2227 189.486 20.1656 189.709 19.9173C189.957 19.6666 190.015 19.3618 190.015 19.1408V12.8486L199.687 2.4298C199.796 2.31793 199.935 2.15228 199.963 1.90149C200.019 1.76238 200.019 1.59673 199.935 1.40301C199.853 1.20955 199.714 1.09768 199.603 1.01635C199.409 0.877428 199.216 0.822634 198.965 0.822634H196.11C195.473 0.822634 195.141 1.182 194.92 1.40301L193.811 2.62345L191.343 5.28446L187.77 9.13639L180.59 1.43025C180.342 1.182 180.01 0.822634 179.372 0.822634H176.517C176.1 0.822634 175.714 1.04314 175.575 1.40301Z" fill="white"/>
</svg>
