<svg width="570" height="524" viewBox="0 0 570 524" fill="none" xmlns="http://www.w3.org/2000/svg">
<g filter="url(#filter0_bd_2004_28944)">
<rect x="25" y="25" width="713.393" height="462.717" rx="17.6739" fill="#0A212E" shape-rendering="crispEdges"/>
<rect x="25" y="25" width="713.393" height="462.717" rx="17.6739" stroke="white" stroke-opacity="0.2" stroke-width="1.17826" shape-rendering="crispEdges"/>
</g>
<rect x="174.812" y="46.4019" width="1.42679" height="420.188" rx="0.713393" fill="white" fill-opacity="0.1"/>
<rect x="381.695" y="46.4019" width="1.42679" height="420.188" rx="0.713393" fill="white" fill-opacity="0.1"/>
<circle cx="46.7606" cy="58.8866" r="5.35045" fill="#FF5F56"/>
<circle cx="68.1629" cy="58.8866" r="5.35045" fill="#F8D345"/>
<circle cx="89.5653" cy="58.8866" r="5.35045" fill="#89D85D"/>
<rect x="34.9883" y="74.938" width="129.837" height="12.1277" rx="6.06384" fill="#726C86"/>
<rect x="34.9883" y="96.3398" width="74.1929" height="12.1277" rx="6.06384" fill="#726C86" fill-opacity="0.5"/>
<rect x="187.656" y="53.5361" width="74.1929" height="12.1277" rx="6.06384" fill="#726C86" fill-opacity="0.5"/>
<rect x="34.9883" y="117.742" width="92.7411" height="12.1277" rx="6.06384" fill="#726C86" fill-opacity="0.5"/>
<rect x="34.9883" y="139.144" width="83.467" height="12.1277" rx="6.06384" fill="#726C86" fill-opacity="0.5"/>
<rect x="34.9883" y="159.832" width="59.925" height="12.1277" rx="6.06384" fill="#726C86" fill-opacity="0.5"/>
<g filter="url(#filter1_b_2004_28944)">
<rect x="186.227" y="88.4922" width="185.482" height="49.9375" rx="5.89129" fill="#50496A" fill-opacity="0.2"/>
</g>
<rect x="335.895" y="107.04" width="30.8186" height="5.70714" rx="2.85357" fill="#726C86"/>
<rect x="323.91" y="121.308" width="42.8036" height="5.70714" rx="2.85357" fill="#69C89A"/>
<rect x="191.219" y="102.76" width="29.2491" height="7.13393" rx="3.56696" fill="#726C86"/>
<rect x="191.219" y="117.028" width="45.6571" height="7.13393" rx="3.56696" fill="#4B4257"/>
<path d="M253.969 112.289C251.209 113.378 243.297 121.359 243.297 121.359V134.852C266.601 134.595 313.209 134.235 313.209 134.852V92.0591C309.709 95.6188 300.724 96.4866 295.526 97.5018C289.806 98.6187 289.062 104.065 284.849 105.742C280.392 107.517 276.133 102.51 272.875 105.742C270.624 107.976 267.913 110.572 265.145 112.289C262.362 114.014 257.07 111.065 253.969 112.289Z" fill="url(#paint0_linear_2004_28944)"/>
<path d="M243.707 121.441C243.707 121.441 251.207 113.372 253.968 112.283C257.069 111.059 262.361 114.008 265.143 112.283C267.912 110.567 270.622 107.972 272.874 105.739C276.132 102.508 280.39 107.513 284.848 105.739C289.061 104.062 290.216 98.6168 295.936 97.5003C301.134 96.4854 309.297 95.9805 312.797 92.4219" stroke="#69C89A" stroke-width="1.76739" stroke-linecap="round" stroke-linejoin="round"/>
<g filter="url(#filter2_b_2004_28944)">
<rect x="186.227" y="152.697" width="185.482" height="49.9375" rx="5.89129" fill="#50496A" fill-opacity="0.2"/>
</g>
<rect x="335.895" y="171.246" width="30.8186" height="5.70714" rx="2.85357" fill="#726C86"/>
<rect x="323.91" y="185.514" width="42.8036" height="5.70714" rx="2.85357" fill="#FF5F56"/>
<rect x="191.219" y="166.965" width="29.2491" height="7.13393" rx="3.56696" fill="#726C86"/>
<rect x="191.219" y="181.233" width="45.6571" height="7.13393" rx="3.56696" fill="#4B4257"/>
<path d="M253.969 176.494C251.209 177.584 243.297 185.564 243.297 185.564V199.057C266.601 198.8 313.209 198.441 313.209 199.057L313.209 160.901C309.709 164.461 302 163.453 296.801 164.468C291.082 165.585 289.243 169.925 285.03 171.602C280.572 173.377 274.734 168.37 271.476 171.602C269.224 173.836 268.979 180.52 265.769 181.233C262.573 181.943 257.07 175.27 253.969 176.494Z" fill="url(#paint1_linear_2004_28944)"/>
<path d="M243.707 185.646C243.707 185.646 251.207 177.578 253.968 176.488C257.069 175.264 263.698 182.958 266.481 181.233C269.249 179.517 268.866 173.835 271.118 171.602C274.376 168.371 281.285 173.377 285.743 171.602C289.955 169.925 291.437 165.228 297.157 164.112C302.356 163.097 309.352 164.46 312.852 160.901" stroke="#FF5F56" stroke-width="1.76739" stroke-linecap="round" stroke-linejoin="round"/>
<g filter="url(#filter3_b_2004_28944)">
<rect x="186.227" y="216.902" width="185.482" height="49.9375" rx="5.89129" fill="#50496A" fill-opacity="0.2"/>
</g>
<rect x="335.895" y="235.45" width="30.8186" height="5.70714" rx="2.85357" fill="#726C86"/>
<rect x="323.91" y="249.718" width="42.8036" height="5.70714" rx="2.85357" fill="#69C89A"/>
<rect x="191.219" y="231.17" width="29.2491" height="7.13393" rx="3.56696" fill="#726C86"/>
<rect x="191.219" y="245.438" width="45.6571" height="7.13393" rx="3.56696" fill="#4B4257"/>
<path d="M253.969 240.699C251.209 241.788 243.297 249.769 243.297 249.769V263.262C266.601 263.005 313.209 262.645 313.209 263.262V220.469C309.709 224.028 300.724 224.896 295.526 225.911C289.806 227.028 289.062 232.475 284.849 234.152C280.392 235.927 276.133 230.92 272.875 234.152C270.624 236.386 267.913 238.982 265.145 240.699C262.362 242.424 257.07 239.474 253.969 240.699Z" fill="url(#paint2_linear_2004_28944)"/>
<path d="M243.707 249.851C243.707 249.851 251.207 241.782 253.968 240.693C257.069 239.469 262.361 242.418 265.143 240.693C267.912 238.977 270.622 236.381 272.874 234.148C276.132 230.917 280.39 235.923 284.848 234.148C289.061 232.471 290.216 227.026 295.936 225.91C301.134 224.895 309.297 224.39 312.797 220.832" stroke="#69C89A" stroke-width="1.76739" stroke-linecap="round" stroke-linejoin="round"/>
<g filter="url(#filter4_b_2004_28944)">
<rect x="186.227" y="281.108" width="185.482" height="49.9375" rx="5.89129" fill="#50496A" fill-opacity="0.2"/>
</g>
<rect x="335.895" y="299.656" width="30.8186" height="5.70714" rx="2.85357" fill="#726C86"/>
<rect x="323.91" y="313.924" width="42.8036" height="5.70714" rx="2.85357" fill="#FF5F56"/>
<rect x="191.219" y="295.376" width="29.2491" height="7.13393" rx="3.56696" fill="#726C86"/>
<rect x="191.219" y="309.644" width="45.6571" height="7.13393" rx="3.56696" fill="#4B4257"/>
<path d="M253.969 304.904C251.209 305.994 243.297 313.974 243.297 313.974V327.468C266.601 327.211 313.209 326.851 313.209 327.468L313.209 289.312C309.709 292.871 302 291.863 296.801 292.878C291.082 293.995 289.243 298.335 285.03 300.012C280.572 301.787 274.734 296.781 271.476 300.012C269.224 302.246 268.979 308.93 265.769 309.643C262.573 310.353 257.07 303.68 253.969 304.904Z" fill="url(#paint3_linear_2004_28944)"/>
<path d="M243.707 314.057C243.707 314.057 251.207 305.988 253.968 304.899C257.069 303.675 263.698 311.368 266.481 309.643C269.249 307.927 268.866 302.246 271.118 300.012C274.376 296.781 281.285 301.787 285.743 300.012C289.955 298.336 291.437 293.638 297.157 292.522C302.356 291.507 309.352 292.87 312.852 289.312" stroke="#FF5F56" stroke-width="1.76739" stroke-linecap="round" stroke-linejoin="round"/>
<g filter="url(#filter5_b_2004_28944)">
<rect x="186.227" y="345.313" width="185.482" height="49.9375" rx="5.89129" fill="#50496A" fill-opacity="0.2"/>
</g>
<rect x="335.895" y="363.861" width="30.8186" height="5.70714" rx="2.85357" fill="#726C86"/>
<rect x="323.91" y="378.129" width="42.8036" height="5.70714" rx="2.85357" fill="#69C89A"/>
<rect x="191.219" y="359.581" width="29.2491" height="7.13393" rx="3.56696" fill="#726C86"/>
<rect x="191.219" y="373.849" width="45.6571" height="7.13393" rx="3.56696" fill="#4B4257"/>
<path d="M253.969 369.11C251.209 370.2 243.297 378.18 243.297 378.18V391.674C266.601 391.417 313.209 391.057 313.209 391.674V348.88C309.709 352.44 300.724 353.308 295.526 354.323C289.806 355.44 289.062 360.886 284.849 362.564C280.392 364.339 276.133 359.332 272.875 362.564C270.624 364.797 267.913 367.394 265.145 369.11C262.362 370.836 257.07 367.886 253.969 369.11Z" fill="url(#paint4_linear_2004_28944)"/>
<path d="M243.707 378.263C243.707 378.263 251.207 370.194 253.968 369.104C257.069 367.881 262.361 370.829 265.143 369.104C267.912 367.389 270.622 364.793 272.874 362.56C276.132 359.329 280.39 364.334 284.848 362.56C289.061 360.883 290.216 355.438 295.936 354.322C301.134 353.307 309.297 352.802 312.797 349.243" stroke="#69C89A" stroke-width="1.76739" stroke-linecap="round" stroke-linejoin="round"/>
<g filter="url(#filter6_b_2004_28944)">
<rect x="186.227" y="409.519" width="185.482" height="49.9375" rx="5.89129" fill="#50496A" fill-opacity="0.2"/>
</g>
<rect x="335.895" y="428.067" width="30.8186" height="5.70714" rx="2.85357" fill="#726C86"/>
<rect x="323.91" y="442.335" width="42.8036" height="5.70714" rx="2.85357" fill="#FF5F56"/>
<rect x="191.219" y="423.786" width="29.2491" height="7.13393" rx="3.56696" fill="#726C86"/>
<rect x="191.219" y="438.054" width="45.6571" height="7.13393" rx="3.56696" fill="#4B4257"/>
<path d="M253.969 433.316C251.209 434.405 243.297 442.386 243.297 442.386V455.879C266.601 455.622 313.209 455.262 313.209 455.879L313.209 417.723C309.709 421.283 302 420.275 296.801 421.29C291.082 422.407 289.243 426.747 285.03 428.424C280.572 430.199 274.734 425.192 271.476 428.424C269.224 430.658 268.979 437.341 265.769 438.055C262.573 438.765 257.07 432.092 253.969 433.316Z" fill="url(#paint5_linear_2004_28944)"/>
<path d="M243.707 442.468C243.707 442.468 251.207 434.399 253.968 433.31C257.069 432.086 263.698 439.779 266.481 438.054C269.249 436.338 268.866 430.657 271.118 428.424C274.376 425.193 281.285 430.198 285.743 428.424C289.955 426.747 291.437 422.049 297.157 420.933C302.356 419.918 309.352 421.281 312.852 417.723" stroke="#FF5F56" stroke-width="1.76739" stroke-linecap="round" stroke-linejoin="round"/>
<rect x="399.531" y="52.1084" width="134.831" height="12.1277" rx="6.06384" fill="#726C86" fill-opacity="0.5"/>
<rect x="399.531" y="364.575" width="57.0714" height="12.1277" rx="6.06384" fill="#726C86" fill-opacity="0.5"/>
<rect x="513.672" y="364.575" width="57.0714" height="12.1277" rx="6.06384" fill="#726C86" fill-opacity="0.5"/>
<g filter="url(#filter7_b_2004_28944)">
<rect x="399.531" y="88.4922" width="318.887" height="249.688" rx="11.7826" fill="#50496A" fill-opacity="0.2"/>
</g>
<rect x="557.906" y="109.181" width="35.6696" height="12.1277" rx="6.06384" fill="#726C86" fill-opacity="0.5"/>
<rect x="520.809" y="281.108" width="24.9687" height="14.2679" rx="2.94564" fill="#726C86" fill-opacity="0.5"/>
<rect x="418.082" y="281.107" width="24.9687" height="14.2679" rx="2.94564" fill="#726C86" fill-opacity="0.5"/>
<rect x="469.445" y="281.107" width="24.9687" height="14.2679" rx="2.94564" fill="#726C86" fill-opacity="0.5"/>
<rect x="430.207" y="159.832" width="1.17826" height="88.3693" rx="0.589129" fill="white" fill-opacity="0.1"/>
<rect x="472.625" y="159.832" width="1.17826" height="88.3693" rx="0.589129" fill="white" fill-opacity="0.1"/>
<rect x="515.043" y="159.832" width="1.17826" height="88.3693" rx="0.589129" fill="white" fill-opacity="0.1"/>
<rect x="557.461" y="159.832" width="1.17826" height="88.3693" rx="0.589129" fill="white" fill-opacity="0.1"/>
<path d="M450.827 200.187C442.158 202.232 438.98 205.132 430.207 206.667V241.72H642.293V163.661C635.049 164.82 629.835 173.232 621.968 176.621C613.837 180.125 606.213 172.653 599.876 176.621C590.431 182.537 589.089 171.968 578.962 176.621C570.83 180.358 564.928 185.381 555.986 185.753C548.231 186.076 541.224 180.844 533.894 183.396C527.77 185.529 520.629 186.292 515.042 189.582C508.943 193.174 497.881 189.067 491.182 191.35C483.938 193.818 480.667 198.452 473.213 200.187C464.124 202.302 459.909 198.044 450.827 200.187Z" fill="url(#paint6_linear_2004_28944)"/>
<path d="M430.207 206.667C438.98 205.132 442.158 202.232 450.827 200.187C459.909 198.044 464.124 202.302 473.213 200.187C480.667 198.452 483.938 193.818 491.182 191.35C497.881 189.067 508.943 193.174 515.042 189.582C520.629 186.292 527.77 185.529 533.894 183.396C541.224 180.844 548.231 186.076 555.986 185.753C564.928 185.381 570.83 180.358 578.962 176.621C589.089 171.968 590.431 182.537 599.876 176.621C606.213 172.653 613.837 180.125 621.968 176.621C629.835 173.232 635.049 164.82 642.293 163.661" stroke="#69C89A" stroke-width="1.76739"/>
<rect x="399.531" y="395.251" width="89.1741" height="10.7009" rx="5.35045" fill="#3A3342"/>
<rect x="513.672" y="395.251" width="89.1741" height="10.7009" rx="5.35045" fill="#3A3342"/>
<rect x="399.531" y="420.22" width="76.333" height="10.7009" rx="5.35045" fill="#3A3342"/>
<rect x="513.672" y="420.22" width="76.333" height="10.7009" rx="5.35045" fill="#3A3342"/>
<rect x="399.531" y="445.188" width="52.0777" height="10.7009" rx="5.35045" fill="#3A3342"/>
<rect x="513.672" y="445.188" width="52.0777" height="10.7009" rx="5.35045" fill="#3A3342"/>
<defs>
<filter id="filter0_bd_2004_28944" x="-34.5017" y="-34.5022" width="832.397" height="581.721" filterUnits="userSpaceOnUse" color-interpolation-filters="sRGB">
<feFlood flood-opacity="0" result="BackgroundImageFix"/>
<feGaussianBlur in="BackgroundImageFix" stdDeviation="29.4564"/>
<feComposite in2="SourceAlpha" operator="in" result="effect1_backgroundBlur_2004_28944"/>
<feColorMatrix in="SourceAlpha" type="matrix" values="0 0 0 0 0 0 0 0 0 0 0 0 0 0 0 0 0 0 127 0" result="hardAlpha"/>
<feOffset dx="5.89129" dy="5.89129"/>
<feGaussianBlur stdDeviation="14.7282"/>
<feComposite in2="hardAlpha" operator="out"/>
<feColorMatrix type="matrix" values="0 0 0 0 0 0 0 0 0 0 0 0 0 0 0 0 0 0 0.5 0"/>
<feBlend mode="normal" in2="effect1_backgroundBlur_2004_28944" result="effect2_dropShadow_2004_28944"/>
<feBlend mode="normal" in="SourceGraphic" in2="effect2_dropShadow_2004_28944" result="shape"/>
</filter>
<filter id="filter1_b_2004_28944" x="180.335" y="82.6009" width="197.265" height="61.7201" filterUnits="userSpaceOnUse" color-interpolation-filters="sRGB">
<feFlood flood-opacity="0" result="BackgroundImageFix"/>
<feGaussianBlur in="BackgroundImageFix" stdDeviation="2.94564"/>
<feComposite in2="SourceAlpha" operator="in" result="effect1_backgroundBlur_2004_28944"/>
<feBlend mode="normal" in="SourceGraphic" in2="effect1_backgroundBlur_2004_28944" result="shape"/>
</filter>
<filter id="filter2_b_2004_28944" x="180.335" y="146.806" width="197.265" height="61.7201" filterUnits="userSpaceOnUse" color-interpolation-filters="sRGB">
<feFlood flood-opacity="0" result="BackgroundImageFix"/>
<feGaussianBlur in="BackgroundImageFix" stdDeviation="2.94564"/>
<feComposite in2="SourceAlpha" operator="in" result="effect1_backgroundBlur_2004_28944"/>
<feBlend mode="normal" in="SourceGraphic" in2="effect1_backgroundBlur_2004_28944" result="shape"/>
</filter>
<filter id="filter3_b_2004_28944" x="180.335" y="211.011" width="197.265" height="61.7201" filterUnits="userSpaceOnUse" color-interpolation-filters="sRGB">
<feFlood flood-opacity="0" result="BackgroundImageFix"/>
<feGaussianBlur in="BackgroundImageFix" stdDeviation="2.94564"/>
<feComposite in2="SourceAlpha" operator="in" result="effect1_backgroundBlur_2004_28944"/>
<feBlend mode="normal" in="SourceGraphic" in2="effect1_backgroundBlur_2004_28944" result="shape"/>
</filter>
<filter id="filter4_b_2004_28944" x="180.335" y="275.217" width="197.265" height="61.7201" filterUnits="userSpaceOnUse" color-interpolation-filters="sRGB">
<feFlood flood-opacity="0" result="BackgroundImageFix"/>
<feGaussianBlur in="BackgroundImageFix" stdDeviation="2.94564"/>
<feComposite in2="SourceAlpha" operator="in" result="effect1_backgroundBlur_2004_28944"/>
<feBlend mode="normal" in="SourceGraphic" in2="effect1_backgroundBlur_2004_28944" result="shape"/>
</filter>
<filter id="filter5_b_2004_28944" x="180.335" y="339.422" width="197.265" height="61.7201" filterUnits="userSpaceOnUse" color-interpolation-filters="sRGB">
<feFlood flood-opacity="0" result="BackgroundImageFix"/>
<feGaussianBlur in="BackgroundImageFix" stdDeviation="2.94564"/>
<feComposite in2="SourceAlpha" operator="in" result="effect1_backgroundBlur_2004_28944"/>
<feBlend mode="normal" in="SourceGraphic" in2="effect1_backgroundBlur_2004_28944" result="shape"/>
</filter>
<filter id="filter6_b_2004_28944" x="180.335" y="403.627" width="197.265" height="61.7201" filterUnits="userSpaceOnUse" color-interpolation-filters="sRGB">
<feFlood flood-opacity="0" result="BackgroundImageFix"/>
<feGaussianBlur in="BackgroundImageFix" stdDeviation="2.94564"/>
<feComposite in2="SourceAlpha" operator="in" result="effect1_backgroundBlur_2004_28944"/>
<feBlend mode="normal" in="SourceGraphic" in2="effect1_backgroundBlur_2004_28944" result="shape"/>
</filter>
<filter id="filter7_b_2004_28944" x="393.64" y="82.6009" width="330.669" height="261.47" filterUnits="userSpaceOnUse" color-interpolation-filters="sRGB">
<feFlood flood-opacity="0" result="BackgroundImageFix"/>
<feGaussianBlur in="BackgroundImageFix" stdDeviation="2.94564"/>
<feComposite in2="SourceAlpha" operator="in" result="effect1_backgroundBlur_2004_28944"/>
<feBlend mode="normal" in="SourceGraphic" in2="effect1_backgroundBlur_2004_28944" result="shape"/>
</filter>
<linearGradient id="paint0_linear_2004_28944" x1="278.253" y1="92.0591" x2="278.253" y2="134.863" gradientUnits="userSpaceOnUse">
<stop stop-color="#68C799"/>
<stop offset="1" stop-color="#316562" stop-opacity="0"/>
</linearGradient>
<linearGradient id="paint1_linear_2004_28944" x1="278.253" y1="156.264" x2="278.253" y2="199.068" gradientUnits="userSpaceOnUse">
<stop stop-color="#FF5F56" stop-opacity="0.4"/>
<stop offset="1" stop-color="#FF5F56" stop-opacity="0"/>
</linearGradient>
<linearGradient id="paint2_linear_2004_28944" x1="278.253" y1="220.469" x2="278.253" y2="263.272" gradientUnits="userSpaceOnUse">
<stop stop-color="#68C799"/>
<stop offset="1" stop-color="#316562" stop-opacity="0"/>
</linearGradient>
<linearGradient id="paint3_linear_2004_28944" x1="278.253" y1="284.674" x2="278.253" y2="327.478" gradientUnits="userSpaceOnUse">
<stop stop-color="#FF5F56" stop-opacity="0.4"/>
<stop offset="1" stop-color="#FF5F56" stop-opacity="0"/>
</linearGradient>
<linearGradient id="paint4_linear_2004_28944" x1="278.253" y1="348.88" x2="278.253" y2="391.684" gradientUnits="userSpaceOnUse">
<stop stop-color="#68C799"/>
<stop offset="1" stop-color="#316562" stop-opacity="0"/>
</linearGradient>
<linearGradient id="paint5_linear_2004_28944" x1="278.253" y1="413.086" x2="278.253" y2="455.89" gradientUnits="userSpaceOnUse">
<stop stop-color="#FF5F56" stop-opacity="0.4"/>
<stop offset="1" stop-color="#FF5F56" stop-opacity="0"/>
</linearGradient>
<linearGradient id="paint6_linear_2004_28944" x1="536.25" y1="163.661" x2="536.25" y2="241.72" gradientUnits="userSpaceOnUse">
<stop stop-color="#015B5B"/>
<stop offset="1" stop-color="#015B5B" stop-opacity="0"/>
</linearGradient>
</defs>
</svg>
