<svg width="32" height="32" viewBox="0 0 32 32" fill="none" xmlns="http://www.w3.org/2000/svg">
<path fill-rule="evenodd" clip-rule="evenodd" d="M16 32C24.8366 32 32 24.8365 32 16C32 7.16338 24.8366 -8.01086e-05 16 -8.01086e-05C7.16344 -8.01086e-05 0 7.16338 0 16C0 24.8365 7.16344 32 16 32ZM14.9022 7.54623C14.9022 6.57551 15.0198 6.3471 15.6152 6.13297C16.1077 5.96167 16.7104 6.14725 16.9603 6.55409C17.0853 6.73967 17.1073 6.91812 17.1073 7.54623C17.1073 8.23858 17.122 8.3171 17.2396 8.3171C17.5116 8.3171 18.2687 8.5455 18.7906 8.78819C20.5621 9.59474 21.5838 10.9937 21.5029 12.4926C21.4809 12.9352 21.4515 13.0494 21.2971 13.2064C20.5621 13.9701 19.408 13.599 19.2757 12.5497C19.1655 11.6718 18.6068 11.0722 17.5337 10.6868L17.1073 10.5298V12.6354C17.1073 14.6125 17.1147 14.741 17.2396 14.741C17.5116 14.741 18.2687 14.9694 18.7906 15.2121C20.5768 16.0258 21.5176 17.3248 21.5176 18.9594C21.5176 20.0942 21.106 20.9436 20.1357 21.8216C19.5036 22.3854 18.6803 22.7994 17.7542 23.035L17.1073 23.1991V23.9486C17.1073 24.7694 17.0265 24.9764 16.6222 25.2405C16.3355 25.4261 15.674 25.4261 15.3873 25.2405C14.983 24.9764 14.9022 24.7694 14.9022 23.9486V23.1991L14.2627 23.035C12.0428 22.4782 10.4919 20.8437 10.4919 19.0664C10.4919 18.2599 10.8594 17.853 11.5944 17.853C12.256 17.853 12.6382 18.2242 12.7338 18.9379C12.7632 19.1592 12.844 19.459 12.9175 19.5946C13.1821 20.1014 14.0128 20.6867 14.7037 20.8437L14.9022 20.8937V18.838V16.7752L14.2627 16.6111C12.5059 16.1757 11.0725 14.9908 10.6389 13.6132C10.3595 12.7496 10.4624 11.6432 10.8961 10.8081C11.4768 9.70894 12.8734 8.72395 14.3288 8.40989L14.9022 8.28141V7.54623ZM14.9022 14.4698V12.4998C14.9022 11.4148 14.8948 10.5298 14.8875 10.5369C14.3656 10.6725 13.6526 11.0508 13.3365 11.3506C12.7779 11.8788 12.6088 12.5854 12.9102 13.1564C13.1821 13.6775 14.0054 14.2556 14.7037 14.4198L14.9022 14.4698ZM19.0993 19.5803C19.4742 18.8594 19.114 17.9672 18.2173 17.4248C18.0702 17.332 17.7615 17.1892 17.5337 17.1107L17.1073 16.9537V18.9237V20.8937L17.3131 20.8437C18.0041 20.6795 18.8274 20.1014 19.0993 19.5803Z" fill="#42BFF8"/>
</svg>
