<svg width="1440" height="519" viewBox="0 0 1440 519" fill="none" xmlns="http://www.w3.org/2000/svg">
<path d="M-144 191.21C-144 172.593 -129.805 157.046 -111.264 155.358L1485.07 10.0053C1515.53 7.23163 1535.35 41.3067 1517.88 66.416L1220.05 494.523C1212.93 504.766 1201.01 510.588 1188.55 509.911L-109.953 439.378C-129.048 438.341 -144 422.555 -144 403.431V191.21Z" fill="url(#paint0_linear_1274_3476)"/>
<mask id="mask0_1274_3476" style="mask-type:alpha" maskUnits="userSpaceOnUse" x="-176" y="0" width="1732" height="519">
<path d="M-176 188.211C-176 168.891 -161.264 152.758 -142.017 151.006L1515.15 0.165125C1546.78 -2.71327 1567.35 32.6483 1549.22 58.7055L1240.04 502.976C1232.64 513.605 1220.27 519.647 1207.34 518.945L-140.655 445.749C-160.478 444.673 -176 428.29 -176 408.445V188.211Z" fill="url(#paint1_linear_1274_3476)"/>
</mask>
<g mask="url(#mask0_1274_3476)">
<g filter="url(#filter0_d_1274_3476)">
<path fill-rule="evenodd" clip-rule="evenodd" d="M1485.25 11.9971L-111.083 157.35C-128.594 158.944 -142 173.627 -142 191.21V403.431C-142 421.493 -127.879 436.402 -109.844 437.381L1188.66 507.914C1200.42 508.554 1211.68 503.055 1218.41 493.381L1516.24 65.2738C1532.74 41.5595 1514.02 9.37749 1485.25 11.9971ZM-111.264 155.358C-129.805 157.046 -144 172.593 -144 191.21V403.431C-144 422.555 -129.048 438.341 -109.953 439.378L1188.55 509.911C1201.01 510.588 1212.93 504.766 1220.05 494.523L1517.88 66.416C1535.35 41.3067 1515.53 7.23163 1485.07 10.0053L-111.264 155.358Z" fill="url(#paint2_linear_1274_3476)" shape-rendering="crispEdges"/>
</g>
</g>
<g filter="url(#filter1_d_1274_3476)">
<path fill-rule="evenodd" clip-rule="evenodd" d="M1485.25 11.9971L-111.083 157.35C-128.594 158.944 -142 173.627 -142 191.21V403.431C-142 421.493 -127.879 436.402 -109.844 437.381L1188.66 507.914C1200.42 508.554 1211.68 503.055 1218.41 493.381L1516.24 65.2738C1532.74 41.5595 1514.02 9.37749 1485.25 11.9971ZM-111.264 155.358C-129.805 157.046 -144 172.593 -144 191.21V403.431C-144 422.555 -129.048 438.341 -109.953 439.378L1188.55 509.911C1201.01 510.588 1212.93 504.766 1220.05 494.523L1517.88 66.416C1535.35 41.3067 1515.53 7.23163 1485.07 10.0053L-111.264 155.358Z" fill="url(#paint3_linear_1274_3476)" shape-rendering="crispEdges"/>
</g>
<defs>
<filter id="filter0_d_1274_3476" x="-156" y="-2.15381" width="1692.41" height="524.118" filterUnits="userSpaceOnUse" color-interpolation-filters="sRGB">
<feFlood flood-opacity="0" result="BackgroundImageFix"/>
<feColorMatrix in="SourceAlpha" type="matrix" values="0 0 0 0 0 0 0 0 0 0 0 0 0 0 0 0 0 0 127 0" result="hardAlpha"/>
<feOffset/>
<feGaussianBlur stdDeviation="6"/>
<feComposite in2="hardAlpha" operator="out"/>
<feColorMatrix type="matrix" values="0 0 0 0 0.0627451 0 0 0 0 0.603922 0 0 0 0 0.913725 0 0 0 1 0"/>
<feBlend mode="normal" in2="BackgroundImageFix" result="effect1_dropShadow_1274_3476"/>
<feBlend mode="normal" in="SourceGraphic" in2="effect1_dropShadow_1274_3476" result="shape"/>
</filter>
<filter id="filter1_d_1274_3476" x="-148" y="9.84619" width="1676.41" height="508.118" filterUnits="userSpaceOnUse" color-interpolation-filters="sRGB">
<feFlood flood-opacity="0" result="BackgroundImageFix"/>
<feColorMatrix in="SourceAlpha" type="matrix" values="0 0 0 0 0 0 0 0 0 0 0 0 0 0 0 0 0 0 127 0" result="hardAlpha"/>
<feOffset dy="4"/>
<feGaussianBlur stdDeviation="2"/>
<feComposite in2="hardAlpha" operator="out"/>
<feColorMatrix type="matrix" values="0 0 0 0 0 0 0 0 0 0 0 0 0 0 0 0 0 0 0.25 0"/>
<feBlend mode="normal" in2="BackgroundImageFix" result="effect1_dropShadow_1274_3476"/>
<feBlend mode="normal" in="SourceGraphic" in2="effect1_dropShadow_1274_3476" result="shape"/>
</filter>
<linearGradient id="paint0_linear_1274_3476" x1="-54.7602" y1="437.529" x2="1323.6" y2="122.737" gradientUnits="userSpaceOnUse">
<stop stop-color="#233F54" stop-opacity="0.57"/>
<stop offset="1" stop-color="#233F54" stop-opacity="0.64"/>
</linearGradient>
<linearGradient id="paint1_linear_1274_3476" x1="232" y1="362" x2="1420.95" y2="113.685" gradientUnits="userSpaceOnUse">
<stop stop-color="#233F54" stop-opacity="0"/>
<stop offset="1" stop-color="#233F54" stop-opacity="0.64"/>
</linearGradient>
<linearGradient id="paint2_linear_1274_3476" x1="1055" y1="106" x2="283.5" y2="433" gradientUnits="userSpaceOnUse">
<stop stop-color="#07A6FF"/>
<stop offset="1" stop-color="#20AFFF" stop-opacity="0"/>
</linearGradient>
<linearGradient id="paint3_linear_1274_3476" x1="1055" y1="106" x2="283.5" y2="433" gradientUnits="userSpaceOnUse">
<stop stop-color="#07A6FF"/>
<stop offset="1" stop-color="#20AFFF" stop-opacity="0"/>
</linearGradient>
</defs>
</svg>
