<svg width="115" height="104" viewBox="0 0 115 104" fill="none" xmlns="http://www.w3.org/2000/svg">
<g filter="url(#filter0_d_1620_111)">
<path d="M39.9087 30.3539L30.7653 34.9181C28.8764 35.861 29.5473 38.7075 31.6585 38.7075H57.4043H83.1376C85.2495 38.7075 85.9199 35.8595 84.0297 34.9175L74.8446 30.3401C59.0087 22.4567 58.0129 21.9864 57.349 22.0003C56.699 22.0141 55.2053 22.7333 39.9087 30.3539Z" fill="#2EA5DC"/>
<path d="M30.3008 55.3867V64.9033C30.3008 66.5602 31.6439 67.9033 33.3008 67.9033H36.5937H39.8865C41.5434 67.9033 42.8865 66.5602 42.8865 64.9033V55.3867V45.8701C42.8865 44.2132 41.5434 42.8701 39.8865 42.8701H36.5937H33.3008C31.6439 42.8701 30.3008 44.2132 30.3008 45.8701V55.3867Z" fill="#42BFF8"/>
<path d="M51.1816 55.3867V64.9033C51.1816 66.5602 52.5248 67.9033 54.1816 67.9033H57.4054H60.6291C62.286 67.9033 63.6291 66.5602 63.6291 64.9033V55.3867V45.8701C63.6291 44.2132 62.286 42.8701 60.6291 42.8701H57.4054H54.1816C52.5248 42.8701 51.1816 44.2132 51.1816 45.8701V55.3867Z" fill="#42BFF8"/>
<path d="M71.9277 55.3867V64.9033C71.9277 66.5602 73.2709 67.9033 74.9277 67.9033H78.2206H81.5135C83.1703 67.9033 84.5135 66.5602 84.5135 64.9033V55.3867V45.8701C84.5135 44.2132 83.1703 42.8701 81.5135 42.8701H78.2206H74.9277C73.2709 42.8701 71.9277 44.2132 71.9277 45.8701V55.3867Z" fill="#42BFF8"/>
<path d="M25.4991 72.3294C24.8767 72.7028 23.3969 75.7497 22.6224 77.2711C22.1106 78.2945 22 78.6541 22 79.2765C22 80.134 22.2766 80.6595 22.9128 81.0883C23.3001 81.3372 24.2405 81.3511 57.4061 81.3511C90.5717 81.3511 91.5121 81.3372 91.8994 81.0883C92.5356 80.6595 92.8122 80.134 92.8122 79.2765C92.8122 78.6541 92.7016 78.2945 92.1898 77.2711C91.443 75.7636 89.9355 72.7028 89.3131 72.3294C88.8705 72.0528 88.5247 72.0528 57.4061 72.0528C26.2875 72.0528 25.9417 72.0528 25.4991 72.3294Z" fill="#2EA5DC"/>
</g>
<defs>
<filter id="filter0_d_1620_111" x="0" y="0" width="114.812" height="103.351" filterUnits="userSpaceOnUse" color-interpolation-filters="sRGB">
<feFlood flood-opacity="0" result="BackgroundImageFix"/>
<feColorMatrix in="SourceAlpha" type="matrix" values="0 0 0 0 0 0 0 0 0 0 0 0 0 0 0 0 0 0 127 0" result="hardAlpha"/>
<feOffset/>
<feGaussianBlur stdDeviation="11"/>
<feComposite in2="hardAlpha" operator="out"/>
<feColorMatrix type="matrix" values="0 0 0 0 0.137255 0 0 0 0 0.511216 0 0 0 0 0.721569 0 0 0 0.25 0"/>
<feBlend mode="normal" in2="BackgroundImageFix" result="effect1_dropShadow_1620_111"/>
<feBlend mode="normal" in="SourceGraphic" in2="effect1_dropShadow_1620_111" result="shape"/>
</filter>
</defs>
</svg>
