<svg width="111" height="107" viewBox="0 0 111 107" fill="none" xmlns="http://www.w3.org/2000/svg">
<g filter="url(#filter0_d_1620_122)">
<path d="M69.7796 22.2814C69.5574 22.4295 69.2316 22.7554 69.0835 22.9775C68.7132 23.5551 68.6984 24.8881 69.0835 25.4509C69.587 26.2211 69.9425 26.3692 71.5273 26.4432L72.9935 26.5173L49.8295 38.9436C37.0922 45.7861 25.7471 51.8734 24.6215 52.4806C22.2814 53.7691 22 54.0654 22 55.3391C22 56.7313 22.8146 57.5459 24.192 57.5459C24.9622 57.5459 25.7916 57.1016 50.259 43.9792C64.1663 36.5146 75.8224 30.2496 76.1778 30.0423L76.8147 29.6868L76.1334 31.0198C75.6002 32.101 75.4669 32.5157 75.4669 33.1377C75.4669 34.5151 76.2963 35.3297 77.6737 35.3297C79.1548 35.3297 79.1696 35.3149 81.9096 29.8349C84.146 25.3769 84.3534 24.9029 84.3534 24.192C84.3534 23.3182 84.0572 22.7257 83.3759 22.2814C82.976 22.0148 82.5613 22 76.5777 22C70.5942 22 70.1795 22.0148 69.7796 22.2814Z" fill="#42BFF8"/>
<path d="M76.4463 40.054C76.2241 40.2021 75.8983 40.5279 75.7502 40.7501C75.4836 41.1648 75.4688 41.8609 75.4688 62.0628C75.4688 82.2647 75.4836 82.9608 75.7502 83.3755C75.8983 83.5977 76.2241 83.9235 76.4463 84.0716C76.8462 84.3382 77.2312 84.353 82.2077 84.353C87.1841 84.353 87.5692 84.3382 87.9691 84.0716C88.1912 83.9235 88.5171 83.5977 88.6652 83.3755C88.9318 82.9608 88.9466 82.2647 88.9466 62.0628C88.9466 41.8609 88.9318 41.1648 88.6652 40.7501C88.5171 40.5279 88.1912 40.2021 87.9691 40.054C87.5692 39.7874 87.1841 39.7726 82.2077 39.7726C77.2312 39.7726 76.8462 39.7874 76.4463 40.054Z" fill="#42BFF8"/>
<path d="M58.6709 48.9404C58.4487 49.0885 58.1229 49.4144 57.9748 49.6365C57.7082 50.0513 57.6934 50.6437 57.6934 66.506C57.6934 82.3684 57.7082 82.9608 57.9748 83.3755C58.1229 83.5977 58.4487 83.9235 58.6709 84.0716C59.0708 84.3382 59.4558 84.353 64.3582 84.353C69.2606 84.353 69.6457 84.3382 70.0456 84.0716C70.2677 83.9235 70.5936 83.5977 70.7417 83.3755C71.0083 82.9608 71.0231 82.3684 71.0231 66.506C71.0231 50.6437 71.0083 50.0513 70.7417 49.6365C70.5936 49.4144 70.2677 49.0885 70.0456 48.9404C69.6457 48.6738 69.2606 48.659 64.3582 48.659C59.4558 48.659 59.0708 48.6738 58.6709 48.9404Z" fill="#2EA5DC"/>
<path d="M40.8974 57.8269C40.6753 57.975 40.3494 58.3009 40.2013 58.523C39.9347 58.9377 39.9199 59.4413 39.9199 70.9493C39.9199 82.4572 39.9347 82.9608 40.2013 83.3755C40.3494 83.5977 40.6753 83.9235 40.8974 84.0716C41.2973 84.3382 41.6824 84.353 46.5848 84.353C51.4871 84.353 51.8722 84.3382 52.2721 84.0716C52.4943 83.9235 52.8201 83.5977 52.9682 83.3755C53.2348 82.9608 53.2496 82.4572 53.2496 70.9493C53.2496 59.4413 53.2348 58.9377 52.9682 58.523C52.8201 58.3009 52.4943 57.975 52.2721 57.8269C51.8722 57.5603 51.4871 57.5455 46.5848 57.5455C41.6824 57.5455 41.2973 57.5603 40.8974 57.8269Z" fill="#42BFF8"/>
<path d="M22.9775 66.7134C22.7554 66.8615 22.4295 67.1873 22.2814 67.4095C22.0148 67.8094 22 68.2389 22 75.3925C22 82.5461 22.0148 82.9756 22.2814 83.3755C22.4295 83.5977 22.7554 83.9235 22.9775 84.0716C23.3774 84.3382 23.7625 84.353 28.7389 84.353C33.7153 84.353 34.1004 84.3382 34.5003 84.0716C34.7225 83.9235 35.0483 83.5977 35.1964 83.3755C35.463 82.9756 35.4778 82.5461 35.4778 75.3925C35.4778 68.2389 35.463 67.8094 35.1964 67.4095C35.0483 67.1873 34.7225 66.8615 34.5003 66.7134C34.1004 66.4468 33.7153 66.432 28.7389 66.432C23.7625 66.432 23.3774 66.4468 22.9775 66.7134Z" fill="#2EA5DC"/>
</g>
<defs>
<filter id="filter0_d_1620_122" x="0" y="0" width="110.947" height="106.353" filterUnits="userSpaceOnUse" color-interpolation-filters="sRGB">
<feFlood flood-opacity="0" result="BackgroundImageFix"/>
<feColorMatrix in="SourceAlpha" type="matrix" values="0 0 0 0 0 0 0 0 0 0 0 0 0 0 0 0 0 0 127 0" result="hardAlpha"/>
<feOffset/>
<feGaussianBlur stdDeviation="11"/>
<feComposite in2="hardAlpha" operator="out"/>
<feColorMatrix type="matrix" values="0 0 0 0 0.137255 0 0 0 0 0.511216 0 0 0 0 0.721569 0 0 0 0.25 0"/>
<feBlend mode="normal" in2="BackgroundImageFix" result="effect1_dropShadow_1620_122"/>
<feBlend mode="normal" in="SourceGraphic" in2="effect1_dropShadow_1620_122" result="shape"/>
</filter>
</defs>
</svg>
