<svg width="108" height="108" viewBox="0 0 108 108" fill="none" xmlns="http://www.w3.org/2000/svg">
<g filter="url(#filter0_d_1620_133)">
<path d="M83.8442 54.0001C83.8442 70.4826 70.4825 83.8443 54 83.8443C37.5175 83.8443 24.1558 70.4826 24.1558 54.0001C24.1558 37.5175 37.5175 24.1558 54 24.1558C70.4825 24.1558 83.8442 37.5175 83.8442 54.0001Z" stroke="#2EA5DC" stroke-width="4.31164"/>
<path fill-rule="evenodd" clip-rule="evenodd" d="M53.9999 83.936C70.5328 83.936 83.9354 70.5334 83.9354 54.0005C83.9354 37.4675 70.5328 24.0649 53.9999 24.0649C37.467 24.0649 24.0645 37.4675 24.0645 54.0005C24.0645 70.5334 37.467 83.936 53.9999 83.936ZM51.9455 38.183C51.9455 36.3668 52.1656 35.9395 53.2796 35.5388C54.201 35.2183 55.3287 35.5655 55.7963 36.3267C56.0301 36.674 56.0713 37.0078 56.0713 38.183C56.0713 39.4784 56.0988 39.6253 56.3189 39.6253C56.8277 39.6253 58.2442 40.0526 59.2207 40.5067C62.5351 42.0157 64.4467 44.6331 64.2954 47.4375C64.2541 48.2655 64.1991 48.4792 63.9103 48.773C62.5351 50.2019 60.3759 49.5075 60.1283 47.5444C59.9221 45.9018 58.8769 44.78 56.869 44.0589L56.0713 43.7651V47.7046C56.0713 51.4038 56.0851 51.6442 56.3189 51.6442C56.8277 51.6442 58.2442 52.0715 59.2207 52.5256C62.5626 54.0479 64.3229 56.4784 64.3229 59.5366C64.3229 61.6599 63.5527 63.2491 61.7374 64.8917C60.5547 65.9467 59.0144 66.7212 57.2816 67.1619L56.0713 67.4691V68.8713C56.0713 70.407 55.9201 70.7943 55.1637 71.2884C54.6273 71.6356 53.3896 71.6356 52.8532 71.2884C52.0968 70.7943 51.9455 70.407 51.9455 68.8713V67.4691L50.7491 67.1619C46.5958 66.1203 43.694 63.0621 43.694 59.7369C43.694 58.2279 44.3816 57.4667 45.7569 57.4667C46.9946 57.4667 47.7097 58.1611 47.8885 59.4965C47.9435 59.9105 48.0948 60.4714 48.2323 60.7251C48.7274 61.6733 50.2815 62.7683 51.5742 63.0621L51.9455 63.1556V59.3096V55.4502L50.7491 55.143C47.4622 54.3284 44.7804 52.1116 43.969 49.5342C43.4464 47.9183 43.639 45.8484 44.4504 44.2859C45.5368 42.2294 48.1498 40.3865 50.8728 39.7989L51.9455 39.5585V38.183ZM51.9455 51.1367V47.4509C51.9455 45.421 51.9318 43.7651 51.918 43.7785C50.9416 44.0322 49.6076 44.74 49.0162 45.3009C47.971 46.2891 47.6547 47.6112 48.2186 48.6795C48.7274 49.6544 50.2677 50.7361 51.5742 51.0432L51.9455 51.1367ZM59.7983 60.6984C60.4997 59.3496 59.8258 57.6803 58.148 56.6654C57.8729 56.4918 57.2953 56.2247 56.869 56.0778L56.0713 55.784V59.4698V63.1556L56.4564 63.0621C57.7491 62.755 59.2894 61.6733 59.7983 60.6984Z" fill="#42BFF8"/>
</g>
<defs>
<filter id="filter0_d_1620_133" x="0" y="0" width="108" height="108" filterUnits="userSpaceOnUse" color-interpolation-filters="sRGB">
<feFlood flood-opacity="0" result="BackgroundImageFix"/>
<feColorMatrix in="SourceAlpha" type="matrix" values="0 0 0 0 0 0 0 0 0 0 0 0 0 0 0 0 0 0 127 0" result="hardAlpha"/>
<feOffset/>
<feGaussianBlur stdDeviation="11"/>
<feComposite in2="hardAlpha" operator="out"/>
<feColorMatrix type="matrix" values="0 0 0 0 0.137255 0 0 0 0 0.511216 0 0 0 0 0.721569 0 0 0 0.25 0"/>
<feBlend mode="normal" in2="BackgroundImageFix" result="effect1_dropShadow_1620_133"/>
<feBlend mode="normal" in="SourceGraphic" in2="effect1_dropShadow_1620_133" result="shape"/>
</filter>
</defs>
</svg>
