<svg width="57" height="46" viewBox="0 0 57 46" fill="none" xmlns="http://www.w3.org/2000/svg">
<path d="M0 10.3082C0 10.4947 0.0623446 10.5569 0.255613 10.5569H43.3857C44.9044 10.5569 45.6028 10.81 45.9191 11.2514C46.2308 11.5678 46.5486 12.2002 46.5486 13.7153V32.3415C46.5486 34.8048 45.8523 35.4383 43.3857 35.4383H0.255613C0.0623446 35.4383 0 35.5012 0 35.6932V42.6374C0 44.0897 1.01395 45.1025 2.47113 45.1025H44.8423C52.9477 45.1025 57 41.0617 57 32.9129V13.083C57 4.93965 52.9477 0.898438 44.8423 0.898438H2.47113C1.96158 0.898438 1.51895 1.02329 1.07686 1.33983L0.573003 1.78005C0.380301 1.96652 0.255613 2.22086 0.192702 2.41358C0.124689 2.47562 0.124689 2.53782 0.124689 2.66226C0.0623446 3.10812 0 3.2946 0 3.35667V10.3082Z" fill="#42BFF8"/>
</svg>
