<svg width="668" height="685" viewBox="0 0 668 685" fill="none" xmlns="http://www.w3.org/2000/svg">
<rect x="63" width="345" height="112" rx="21" fill="#407E9D"/>
<rect x="79" y="24" width="64" height="64" rx="22" fill="#0A212E"/>
<path fill-rule="evenodd" clip-rule="evenodd" d="M114.705 49.0678C113.916 48.6465 113.065 48.3641 112.187 48.2299V40.2112C114.379 40.376 116.517 40.9959 118.463 42.0362C120.76 43.2636 122.718 45.0384 124.164 47.2034C125.611 49.3684 126.501 51.8567 126.756 54.448C126.768 54.5694 126.779 54.6909 126.788 54.8124H118.769C118.596 53.6767 118.175 52.5911 117.535 51.633C116.817 50.5582 115.845 49.6771 114.705 49.0678ZM102.203 42.835C104.476 41.3159 107.099 40.4152 109.812 40.2112V48.2299C108.679 48.403 107.593 48.8225 106.632 49.4644C105.34 50.3281 104.332 51.5557 103.737 52.9919C103.143 54.4282 102.987 56.0086 103.29 57.5334C103.516 58.6666 103.987 59.7312 104.665 60.6545L98.9954 66.3246C97.221 64.2617 96.0037 61.7706 95.4703 59.0889C94.8593 56.0175 95.1729 52.8339 96.3713 49.9408C97.5697 47.0476 99.599 44.5748 102.203 42.835ZM100.675 68.004C102.341 69.4373 104.291 70.5109 106.403 71.1515C108.895 71.9073 111.535 72.037 114.088 71.529C116.618 71.0258 118.987 69.9121 120.988 68.2852L113.851 63.3245C113.425 63.4904 112.984 63.6193 112.533 63.7091C111.265 63.9613 109.955 63.897 108.718 63.5217C107.862 63.2623 107.06 62.8597 106.345 62.3339L100.675 68.004ZM118.261 59.0079C118.504 58.4215 118.674 57.8102 118.769 57.1874H126.788C126.663 58.8569 126.273 60.5017 125.627 62.0591C124.933 63.7368 123.957 65.2769 122.747 66.6156L116.091 61.9885C117.04 61.1816 117.784 60.1601 118.261 59.0079Z" fill="white"/>
<path d="M177.976 32.248L172.312 43.168V49H168.952V43.168L163.264 32.248H167.056L170.656 39.904L174.232 32.248H177.976ZM185.818 49.216C184.538 49.216 183.386 48.936 182.362 48.376C181.338 47.8 180.53 46.992 179.938 45.952C179.362 44.912 179.074 43.712 179.074 42.352C179.074 40.992 179.37 39.792 179.962 38.752C180.57 37.712 181.394 36.912 182.434 36.352C183.474 35.776 184.634 35.488 185.914 35.488C187.194 35.488 188.354 35.776 189.394 36.352C190.434 36.912 191.25 37.712 191.842 38.752C192.45 39.792 192.754 40.992 192.754 42.352C192.754 43.712 192.442 44.912 191.818 45.952C191.21 46.992 190.378 47.8 189.322 48.376C188.282 48.936 187.114 49.216 185.818 49.216ZM185.818 46.288C186.426 46.288 186.994 46.144 187.522 45.856C188.066 45.552 188.498 45.104 188.818 44.512C189.138 43.92 189.298 43.2 189.298 42.352C189.298 41.088 188.962 40.12 188.29 39.448C187.634 38.76 186.826 38.416 185.866 38.416C184.906 38.416 184.098 38.76 183.442 39.448C182.802 40.12 182.482 41.088 182.482 42.352C182.482 43.616 182.794 44.592 183.418 45.28C184.058 45.952 184.858 46.288 185.818 46.288ZM207.771 35.704V49H204.387V47.32C203.955 47.896 203.387 48.352 202.683 48.688C201.995 49.008 201.243 49.168 200.427 49.168C199.387 49.168 198.467 48.952 197.667 48.52C196.867 48.072 196.235 47.424 195.771 46.576C195.323 45.712 195.099 44.688 195.099 43.504V35.704H198.459V43.024C198.459 44.08 198.723 44.896 199.251 45.472C199.779 46.032 200.499 46.312 201.411 46.312C202.339 46.312 203.067 46.032 203.595 45.472C204.123 44.896 204.387 44.08 204.387 43.024V35.704H207.771ZM218.508 34.12C217.916 34.12 217.42 33.936 217.02 33.568C216.636 33.184 216.444 32.712 216.444 32.152C216.444 31.592 216.636 31.128 217.02 30.76C217.42 30.376 217.916 30.184 218.508 30.184C219.1 30.184 219.588 30.376 219.972 30.76C220.372 31.128 220.572 31.592 220.572 32.152C220.572 32.712 220.372 33.184 219.972 33.568C219.588 33.936 219.1 34.12 218.508 34.12ZM220.164 35.704V49H216.804V35.704H220.164ZM230.852 35.512C232.436 35.512 233.716 36.016 234.692 37.024C235.668 38.016 236.156 39.408 236.156 41.2V49H232.796V41.656C232.796 40.6 232.532 39.792 232.004 39.232C231.476 38.656 230.756 38.368 229.844 38.368C228.916 38.368 228.18 38.656 227.636 39.232C227.108 39.792 226.844 40.6 226.844 41.656V49H223.484V35.704H226.844V37.36C227.292 36.784 227.86 36.336 228.548 36.016C229.252 35.68 230.02 35.512 230.852 35.512ZM244.895 45.904L248.255 35.704H251.831L246.911 49H242.831L237.935 35.704H241.535L244.895 45.904ZM266.079 42.064C266.079 42.544 266.047 42.976 265.983 43.36H256.263C256.343 44.32 256.679 45.072 257.271 45.616C257.863 46.16 258.591 46.432 259.455 46.432C260.703 46.432 261.591 45.896 262.119 44.824H265.743C265.359 46.104 264.623 47.16 263.535 47.992C262.447 48.808 261.111 49.216 259.527 49.216C258.247 49.216 257.095 48.936 256.071 48.376C255.063 47.8 254.271 46.992 253.695 45.952C253.135 44.912 252.854 43.712 252.854 42.352C252.854 40.976 253.135 39.768 253.695 38.728C254.255 37.688 255.039 36.888 256.047 36.328C257.055 35.768 258.215 35.488 259.527 35.488C260.791 35.488 261.919 35.76 262.911 36.304C263.919 36.848 264.695 37.624 265.239 38.632C265.799 39.624 266.079 40.768 266.079 42.064ZM262.599 41.104C262.583 40.24 262.271 39.552 261.663 39.04C261.055 38.512 260.311 38.248 259.431 38.248C258.599 38.248 257.895 38.504 257.319 39.016C256.759 39.512 256.415 40.208 256.287 41.104H262.599ZM273.619 49.216C272.531 49.216 271.555 49.024 270.691 48.64C269.827 48.24 269.139 47.704 268.627 47.032C268.131 46.36 267.859 45.616 267.811 44.8H271.195C271.259 45.312 271.507 45.736 271.939 46.072C272.387 46.408 272.939 46.576 273.595 46.576C274.235 46.576 274.731 46.448 275.083 46.192C275.451 45.936 275.635 45.608 275.635 45.208C275.635 44.776 275.411 44.456 274.963 44.248C274.531 44.024 273.835 43.784 272.875 43.528C271.883 43.288 271.067 43.04 270.427 42.784C269.803 42.528 269.259 42.136 268.795 41.608C268.347 41.08 268.123 40.368 268.123 39.472C268.123 38.736 268.331 38.064 268.747 37.456C269.179 36.848 269.787 36.368 270.571 36.016C271.371 35.664 272.307 35.488 273.379 35.488C274.963 35.488 276.227 35.888 277.171 36.688C278.115 37.472 278.635 38.536 278.731 39.88H275.515C275.467 39.352 275.243 38.936 274.843 38.632C274.459 38.312 273.939 38.152 273.283 38.152C272.675 38.152 272.203 38.264 271.867 38.488C271.547 38.712 271.387 39.024 271.387 39.424C271.387 39.872 271.611 40.216 272.059 40.456C272.507 40.68 273.203 40.912 274.147 41.152C275.107 41.392 275.899 41.64 276.523 41.896C277.147 42.152 277.683 42.552 278.131 43.096C278.595 43.624 278.835 44.328 278.851 45.208C278.851 45.976 278.635 46.664 278.203 47.272C277.787 47.88 277.179 48.36 276.379 48.712C275.595 49.048 274.675 49.216 273.619 49.216ZM285.521 38.464V44.896C285.521 45.344 285.625 45.672 285.833 45.88C286.057 46.072 286.425 46.168 286.937 46.168H288.497V49H286.385C283.553 49 282.137 47.624 282.137 44.872V38.464H280.553V35.704H282.137V32.416H285.521V35.704H288.497V38.464H285.521ZM298.337 34.12C297.745 34.12 297.249 33.936 296.849 33.568C296.465 33.184 296.273 32.712 296.273 32.152C296.273 31.592 296.465 31.128 296.849 30.76C297.249 30.376 297.745 30.184 298.337 30.184C298.929 30.184 299.417 30.376 299.801 30.76C300.201 31.128 300.401 31.592 300.401 32.152C300.401 32.712 300.201 33.184 299.801 33.568C299.417 33.936 298.929 34.12 298.337 34.12ZM299.993 35.704V49H296.633V35.704H299.993ZM310.68 35.512C312.264 35.512 313.544 36.016 314.52 37.024C315.496 38.016 315.984 39.408 315.984 41.2V49H312.624V41.656C312.624 40.6 312.36 39.792 311.832 39.232C311.304 38.656 310.584 38.368 309.672 38.368C308.744 38.368 308.008 38.656 307.464 39.232C306.936 39.792 306.672 40.6 306.672 41.656V49H303.312V35.704H306.672V37.36C307.12 36.784 307.688 36.336 308.376 36.016C309.08 35.68 309.848 35.512 310.68 35.512ZM324.034 42.304C324.034 40.96 324.298 39.768 324.826 38.728C325.37 37.688 326.098 36.888 327.01 36.328C327.938 35.768 328.97 35.488 330.106 35.488C331.098 35.488 331.962 35.688 332.698 36.088C333.45 36.488 334.05 36.992 334.498 37.6V35.704H337.882V49H334.498V47.056C334.066 47.68 333.466 48.2 332.698 48.616C331.946 49.016 331.074 49.216 330.082 49.216C328.962 49.216 327.938 48.928 327.01 48.352C326.098 47.776 325.37 46.968 324.826 45.928C324.298 44.872 324.034 43.664 324.034 42.304ZM334.498 42.352C334.498 41.536 334.338 40.84 334.018 40.264C333.698 39.672 333.266 39.224 332.722 38.92C332.178 38.6 331.594 38.44 330.97 38.44C330.346 38.44 329.77 38.592 329.242 38.896C328.714 39.2 328.282 39.648 327.946 40.24C327.626 40.816 327.466 41.504 327.466 42.304C327.466 43.104 327.626 43.808 327.946 44.416C328.282 45.008 328.714 45.464 329.242 45.784C329.786 46.104 330.362 46.264 330.97 46.264C331.594 46.264 332.178 46.112 332.722 45.808C333.266 45.488 333.698 45.04 334.018 44.464C334.338 43.872 334.498 43.168 334.498 42.352ZM168.016 67.768C168.448 67.064 169.008 66.512 169.696 66.112C170.4 65.712 171.2 65.512 172.096 65.512V69.04H171.208C170.152 69.04 169.352 69.288 168.808 69.784C168.28 70.28 168.016 71.144 168.016 72.376V79H164.656V65.704H168.016V67.768ZM186.719 72.064C186.719 72.544 186.687 72.976 186.623 73.36H176.903C176.983 74.32 177.319 75.072 177.911 75.616C178.503 76.16 179.231 76.432 180.095 76.432C181.343 76.432 182.231 75.896 182.759 74.824H186.383C185.999 76.104 185.263 77.16 184.175 77.992C183.087 78.808 181.751 79.216 180.167 79.216C178.887 79.216 177.735 78.936 176.711 78.376C175.703 77.8 174.911 76.992 174.335 75.952C173.775 74.912 173.495 73.712 173.495 72.352C173.495 70.976 173.775 69.768 174.335 68.728C174.895 67.688 175.679 66.888 176.687 66.328C177.695 65.768 178.855 65.488 180.167 65.488C181.431 65.488 182.559 65.76 183.551 66.304C184.559 66.848 185.335 67.624 185.879 68.632C186.439 69.624 186.719 70.768 186.719 72.064ZM183.239 71.104C183.223 70.24 182.911 69.552 182.303 69.04C181.695 68.512 180.951 68.248 180.071 68.248C179.239 68.248 178.535 68.504 177.959 69.016C177.399 69.512 177.055 70.208 176.927 71.104H183.239ZM196.54 65.512C198.124 65.512 199.404 66.016 200.38 67.024C201.356 68.016 201.844 69.408 201.844 71.2V79H198.484V71.656C198.484 70.6 198.22 69.792 197.692 69.232C197.164 68.656 196.444 68.368 195.532 68.368C194.604 68.368 193.868 68.656 193.324 69.232C192.796 69.792 192.532 70.6 192.532 71.656V79H189.172V65.704H192.532V67.36C192.98 66.784 193.548 66.336 194.236 66.016C194.94 65.68 195.708 65.512 196.54 65.512ZM208.951 68.464V74.896C208.951 75.344 209.055 75.672 209.263 75.88C209.487 76.072 209.855 76.168 210.367 76.168H211.927V79H209.815C206.983 79 205.567 77.624 205.567 74.872V68.464H203.983V65.704H205.567V62.416H208.951V65.704H211.927V68.464H208.951ZM213.479 72.304C213.479 70.96 213.743 69.768 214.271 68.728C214.816 67.688 215.544 66.888 216.456 66.328C217.384 65.768 218.416 65.488 219.552 65.488C220.544 65.488 221.408 65.688 222.144 66.088C222.896 66.488 223.496 66.992 223.944 67.6V65.704H227.328V79H223.944V77.056C223.512 77.68 222.912 78.2 222.144 78.616C221.392 79.016 220.52 79.216 219.528 79.216C218.408 79.216 217.384 78.928 216.456 78.352C215.544 77.776 214.816 76.968 214.271 75.928C213.743 74.872 213.479 73.664 213.479 72.304ZM223.944 72.352C223.944 71.536 223.784 70.84 223.464 70.264C223.144 69.672 222.712 69.224 222.168 68.92C221.624 68.6 221.04 68.44 220.416 68.44C219.792 68.44 219.216 68.592 218.688 68.896C218.16 69.2 217.728 69.648 217.392 70.24C217.072 70.816 216.912 71.504 216.912 72.304C216.912 73.104 217.072 73.808 217.392 74.416C217.728 75.008 218.16 75.464 218.688 75.784C219.232 76.104 219.808 76.264 220.416 76.264C221.04 76.264 221.624 76.112 222.168 75.808C222.712 75.488 223.144 75.04 223.464 74.464C223.784 73.872 223.944 73.168 223.944 72.352ZM233.969 61.24V79H230.609V61.24H233.969ZM246.368 67.624C246.8 67.016 247.392 66.512 248.144 66.112C248.912 65.696 249.784 65.488 250.76 65.488C251.896 65.488 252.92 65.768 253.832 66.328C254.76 66.888 255.488 67.688 256.016 68.728C256.56 69.752 256.832 70.944 256.832 72.304C256.832 73.664 256.56 74.872 256.016 75.928C255.488 76.968 254.76 77.776 253.832 78.352C252.92 78.928 251.896 79.216 250.76 79.216C249.784 79.216 248.92 79.016 248.168 78.616C247.432 78.216 246.832 77.712 246.368 77.104V85.336H243.008V65.704H246.368V67.624ZM253.4 72.304C253.4 71.504 253.232 70.816 252.896 70.24C252.576 69.648 252.144 69.2 251.6 68.896C251.072 68.592 250.496 68.44 249.872 68.44C249.264 68.44 248.688 68.6 248.144 68.92C247.616 69.224 247.184 69.672 246.848 70.264C246.528 70.856 246.368 71.552 246.368 72.352C246.368 73.152 246.528 73.848 246.848 74.44C247.184 75.032 247.616 75.488 248.144 75.808C248.688 76.112 249.264 76.264 249.872 76.264C250.496 76.264 251.072 76.104 251.6 75.784C252.144 75.464 252.576 75.008 252.896 74.416C253.232 73.824 253.4 73.12 253.4 72.304ZM262.633 67.768C263.065 67.064 263.625 66.512 264.313 66.112C265.017 65.712 265.817 65.512 266.713 65.512V69.04H265.825C264.769 69.04 263.969 69.288 263.425 69.784C262.897 70.28 262.633 71.144 262.633 72.376V79H259.273V65.704H262.633V67.768ZM274.88 79.216C273.6 79.216 272.448 78.936 271.424 78.376C270.4 77.8 269.592 76.992 269 75.952C268.424 74.912 268.136 73.712 268.136 72.352C268.136 70.992 268.432 69.792 269.024 68.752C269.632 67.712 270.456 66.912 271.496 66.352C272.536 65.776 273.696 65.488 274.976 65.488C276.256 65.488 277.416 65.776 278.456 66.352C279.496 66.912 280.312 67.712 280.904 68.752C281.512 69.792 281.816 70.992 281.816 72.352C281.816 73.712 281.504 74.912 280.88 75.952C280.272 76.992 279.44 77.8 278.384 78.376C277.344 78.936 276.176 79.216 274.88 79.216ZM274.88 76.288C275.488 76.288 276.056 76.144 276.584 75.856C277.128 75.552 277.56 75.104 277.88 74.512C278.2 73.92 278.36 73.2 278.36 72.352C278.36 71.088 278.024 70.12 277.352 69.448C276.696 68.76 275.888 68.416 274.928 68.416C273.968 68.416 273.16 68.76 272.504 69.448C271.864 70.12 271.544 71.088 271.544 72.352C271.544 73.616 271.856 74.592 272.48 75.28C273.12 75.952 273.92 76.288 274.88 76.288ZM287.641 67.624C288.073 67.016 288.665 66.512 289.417 66.112C290.185 65.696 291.057 65.488 292.033 65.488C293.169 65.488 294.193 65.768 295.105 66.328C296.033 66.888 296.761 67.688 297.289 68.728C297.833 69.752 298.105 70.944 298.105 72.304C298.105 73.664 297.833 74.872 297.289 75.928C296.761 76.968 296.033 77.776 295.105 78.352C294.193 78.928 293.169 79.216 292.033 79.216C291.057 79.216 290.193 79.016 289.441 78.616C288.705 78.216 288.105 77.712 287.641 77.104V85.336H284.281V65.704H287.641V67.624ZM294.673 72.304C294.673 71.504 294.505 70.816 294.169 70.24C293.849 69.648 293.417 69.2 292.873 68.896C292.345 68.592 291.769 68.44 291.145 68.44C290.537 68.44 289.961 68.6 289.417 68.92C288.889 69.224 288.457 69.672 288.121 70.264C287.801 70.856 287.641 71.552 287.641 72.352C287.641 73.152 287.801 73.848 288.121 74.44C288.457 75.032 288.889 75.488 289.417 75.808C289.961 76.112 290.537 76.264 291.145 76.264C291.769 76.264 292.345 76.104 292.873 75.784C293.417 75.464 293.849 75.008 294.169 74.416C294.505 73.824 294.673 73.12 294.673 72.304ZM312.907 72.064C312.907 72.544 312.875 72.976 312.811 73.36H303.091C303.171 74.32 303.507 75.072 304.099 75.616C304.691 76.16 305.419 76.432 306.283 76.432C307.531 76.432 308.419 75.896 308.947 74.824H312.571C312.187 76.104 311.451 77.16 310.363 77.992C309.275 78.808 307.939 79.216 306.355 79.216C305.075 79.216 303.923 78.936 302.899 78.376C301.891 77.8 301.099 76.992 300.523 75.952C299.963 74.912 299.683 73.712 299.683 72.352C299.683 70.976 299.963 69.768 300.523 68.728C301.083 67.688 301.867 66.888 302.875 66.328C303.883 65.768 305.043 65.488 306.355 65.488C307.619 65.488 308.747 65.76 309.739 66.304C310.747 66.848 311.523 67.624 312.067 68.632C312.627 69.624 312.907 70.768 312.907 72.064ZM309.427 71.104C309.411 70.24 309.099 69.552 308.491 69.04C307.883 68.512 307.139 68.248 306.259 68.248C305.427 68.248 304.723 68.504 304.147 69.016C303.587 69.512 303.243 70.208 303.115 71.104H309.427ZM318.719 67.768C319.151 67.064 319.711 66.512 320.399 66.112C321.103 65.712 321.903 65.512 322.799 65.512V69.04H321.911C320.855 69.04 320.055 69.288 319.511 69.784C318.983 70.28 318.719 71.144 318.719 72.376V79H315.359V65.704H318.719V67.768ZM328.974 68.464V74.896C328.974 75.344 329.078 75.672 329.286 75.88C329.51 76.072 329.878 76.168 330.39 76.168H331.95V79H329.838C327.006 79 325.59 77.624 325.59 74.872V68.464H324.006V65.704H325.59V62.416H328.974V65.704H331.95V68.464H328.974ZM347.087 65.704L338.855 85.288H335.279L338.159 78.664L332.831 65.704H336.599L340.031 74.992L343.511 65.704H347.087Z" fill="white"/>
<rect x="273" y="141" width="345" height="112" rx="21" fill="#194056"/>
<rect x="289" y="165" width="64" height="64" rx="22" fill="#0A212E"/>
<path fill-rule="evenodd" clip-rule="evenodd" d="M327.618 212.833H314.38C310.725 212.833 307.762 210.005 307.762 206.517V198.794C307.762 197.672 307.295 196.597 306.464 195.804C304.539 193.967 304.789 190.923 306.991 189.395L317.106 182.375C319.427 180.764 322.571 180.764 324.892 182.375L335.008 189.395C337.21 190.923 337.46 193.967 335.535 195.804C334.704 196.597 334.237 197.672 334.237 198.794V206.517C334.237 210.005 331.274 212.833 327.618 212.833ZM324.166 193.917C323.338 193.917 322.666 194.588 322.666 195.417C322.666 196.245 323.338 196.917 324.166 196.917H324.906L322.583 201.562L320.069 196.535C319.147 194.692 316.518 194.692 315.597 196.535L311.741 204.246C311.371 204.987 311.671 205.888 312.412 206.258C313.153 206.629 314.054 206.328 314.424 205.587L317.833 198.771L320.347 203.798C321.268 205.641 323.897 205.641 324.819 203.798L327.333 198.771L327.574 199.254C327.945 199.995 328.846 200.295 329.587 199.925C330.328 199.554 330.628 198.653 330.258 197.912L328.674 194.746C328.42 194.238 327.901 193.917 327.333 193.917H324.166Z" fill="white"/>
<path d="M386.056 173.248V175.96H381.592V190H378.232V175.96H373.768V173.248H386.056ZM400.868 183.064C400.868 183.544 400.836 183.976 400.772 184.36H391.052C391.132 185.32 391.468 186.072 392.06 186.616C392.652 187.16 393.38 187.432 394.244 187.432C395.492 187.432 396.38 186.896 396.908 185.824H400.532C400.148 187.104 399.412 188.16 398.324 188.992C397.236 189.808 395.9 190.216 394.316 190.216C393.036 190.216 391.884 189.936 390.86 189.376C389.852 188.8 389.06 187.992 388.484 186.952C387.924 185.912 387.644 184.712 387.644 183.352C387.644 181.976 387.924 180.768 388.484 179.728C389.044 178.688 389.828 177.888 390.836 177.328C391.844 176.768 393.004 176.488 394.316 176.488C395.58 176.488 396.708 176.76 397.7 177.304C398.708 177.848 399.484 178.624 400.028 179.632C400.588 180.624 400.868 181.768 400.868 183.064ZM397.388 182.104C397.372 181.24 397.06 180.552 396.452 180.04C395.844 179.512 395.1 179.248 394.22 179.248C393.388 179.248 392.684 179.504 392.108 180.016C391.548 180.512 391.204 181.208 391.076 182.104H397.388ZM410.688 176.512C412.272 176.512 413.552 177.016 414.528 178.024C415.504 179.016 415.992 180.408 415.992 182.2V190H412.632V182.656C412.632 181.6 412.368 180.792 411.84 180.232C411.312 179.656 410.592 179.368 409.68 179.368C408.752 179.368 408.016 179.656 407.472 180.232C406.944 180.792 406.68 181.6 406.68 182.656V190H403.32V176.704H406.68V178.36C407.128 177.784 407.696 177.336 408.384 177.016C409.088 176.68 409.856 176.512 410.688 176.512ZM418.323 183.304C418.323 181.96 418.587 180.768 419.115 179.728C419.659 178.688 420.387 177.888 421.299 177.328C422.227 176.768 423.259 176.488 424.395 176.488C425.387 176.488 426.251 176.688 426.987 177.088C427.739 177.488 428.339 177.992 428.787 178.6V176.704H432.171V190H428.787V188.056C428.355 188.68 427.755 189.2 426.987 189.616C426.235 190.016 425.363 190.216 424.371 190.216C423.251 190.216 422.227 189.928 421.299 189.352C420.387 188.776 419.659 187.968 419.115 186.928C418.587 185.872 418.323 184.664 418.323 183.304ZM428.787 183.352C428.787 182.536 428.627 181.84 428.307 181.264C427.987 180.672 427.555 180.224 427.011 179.92C426.467 179.6 425.883 179.44 425.259 179.44C424.635 179.44 424.059 179.592 423.531 179.896C423.003 180.2 422.571 180.648 422.235 181.24C421.915 181.816 421.755 182.504 421.755 183.304C421.755 184.104 421.915 184.808 422.235 185.416C422.571 186.008 423.003 186.464 423.531 186.784C424.075 187.104 424.651 187.264 425.259 187.264C425.883 187.264 426.467 187.112 427.011 186.808C427.555 186.488 427.987 186.04 428.307 185.464C428.627 184.872 428.787 184.168 428.787 183.352ZM442.821 176.512C444.405 176.512 445.685 177.016 446.661 178.024C447.637 179.016 448.125 180.408 448.125 182.2V190H444.765V182.656C444.765 181.6 444.501 180.792 443.973 180.232C443.445 179.656 442.725 179.368 441.813 179.368C440.885 179.368 440.149 179.656 439.605 180.232C439.077 180.792 438.813 181.6 438.813 182.656V190H435.453V176.704H438.813V178.36C439.261 177.784 439.829 177.336 440.517 177.016C441.221 176.68 441.989 176.512 442.821 176.512ZM455.232 179.464V185.896C455.232 186.344 455.336 186.672 455.544 186.88C455.768 187.072 456.136 187.168 456.648 187.168H458.208V190H456.096C453.264 190 451.848 188.624 451.848 185.872V179.464H450.264V176.704H451.848V173.416H455.232V176.704H458.208V179.464H455.232ZM378.016 208.624C378.448 208.016 379.04 207.512 379.792 207.112C380.56 206.696 381.432 206.488 382.408 206.488C383.544 206.488 384.568 206.768 385.48 207.328C386.408 207.888 387.136 208.688 387.664 209.728C388.208 210.752 388.48 211.944 388.48 213.304C388.48 214.664 388.208 215.872 387.664 216.928C387.136 217.968 386.408 218.776 385.48 219.352C384.568 219.928 383.544 220.216 382.408 220.216C381.432 220.216 380.568 220.016 379.816 219.616C379.08 219.216 378.48 218.712 378.016 218.104V226.336H374.656V206.704H378.016V208.624ZM385.048 213.304C385.048 212.504 384.88 211.816 384.544 211.24C384.224 210.648 383.792 210.2 383.248 209.896C382.72 209.592 382.144 209.44 381.52 209.44C380.912 209.44 380.336 209.6 379.792 209.92C379.264 210.224 378.832 210.672 378.496 211.264C378.176 211.856 378.016 212.552 378.016 213.352C378.016 214.152 378.176 214.848 378.496 215.44C378.832 216.032 379.264 216.488 379.792 216.808C380.336 217.112 380.912 217.264 381.52 217.264C382.144 217.264 382.72 217.104 383.248 216.784C383.792 216.464 384.224 216.008 384.544 215.416C384.88 214.824 385.048 214.12 385.048 213.304ZM390.058 213.304C390.058 211.96 390.322 210.768 390.85 209.728C391.394 208.688 392.122 207.888 393.034 207.328C393.962 206.768 394.994 206.488 396.13 206.488C397.122 206.488 397.986 206.688 398.722 207.088C399.474 207.488 400.074 207.992 400.522 208.6V206.704H403.906V220H400.522V218.056C400.09 218.68 399.49 219.2 398.722 219.616C397.97 220.016 397.098 220.216 396.106 220.216C394.986 220.216 393.962 219.928 393.034 219.352C392.122 218.776 391.394 217.968 390.85 216.928C390.322 215.872 390.058 214.664 390.058 213.304ZM400.522 213.352C400.522 212.536 400.362 211.84 400.042 211.264C399.722 210.672 399.29 210.224 398.746 209.92C398.202 209.6 397.618 209.44 396.994 209.44C396.37 209.44 395.794 209.592 395.266 209.896C394.738 210.2 394.306 210.648 393.97 211.24C393.65 211.816 393.49 212.504 393.49 213.304C393.49 214.104 393.65 214.808 393.97 215.416C394.306 216.008 394.738 216.464 395.266 216.784C395.81 217.104 396.386 217.264 396.994 217.264C397.618 217.264 398.202 217.112 398.746 216.808C399.29 216.488 399.722 216.04 400.042 215.464C400.362 214.872 400.522 214.168 400.522 213.352ZM419.907 206.704L411.675 226.288H408.099L410.979 219.664L405.651 206.704H409.419L412.851 215.992L416.331 206.704H419.907ZM426.807 220.216C425.719 220.216 424.743 220.024 423.879 219.64C423.015 219.24 422.327 218.704 421.815 218.032C421.319 217.36 421.047 216.616 420.999 215.8H424.383C424.447 216.312 424.695 216.736 425.127 217.072C425.575 217.408 426.127 217.576 426.783 217.576C427.423 217.576 427.919 217.448 428.271 217.192C428.639 216.936 428.823 216.608 428.823 216.208C428.823 215.776 428.599 215.456 428.151 215.248C427.719 215.024 427.023 214.784 426.062 214.528C425.071 214.288 424.255 214.04 423.615 213.784C422.991 213.528 422.447 213.136 421.983 212.608C421.535 212.08 421.311 211.368 421.311 210.472C421.311 209.736 421.519 209.064 421.935 208.456C422.367 207.848 422.975 207.368 423.759 207.016C424.559 206.664 425.495 206.488 426.567 206.488C428.151 206.488 429.415 206.888 430.359 207.688C431.303 208.472 431.823 209.536 431.919 210.88H428.703C428.655 210.352 428.431 209.936 428.031 209.632C427.647 209.312 427.127 209.152 426.471 209.152C425.863 209.152 425.391 209.264 425.055 209.488C424.735 209.712 424.575 210.024 424.575 210.424C424.575 210.872 424.799 211.216 425.247 211.456C425.695 211.68 426.391 211.912 427.335 212.152C428.295 212.392 429.087 212.64 429.711 212.896C430.335 213.152 430.871 213.552 431.319 214.096C431.783 214.624 432.023 215.328 432.039 216.208C432.039 216.976 431.823 217.664 431.391 218.272C430.975 218.88 430.367 219.36 429.567 219.712C428.783 220.048 427.863 220.216 426.807 220.216ZM443.875 208.768C444.307 208.064 444.867 207.512 445.555 207.112C446.259 206.712 447.059 206.512 447.955 206.512V210.04H447.067C446.011 210.04 445.211 210.288 444.667 210.784C444.139 211.28 443.875 212.144 443.875 213.376V220H440.515V206.704H443.875V208.768ZM462.579 213.064C462.579 213.544 462.547 213.976 462.483 214.36H452.763C452.843 215.32 453.179 216.072 453.771 216.616C454.363 217.16 455.091 217.432 455.955 217.432C457.203 217.432 458.091 216.896 458.619 215.824H462.243C461.859 217.104 461.123 218.16 460.035 218.992C458.947 219.808 457.611 220.216 456.027 220.216C454.747 220.216 453.595 219.936 452.571 219.376C451.563 218.8 450.771 217.992 450.195 216.952C449.635 215.912 449.354 214.712 449.354 213.352C449.354 211.976 449.635 210.768 450.195 209.728C450.755 208.688 451.539 207.888 452.547 207.328C453.555 206.768 454.715 206.488 456.027 206.488C457.291 206.488 458.419 206.76 459.411 207.304C460.419 207.848 461.195 208.624 461.739 209.632C462.299 210.624 462.579 211.768 462.579 213.064ZM459.099 212.104C459.083 211.24 458.771 210.552 458.163 210.04C457.555 209.512 456.811 209.248 455.931 209.248C455.099 209.248 454.395 209.504 453.819 210.016C453.259 210.512 452.915 211.208 452.787 212.104H459.099ZM472.399 206.512C473.983 206.512 475.263 207.016 476.239 208.024C477.215 209.016 477.703 210.408 477.703 212.2V220H474.343V212.656C474.343 211.6 474.079 210.792 473.551 210.232C473.023 209.656 472.303 209.368 471.391 209.368C470.463 209.368 469.727 209.656 469.183 210.232C468.655 210.792 468.391 211.6 468.391 212.656V220H465.031V206.704H468.391V208.36C468.839 207.784 469.407 207.336 470.095 207.016C470.799 206.68 471.567 206.512 472.399 206.512ZM484.81 209.464V215.896C484.81 216.344 484.914 216.672 485.122 216.88C485.346 217.072 485.714 217.168 486.226 217.168H487.786V220H485.674C482.842 220 481.426 218.624 481.426 215.872V209.464H479.842V206.704H481.426V203.416H484.81V206.704H487.786V209.464H484.81Z" fill="white"/>
<path d="M428 54L410.309 45.7863C409.353 45.234 408 46.0151 408 47.1197V64.8803C408 65.9849 409.353 66.766 410.309 66.2137L428 58V54ZM622 195C620.895 195 620 195.895 620 197C620 198.105 620.895 199 622 199V195ZM426 58H638V54H426V58ZM660 80V173H664V80H660ZM638 195H622V199H638V195ZM660 173C660 185.15 650.15 195 638 195V199C652.359 199 664 187.359 664 173H660ZM638 58C650.15 58 660 67.8497 660 80H664C664 65.6406 652.359 54 638 54V58Z" fill="#CACBD0"/>
<rect x="273" y="285" width="345" height="112" rx="21" fill="#194056"/>
<rect x="289" y="309" width="64" height="64" rx="22" fill="#0A212E"/>
<path fill-rule="evenodd" clip-rule="evenodd" d="M319.489 326.75H322.511C324.181 326.75 325.534 328.026 325.534 329.6C325.534 331.401 327.461 332.546 329.043 331.685L329.204 331.598C330.65 330.811 332.498 331.278 333.333 332.641L334.845 335.109C335.679 336.472 335.184 338.215 333.738 339.002C332.155 339.864 332.155 342.136 333.738 342.998C335.184 343.785 335.679 345.528 334.845 346.891L333.333 349.359C332.498 350.722 330.65 351.189 329.204 350.402L329.043 350.315C327.461 349.454 325.534 350.599 325.534 352.4C325.534 353.974 324.181 355.25 322.511 355.25H319.489C317.819 355.25 316.466 353.974 316.466 352.4C316.466 350.599 314.539 349.454 312.957 350.315L312.796 350.402C311.35 351.189 309.502 350.722 308.667 349.359L307.155 346.891C306.321 345.528 306.816 343.785 308.262 342.998C309.845 342.136 309.845 339.864 308.262 339.002C306.816 338.215 306.321 336.472 307.155 335.109L308.667 332.641C309.502 331.278 311.35 330.811 312.796 331.598L312.957 331.685C314.539 332.546 316.466 331.401 316.466 329.6C316.466 328.026 317.819 326.75 319.489 326.75ZM321 345.75C323.623 345.75 325.75 343.623 325.75 341C325.75 338.377 323.623 336.25 321 336.25C318.377 336.25 316.25 338.377 316.25 341C316.25 343.623 318.377 345.75 321 345.75Z" fill="white"/>
<path d="M392.92 317.248V334H389.56V323.104L385.072 334H382.528L378.016 323.104V334H374.656V317.248H378.472L383.8 329.704L389.128 317.248H392.92ZM395.378 327.304C395.378 325.96 395.642 324.768 396.17 323.728C396.714 322.688 397.442 321.888 398.354 321.328C399.282 320.768 400.314 320.488 401.45 320.488C402.442 320.488 403.306 320.688 404.042 321.088C404.794 321.488 405.394 321.992 405.842 322.6V320.704H409.226V334H405.842V332.056C405.41 332.68 404.81 333.2 404.042 333.616C403.29 334.016 402.418 334.216 401.426 334.216C400.306 334.216 399.282 333.928 398.354 333.352C397.442 332.776 396.714 331.968 396.17 330.928C395.642 329.872 395.378 328.664 395.378 327.304ZM405.842 327.352C405.842 326.536 405.682 325.84 405.362 325.264C405.042 324.672 404.61 324.224 404.066 323.92C403.522 323.6 402.938 323.44 402.314 323.44C401.69 323.44 401.114 323.592 400.586 323.896C400.058 324.2 399.626 324.648 399.29 325.24C398.97 325.816 398.81 326.504 398.81 327.304C398.81 328.104 398.97 328.808 399.29 329.416C399.626 330.008 400.058 330.464 400.586 330.784C401.13 331.104 401.706 331.264 402.314 331.264C402.938 331.264 403.522 331.112 404.066 330.808C404.61 330.488 405.042 330.04 405.362 329.464C405.682 328.872 405.842 328.168 405.842 327.352ZM419.876 320.512C421.46 320.512 422.74 321.016 423.716 322.024C424.692 323.016 425.18 324.408 425.18 326.2V334H421.82V326.656C421.82 325.6 421.556 324.792 421.028 324.232C420.5 323.656 419.78 323.368 418.868 323.368C417.94 323.368 417.204 323.656 416.66 324.232C416.132 324.792 415.868 325.6 415.868 326.656V334H412.508V320.704H415.868V322.36C416.316 321.784 416.884 321.336 417.572 321.016C418.276 320.68 419.044 320.512 419.876 320.512ZM427.511 327.304C427.511 325.96 427.775 324.768 428.303 323.728C428.847 322.688 429.575 321.888 430.487 321.328C431.415 320.768 432.447 320.488 433.583 320.488C434.575 320.488 435.439 320.688 436.175 321.088C436.927 321.488 437.527 321.992 437.975 322.6V320.704H441.359V334H437.975V332.056C437.543 332.68 436.943 333.2 436.175 333.616C435.423 334.016 434.551 334.216 433.559 334.216C432.439 334.216 431.415 333.928 430.487 333.352C429.575 332.776 428.847 331.968 428.303 330.928C427.775 329.872 427.511 328.664 427.511 327.304ZM437.975 327.352C437.975 326.536 437.815 325.84 437.495 325.264C437.175 324.672 436.743 324.224 436.199 323.92C435.655 323.6 435.071 323.44 434.447 323.44C433.823 323.44 433.247 323.592 432.719 323.896C432.191 324.2 431.759 324.648 431.423 325.24C431.103 325.816 430.943 326.504 430.943 327.304C430.943 328.104 431.103 328.808 431.423 329.416C431.759 330.008 432.191 330.464 432.719 330.784C433.263 331.104 433.839 331.264 434.447 331.264C435.071 331.264 435.655 331.112 436.199 330.808C436.743 330.488 437.175 330.04 437.495 329.464C437.815 328.872 437.975 328.168 437.975 327.352ZM449.848 320.488C450.84 320.488 451.712 320.688 452.464 321.088C453.216 321.472 453.808 321.976 454.24 322.6V320.704H457.624V334.096C457.624 335.328 457.376 336.424 456.88 337.384C456.384 338.36 455.64 339.128 454.648 339.688C453.656 340.264 452.456 340.552 451.048 340.552C449.16 340.552 447.608 340.112 446.392 339.232C445.192 338.352 444.512 337.152 444.352 335.632H447.688C447.864 336.24 448.24 336.72 448.816 337.072C449.408 337.44 450.12 337.624 450.952 337.624C451.928 337.624 452.72 337.328 453.328 336.736C453.936 336.16 454.24 335.28 454.24 334.096V332.032C453.808 332.656 453.208 333.176 452.44 333.592C451.688 334.008 450.824 334.216 449.848 334.216C448.728 334.216 447.704 333.928 446.776 333.352C445.848 332.776 445.112 331.968 444.568 330.928C444.04 329.872 443.776 328.664 443.776 327.304C443.776 325.96 444.04 324.768 444.568 323.728C445.112 322.688 445.84 321.888 446.752 321.328C447.68 320.768 448.712 320.488 449.848 320.488ZM454.24 327.352C454.24 326.536 454.08 325.84 453.76 325.264C453.44 324.672 453.008 324.224 452.464 323.92C451.92 323.6 451.336 323.44 450.712 323.44C450.088 323.44 449.512 323.592 448.984 323.896C448.456 324.2 448.024 324.648 447.688 325.24C447.368 325.816 447.208 326.504 447.208 327.304C447.208 328.104 447.368 328.808 447.688 329.416C448.024 330.008 448.456 330.464 448.984 330.784C449.528 331.104 450.104 331.264 450.712 331.264C451.336 331.264 451.92 331.112 452.464 330.808C453.008 330.488 453.44 330.04 453.76 329.464C454.08 328.872 454.24 328.168 454.24 327.352ZM473.266 327.064C473.266 327.544 473.234 327.976 473.17 328.36H463.45C463.53 329.32 463.866 330.072 464.458 330.616C465.05 331.16 465.778 331.432 466.642 331.432C467.89 331.432 468.778 330.896 469.306 329.824H472.93C472.546 331.104 471.81 332.16 470.722 332.992C469.634 333.808 468.298 334.216 466.714 334.216C465.434 334.216 464.282 333.936 463.258 333.376C462.25 332.8 461.458 331.992 460.882 330.952C460.322 329.912 460.042 328.712 460.042 327.352C460.042 325.976 460.322 324.768 460.882 323.728C461.442 322.688 462.226 321.888 463.234 321.328C464.242 320.768 465.402 320.488 466.714 320.488C467.978 320.488 469.106 320.76 470.098 321.304C471.106 321.848 471.882 322.624 472.426 323.632C472.986 324.624 473.266 325.768 473.266 327.064ZM469.786 326.104C469.77 325.24 469.458 324.552 468.85 324.04C468.242 323.512 467.498 323.248 466.618 323.248C465.786 323.248 465.082 323.504 464.506 324.016C463.946 324.512 463.602 325.208 463.474 326.104H469.786ZM492.231 320.512C493.863 320.512 495.175 321.016 496.167 322.024C497.175 323.016 497.679 324.408 497.679 326.2V334H494.319V326.656C494.319 325.616 494.055 324.824 493.527 324.28C492.999 323.72 492.279 323.44 491.367 323.44C490.455 323.44 489.727 323.72 489.183 324.28C488.655 324.824 488.391 325.616 488.391 326.656V334H485.031V326.656C485.031 325.616 484.767 324.824 484.239 324.28C483.711 323.72 482.991 323.44 482.079 323.44C481.151 323.44 480.415 323.72 479.871 324.28C479.343 324.824 479.079 325.616 479.079 326.656V334H475.719V320.704H479.079V322.312C479.511 321.752 480.063 321.312 480.735 320.992C481.423 320.672 482.175 320.512 482.991 320.512C484.031 320.512 484.959 320.736 485.775 321.184C486.591 321.616 487.223 322.24 487.671 323.056C488.103 322.288 488.727 321.672 489.543 321.208C490.375 320.744 491.271 320.512 492.231 320.512ZM513.227 327.064C513.227 327.544 513.195 327.976 513.131 328.36H503.411C503.491 329.32 503.827 330.072 504.419 330.616C505.011 331.16 505.739 331.432 506.603 331.432C507.851 331.432 508.739 330.896 509.267 329.824H512.891C512.507 331.104 511.771 332.16 510.683 332.992C509.595 333.808 508.259 334.216 506.675 334.216C505.395 334.216 504.243 333.936 503.219 333.376C502.211 332.8 501.419 331.992 500.843 330.952C500.283 329.912 500.003 328.712 500.003 327.352C500.003 325.976 500.283 324.768 500.843 323.728C501.403 322.688 502.187 321.888 503.195 321.328C504.203 320.768 505.363 320.488 506.675 320.488C507.939 320.488 509.067 320.76 510.059 321.304C511.067 321.848 511.843 322.624 512.387 323.632C512.947 324.624 513.227 325.768 513.227 327.064ZM509.747 326.104C509.731 325.24 509.419 324.552 508.811 324.04C508.203 323.512 507.459 323.248 506.579 323.248C505.747 323.248 505.043 323.504 504.467 324.016C503.907 324.512 503.563 325.208 503.435 326.104H509.747ZM523.047 320.512C524.631 320.512 525.911 321.016 526.887 322.024C527.863 323.016 528.351 324.408 528.351 326.2V334H524.991V326.656C524.991 325.6 524.727 324.792 524.199 324.232C523.671 323.656 522.951 323.368 522.039 323.368C521.111 323.368 520.375 323.656 519.831 324.232C519.303 324.792 519.039 325.6 519.039 326.656V334H515.679V320.704H519.039V322.36C519.487 321.784 520.055 321.336 520.743 321.016C521.447 320.68 522.215 320.512 523.047 320.512ZM535.459 323.464V329.896C535.459 330.344 535.563 330.672 535.771 330.88C535.995 331.072 536.363 331.168 536.875 331.168H538.435V334H536.323C533.491 334 532.075 332.624 532.075 329.872V323.464H530.491V320.704H532.075V317.416H535.459V320.704H538.435V323.464H535.459ZM373.84 355.6C373.84 353.952 374.208 352.48 374.944 351.184C375.696 349.872 376.712 348.856 377.992 348.136C379.288 347.4 380.736 347.032 382.336 347.032C384.208 347.032 385.848 347.512 387.256 348.472C388.664 349.432 389.648 350.76 390.208 352.456H386.344C385.96 351.656 385.416 351.056 384.712 350.656C384.024 350.256 383.224 350.056 382.312 350.056C381.336 350.056 380.464 350.288 379.696 350.752C378.944 351.2 378.352 351.84 377.92 352.672C377.504 353.504 377.296 354.48 377.296 355.6C377.296 356.704 377.504 357.68 377.92 358.528C378.352 359.36 378.944 360.008 379.696 360.472C380.464 360.92 381.336 361.144 382.312 361.144C383.224 361.144 384.024 360.944 384.712 360.544C385.416 360.128 385.96 359.52 386.344 358.72H390.208C389.648 360.432 388.664 361.768 387.256 362.728C385.864 363.672 384.224 364.144 382.336 364.144C380.736 364.144 379.288 363.784 377.992 363.064C376.712 362.328 375.696 361.312 374.944 360.016C374.208 358.72 373.84 357.248 373.84 355.6ZM398.982 364.216C397.702 364.216 396.55 363.936 395.526 363.376C394.502 362.8 393.694 361.992 393.102 360.952C392.526 359.912 392.238 358.712 392.238 357.352C392.238 355.992 392.534 354.792 393.126 353.752C393.734 352.712 394.558 351.912 395.598 351.352C396.638 350.776 397.798 350.488 399.078 350.488C400.358 350.488 401.518 350.776 402.558 351.352C403.598 351.912 404.414 352.712 405.006 353.752C405.614 354.792 405.918 355.992 405.918 357.352C405.918 358.712 405.606 359.912 404.982 360.952C404.374 361.992 403.542 362.8 402.486 363.376C401.446 363.936 400.278 364.216 398.982 364.216ZM398.982 361.288C399.59 361.288 400.158 361.144 400.686 360.856C401.23 360.552 401.662 360.104 401.982 359.512C402.302 358.92 402.462 358.2 402.462 357.352C402.462 356.088 402.126 355.12 401.454 354.448C400.798 353.76 399.99 353.416 399.03 353.416C398.07 353.416 397.262 353.76 396.606 354.448C395.966 355.12 395.646 356.088 395.646 357.352C395.646 358.616 395.958 359.592 396.582 360.28C397.222 360.952 398.022 361.288 398.982 361.288ZM424.895 350.512C426.527 350.512 427.839 351.016 428.831 352.024C429.839 353.016 430.343 354.408 430.343 356.2V364H426.983V356.656C426.983 355.616 426.719 354.824 426.191 354.28C425.663 353.72 424.943 353.44 424.031 353.44C423.119 353.44 422.391 353.72 421.847 354.28C421.319 354.824 421.055 355.616 421.055 356.656V364H417.695V356.656C417.695 355.616 417.431 354.824 416.903 354.28C416.375 353.72 415.655 353.44 414.743 353.44C413.815 353.44 413.079 353.72 412.535 354.28C412.007 354.824 411.743 355.616 411.743 356.656V364H408.383V350.704H411.743V352.312C412.175 351.752 412.727 351.312 413.399 350.992C414.087 350.672 414.839 350.512 415.655 350.512C416.695 350.512 417.623 350.736 418.439 351.184C419.255 351.616 419.887 352.24 420.335 353.056C420.767 352.288 421.391 351.672 422.207 351.208C423.039 350.744 423.935 350.512 424.895 350.512ZM436.891 352.624C437.323 352.016 437.915 351.512 438.667 351.112C439.435 350.696 440.307 350.488 441.283 350.488C442.419 350.488 443.443 350.768 444.355 351.328C445.283 351.888 446.011 352.688 446.539 353.728C447.083 354.752 447.355 355.944 447.355 357.304C447.355 358.664 447.083 359.872 446.539 360.928C446.011 361.968 445.283 362.776 444.355 363.352C443.443 363.928 442.419 364.216 441.283 364.216C440.307 364.216 439.443 364.016 438.691 363.616C437.955 363.216 437.355 362.712 436.891 362.104V370.336H433.531V350.704H436.891V352.624ZM443.923 357.304C443.923 356.504 443.755 355.816 443.419 355.24C443.099 354.648 442.667 354.2 442.123 353.896C441.595 353.592 441.019 353.44 440.395 353.44C439.787 353.44 439.211 353.6 438.667 353.92C438.139 354.224 437.707 354.672 437.371 355.264C437.051 355.856 436.891 356.552 436.891 357.352C436.891 358.152 437.051 358.848 437.371 359.44C437.707 360.032 438.139 360.488 438.667 360.808C439.211 361.112 439.787 361.264 440.395 361.264C441.019 361.264 441.595 361.104 442.123 360.784C442.667 360.464 443.099 360.008 443.419 359.416C443.755 358.824 443.923 358.12 443.923 357.304ZM448.933 357.304C448.933 355.96 449.197 354.768 449.725 353.728C450.269 352.688 450.997 351.888 451.909 351.328C452.837 350.768 453.869 350.488 455.005 350.488C455.997 350.488 456.861 350.688 457.597 351.088C458.349 351.488 458.949 351.992 459.397 352.6V350.704H462.781V364H459.397V362.056C458.965 362.68 458.365 363.2 457.597 363.616C456.845 364.016 455.973 364.216 454.981 364.216C453.861 364.216 452.837 363.928 451.909 363.352C450.997 362.776 450.269 361.968 449.725 360.928C449.197 359.872 448.933 358.664 448.933 357.304ZM459.397 357.352C459.397 356.536 459.237 355.84 458.917 355.264C458.597 354.672 458.165 354.224 457.621 353.92C457.077 353.6 456.493 353.44 455.869 353.44C455.245 353.44 454.669 353.592 454.141 353.896C453.613 354.2 453.181 354.648 452.845 355.24C452.525 355.816 452.365 356.504 452.365 357.304C452.365 358.104 452.525 358.808 452.845 359.416C453.181 360.008 453.613 360.464 454.141 360.784C454.685 361.104 455.261 361.264 455.869 361.264C456.493 361.264 457.077 361.112 457.621 360.808C458.165 360.488 458.597 360.04 458.917 359.464C459.237 358.872 459.397 358.168 459.397 357.352ZM473.43 350.512C475.014 350.512 476.294 351.016 477.27 352.024C478.246 353.016 478.734 354.408 478.734 356.2V364H475.374V356.656C475.374 355.6 475.11 354.792 474.582 354.232C474.054 353.656 473.334 353.368 472.422 353.368C471.494 353.368 470.758 353.656 470.214 354.232C469.686 354.792 469.422 355.6 469.422 356.656V364H466.062V350.704H469.422V352.36C469.87 351.784 470.438 351.336 471.126 351.016C471.83 350.68 472.598 350.512 473.43 350.512ZM494.649 350.704L486.417 370.288H482.841L485.721 363.664L480.393 350.704H484.161L487.593 359.992L491.073 350.704H494.649Z" fill="white"/>
<path d="M622 197H642C655.255 197 666 207.745 666 221V317C666 330.255 655.255 341 642 341H622" stroke="#CACBD0" stroke-width="4" stroke-miterlimit="0" stroke-linecap="round" stroke-linejoin="bevel"/>
<rect x="273" y="429" width="345" height="112" rx="21" fill="#194056"/>
<rect x="289" y="453" width="64" height="64" rx="22" fill="#0A212E"/>
<path d="M306.801 479.854L335.197 479.854C336.812 479.854 337.447 477.714 336.103 476.799L322.81 467.748C321.714 467.001 320.285 467.001 319.188 467.748L305.896 476.799C304.552 477.714 305.186 479.854 306.801 479.854Z" fill="white"/>
<path d="M310.708 482.229H315.458V490.146H310.708V482.229Z" fill="white"/>
<path d="M331.291 482.229H326.541V490.146H331.291V482.229Z" fill="white"/>
<path d="M318.624 482.229H323.374V490.146H318.624V482.229Z" fill="white"/>
<path d="M334.104 493.396C333.835 492.86 333.287 492.521 332.687 492.521L309.311 492.521C308.712 492.521 308.163 492.86 307.895 493.396L306.312 496.563C305.785 497.616 306.551 498.854 307.728 498.854H334.271C335.448 498.854 336.213 497.616 335.687 496.563L334.104 493.396Z" fill="white"/>
<path d="M384.16 484.408C385.104 484.584 385.88 485.056 386.488 485.824C387.096 486.592 387.4 487.472 387.4 488.464C387.4 489.36 387.176 490.152 386.728 490.84C386.296 491.512 385.664 492.04 384.832 492.424C384 492.808 383.016 493 381.88 493H374.656V476.248H381.568C382.704 476.248 383.68 476.432 384.496 476.8C385.328 477.168 385.952 477.68 386.368 478.336C386.8 478.992 387.016 479.736 387.016 480.568C387.016 481.544 386.752 482.36 386.224 483.016C385.712 483.672 385.024 484.136 384.16 484.408ZM378.016 483.16H381.088C381.888 483.16 382.504 482.984 382.936 482.632C383.368 482.264 383.584 481.744 383.584 481.072C383.584 480.4 383.368 479.88 382.936 479.512C382.504 479.144 381.888 478.96 381.088 478.96H378.016V483.16ZM381.4 490.264C382.216 490.264 382.848 490.072 383.296 489.688C383.76 489.304 383.992 488.76 383.992 488.056C383.992 487.336 383.752 486.776 383.272 486.376C382.792 485.96 382.144 485.752 381.328 485.752H378.016V490.264H381.4ZM389.214 486.304C389.214 484.96 389.478 483.768 390.006 482.728C390.55 481.688 391.278 480.888 392.19 480.328C393.118 479.768 394.15 479.488 395.286 479.488C396.278 479.488 397.142 479.688 397.878 480.088C398.63 480.488 399.23 480.992 399.678 481.6V479.704H403.062V493H399.678V491.056C399.246 491.68 398.646 492.2 397.878 492.616C397.126 493.016 396.254 493.216 395.262 493.216C394.142 493.216 393.118 492.928 392.19 492.352C391.278 491.776 390.55 490.968 390.006 489.928C389.478 488.872 389.214 487.664 389.214 486.304ZM399.678 486.352C399.678 485.536 399.518 484.84 399.198 484.264C398.878 483.672 398.446 483.224 397.902 482.92C397.358 482.6 396.774 482.44 396.15 482.44C395.526 482.44 394.95 482.592 394.422 482.896C393.894 483.2 393.462 483.648 393.126 484.24C392.806 484.816 392.646 485.504 392.646 486.304C392.646 487.104 392.806 487.808 393.126 488.416C393.462 489.008 393.894 489.464 394.422 489.784C394.966 490.104 395.542 490.264 396.15 490.264C396.774 490.264 397.358 490.112 397.902 489.808C398.446 489.488 398.878 489.04 399.198 488.464C399.518 487.872 399.678 487.168 399.678 486.352ZM413.712 479.512C415.296 479.512 416.576 480.016 417.552 481.024C418.528 482.016 419.016 483.408 419.016 485.2V493H415.656V485.656C415.656 484.6 415.392 483.792 414.864 483.232C414.336 482.656 413.616 482.368 412.704 482.368C411.776 482.368 411.04 482.656 410.496 483.232C409.968 483.792 409.704 484.6 409.704 485.656V493H406.344V479.704H409.704V481.36C410.152 480.784 410.72 480.336 411.408 480.016C412.112 479.68 412.88 479.512 413.712 479.512ZM430.083 493L425.571 487.336V493H422.211V475.24H425.571V485.344L430.035 479.704H434.403L428.547 486.376L434.451 493H430.083Z" fill="white"/>
<path d="M622 341H642C655.255 341 666 351.745 666 365V461C666 474.255 655.255 485 642 485H622" stroke="#CACBD0" stroke-width="4" stroke-miterlimit="0" stroke-linecap="round" stroke-linejoin="bevel"/>
<rect x="273" y="573" width="345" height="112" rx="21" fill="#407E9D"/>
<rect x="289" y="597" width="64" height="64" rx="22" fill="#0A212E"/>
<path fill-rule="evenodd" clip-rule="evenodd" d="M326.703 618.312H315.297C313.456 615.826 315.936 612.347 319.016 613.34L320.485 613.814C320.82 613.922 321.181 613.922 321.515 613.814L322.984 613.34C326.064 612.347 328.544 615.826 326.703 618.312ZM315.468 620.687H326.532C328.621 621.844 330.253 623.775 331 626.166L332.979 632.5C334.891 638.617 330.321 644.833 323.912 644.833H318.089C311.68 644.833 307.109 638.617 309.021 632.5L311 626.166C311.748 623.775 313.379 621.844 315.468 620.687ZM322.25 625.042C322.25 624.351 321.69 623.792 321 623.792C320.31 623.792 319.75 624.351 319.75 625.042V626.333C317.998 626.808 316.583 628.259 316.583 630.187C316.583 632.56 318.723 634.208 321 634.208C322.221 634.208 322.917 635.041 322.917 635.729C322.917 636.417 322.221 637.25 321 637.25C319.78 637.25 319.083 636.417 319.083 635.729C319.083 635.039 318.524 634.479 317.833 634.479C317.143 634.479 316.583 635.039 316.583 635.729C316.583 637.658 317.998 639.108 319.75 639.583V640.875C319.75 641.565 320.31 642.125 321 642.125C321.69 642.125 322.25 641.565 322.25 640.875V639.583C324.003 639.108 325.417 637.658 325.417 635.729C325.417 633.357 323.277 631.708 321 631.708C319.78 631.708 319.083 630.876 319.083 630.187C319.083 629.499 319.78 628.667 321 628.667C322.221 628.667 322.917 629.499 322.917 630.187C322.917 630.878 323.476 631.437 324.167 631.437C324.857 631.437 325.417 630.878 325.417 630.187C325.417 628.259 324.003 626.808 322.25 626.333V625.042Z" fill="white"/>
<path d="M380.512 605.248C382.272 605.248 383.816 605.592 385.144 606.28C386.488 606.968 387.52 607.952 388.24 609.232C388.976 610.496 389.344 611.968 389.344 613.648C389.344 615.328 388.976 616.8 388.24 618.064C387.52 619.312 386.488 620.28 385.144 620.968C383.816 621.656 382.272 622 380.512 622H374.656V605.248H380.512ZM380.392 619.144C382.152 619.144 383.512 618.664 384.472 617.704C385.432 616.744 385.912 615.392 385.912 613.648C385.912 611.904 385.432 610.544 384.472 609.568C383.512 608.576 382.152 608.08 380.392 608.08H378.016V619.144H380.392ZM404.219 615.064C404.219 615.544 404.187 615.976 404.123 616.36H394.403C394.483 617.32 394.819 618.072 395.411 618.616C396.003 619.16 396.731 619.432 397.595 619.432C398.843 619.432 399.731 618.896 400.259 617.824H403.883C403.499 619.104 402.763 620.16 401.675 620.992C400.587 621.808 399.251 622.216 397.667 622.216C396.387 622.216 395.235 621.936 394.211 621.376C393.203 620.8 392.411 619.992 391.835 618.952C391.275 617.912 390.995 616.712 390.995 615.352C390.995 613.976 391.275 612.768 391.835 611.728C392.395 610.688 393.179 609.888 394.187 609.328C395.195 608.768 396.355 608.488 397.667 608.488C398.931 608.488 400.059 608.76 401.051 609.304C402.059 609.848 402.835 610.624 403.379 611.632C403.939 612.624 404.219 613.768 404.219 615.064ZM400.739 614.104C400.723 613.24 400.411 612.552 399.803 612.04C399.195 611.512 398.451 611.248 397.571 611.248C396.739 611.248 396.035 611.504 395.459 612.016C394.899 612.512 394.555 613.208 394.427 614.104H400.739ZM410.032 610.624C410.464 610.016 411.056 609.512 411.808 609.112C412.576 608.696 413.448 608.488 414.424 608.488C415.56 608.488 416.584 608.768 417.496 609.328C418.424 609.888 419.152 610.688 419.68 611.728C420.224 612.752 420.496 613.944 420.496 615.304C420.496 616.664 420.224 617.872 419.68 618.928C419.152 619.968 418.424 620.776 417.496 621.352C416.584 621.928 415.56 622.216 414.424 622.216C413.448 622.216 412.584 622.016 411.832 621.616C411.096 621.216 410.496 620.712 410.032 620.104V628.336H406.672V608.704H410.032V610.624ZM417.064 615.304C417.064 614.504 416.896 613.816 416.56 613.24C416.24 612.648 415.808 612.2 415.264 611.896C414.736 611.592 414.16 611.44 413.536 611.44C412.928 611.44 412.352 611.6 411.808 611.92C411.28 612.224 410.848 612.672 410.512 613.264C410.192 613.856 410.032 614.552 410.032 615.352C410.032 616.152 410.192 616.848 410.512 617.44C410.848 618.032 411.28 618.488 411.808 618.808C412.352 619.112 412.928 619.264 413.536 619.264C414.16 619.264 414.736 619.104 415.264 618.784C415.808 618.464 416.24 618.008 416.56 617.416C416.896 616.824 417.064 616.12 417.064 615.304ZM428.841 622.216C427.561 622.216 426.409 621.936 425.385 621.376C424.361 620.8 423.553 619.992 422.961 618.952C422.385 617.912 422.097 616.712 422.097 615.352C422.097 613.992 422.393 612.792 422.985 611.752C423.593 610.712 424.417 609.912 425.457 609.352C426.497 608.776 427.657 608.488 428.937 608.488C430.217 608.488 431.377 608.776 432.417 609.352C433.457 609.912 434.273 610.712 434.865 611.752C435.473 612.792 435.777 613.992 435.777 615.352C435.777 616.712 435.465 617.912 434.841 618.952C434.233 619.992 433.401 620.8 432.345 621.376C431.305 621.936 430.137 622.216 428.841 622.216ZM428.841 619.288C429.449 619.288 430.017 619.144 430.545 618.856C431.089 618.552 431.521 618.104 431.841 617.512C432.161 616.92 432.321 616.2 432.321 615.352C432.321 614.088 431.985 613.12 431.313 612.448C430.657 611.76 429.849 611.416 428.889 611.416C427.929 611.416 427.121 611.76 426.465 612.448C425.825 613.12 425.505 614.088 425.505 615.352C425.505 616.616 425.817 617.592 426.441 618.28C427.081 618.952 427.881 619.288 428.841 619.288ZM443.33 622.216C442.242 622.216 441.266 622.024 440.402 621.64C439.538 621.24 438.85 620.704 438.338 620.032C437.842 619.36 437.57 618.616 437.522 617.8H440.906C440.97 618.312 441.218 618.736 441.65 619.072C442.098 619.408 442.65 619.576 443.306 619.576C443.946 619.576 444.442 619.448 444.794 619.192C445.162 618.936 445.346 618.608 445.346 618.208C445.346 617.776 445.122 617.456 444.674 617.248C444.242 617.024 443.546 616.784 442.586 616.528C441.594 616.288 440.778 616.04 440.138 615.784C439.514 615.528 438.97 615.136 438.506 614.608C438.058 614.08 437.834 613.368 437.834 612.472C437.834 611.736 438.042 611.064 438.458 610.456C438.89 609.848 439.498 609.368 440.282 609.016C441.082 608.664 442.018 608.488 443.09 608.488C444.674 608.488 445.938 608.888 446.882 609.688C447.826 610.472 448.346 611.536 448.442 612.88H445.226C445.178 612.352 444.954 611.936 444.554 611.632C444.17 611.312 443.65 611.152 442.994 611.152C442.386 611.152 441.914 611.264 441.578 611.488C441.258 611.712 441.098 612.024 441.098 612.424C441.098 612.872 441.322 613.216 441.77 613.456C442.218 613.68 442.914 613.912 443.858 614.152C444.818 614.392 445.61 614.64 446.234 614.896C446.858 615.152 447.394 615.552 447.842 616.096C448.306 616.624 448.546 617.328 448.562 618.208C448.562 618.976 448.346 619.664 447.914 620.272C447.498 620.88 446.89 621.36 446.09 621.712C445.306 622.048 444.386 622.216 443.33 622.216ZM453.024 607.12C452.432 607.12 451.936 606.936 451.536 606.568C451.152 606.184 450.96 605.712 450.96 605.152C450.96 604.592 451.152 604.128 451.536 603.76C451.936 603.376 452.432 603.184 453.024 603.184C453.616 603.184 454.104 603.376 454.488 603.76C454.888 604.128 455.088 604.592 455.088 605.152C455.088 605.712 454.888 606.184 454.488 606.568C454.104 606.936 453.616 607.12 453.024 607.12ZM454.68 608.704V622H451.32V608.704H454.68ZM461.912 611.464V617.896C461.912 618.344 462.016 618.672 462.224 618.88C462.448 619.072 462.816 619.168 463.328 619.168H464.888V622H462.776C459.944 622 458.528 620.624 458.528 617.872V611.464H456.944V608.704H458.528V605.416H461.912V608.704H464.888V611.464H461.912ZM476.935 611.464V617.896C476.935 618.344 477.039 618.672 477.247 618.88C477.471 619.072 477.839 619.168 478.351 619.168H479.911V622H477.799C474.967 622 473.551 620.624 473.551 617.872V611.464H471.967V608.704H473.551V605.416H476.935V608.704H479.911V611.464H476.935ZM488.232 622.216C486.952 622.216 485.8 621.936 484.776 621.376C483.752 620.8 482.944 619.992 482.352 618.952C481.776 617.912 481.488 616.712 481.488 615.352C481.488 613.992 481.784 612.792 482.376 611.752C482.984 610.712 483.808 609.912 484.848 609.352C485.888 608.776 487.048 608.488 488.328 608.488C489.608 608.488 490.768 608.776 491.808 609.352C492.848 609.912 493.664 610.712 494.256 611.752C494.864 612.792 495.168 613.992 495.168 615.352C495.168 616.712 494.856 617.912 494.232 618.952C493.624 619.992 492.792 620.8 491.736 621.376C490.696 621.936 489.528 622.216 488.232 622.216ZM488.232 619.288C488.84 619.288 489.408 619.144 489.936 618.856C490.48 618.552 490.912 618.104 491.232 617.512C491.552 616.92 491.712 616.2 491.712 615.352C491.712 614.088 491.376 613.12 490.704 612.448C490.048 611.76 489.24 611.416 488.28 611.416C487.32 611.416 486.512 611.76 485.856 612.448C485.216 613.12 484.896 614.088 484.896 615.352C484.896 616.616 485.208 617.592 485.832 618.28C486.472 618.952 487.272 619.288 488.232 619.288ZM387.376 638.704L379.144 658.288H375.568L378.448 651.664L373.12 638.704H376.888L380.32 647.992L383.8 638.704H387.376ZM395.091 652.216C393.811 652.216 392.659 651.936 391.635 651.376C390.611 650.8 389.803 649.992 389.211 648.952C388.635 647.912 388.347 646.712 388.347 645.352C388.347 643.992 388.643 642.792 389.235 641.752C389.843 640.712 390.667 639.912 391.707 639.352C392.747 638.776 393.907 638.488 395.187 638.488C396.467 638.488 397.627 638.776 398.667 639.352C399.707 639.912 400.523 640.712 401.115 641.752C401.723 642.792 402.027 643.992 402.027 645.352C402.027 646.712 401.715 647.912 401.091 648.952C400.483 649.992 399.651 650.8 398.595 651.376C397.555 651.936 396.387 652.216 395.091 652.216ZM395.091 649.288C395.699 649.288 396.267 649.144 396.795 648.856C397.339 648.552 397.771 648.104 398.091 647.512C398.411 646.92 398.571 646.2 398.571 645.352C398.571 644.088 398.235 643.12 397.563 642.448C396.907 641.76 396.099 641.416 395.139 641.416C394.179 641.416 393.371 641.76 392.715 642.448C392.075 643.12 391.755 644.088 391.755 645.352C391.755 646.616 392.067 647.592 392.691 648.28C393.331 648.952 394.131 649.288 395.091 649.288ZM417.044 638.704V652H413.66V650.32C413.228 650.896 412.66 651.352 411.956 651.688C411.268 652.008 410.516 652.168 409.7 652.168C408.66 652.168 407.74 651.952 406.94 651.52C406.14 651.072 405.508 650.424 405.044 649.576C404.596 648.712 404.372 647.688 404.372 646.504V638.704H407.732V646.024C407.732 647.08 407.996 647.896 408.524 648.472C409.052 649.032 409.772 649.312 410.684 649.312C411.612 649.312 412.34 649.032 412.868 648.472C413.396 647.896 413.66 647.08 413.66 646.024V638.704H417.044ZM423.719 640.768C424.151 640.064 424.711 639.512 425.399 639.112C426.103 638.712 426.903 638.512 427.799 638.512V642.04H426.911C425.855 642.04 425.055 642.288 424.511 642.784C423.983 643.28 423.719 644.144 423.719 645.376V652H420.359V638.704H423.719V640.768ZM454.213 638.704L450.325 652H446.701L444.277 642.712L441.853 652H438.205L434.293 638.704H437.701L440.053 648.832L442.597 638.704H446.149L448.645 648.808L450.997 638.704H454.213ZM455.167 645.304C455.167 643.96 455.431 642.768 455.959 641.728C456.503 640.688 457.231 639.888 458.143 639.328C459.071 638.768 460.103 638.488 461.239 638.488C462.231 638.488 463.095 638.688 463.831 639.088C464.583 639.488 465.183 639.992 465.631 640.6V638.704H469.015V652H465.631V650.056C465.199 650.68 464.599 651.2 463.831 651.616C463.079 652.016 462.207 652.216 461.215 652.216C460.095 652.216 459.071 651.928 458.143 651.352C457.231 650.776 456.503 649.968 455.959 648.928C455.431 647.872 455.167 646.664 455.167 645.304ZM465.631 645.352C465.631 644.536 465.471 643.84 465.151 643.264C464.831 642.672 464.399 642.224 463.855 641.92C463.311 641.6 462.727 641.44 462.103 641.44C461.479 641.44 460.903 641.592 460.375 641.896C459.847 642.2 459.415 642.648 459.079 643.24C458.759 643.816 458.599 644.504 458.599 645.304C458.599 646.104 458.759 646.808 459.079 647.416C459.415 648.008 459.847 648.464 460.375 648.784C460.919 649.104 461.495 649.264 462.103 649.264C462.727 649.264 463.311 649.112 463.855 648.808C464.399 648.488 464.831 648.04 465.151 647.464C465.471 646.872 465.631 646.168 465.631 645.352ZM475.657 634.24V652H472.297V634.24H475.657ZM482.336 634.24V652H478.976V634.24H482.336ZM498.016 645.064C498.016 645.544 497.984 645.976 497.92 646.36H488.2C488.28 647.32 488.616 648.072 489.208 648.616C489.8 649.16 490.528 649.432 491.392 649.432C492.64 649.432 493.528 648.896 494.056 647.824H497.68C497.296 649.104 496.56 650.16 495.472 650.992C494.384 651.808 493.048 652.216 491.464 652.216C490.184 652.216 489.032 651.936 488.008 651.376C487 650.8 486.208 649.992 485.632 648.952C485.072 647.912 484.792 646.712 484.792 645.352C484.792 643.976 485.072 642.768 485.632 641.728C486.192 640.688 486.976 639.888 487.984 639.328C488.992 638.768 490.152 638.488 491.464 638.488C492.728 638.488 493.856 638.76 494.848 639.304C495.856 639.848 496.632 640.624 497.176 641.632C497.736 642.624 498.016 643.768 498.016 645.064ZM494.536 644.104C494.52 643.24 494.208 642.552 493.6 642.04C492.992 641.512 492.248 641.248 491.368 641.248C490.536 641.248 489.832 641.504 489.256 642.016C488.696 642.512 488.352 643.208 488.224 644.104H494.536ZM504.381 641.464V647.896C504.381 648.344 504.485 648.672 504.693 648.88C504.917 649.072 505.285 649.168 505.797 649.168H507.357V652H505.245C502.413 652 500.997 650.624 500.997 647.872V641.464H499.413V638.704H500.997V635.416H504.381V638.704H507.357V641.464H504.381Z" fill="white"/>
<path d="M269 631C270.105 631 271 630.105 271 629C271 627.895 270.105 627 269 627V631ZM60.4142 57.4142C61.1953 56.6332 61.1953 55.3668 60.4142 54.5858L47.6863 41.8579C46.9052 41.0768 45.6389 41.0768 44.8579 41.8579C44.0768 42.6389 44.0768 43.9052 44.8579 44.6863L56.1716 56L44.8579 67.3137C44.0768 68.0948 44.0768 69.3611 44.8579 70.1421C45.6389 70.9232 46.9052 70.9232 47.6863 70.1421L60.4142 57.4142ZM59 54H54.875V58H59V54ZM46.625 54H38.375V58H46.625V54ZM30.125 54H26V58H30.125V54ZM26 54C24.2661 54 22.57 54.17 20.928 54.4948L21.7042 58.4188C23.092 58.1443 24.5282 58 26 58V54ZM11.5526 58.3805C8.71811 60.2781 6.27813 62.7181 4.38049 65.5526L7.70437 67.7779C9.31112 65.3779 11.3779 63.3111 13.7779 61.7044L11.5526 58.3805ZM0.494841 74.928C0.169998 76.57 0 78.2662 0 80H4C4 78.5282 4.14425 77.092 4.41879 75.7043L0.494841 74.928ZM0 80V83.9773H4V80H0ZM0 91.9318V99.8864H4V91.9318H0ZM0 107.841V115.795H4V107.841H0ZM0 123.75V131.705H4V123.75H0ZM0 139.659V147.614H4V139.659H0ZM0 155.568V163.523H4V155.568H0ZM0 171.477V179.432H4V171.477H0ZM0 187.386V195.341H4V187.386H0ZM0 203.295V211.25H4V203.295H0ZM0 219.205V227.159H4V219.205H0ZM0 235.114V243.068H4V235.114H0ZM0 251.023V258.977H4V251.023H0ZM0 266.932V274.886H4V266.932H0ZM0 282.841V290.795H4V282.841H0ZM0 298.75V306.705H4V298.75H0ZM0 314.659V322.614H4V314.659H0ZM0 330.568V338.523H4V330.568H0ZM0 346.477V354.432H4V346.477H0ZM0 362.386V370.341H4V362.386H0ZM0 378.296V386.25H4V378.296H0ZM0 394.205V402.159H4V394.205H0ZM0 410.114V418.068H4V410.114H0ZM0 426.023V433.977H4V426.023H0ZM0 441.932V449.887H4V441.932H0ZM0 457.841V465.796H4V457.841H0ZM0 473.75V481.705H4V473.75H0ZM0 489.659V497.614H4V489.659H0ZM0 505.568V513.523H4V505.568H0ZM0 521.478V529.432H4V521.478H0ZM0 537.387V545.341H4V537.387H0ZM0 553.296V561.25H4V553.296H0ZM0 569.205V577.159H4V569.205H0ZM0 585.114V593.069H4V585.114H0ZM0 601.023V605H4V601.023H0ZM0 605C0 606.734 0.169998 608.43 0.494841 610.072L4.41879 609.296C4.14425 607.908 4 606.472 4 605H0ZM4.38049 619.447C6.27812 622.282 8.71811 624.722 11.5526 626.62L13.7779 623.296C11.3779 621.689 9.31112 619.622 7.70437 617.222L4.38049 619.447ZM20.928 630.505C22.57 630.83 24.2661 631 26 631V627C24.5282 627 23.092 626.856 21.7042 626.581L20.928 630.505ZM26 631H30.05V627H26V631ZM38.15 631H46.25V627H38.15V631ZM54.35 631H62.45V627H54.35V631ZM70.55 631H78.65V627H70.55V631ZM86.75 631H94.85V627H86.75V631ZM102.95 631H111.05V627H102.95V631ZM119.15 631H127.25V627H119.15V631ZM135.35 631H143.45V627H135.35V631ZM151.55 631H159.65V627H151.55V631ZM167.75 631H175.85V627H167.75V631ZM183.95 631H192.05V627H183.95V631ZM200.15 631H208.25V627H200.15V631ZM216.35 631H224.45V627H216.35V631ZM232.55 631H240.65V627H232.55V631ZM248.75 631H256.85V627H248.75V631ZM264.95 631H269V627H264.95V631Z" fill="#CACBD0"/>
<path d="M622 483C620.895 483 620 483.895 620 485C620 486.105 620.895 487 622 487V483ZM620.586 627.586C619.805 628.367 619.805 629.633 620.586 630.414L633.314 643.142C634.095 643.923 635.361 643.923 636.142 643.142C636.923 642.361 636.923 641.095 636.142 640.314L624.828 629L636.142 617.686C636.923 616.905 636.923 615.639 636.142 614.858C635.361 614.077 634.095 614.077 633.314 614.858L620.586 627.586ZM622 487H642V483H622V487ZM664 509V605H668V509H664ZM642 627H622V631H642V627ZM664 605C664 617.15 654.15 627 642 627V631C656.359 631 668 619.359 668 605H664ZM642 487C654.15 487 664 496.85 664 509H668C668 494.641 656.359 483 642 483V487Z" fill="#CACBD0"/>
<path d="M93.2963 596L89.6003 589.472H88.0163V596H84.6562V579.248H90.9443C92.2403 579.248 93.3443 579.48 94.2563 579.944C95.1683 580.392 95.8483 581.008 96.2963 581.792C96.7603 582.56 96.9923 583.424 96.9923 584.384C96.9923 585.488 96.6723 586.488 96.0323 587.384C95.3923 588.264 94.4403 588.872 93.1763 589.208L97.1842 596H93.2963ZM88.0163 586.952H90.8243C91.7363 586.952 92.4163 586.736 92.8643 586.304C93.3123 585.856 93.5363 585.24 93.5363 584.456C93.5363 583.688 93.3123 583.096 92.8643 582.68C92.4163 582.248 91.7363 582.032 90.8243 582.032H88.0163V586.952Z" fill="#122E3D"/>
<path d="M112.391 589.064C112.391 589.544 112.359 589.976 112.295 590.36H102.575C102.655 591.32 102.991 592.072 103.583 592.616C104.175 593.16 104.903 593.432 105.767 593.432C107.015 593.432 107.903 592.896 108.431 591.824H112.055C111.671 593.104 110.935 594.16 109.847 594.992C108.759 595.808 107.423 596.216 105.839 596.216C104.559 596.216 103.407 595.936 102.383 595.376C101.375 594.8 100.583 593.992 100.007 592.952C99.4472 591.912 99.1672 590.712 99.1672 589.352C99.1672 587.976 99.4472 586.768 100.007 585.728C100.567 584.688 101.351 583.888 102.359 583.328C103.367 582.768 104.527 582.488 105.839 582.488C107.103 582.488 108.231 582.76 109.223 583.304C110.231 583.848 111.007 584.624 111.551 585.632C112.111 586.624 112.391 587.768 112.391 589.064ZM108.911 588.104C108.895 587.24 108.583 586.552 107.975 586.04C107.367 585.512 106.623 585.248 105.743 585.248C104.911 585.248 104.207 585.504 103.631 586.016C103.071 586.512 102.727 587.208 102.599 588.104H108.911Z" fill="#122E3D"/>
<path d="M116.548 581.12C115.956 581.12 115.46 580.936 115.06 580.568C114.676 580.184 114.484 579.712 114.484 579.152C114.484 578.592 114.676 578.128 115.06 577.76C115.46 577.376 115.956 577.184 116.548 577.184C117.14 577.184 117.628 577.376 118.012 577.76C118.412 578.128 118.612 578.592 118.612 579.152C118.612 579.712 118.412 580.184 118.012 580.568C117.628 580.936 117.14 581.12 116.548 581.12ZM118.204 582.704V596H114.844V582.704H118.204Z" fill="#122E3D"/>
<path d="M128.891 582.512C130.475 582.512 131.755 583.016 132.731 584.024C133.707 585.016 134.195 586.408 134.195 588.2V596H130.835V588.656C130.835 587.6 130.571 586.792 130.043 586.232C129.515 585.656 128.795 585.368 127.883 585.368C126.955 585.368 126.219 585.656 125.675 586.232C125.147 586.792 124.883 587.6 124.883 588.656V596H121.523V582.704H124.883V584.36C125.331 583.784 125.899 583.336 126.587 583.016C127.291 582.68 128.059 582.512 128.891 582.512Z" fill="#122E3D"/>
<path d="M142.935 592.904L146.295 582.704H149.871L144.951 596H140.871L135.975 582.704H139.575L142.935 592.904Z" fill="#122E3D"/>
<path d="M164.118 589.064C164.118 589.544 164.086 589.976 164.022 590.36H154.302C154.382 591.32 154.718 592.072 155.31 592.616C155.902 593.16 156.63 593.432 157.494 593.432C158.742 593.432 159.63 592.896 160.158 591.824H163.782C163.398 593.104 162.662 594.16 161.574 594.992C160.486 595.808 159.15 596.216 157.566 596.216C156.286 596.216 155.134 595.936 154.11 595.376C153.102 594.8 152.31 593.992 151.734 592.952C151.174 591.912 150.894 590.712 150.894 589.352C150.894 587.976 151.174 586.768 151.734 585.728C152.294 584.688 153.078 583.888 154.086 583.328C155.094 582.768 156.254 582.488 157.566 582.488C158.83 582.488 159.958 582.76 160.95 583.304C161.958 583.848 162.734 584.624 163.278 585.632C163.838 586.624 164.118 587.768 164.118 589.064ZM160.638 588.104C160.622 587.24 160.31 586.552 159.702 586.04C159.094 585.512 158.35 585.248 157.47 585.248C156.638 585.248 155.934 585.504 155.358 586.016C154.798 586.512 154.454 587.208 154.326 588.104H160.638Z" fill="#122E3D"/>
<path d="M171.658 596.216C170.57 596.216 169.594 596.024 168.73 595.64C167.866 595.24 167.178 594.704 166.666 594.032C166.17 593.36 165.898 592.616 165.85 591.8H169.234C169.298 592.312 169.546 592.736 169.978 593.072C170.426 593.408 170.978 593.576 171.634 593.576C172.274 593.576 172.77 593.448 173.122 593.192C173.49 592.936 173.674 592.608 173.674 592.208C173.674 591.776 173.45 591.456 173.002 591.248C172.57 591.024 171.874 590.784 170.914 590.528C169.922 590.288 169.106 590.04 168.466 589.784C167.842 589.528 167.298 589.136 166.834 588.608C166.386 588.08 166.162 587.368 166.162 586.472C166.162 585.736 166.37 585.064 166.786 584.456C167.218 583.848 167.826 583.368 168.61 583.016C169.41 582.664 170.346 582.488 171.418 582.488C173.002 582.488 174.266 582.888 175.21 583.688C176.154 584.472 176.674 585.536 176.77 586.88H173.554C173.506 586.352 173.282 585.936 172.882 585.632C172.498 585.312 171.978 585.152 171.322 585.152C170.714 585.152 170.242 585.264 169.906 585.488C169.586 585.712 169.426 586.024 169.426 586.424C169.426 586.872 169.65 587.216 170.098 587.456C170.546 587.68 171.242 587.912 172.186 588.152C173.146 588.392 173.938 588.64 174.562 588.896C175.186 589.152 175.722 589.552 176.17 590.096C176.634 590.624 176.874 591.328 176.89 592.208C176.89 592.976 176.674 593.664 176.242 594.272C175.826 594.88 175.218 595.36 174.418 595.712C173.634 596.048 172.714 596.216 171.658 596.216Z" fill="#122E3D"/>
<path d="M183.56 585.464V591.896C183.56 592.344 183.664 592.672 183.872 592.88C184.096 593.072 184.464 593.168 184.976 593.168H186.536V596H184.424C181.592 596 180.176 594.624 180.176 591.872V585.464H178.592V582.704H180.176V579.416H183.56V582.704H186.536V585.464H183.56Z" fill="#122E3D"/>
</svg>
