<svg width="670" height="685" viewBox="0 0 670 685" fill="none" xmlns="http://www.w3.org/2000/svg">
<rect x="65" width="345" height="112" rx="21" fill="#407E9D"/>
<rect x="81" y="24" width="64" height="64" rx="22" fill="#0A212E"/>
<path fill-rule="evenodd" clip-rule="evenodd" d="M116.706 49.0678C115.917 48.6465 115.066 48.3641 114.188 48.2299V40.2112C116.38 40.376 118.518 40.9959 120.464 42.0362C122.76 43.2636 124.719 45.0384 126.165 47.2034C127.612 49.3684 128.502 51.8567 128.757 54.448C128.769 54.5694 128.78 54.6909 128.789 54.8124H120.77C120.597 53.6767 120.176 52.5911 119.536 51.633C118.818 50.5582 117.846 49.6771 116.706 49.0678ZM104.204 42.835C106.477 41.3159 109.1 40.4152 111.813 40.2112V48.2299C110.68 48.403 109.594 48.8225 108.633 49.4644C107.341 50.3281 106.333 51.5557 105.738 52.9919C105.143 54.4282 104.988 56.0086 105.291 57.5334C105.517 58.6666 105.988 59.7312 106.666 60.6545L100.996 66.3246C99.222 64.2617 98.0047 61.7706 97.4712 59.0889C96.8603 56.0175 97.1739 52.8339 98.3722 49.9408C99.5706 47.0476 101.6 44.5748 104.204 42.835ZM102.676 68.004C104.342 69.4373 106.292 70.5109 108.404 71.1515C110.896 71.9073 113.536 72.037 116.089 71.529C118.619 71.0258 120.988 69.9121 122.989 68.2852L115.852 63.3245C115.426 63.4904 114.985 63.6193 114.534 63.7091C113.266 63.9613 111.956 63.8969 110.719 63.5217C109.863 63.2623 109.061 62.8597 108.346 62.3339L102.676 68.004ZM120.262 59.0079C120.505 58.4215 120.675 57.8102 120.77 57.1874H128.789C128.664 58.8569 128.274 60.5017 127.628 62.0591C126.934 63.7368 125.958 65.2769 124.748 66.6156L118.092 61.9885C119.041 61.1816 119.785 60.1601 120.262 59.0079Z" fill="white"/>
<path d="M179.976 32.248L174.312 43.168V49H170.952V43.168L165.264 32.248H169.056L172.656 39.904L176.232 32.248H179.976ZM187.818 49.216C186.538 49.216 185.386 48.936 184.362 48.376C183.338 47.8 182.53 46.992 181.938 45.952C181.362 44.912 181.074 43.712 181.074 42.352C181.074 40.992 181.37 39.792 181.962 38.752C182.57 37.712 183.394 36.912 184.434 36.352C185.474 35.776 186.634 35.488 187.914 35.488C189.194 35.488 190.354 35.776 191.394 36.352C192.434 36.912 193.25 37.712 193.842 38.752C194.45 39.792 194.754 40.992 194.754 42.352C194.754 43.712 194.442 44.912 193.818 45.952C193.21 46.992 192.378 47.8 191.322 48.376C190.282 48.936 189.114 49.216 187.818 49.216ZM187.818 46.288C188.426 46.288 188.994 46.144 189.522 45.856C190.066 45.552 190.498 45.104 190.818 44.512C191.138 43.92 191.298 43.2 191.298 42.352C191.298 41.088 190.962 40.12 190.29 39.448C189.634 38.76 188.826 38.416 187.866 38.416C186.906 38.416 186.098 38.76 185.442 39.448C184.802 40.12 184.482 41.088 184.482 42.352C184.482 43.616 184.794 44.592 185.418 45.28C186.058 45.952 186.858 46.288 187.818 46.288ZM209.771 35.704V49H206.387V47.32C205.955 47.896 205.387 48.352 204.683 48.688C203.995 49.008 203.243 49.168 202.427 49.168C201.387 49.168 200.467 48.952 199.667 48.52C198.867 48.072 198.235 47.424 197.771 46.576C197.323 45.712 197.099 44.688 197.099 43.504V35.704H200.459V43.024C200.459 44.08 200.723 44.896 201.251 45.472C201.779 46.032 202.499 46.312 203.411 46.312C204.339 46.312 205.067 46.032 205.595 45.472C206.123 44.896 206.387 44.08 206.387 43.024V35.704H209.771ZM220.508 34.12C219.916 34.12 219.42 33.936 219.02 33.568C218.636 33.184 218.444 32.712 218.444 32.152C218.444 31.592 218.636 31.128 219.02 30.76C219.42 30.376 219.916 30.184 220.508 30.184C221.1 30.184 221.588 30.376 221.972 30.76C222.372 31.128 222.572 31.592 222.572 32.152C222.572 32.712 222.372 33.184 221.972 33.568C221.588 33.936 221.1 34.12 220.508 34.12ZM222.164 35.704V49H218.804V35.704H222.164ZM232.852 35.512C234.436 35.512 235.716 36.016 236.692 37.024C237.668 38.016 238.156 39.408 238.156 41.2V49H234.796V41.656C234.796 40.6 234.532 39.792 234.004 39.232C233.476 38.656 232.756 38.368 231.844 38.368C230.916 38.368 230.18 38.656 229.636 39.232C229.108 39.792 228.844 40.6 228.844 41.656V49H225.484V35.704H228.844V37.36C229.292 36.784 229.86 36.336 230.548 36.016C231.252 35.68 232.02 35.512 232.852 35.512ZM246.895 45.904L250.255 35.704H253.831L248.911 49H244.831L239.935 35.704H243.535L246.895 45.904ZM268.079 42.064C268.079 42.544 268.047 42.976 267.983 43.36H258.263C258.343 44.32 258.679 45.072 259.271 45.616C259.863 46.16 260.591 46.432 261.455 46.432C262.703 46.432 263.591 45.896 264.119 44.824H267.743C267.359 46.104 266.623 47.16 265.535 47.992C264.447 48.808 263.111 49.216 261.527 49.216C260.247 49.216 259.095 48.936 258.071 48.376C257.063 47.8 256.271 46.992 255.695 45.952C255.135 44.912 254.854 43.712 254.854 42.352C254.854 40.976 255.135 39.768 255.695 38.728C256.255 37.688 257.039 36.888 258.047 36.328C259.055 35.768 260.215 35.488 261.527 35.488C262.791 35.488 263.919 35.76 264.911 36.304C265.919 36.848 266.695 37.624 267.239 38.632C267.799 39.624 268.079 40.768 268.079 42.064ZM264.599 41.104C264.583 40.24 264.271 39.552 263.663 39.04C263.055 38.512 262.311 38.248 261.431 38.248C260.599 38.248 259.895 38.504 259.319 39.016C258.759 39.512 258.415 40.208 258.287 41.104H264.599ZM275.619 49.216C274.531 49.216 273.555 49.024 272.691 48.64C271.827 48.24 271.139 47.704 270.627 47.032C270.131 46.36 269.859 45.616 269.811 44.8H273.195C273.259 45.312 273.507 45.736 273.939 46.072C274.387 46.408 274.939 46.576 275.595 46.576C276.235 46.576 276.731 46.448 277.083 46.192C277.451 45.936 277.635 45.608 277.635 45.208C277.635 44.776 277.411 44.456 276.963 44.248C276.531 44.024 275.835 43.784 274.875 43.528C273.883 43.288 273.067 43.04 272.427 42.784C271.803 42.528 271.259 42.136 270.795 41.608C270.347 41.08 270.123 40.368 270.123 39.472C270.123 38.736 270.331 38.064 270.747 37.456C271.179 36.848 271.787 36.368 272.571 36.016C273.371 35.664 274.307 35.488 275.379 35.488C276.963 35.488 278.227 35.888 279.171 36.688C280.115 37.472 280.635 38.536 280.731 39.88H277.515C277.467 39.352 277.243 38.936 276.843 38.632C276.459 38.312 275.939 38.152 275.283 38.152C274.675 38.152 274.203 38.264 273.867 38.488C273.547 38.712 273.387 39.024 273.387 39.424C273.387 39.872 273.611 40.216 274.059 40.456C274.507 40.68 275.203 40.912 276.147 41.152C277.107 41.392 277.899 41.64 278.523 41.896C279.147 42.152 279.683 42.552 280.131 43.096C280.595 43.624 280.835 44.328 280.851 45.208C280.851 45.976 280.635 46.664 280.203 47.272C279.787 47.88 279.179 48.36 278.379 48.712C277.595 49.048 276.675 49.216 275.619 49.216ZM287.521 38.464V44.896C287.521 45.344 287.625 45.672 287.833 45.88C288.057 46.072 288.425 46.168 288.937 46.168H290.497V49H288.385C285.553 49 284.137 47.624 284.137 44.872V38.464H282.553V35.704H284.137V32.416H287.521V35.704H290.497V38.464H287.521ZM300.337 34.12C299.745 34.12 299.249 33.936 298.849 33.568C298.465 33.184 298.273 32.712 298.273 32.152C298.273 31.592 298.465 31.128 298.849 30.76C299.249 30.376 299.745 30.184 300.337 30.184C300.929 30.184 301.417 30.376 301.801 30.76C302.201 31.128 302.401 31.592 302.401 32.152C302.401 32.712 302.201 33.184 301.801 33.568C301.417 33.936 300.929 34.12 300.337 34.12ZM301.993 35.704V49H298.633V35.704H301.993ZM312.68 35.512C314.264 35.512 315.544 36.016 316.52 37.024C317.496 38.016 317.984 39.408 317.984 41.2V49H314.624V41.656C314.624 40.6 314.36 39.792 313.832 39.232C313.304 38.656 312.584 38.368 311.672 38.368C310.744 38.368 310.008 38.656 309.464 39.232C308.936 39.792 308.672 40.6 308.672 41.656V49H305.312V35.704H308.672V37.36C309.12 36.784 309.688 36.336 310.376 36.016C311.08 35.68 311.848 35.512 312.68 35.512ZM326.034 42.304C326.034 40.96 326.298 39.768 326.826 38.728C327.37 37.688 328.098 36.888 329.01 36.328C329.938 35.768 330.97 35.488 332.106 35.488C333.098 35.488 333.962 35.688 334.698 36.088C335.45 36.488 336.05 36.992 336.498 37.6V35.704H339.882V49H336.498V47.056C336.066 47.68 335.466 48.2 334.698 48.616C333.946 49.016 333.074 49.216 332.082 49.216C330.962 49.216 329.938 48.928 329.01 48.352C328.098 47.776 327.37 46.968 326.826 45.928C326.298 44.872 326.034 43.664 326.034 42.304ZM336.498 42.352C336.498 41.536 336.338 40.84 336.018 40.264C335.698 39.672 335.266 39.224 334.722 38.92C334.178 38.6 333.594 38.44 332.97 38.44C332.346 38.44 331.77 38.592 331.242 38.896C330.714 39.2 330.282 39.648 329.946 40.24C329.626 40.816 329.466 41.504 329.466 42.304C329.466 43.104 329.626 43.808 329.946 44.416C330.282 45.008 330.714 45.464 331.242 45.784C331.786 46.104 332.362 46.264 332.97 46.264C333.594 46.264 334.178 46.112 334.722 45.808C335.266 45.488 335.698 45.04 336.018 44.464C336.338 43.872 336.498 43.168 336.498 42.352ZM170.016 67.768C170.448 67.064 171.008 66.512 171.696 66.112C172.4 65.712 173.2 65.512 174.096 65.512V69.04H173.208C172.152 69.04 171.352 69.288 170.808 69.784C170.28 70.28 170.016 71.144 170.016 72.376V79H166.656V65.704H170.016V67.768ZM188.719 72.064C188.719 72.544 188.687 72.976 188.623 73.36H178.903C178.983 74.32 179.319 75.072 179.911 75.616C180.503 76.16 181.231 76.432 182.095 76.432C183.343 76.432 184.231 75.896 184.759 74.824H188.383C187.999 76.104 187.263 77.16 186.175 77.992C185.087 78.808 183.751 79.216 182.167 79.216C180.887 79.216 179.735 78.936 178.711 78.376C177.703 77.8 176.911 76.992 176.335 75.952C175.775 74.912 175.495 73.712 175.495 72.352C175.495 70.976 175.775 69.768 176.335 68.728C176.895 67.688 177.679 66.888 178.687 66.328C179.695 65.768 180.855 65.488 182.167 65.488C183.431 65.488 184.559 65.76 185.551 66.304C186.559 66.848 187.335 67.624 187.879 68.632C188.439 69.624 188.719 70.768 188.719 72.064ZM185.239 71.104C185.223 70.24 184.911 69.552 184.303 69.04C183.695 68.512 182.951 68.248 182.071 68.248C181.239 68.248 180.535 68.504 179.959 69.016C179.399 69.512 179.055 70.208 178.927 71.104H185.239ZM198.54 65.512C200.124 65.512 201.404 66.016 202.38 67.024C203.356 68.016 203.844 69.408 203.844 71.2V79H200.484V71.656C200.484 70.6 200.22 69.792 199.692 69.232C199.164 68.656 198.444 68.368 197.532 68.368C196.604 68.368 195.868 68.656 195.324 69.232C194.796 69.792 194.532 70.6 194.532 71.656V79H191.172V65.704H194.532V67.36C194.98 66.784 195.548 66.336 196.236 66.016C196.94 65.68 197.708 65.512 198.54 65.512ZM210.951 68.464V74.896C210.951 75.344 211.055 75.672 211.263 75.88C211.487 76.072 211.855 76.168 212.367 76.168H213.927V79H211.815C208.983 79 207.567 77.624 207.567 74.872V68.464H205.983V65.704H207.567V62.416H210.951V65.704H213.927V68.464H210.951ZM215.479 72.304C215.479 70.96 215.743 69.768 216.271 68.728C216.816 67.688 217.544 66.888 218.456 66.328C219.384 65.768 220.416 65.488 221.552 65.488C222.544 65.488 223.408 65.688 224.144 66.088C224.896 66.488 225.496 66.992 225.944 67.6V65.704H229.328V79H225.944V77.056C225.512 77.68 224.912 78.2 224.144 78.616C223.392 79.016 222.52 79.216 221.528 79.216C220.408 79.216 219.384 78.928 218.456 78.352C217.544 77.776 216.816 76.968 216.271 75.928C215.743 74.872 215.479 73.664 215.479 72.304ZM225.944 72.352C225.944 71.536 225.784 70.84 225.464 70.264C225.144 69.672 224.712 69.224 224.168 68.92C223.624 68.6 223.04 68.44 222.416 68.44C221.792 68.44 221.216 68.592 220.688 68.896C220.16 69.2 219.728 69.648 219.392 70.24C219.072 70.816 218.912 71.504 218.912 72.304C218.912 73.104 219.072 73.808 219.392 74.416C219.728 75.008 220.16 75.464 220.688 75.784C221.232 76.104 221.808 76.264 222.416 76.264C223.04 76.264 223.624 76.112 224.168 75.808C224.712 75.488 225.144 75.04 225.464 74.464C225.784 73.872 225.944 73.168 225.944 72.352ZM235.969 61.24V79H232.609V61.24H235.969ZM248.368 67.624C248.8 67.016 249.392 66.512 250.144 66.112C250.912 65.696 251.784 65.488 252.76 65.488C253.896 65.488 254.92 65.768 255.832 66.328C256.76 66.888 257.488 67.688 258.016 68.728C258.56 69.752 258.832 70.944 258.832 72.304C258.832 73.664 258.56 74.872 258.016 75.928C257.488 76.968 256.76 77.776 255.832 78.352C254.92 78.928 253.896 79.216 252.76 79.216C251.784 79.216 250.92 79.016 250.168 78.616C249.432 78.216 248.832 77.712 248.368 77.104V85.336H245.008V65.704H248.368V67.624ZM255.4 72.304C255.4 71.504 255.232 70.816 254.896 70.24C254.576 69.648 254.144 69.2 253.6 68.896C253.072 68.592 252.496 68.44 251.872 68.44C251.264 68.44 250.688 68.6 250.144 68.92C249.616 69.224 249.184 69.672 248.848 70.264C248.528 70.856 248.368 71.552 248.368 72.352C248.368 73.152 248.528 73.848 248.848 74.44C249.184 75.032 249.616 75.488 250.144 75.808C250.688 76.112 251.264 76.264 251.872 76.264C252.496 76.264 253.072 76.104 253.6 75.784C254.144 75.464 254.576 75.008 254.896 74.416C255.232 73.824 255.4 73.12 255.4 72.304ZM264.633 67.768C265.065 67.064 265.625 66.512 266.313 66.112C267.017 65.712 267.817 65.512 268.713 65.512V69.04H267.825C266.769 69.04 265.969 69.288 265.425 69.784C264.897 70.28 264.633 71.144 264.633 72.376V79H261.273V65.704H264.633V67.768ZM276.88 79.216C275.6 79.216 274.448 78.936 273.424 78.376C272.4 77.8 271.592 76.992 271 75.952C270.424 74.912 270.136 73.712 270.136 72.352C270.136 70.992 270.432 69.792 271.024 68.752C271.632 67.712 272.456 66.912 273.496 66.352C274.536 65.776 275.696 65.488 276.976 65.488C278.256 65.488 279.416 65.776 280.456 66.352C281.496 66.912 282.312 67.712 282.904 68.752C283.512 69.792 283.816 70.992 283.816 72.352C283.816 73.712 283.504 74.912 282.88 75.952C282.272 76.992 281.44 77.8 280.384 78.376C279.344 78.936 278.176 79.216 276.88 79.216ZM276.88 76.288C277.488 76.288 278.056 76.144 278.584 75.856C279.128 75.552 279.56 75.104 279.88 74.512C280.2 73.92 280.36 73.2 280.36 72.352C280.36 71.088 280.024 70.12 279.352 69.448C278.696 68.76 277.888 68.416 276.928 68.416C275.968 68.416 275.16 68.76 274.504 69.448C273.864 70.12 273.544 71.088 273.544 72.352C273.544 73.616 273.856 74.592 274.48 75.28C275.12 75.952 275.92 76.288 276.88 76.288ZM289.641 67.624C290.073 67.016 290.665 66.512 291.417 66.112C292.185 65.696 293.057 65.488 294.033 65.488C295.169 65.488 296.193 65.768 297.105 66.328C298.033 66.888 298.761 67.688 299.289 68.728C299.833 69.752 300.105 70.944 300.105 72.304C300.105 73.664 299.833 74.872 299.289 75.928C298.761 76.968 298.033 77.776 297.105 78.352C296.193 78.928 295.169 79.216 294.033 79.216C293.057 79.216 292.193 79.016 291.441 78.616C290.705 78.216 290.105 77.712 289.641 77.104V85.336H286.281V65.704H289.641V67.624ZM296.673 72.304C296.673 71.504 296.505 70.816 296.169 70.24C295.849 69.648 295.417 69.2 294.873 68.896C294.345 68.592 293.769 68.44 293.145 68.44C292.537 68.44 291.961 68.6 291.417 68.92C290.889 69.224 290.457 69.672 290.121 70.264C289.801 70.856 289.641 71.552 289.641 72.352C289.641 73.152 289.801 73.848 290.121 74.44C290.457 75.032 290.889 75.488 291.417 75.808C291.961 76.112 292.537 76.264 293.145 76.264C293.769 76.264 294.345 76.104 294.873 75.784C295.417 75.464 295.849 75.008 296.169 74.416C296.505 73.824 296.673 73.12 296.673 72.304ZM314.907 72.064C314.907 72.544 314.875 72.976 314.811 73.36H305.091C305.171 74.32 305.507 75.072 306.099 75.616C306.691 76.16 307.419 76.432 308.283 76.432C309.531 76.432 310.419 75.896 310.947 74.824H314.571C314.187 76.104 313.451 77.16 312.363 77.992C311.275 78.808 309.939 79.216 308.355 79.216C307.075 79.216 305.923 78.936 304.899 78.376C303.891 77.8 303.099 76.992 302.523 75.952C301.963 74.912 301.683 73.712 301.683 72.352C301.683 70.976 301.963 69.768 302.523 68.728C303.083 67.688 303.867 66.888 304.875 66.328C305.883 65.768 307.043 65.488 308.355 65.488C309.619 65.488 310.747 65.76 311.739 66.304C312.747 66.848 313.523 67.624 314.067 68.632C314.627 69.624 314.907 70.768 314.907 72.064ZM311.427 71.104C311.411 70.24 311.099 69.552 310.491 69.04C309.883 68.512 309.139 68.248 308.259 68.248C307.427 68.248 306.723 68.504 306.147 69.016C305.587 69.512 305.243 70.208 305.115 71.104H311.427ZM320.719 67.768C321.151 67.064 321.711 66.512 322.399 66.112C323.103 65.712 323.903 65.512 324.799 65.512V69.04H323.911C322.855 69.04 322.055 69.288 321.511 69.784C320.983 70.28 320.719 71.144 320.719 72.376V79H317.359V65.704H320.719V67.768ZM330.974 68.464V74.896C330.974 75.344 331.078 75.672 331.286 75.88C331.51 76.072 331.878 76.168 332.39 76.168H333.95V79H331.838C329.006 79 327.59 77.624 327.59 74.872V68.464H326.006V65.704H327.59V62.416H330.974V65.704H333.95V68.464H330.974ZM349.087 65.704L340.855 85.288H337.279L340.159 78.664L334.831 65.704H338.599L342.031 74.992L345.511 65.704H349.087Z" fill="white"/>
<rect x="275" y="141" width="345" height="112" rx="21" fill="#194056"/>
<rect x="291" y="165" width="64" height="64" rx="22" fill="#0A212E"/>
<path fill-rule="evenodd" clip-rule="evenodd" d="M329.619 212.833H316.381C312.726 212.833 309.763 210.006 309.763 206.517V198.794C309.763 197.673 309.296 196.597 308.465 195.804C306.54 193.967 306.79 190.923 308.992 189.395L319.107 182.375C321.428 180.764 324.572 180.764 326.893 182.375L337.009 189.395C339.211 190.923 339.461 193.967 337.536 195.804C336.705 196.597 336.238 197.673 336.238 198.794V206.517C336.238 210.006 333.275 212.833 329.619 212.833ZM326.167 193.917C325.339 193.917 324.667 194.588 324.667 195.417C324.667 196.245 325.339 196.917 326.167 196.917H326.907L324.584 201.563L322.07 196.535C321.148 194.692 318.519 194.692 317.598 196.535L313.742 204.246C313.372 204.987 313.672 205.888 314.413 206.258C315.154 206.629 316.055 206.329 316.425 205.588L319.834 198.771L322.348 203.799C323.269 205.641 325.898 205.641 326.82 203.799L329.334 198.771L329.575 199.254C329.946 199.995 330.847 200.296 331.588 199.925C332.329 199.555 332.629 198.654 332.259 197.913L330.675 194.746C330.421 194.238 329.902 193.917 329.334 193.917H326.167Z" fill="white"/>
<path d="M388.056 173.248V175.96H383.592V190H380.232V175.96H375.768V173.248H388.056ZM402.868 183.064C402.868 183.544 402.836 183.976 402.772 184.36H393.052C393.132 185.32 393.468 186.072 394.06 186.616C394.652 187.16 395.38 187.432 396.244 187.432C397.492 187.432 398.38 186.896 398.908 185.824H402.532C402.148 187.104 401.412 188.16 400.324 188.992C399.236 189.808 397.9 190.216 396.316 190.216C395.036 190.216 393.884 189.936 392.86 189.376C391.852 188.8 391.06 187.992 390.484 186.952C389.924 185.912 389.644 184.712 389.644 183.352C389.644 181.976 389.924 180.768 390.484 179.728C391.044 178.688 391.828 177.888 392.836 177.328C393.844 176.768 395.004 176.488 396.316 176.488C397.58 176.488 398.708 176.76 399.7 177.304C400.708 177.848 401.484 178.624 402.028 179.632C402.588 180.624 402.868 181.768 402.868 183.064ZM399.388 182.104C399.372 181.24 399.06 180.552 398.452 180.04C397.844 179.512 397.1 179.248 396.22 179.248C395.388 179.248 394.684 179.504 394.108 180.016C393.548 180.512 393.204 181.208 393.076 182.104H399.388ZM412.688 176.512C414.272 176.512 415.552 177.016 416.528 178.024C417.504 179.016 417.992 180.408 417.992 182.2V190H414.632V182.656C414.632 181.6 414.368 180.792 413.84 180.232C413.312 179.656 412.592 179.368 411.68 179.368C410.752 179.368 410.016 179.656 409.472 180.232C408.944 180.792 408.68 181.6 408.68 182.656V190H405.32V176.704H408.68V178.36C409.128 177.784 409.696 177.336 410.384 177.016C411.088 176.68 411.856 176.512 412.688 176.512ZM420.323 183.304C420.323 181.96 420.587 180.768 421.115 179.728C421.659 178.688 422.387 177.888 423.299 177.328C424.227 176.768 425.259 176.488 426.395 176.488C427.387 176.488 428.251 176.688 428.987 177.088C429.739 177.488 430.339 177.992 430.787 178.6V176.704H434.171V190H430.787V188.056C430.355 188.68 429.755 189.2 428.987 189.616C428.235 190.016 427.363 190.216 426.371 190.216C425.251 190.216 424.227 189.928 423.299 189.352C422.387 188.776 421.659 187.968 421.115 186.928C420.587 185.872 420.323 184.664 420.323 183.304ZM430.787 183.352C430.787 182.536 430.627 181.84 430.307 181.264C429.987 180.672 429.555 180.224 429.011 179.92C428.467 179.6 427.883 179.44 427.259 179.44C426.635 179.44 426.059 179.592 425.531 179.896C425.003 180.2 424.571 180.648 424.235 181.24C423.915 181.816 423.755 182.504 423.755 183.304C423.755 184.104 423.915 184.808 424.235 185.416C424.571 186.008 425.003 186.464 425.531 186.784C426.075 187.104 426.651 187.264 427.259 187.264C427.883 187.264 428.467 187.112 429.011 186.808C429.555 186.488 429.987 186.04 430.307 185.464C430.627 184.872 430.787 184.168 430.787 183.352ZM444.821 176.512C446.405 176.512 447.685 177.016 448.661 178.024C449.637 179.016 450.125 180.408 450.125 182.2V190H446.765V182.656C446.765 181.6 446.501 180.792 445.973 180.232C445.445 179.656 444.725 179.368 443.813 179.368C442.885 179.368 442.149 179.656 441.605 180.232C441.077 180.792 440.813 181.6 440.813 182.656V190H437.453V176.704H440.813V178.36C441.261 177.784 441.829 177.336 442.517 177.016C443.221 176.68 443.989 176.512 444.821 176.512ZM457.232 179.464V185.896C457.232 186.344 457.336 186.672 457.544 186.88C457.768 187.072 458.136 187.168 458.648 187.168H460.208V190H458.096C455.264 190 453.848 188.624 453.848 185.872V179.464H452.264V176.704H453.848V173.416H457.232V176.704H460.208V179.464H457.232ZM380.016 208.624C380.448 208.016 381.04 207.512 381.792 207.112C382.56 206.696 383.432 206.488 384.408 206.488C385.544 206.488 386.568 206.768 387.48 207.328C388.408 207.888 389.136 208.688 389.664 209.728C390.208 210.752 390.48 211.944 390.48 213.304C390.48 214.664 390.208 215.872 389.664 216.928C389.136 217.968 388.408 218.776 387.48 219.352C386.568 219.928 385.544 220.216 384.408 220.216C383.432 220.216 382.568 220.016 381.816 219.616C381.08 219.216 380.48 218.712 380.016 218.104V226.336H376.656V206.704H380.016V208.624ZM387.048 213.304C387.048 212.504 386.88 211.816 386.544 211.24C386.224 210.648 385.792 210.2 385.248 209.896C384.72 209.592 384.144 209.44 383.52 209.44C382.912 209.44 382.336 209.6 381.792 209.92C381.264 210.224 380.832 210.672 380.496 211.264C380.176 211.856 380.016 212.552 380.016 213.352C380.016 214.152 380.176 214.848 380.496 215.44C380.832 216.032 381.264 216.488 381.792 216.808C382.336 217.112 382.912 217.264 383.52 217.264C384.144 217.264 384.72 217.104 385.248 216.784C385.792 216.464 386.224 216.008 386.544 215.416C386.88 214.824 387.048 214.12 387.048 213.304ZM392.058 213.304C392.058 211.96 392.322 210.768 392.85 209.728C393.394 208.688 394.122 207.888 395.034 207.328C395.962 206.768 396.994 206.488 398.13 206.488C399.122 206.488 399.986 206.688 400.722 207.088C401.474 207.488 402.074 207.992 402.522 208.6V206.704H405.906V220H402.522V218.056C402.09 218.68 401.49 219.2 400.722 219.616C399.97 220.016 399.098 220.216 398.106 220.216C396.986 220.216 395.962 219.928 395.034 219.352C394.122 218.776 393.394 217.968 392.85 216.928C392.322 215.872 392.058 214.664 392.058 213.304ZM402.522 213.352C402.522 212.536 402.362 211.84 402.042 211.264C401.722 210.672 401.29 210.224 400.746 209.92C400.202 209.6 399.618 209.44 398.994 209.44C398.37 209.44 397.794 209.592 397.266 209.896C396.738 210.2 396.306 210.648 395.97 211.24C395.65 211.816 395.49 212.504 395.49 213.304C395.49 214.104 395.65 214.808 395.97 215.416C396.306 216.008 396.738 216.464 397.266 216.784C397.81 217.104 398.386 217.264 398.994 217.264C399.618 217.264 400.202 217.112 400.746 216.808C401.29 216.488 401.722 216.04 402.042 215.464C402.362 214.872 402.522 214.168 402.522 213.352ZM421.907 206.704L413.675 226.288H410.099L412.979 219.664L407.651 206.704H411.419L414.851 215.992L418.331 206.704H421.907ZM428.807 220.216C427.719 220.216 426.743 220.024 425.879 219.64C425.015 219.24 424.327 218.704 423.815 218.032C423.319 217.36 423.047 216.616 422.999 215.8H426.383C426.447 216.312 426.695 216.736 427.127 217.072C427.575 217.408 428.127 217.576 428.783 217.576C429.423 217.576 429.919 217.448 430.271 217.192C430.639 216.936 430.823 216.608 430.823 216.208C430.823 215.776 430.599 215.456 430.151 215.248C429.719 215.024 429.023 214.784 428.062 214.528C427.071 214.288 426.255 214.04 425.615 213.784C424.991 213.528 424.447 213.136 423.983 212.608C423.535 212.08 423.311 211.368 423.311 210.472C423.311 209.736 423.519 209.064 423.935 208.456C424.367 207.848 424.975 207.368 425.759 207.016C426.559 206.664 427.495 206.488 428.567 206.488C430.151 206.488 431.415 206.888 432.359 207.688C433.303 208.472 433.823 209.536 433.919 210.88H430.703C430.655 210.352 430.431 209.936 430.031 209.632C429.647 209.312 429.127 209.152 428.471 209.152C427.863 209.152 427.391 209.264 427.055 209.488C426.735 209.712 426.575 210.024 426.575 210.424C426.575 210.872 426.799 211.216 427.247 211.456C427.695 211.68 428.391 211.912 429.335 212.152C430.295 212.392 431.087 212.64 431.711 212.896C432.335 213.152 432.871 213.552 433.319 214.096C433.783 214.624 434.023 215.328 434.039 216.208C434.039 216.976 433.823 217.664 433.391 218.272C432.975 218.88 432.367 219.36 431.567 219.712C430.783 220.048 429.863 220.216 428.807 220.216ZM445.875 208.768C446.307 208.064 446.867 207.512 447.555 207.112C448.259 206.712 449.059 206.512 449.955 206.512V210.04H449.067C448.011 210.04 447.211 210.288 446.667 210.784C446.139 211.28 445.875 212.144 445.875 213.376V220H442.515V206.704H445.875V208.768ZM464.579 213.064C464.579 213.544 464.547 213.976 464.483 214.36H454.763C454.843 215.32 455.179 216.072 455.771 216.616C456.363 217.16 457.091 217.432 457.955 217.432C459.203 217.432 460.091 216.896 460.619 215.824H464.243C463.859 217.104 463.123 218.16 462.035 218.992C460.947 219.808 459.611 220.216 458.027 220.216C456.747 220.216 455.595 219.936 454.571 219.376C453.563 218.8 452.771 217.992 452.195 216.952C451.635 215.912 451.354 214.712 451.354 213.352C451.354 211.976 451.635 210.768 452.195 209.728C452.755 208.688 453.539 207.888 454.547 207.328C455.555 206.768 456.715 206.488 458.027 206.488C459.291 206.488 460.419 206.76 461.411 207.304C462.419 207.848 463.195 208.624 463.739 209.632C464.299 210.624 464.579 211.768 464.579 213.064ZM461.099 212.104C461.083 211.24 460.771 210.552 460.163 210.04C459.555 209.512 458.811 209.248 457.931 209.248C457.099 209.248 456.395 209.504 455.819 210.016C455.259 210.512 454.915 211.208 454.787 212.104H461.099ZM474.399 206.512C475.983 206.512 477.263 207.016 478.239 208.024C479.215 209.016 479.703 210.408 479.703 212.2V220H476.343V212.656C476.343 211.6 476.079 210.792 475.551 210.232C475.023 209.656 474.303 209.368 473.391 209.368C472.463 209.368 471.727 209.656 471.183 210.232C470.655 210.792 470.391 211.6 470.391 212.656V220H467.031V206.704H470.391V208.36C470.839 207.784 471.407 207.336 472.095 207.016C472.799 206.68 473.567 206.512 474.399 206.512ZM486.81 209.464V215.896C486.81 216.344 486.914 216.672 487.122 216.88C487.346 217.072 487.714 217.168 488.226 217.168H489.786V220H487.674C484.842 220 483.426 218.624 483.426 215.872V209.464H481.842V206.704H483.426V203.416H486.81V206.704H489.786V209.464H486.81Z" fill="white"/>
<path d="M430 54L412.309 45.7863C411.353 45.234 410 46.0151 410 47.1197V64.8803C410 65.9849 411.353 66.766 412.309 66.2137L430 58V54ZM624 195C622.895 195 622 195.895 622 197C622 198.105 622.895 199 624 199V195ZM428 58H640V54H428V58ZM662 80V173H666V80H662ZM640 195H624V199H640V195ZM662 173C662 185.15 652.15 195 640 195V199C654.359 199 666 187.359 666 173H662ZM640 58C652.15 58 662 67.8497 662 80H666C666 65.6406 654.359 54 640 54V58Z" fill="#D8DAE6"/>
<rect x="275" y="285" width="345" height="112" rx="21" fill="#194056"/>
<rect x="291" y="309" width="64" height="64" rx="22" fill="#0A212E"/>
<path fill-rule="evenodd" clip-rule="evenodd" d="M321.489 326.75H324.511C326.181 326.75 327.534 328.026 327.534 329.6C327.534 331.401 329.461 332.546 331.043 331.685L331.204 331.598C332.65 330.811 334.498 331.278 335.333 332.641L336.845 335.109C337.679 336.472 337.184 338.215 335.738 339.002C334.155 339.864 334.155 342.136 335.738 342.998C337.184 343.785 337.679 345.528 336.845 346.891L335.333 349.359C334.498 350.722 332.65 351.189 331.204 350.402L331.043 350.315C329.461 349.454 327.534 350.599 327.534 352.4C327.534 353.974 326.181 355.25 324.511 355.25H321.489C319.819 355.25 318.466 353.974 318.466 352.4C318.466 350.599 316.539 349.454 314.957 350.315L314.796 350.402C313.35 351.189 311.502 350.722 310.667 349.359L309.155 346.891C308.321 345.528 308.816 343.785 310.262 342.998C311.845 342.136 311.845 339.864 310.262 339.002C308.816 338.215 308.321 336.472 309.155 335.109L310.667 332.641C311.502 331.278 313.35 330.811 314.796 331.598L314.957 331.685C316.539 332.546 318.466 331.401 318.466 329.6C318.466 328.026 319.819 326.75 321.489 326.75ZM323 345.75C325.623 345.75 327.75 343.623 327.75 341C327.75 338.377 325.623 336.25 323 336.25C320.377 336.25 318.25 338.377 318.25 341C318.25 343.623 320.377 345.75 323 345.75Z" fill="white"/>
<path d="M394.92 317.248V334H391.56V323.104L387.072 334H384.528L380.016 323.104V334H376.656V317.248H380.472L385.8 329.704L391.128 317.248H394.92ZM397.378 327.304C397.378 325.96 397.642 324.768 398.17 323.728C398.714 322.688 399.442 321.888 400.354 321.328C401.282 320.768 402.314 320.488 403.45 320.488C404.442 320.488 405.306 320.688 406.042 321.088C406.794 321.488 407.394 321.992 407.842 322.6V320.704H411.226V334H407.842V332.056C407.41 332.68 406.81 333.2 406.042 333.616C405.29 334.016 404.418 334.216 403.426 334.216C402.306 334.216 401.282 333.928 400.354 333.352C399.442 332.776 398.714 331.968 398.17 330.928C397.642 329.872 397.378 328.664 397.378 327.304ZM407.842 327.352C407.842 326.536 407.682 325.84 407.362 325.264C407.042 324.672 406.61 324.224 406.066 323.92C405.522 323.6 404.938 323.44 404.314 323.44C403.69 323.44 403.114 323.592 402.586 323.896C402.058 324.2 401.626 324.648 401.29 325.24C400.97 325.816 400.81 326.504 400.81 327.304C400.81 328.104 400.97 328.808 401.29 329.416C401.626 330.008 402.058 330.464 402.586 330.784C403.13 331.104 403.706 331.264 404.314 331.264C404.938 331.264 405.522 331.112 406.066 330.808C406.61 330.488 407.042 330.04 407.362 329.464C407.682 328.872 407.842 328.168 407.842 327.352ZM421.876 320.512C423.46 320.512 424.74 321.016 425.716 322.024C426.692 323.016 427.18 324.408 427.18 326.2V334H423.82V326.656C423.82 325.6 423.556 324.792 423.028 324.232C422.5 323.656 421.78 323.368 420.868 323.368C419.94 323.368 419.204 323.656 418.66 324.232C418.132 324.792 417.868 325.6 417.868 326.656V334H414.508V320.704H417.868V322.36C418.316 321.784 418.884 321.336 419.572 321.016C420.276 320.68 421.044 320.512 421.876 320.512ZM429.511 327.304C429.511 325.96 429.775 324.768 430.303 323.728C430.847 322.688 431.575 321.888 432.487 321.328C433.415 320.768 434.447 320.488 435.583 320.488C436.575 320.488 437.439 320.688 438.175 321.088C438.927 321.488 439.527 321.992 439.975 322.6V320.704H443.359V334H439.975V332.056C439.543 332.68 438.943 333.2 438.175 333.616C437.423 334.016 436.551 334.216 435.559 334.216C434.439 334.216 433.415 333.928 432.487 333.352C431.575 332.776 430.847 331.968 430.303 330.928C429.775 329.872 429.511 328.664 429.511 327.304ZM439.975 327.352C439.975 326.536 439.815 325.84 439.495 325.264C439.175 324.672 438.743 324.224 438.199 323.92C437.655 323.6 437.071 323.44 436.447 323.44C435.823 323.44 435.247 323.592 434.719 323.896C434.191 324.2 433.759 324.648 433.423 325.24C433.103 325.816 432.943 326.504 432.943 327.304C432.943 328.104 433.103 328.808 433.423 329.416C433.759 330.008 434.191 330.464 434.719 330.784C435.263 331.104 435.839 331.264 436.447 331.264C437.071 331.264 437.655 331.112 438.199 330.808C438.743 330.488 439.175 330.04 439.495 329.464C439.815 328.872 439.975 328.168 439.975 327.352ZM451.848 320.488C452.84 320.488 453.712 320.688 454.464 321.088C455.216 321.472 455.808 321.976 456.24 322.6V320.704H459.624V334.096C459.624 335.328 459.376 336.424 458.88 337.384C458.384 338.36 457.64 339.128 456.648 339.688C455.656 340.264 454.456 340.552 453.048 340.552C451.16 340.552 449.608 340.112 448.392 339.232C447.192 338.352 446.512 337.152 446.352 335.632H449.688C449.864 336.24 450.24 336.72 450.816 337.072C451.408 337.44 452.12 337.624 452.952 337.624C453.928 337.624 454.72 337.328 455.328 336.736C455.936 336.16 456.24 335.28 456.24 334.096V332.032C455.808 332.656 455.208 333.176 454.44 333.592C453.688 334.008 452.824 334.216 451.848 334.216C450.728 334.216 449.704 333.928 448.776 333.352C447.848 332.776 447.112 331.968 446.568 330.928C446.04 329.872 445.776 328.664 445.776 327.304C445.776 325.96 446.04 324.768 446.568 323.728C447.112 322.688 447.84 321.888 448.752 321.328C449.68 320.768 450.712 320.488 451.848 320.488ZM456.24 327.352C456.24 326.536 456.08 325.84 455.76 325.264C455.44 324.672 455.008 324.224 454.464 323.92C453.92 323.6 453.336 323.44 452.712 323.44C452.088 323.44 451.512 323.592 450.984 323.896C450.456 324.2 450.024 324.648 449.688 325.24C449.368 325.816 449.208 326.504 449.208 327.304C449.208 328.104 449.368 328.808 449.688 329.416C450.024 330.008 450.456 330.464 450.984 330.784C451.528 331.104 452.104 331.264 452.712 331.264C453.336 331.264 453.92 331.112 454.464 330.808C455.008 330.488 455.44 330.04 455.76 329.464C456.08 328.872 456.24 328.168 456.24 327.352ZM475.266 327.064C475.266 327.544 475.234 327.976 475.17 328.36H465.45C465.53 329.32 465.866 330.072 466.458 330.616C467.05 331.16 467.778 331.432 468.642 331.432C469.89 331.432 470.778 330.896 471.306 329.824H474.93C474.546 331.104 473.81 332.16 472.722 332.992C471.634 333.808 470.298 334.216 468.714 334.216C467.434 334.216 466.282 333.936 465.258 333.376C464.25 332.8 463.458 331.992 462.882 330.952C462.322 329.912 462.042 328.712 462.042 327.352C462.042 325.976 462.322 324.768 462.882 323.728C463.442 322.688 464.226 321.888 465.234 321.328C466.242 320.768 467.402 320.488 468.714 320.488C469.978 320.488 471.106 320.76 472.098 321.304C473.106 321.848 473.882 322.624 474.426 323.632C474.986 324.624 475.266 325.768 475.266 327.064ZM471.786 326.104C471.77 325.24 471.458 324.552 470.85 324.04C470.242 323.512 469.498 323.248 468.618 323.248C467.786 323.248 467.082 323.504 466.506 324.016C465.946 324.512 465.602 325.208 465.474 326.104H471.786ZM494.231 320.512C495.863 320.512 497.175 321.016 498.167 322.024C499.175 323.016 499.679 324.408 499.679 326.2V334H496.319V326.656C496.319 325.616 496.055 324.824 495.527 324.28C494.999 323.72 494.279 323.44 493.367 323.44C492.455 323.44 491.727 323.72 491.183 324.28C490.655 324.824 490.391 325.616 490.391 326.656V334H487.031V326.656C487.031 325.616 486.767 324.824 486.239 324.28C485.711 323.72 484.991 323.44 484.079 323.44C483.151 323.44 482.415 323.72 481.871 324.28C481.343 324.824 481.079 325.616 481.079 326.656V334H477.719V320.704H481.079V322.312C481.511 321.752 482.063 321.312 482.735 320.992C483.423 320.672 484.175 320.512 484.991 320.512C486.031 320.512 486.959 320.736 487.775 321.184C488.591 321.616 489.223 322.24 489.671 323.056C490.103 322.288 490.727 321.672 491.543 321.208C492.375 320.744 493.271 320.512 494.231 320.512ZM515.227 327.064C515.227 327.544 515.195 327.976 515.131 328.36H505.411C505.491 329.32 505.827 330.072 506.419 330.616C507.011 331.16 507.739 331.432 508.603 331.432C509.851 331.432 510.739 330.896 511.267 329.824H514.891C514.507 331.104 513.771 332.16 512.683 332.992C511.595 333.808 510.259 334.216 508.675 334.216C507.395 334.216 506.243 333.936 505.219 333.376C504.211 332.8 503.419 331.992 502.843 330.952C502.283 329.912 502.003 328.712 502.003 327.352C502.003 325.976 502.283 324.768 502.843 323.728C503.403 322.688 504.187 321.888 505.195 321.328C506.203 320.768 507.363 320.488 508.675 320.488C509.939 320.488 511.067 320.76 512.059 321.304C513.067 321.848 513.843 322.624 514.387 323.632C514.947 324.624 515.227 325.768 515.227 327.064ZM511.747 326.104C511.731 325.24 511.419 324.552 510.811 324.04C510.203 323.512 509.459 323.248 508.579 323.248C507.747 323.248 507.043 323.504 506.467 324.016C505.907 324.512 505.563 325.208 505.435 326.104H511.747ZM525.047 320.512C526.631 320.512 527.911 321.016 528.887 322.024C529.863 323.016 530.351 324.408 530.351 326.2V334H526.991V326.656C526.991 325.6 526.727 324.792 526.199 324.232C525.671 323.656 524.951 323.368 524.039 323.368C523.111 323.368 522.375 323.656 521.831 324.232C521.303 324.792 521.039 325.6 521.039 326.656V334H517.679V320.704H521.039V322.36C521.487 321.784 522.055 321.336 522.743 321.016C523.447 320.68 524.215 320.512 525.047 320.512ZM537.459 323.464V329.896C537.459 330.344 537.563 330.672 537.771 330.88C537.995 331.072 538.363 331.168 538.875 331.168H540.435V334H538.323C535.491 334 534.075 332.624 534.075 329.872V323.464H532.491V320.704H534.075V317.416H537.459V320.704H540.435V323.464H537.459ZM375.84 355.6C375.84 353.952 376.208 352.48 376.944 351.184C377.696 349.872 378.712 348.856 379.992 348.136C381.288 347.4 382.736 347.032 384.336 347.032C386.208 347.032 387.848 347.512 389.256 348.472C390.664 349.432 391.648 350.76 392.208 352.456H388.344C387.96 351.656 387.416 351.056 386.712 350.656C386.024 350.256 385.224 350.056 384.312 350.056C383.336 350.056 382.464 350.288 381.696 350.752C380.944 351.2 380.352 351.84 379.92 352.672C379.504 353.504 379.296 354.48 379.296 355.6C379.296 356.704 379.504 357.68 379.92 358.528C380.352 359.36 380.944 360.008 381.696 360.472C382.464 360.92 383.336 361.144 384.312 361.144C385.224 361.144 386.024 360.944 386.712 360.544C387.416 360.128 387.96 359.52 388.344 358.72H392.208C391.648 360.432 390.664 361.768 389.256 362.728C387.864 363.672 386.224 364.144 384.336 364.144C382.736 364.144 381.288 363.784 379.992 363.064C378.712 362.328 377.696 361.312 376.944 360.016C376.208 358.72 375.84 357.248 375.84 355.6ZM400.982 364.216C399.702 364.216 398.55 363.936 397.526 363.376C396.502 362.8 395.694 361.992 395.102 360.952C394.526 359.912 394.238 358.712 394.238 357.352C394.238 355.992 394.534 354.792 395.126 353.752C395.734 352.712 396.558 351.912 397.598 351.352C398.638 350.776 399.798 350.488 401.078 350.488C402.358 350.488 403.518 350.776 404.558 351.352C405.598 351.912 406.414 352.712 407.006 353.752C407.614 354.792 407.918 355.992 407.918 357.352C407.918 358.712 407.606 359.912 406.982 360.952C406.374 361.992 405.542 362.8 404.486 363.376C403.446 363.936 402.278 364.216 400.982 364.216ZM400.982 361.288C401.59 361.288 402.158 361.144 402.686 360.856C403.23 360.552 403.662 360.104 403.982 359.512C404.302 358.92 404.462 358.2 404.462 357.352C404.462 356.088 404.126 355.12 403.454 354.448C402.798 353.76 401.99 353.416 401.03 353.416C400.07 353.416 399.262 353.76 398.606 354.448C397.966 355.12 397.646 356.088 397.646 357.352C397.646 358.616 397.958 359.592 398.582 360.28C399.222 360.952 400.022 361.288 400.982 361.288ZM426.895 350.512C428.527 350.512 429.839 351.016 430.831 352.024C431.839 353.016 432.343 354.408 432.343 356.2V364H428.983V356.656C428.983 355.616 428.719 354.824 428.191 354.28C427.663 353.72 426.943 353.44 426.031 353.44C425.119 353.44 424.391 353.72 423.847 354.28C423.319 354.824 423.055 355.616 423.055 356.656V364H419.695V356.656C419.695 355.616 419.431 354.824 418.903 354.28C418.375 353.72 417.655 353.44 416.743 353.44C415.815 353.44 415.079 353.72 414.535 354.28C414.007 354.824 413.743 355.616 413.743 356.656V364H410.383V350.704H413.743V352.312C414.175 351.752 414.727 351.312 415.399 350.992C416.087 350.672 416.839 350.512 417.655 350.512C418.695 350.512 419.623 350.736 420.439 351.184C421.255 351.616 421.887 352.24 422.335 353.056C422.767 352.288 423.391 351.672 424.207 351.208C425.039 350.744 425.935 350.512 426.895 350.512ZM438.891 352.624C439.323 352.016 439.915 351.512 440.667 351.112C441.435 350.696 442.307 350.488 443.283 350.488C444.419 350.488 445.443 350.768 446.355 351.328C447.283 351.888 448.011 352.688 448.539 353.728C449.083 354.752 449.355 355.944 449.355 357.304C449.355 358.664 449.083 359.872 448.539 360.928C448.011 361.968 447.283 362.776 446.355 363.352C445.443 363.928 444.419 364.216 443.283 364.216C442.307 364.216 441.443 364.016 440.691 363.616C439.955 363.216 439.355 362.712 438.891 362.104V370.336H435.531V350.704H438.891V352.624ZM445.923 357.304C445.923 356.504 445.755 355.816 445.419 355.24C445.099 354.648 444.667 354.2 444.123 353.896C443.595 353.592 443.019 353.44 442.395 353.44C441.787 353.44 441.211 353.6 440.667 353.92C440.139 354.224 439.707 354.672 439.371 355.264C439.051 355.856 438.891 356.552 438.891 357.352C438.891 358.152 439.051 358.848 439.371 359.44C439.707 360.032 440.139 360.488 440.667 360.808C441.211 361.112 441.787 361.264 442.395 361.264C443.019 361.264 443.595 361.104 444.123 360.784C444.667 360.464 445.099 360.008 445.419 359.416C445.755 358.824 445.923 358.12 445.923 357.304ZM450.933 357.304C450.933 355.96 451.197 354.768 451.725 353.728C452.269 352.688 452.997 351.888 453.909 351.328C454.837 350.768 455.869 350.488 457.005 350.488C457.997 350.488 458.861 350.688 459.597 351.088C460.349 351.488 460.949 351.992 461.397 352.6V350.704H464.781V364H461.397V362.056C460.965 362.68 460.365 363.2 459.597 363.616C458.845 364.016 457.973 364.216 456.981 364.216C455.861 364.216 454.837 363.928 453.909 363.352C452.997 362.776 452.269 361.968 451.725 360.928C451.197 359.872 450.933 358.664 450.933 357.304ZM461.397 357.352C461.397 356.536 461.237 355.84 460.917 355.264C460.597 354.672 460.165 354.224 459.621 353.92C459.077 353.6 458.493 353.44 457.869 353.44C457.245 353.44 456.669 353.592 456.141 353.896C455.613 354.2 455.181 354.648 454.845 355.24C454.525 355.816 454.365 356.504 454.365 357.304C454.365 358.104 454.525 358.808 454.845 359.416C455.181 360.008 455.613 360.464 456.141 360.784C456.685 361.104 457.261 361.264 457.869 361.264C458.493 361.264 459.077 361.112 459.621 360.808C460.165 360.488 460.597 360.04 460.917 359.464C461.237 358.872 461.397 358.168 461.397 357.352ZM475.43 350.512C477.014 350.512 478.294 351.016 479.27 352.024C480.246 353.016 480.734 354.408 480.734 356.2V364H477.374V356.656C477.374 355.6 477.11 354.792 476.582 354.232C476.054 353.656 475.334 353.368 474.422 353.368C473.494 353.368 472.758 353.656 472.214 354.232C471.686 354.792 471.422 355.6 471.422 356.656V364H468.062V350.704H471.422V352.36C471.87 351.784 472.438 351.336 473.126 351.016C473.83 350.68 474.598 350.512 475.43 350.512ZM496.649 350.704L488.417 370.288H484.841L487.721 363.664L482.393 350.704H486.161L489.593 359.992L493.073 350.704H496.649Z" fill="white"/>
<path d="M624 197H644C657.255 197 668 207.745 668 221V317C668 330.255 657.255 341 644 341H624" stroke="#D8DAE6" stroke-width="4" stroke-miterlimit="0" stroke-linecap="round" stroke-linejoin="bevel"/>
<rect x="275" y="429" width="345" height="112" rx="21" fill="#194056"/>
<rect x="291" y="453" width="64" height="64" rx="22" fill="#0A212E"/>
<path d="M308.802 479.854L337.198 479.854C338.813 479.854 339.448 477.714 338.104 476.799L324.811 467.748C323.715 467.001 322.286 467.001 321.189 467.748L307.897 476.799C306.553 477.714 307.187 479.854 308.802 479.854Z" fill="white"/>
<path d="M312.709 482.229H317.459V490.146H312.709V482.229Z" fill="white"/>
<path d="M333.292 482.229H328.542V490.146H333.292V482.229Z" fill="white"/>
<path d="M320.625 482.229H325.375V490.146H320.625V482.229Z" fill="white"/>
<path d="M336.105 493.396C335.836 492.86 335.288 492.521 334.688 492.521L311.312 492.521C310.712 492.521 310.164 492.86 309.896 493.396L308.313 496.563C307.786 497.616 308.552 498.854 309.729 498.854H336.272C337.449 498.854 338.214 497.616 337.688 496.563L336.105 493.396Z" fill="white"/>
<path d="M386.16 484.408C387.104 484.584 387.88 485.056 388.488 485.824C389.096 486.592 389.4 487.472 389.4 488.464C389.4 489.36 389.176 490.152 388.728 490.84C388.296 491.512 387.664 492.04 386.832 492.424C386 492.808 385.016 493 383.88 493H376.656V476.248H383.568C384.704 476.248 385.68 476.432 386.496 476.8C387.328 477.168 387.952 477.68 388.368 478.336C388.8 478.992 389.016 479.736 389.016 480.568C389.016 481.544 388.752 482.36 388.224 483.016C387.712 483.672 387.024 484.136 386.16 484.408ZM380.016 483.16H383.088C383.888 483.16 384.504 482.984 384.936 482.632C385.368 482.264 385.584 481.744 385.584 481.072C385.584 480.4 385.368 479.88 384.936 479.512C384.504 479.144 383.888 478.96 383.088 478.96H380.016V483.16ZM383.4 490.264C384.216 490.264 384.848 490.072 385.296 489.688C385.76 489.304 385.992 488.76 385.992 488.056C385.992 487.336 385.752 486.776 385.272 486.376C384.792 485.96 384.144 485.752 383.328 485.752H380.016V490.264H383.4ZM391.214 486.304C391.214 484.96 391.478 483.768 392.006 482.728C392.55 481.688 393.278 480.888 394.19 480.328C395.118 479.768 396.15 479.488 397.286 479.488C398.278 479.488 399.142 479.688 399.878 480.088C400.63 480.488 401.23 480.992 401.678 481.6V479.704H405.062V493H401.678V491.056C401.246 491.68 400.646 492.2 399.878 492.616C399.126 493.016 398.254 493.216 397.262 493.216C396.142 493.216 395.118 492.928 394.19 492.352C393.278 491.776 392.55 490.968 392.006 489.928C391.478 488.872 391.214 487.664 391.214 486.304ZM401.678 486.352C401.678 485.536 401.518 484.84 401.198 484.264C400.878 483.672 400.446 483.224 399.902 482.92C399.358 482.6 398.774 482.44 398.15 482.44C397.526 482.44 396.95 482.592 396.422 482.896C395.894 483.2 395.462 483.648 395.126 484.24C394.806 484.816 394.646 485.504 394.646 486.304C394.646 487.104 394.806 487.808 395.126 488.416C395.462 489.008 395.894 489.464 396.422 489.784C396.966 490.104 397.542 490.264 398.15 490.264C398.774 490.264 399.358 490.112 399.902 489.808C400.446 489.488 400.878 489.04 401.198 488.464C401.518 487.872 401.678 487.168 401.678 486.352ZM415.712 479.512C417.296 479.512 418.576 480.016 419.552 481.024C420.528 482.016 421.016 483.408 421.016 485.2V493H417.656V485.656C417.656 484.6 417.392 483.792 416.864 483.232C416.336 482.656 415.616 482.368 414.704 482.368C413.776 482.368 413.04 482.656 412.496 483.232C411.968 483.792 411.704 484.6 411.704 485.656V493H408.344V479.704H411.704V481.36C412.152 480.784 412.72 480.336 413.408 480.016C414.112 479.68 414.88 479.512 415.712 479.512ZM432.083 493L427.571 487.336V493H424.211V475.24H427.571V485.344L432.035 479.704H436.403L430.547 486.376L436.451 493H432.083Z" fill="white"/>
<path d="M624 341H644C657.255 341 668 351.745 668 365V461C668 474.255 657.255 485 644 485H624" stroke="#D8DAE6" stroke-width="4" stroke-miterlimit="0" stroke-linecap="round" stroke-linejoin="bevel"/>
<rect x="275" y="573" width="345" height="112" rx="21" fill="#407E9D"/>
<rect x="291" y="597" width="64" height="64" rx="22" fill="#0A212E"/>
<path fill-rule="evenodd" clip-rule="evenodd" d="M328.703 618.312H317.297C315.456 615.826 317.936 612.347 321.016 613.34L322.485 613.814C322.82 613.922 323.181 613.922 323.515 613.814L324.984 613.34C328.064 612.347 330.544 615.826 328.703 618.312ZM317.468 620.687H328.532C330.621 621.844 332.253 623.775 333 626.166L334.979 632.5C336.891 638.617 332.321 644.833 325.912 644.833H320.089C313.68 644.833 309.109 638.617 311.021 632.5L313 626.166C313.748 623.775 315.379 621.844 317.468 620.687ZM324.25 625.042C324.25 624.351 323.69 623.792 323 623.792C322.31 623.792 321.75 624.351 321.75 625.042V626.333C319.998 626.808 318.583 628.259 318.583 630.187C318.583 632.56 320.723 634.208 323 634.208C324.221 634.208 324.917 635.041 324.917 635.729C324.917 636.417 324.221 637.25 323 637.25C321.78 637.25 321.083 636.417 321.083 635.729C321.083 635.039 320.524 634.479 319.833 634.479C319.143 634.479 318.583 635.039 318.583 635.729C318.583 637.658 319.998 639.108 321.75 639.583V640.875C321.75 641.565 322.31 642.125 323 642.125C323.69 642.125 324.25 641.565 324.25 640.875V639.583C326.003 639.108 327.417 637.658 327.417 635.729C327.417 633.357 325.277 631.708 323 631.708C321.78 631.708 321.083 630.876 321.083 630.187C321.083 629.499 321.78 628.667 323 628.667C324.221 628.667 324.917 629.499 324.917 630.187C324.917 630.878 325.476 631.437 326.167 631.437C326.857 631.437 327.417 630.878 327.417 630.187C327.417 628.259 326.003 626.808 324.25 626.333V625.042Z" fill="white"/>
<path d="M382.512 605.248C384.272 605.248 385.816 605.592 387.144 606.28C388.488 606.968 389.52 607.952 390.24 609.232C390.976 610.496 391.344 611.968 391.344 613.648C391.344 615.328 390.976 616.8 390.24 618.064C389.52 619.312 388.488 620.28 387.144 620.968C385.816 621.656 384.272 622 382.512 622H376.656V605.248H382.512ZM382.392 619.144C384.152 619.144 385.512 618.664 386.472 617.704C387.432 616.744 387.912 615.392 387.912 613.648C387.912 611.904 387.432 610.544 386.472 609.568C385.512 608.576 384.152 608.08 382.392 608.08H380.016V619.144H382.392ZM406.219 615.064C406.219 615.544 406.187 615.976 406.123 616.36H396.403C396.483 617.32 396.819 618.072 397.411 618.616C398.003 619.16 398.731 619.432 399.595 619.432C400.843 619.432 401.731 618.896 402.259 617.824H405.883C405.499 619.104 404.763 620.16 403.675 620.992C402.587 621.808 401.251 622.216 399.667 622.216C398.387 622.216 397.235 621.936 396.211 621.376C395.203 620.8 394.411 619.992 393.835 618.952C393.275 617.912 392.995 616.712 392.995 615.352C392.995 613.976 393.275 612.768 393.835 611.728C394.395 610.688 395.179 609.888 396.187 609.328C397.195 608.768 398.355 608.488 399.667 608.488C400.931 608.488 402.059 608.76 403.051 609.304C404.059 609.848 404.835 610.624 405.379 611.632C405.939 612.624 406.219 613.768 406.219 615.064ZM402.739 614.104C402.723 613.24 402.411 612.552 401.803 612.04C401.195 611.512 400.451 611.248 399.571 611.248C398.739 611.248 398.035 611.504 397.459 612.016C396.899 612.512 396.555 613.208 396.427 614.104H402.739ZM412.032 610.624C412.464 610.016 413.056 609.512 413.808 609.112C414.576 608.696 415.448 608.488 416.424 608.488C417.56 608.488 418.584 608.768 419.496 609.328C420.424 609.888 421.152 610.688 421.68 611.728C422.224 612.752 422.496 613.944 422.496 615.304C422.496 616.664 422.224 617.872 421.68 618.928C421.152 619.968 420.424 620.776 419.496 621.352C418.584 621.928 417.56 622.216 416.424 622.216C415.448 622.216 414.584 622.016 413.832 621.616C413.096 621.216 412.496 620.712 412.032 620.104V628.336H408.672V608.704H412.032V610.624ZM419.064 615.304C419.064 614.504 418.896 613.816 418.56 613.24C418.24 612.648 417.808 612.2 417.264 611.896C416.736 611.592 416.16 611.44 415.536 611.44C414.928 611.44 414.352 611.6 413.808 611.92C413.28 612.224 412.848 612.672 412.512 613.264C412.192 613.856 412.032 614.552 412.032 615.352C412.032 616.152 412.192 616.848 412.512 617.44C412.848 618.032 413.28 618.488 413.808 618.808C414.352 619.112 414.928 619.264 415.536 619.264C416.16 619.264 416.736 619.104 417.264 618.784C417.808 618.464 418.24 618.008 418.56 617.416C418.896 616.824 419.064 616.12 419.064 615.304ZM430.841 622.216C429.561 622.216 428.409 621.936 427.385 621.376C426.361 620.8 425.553 619.992 424.961 618.952C424.385 617.912 424.097 616.712 424.097 615.352C424.097 613.992 424.393 612.792 424.985 611.752C425.593 610.712 426.417 609.912 427.457 609.352C428.497 608.776 429.657 608.488 430.937 608.488C432.217 608.488 433.377 608.776 434.417 609.352C435.457 609.912 436.273 610.712 436.865 611.752C437.473 612.792 437.777 613.992 437.777 615.352C437.777 616.712 437.465 617.912 436.841 618.952C436.233 619.992 435.401 620.8 434.345 621.376C433.305 621.936 432.137 622.216 430.841 622.216ZM430.841 619.288C431.449 619.288 432.017 619.144 432.545 618.856C433.089 618.552 433.521 618.104 433.841 617.512C434.161 616.92 434.321 616.2 434.321 615.352C434.321 614.088 433.985 613.12 433.313 612.448C432.657 611.76 431.849 611.416 430.889 611.416C429.929 611.416 429.121 611.76 428.465 612.448C427.825 613.12 427.505 614.088 427.505 615.352C427.505 616.616 427.817 617.592 428.441 618.28C429.081 618.952 429.881 619.288 430.841 619.288ZM445.33 622.216C444.242 622.216 443.266 622.024 442.402 621.64C441.538 621.24 440.85 620.704 440.338 620.032C439.842 619.36 439.57 618.616 439.522 617.8H442.906C442.97 618.312 443.218 618.736 443.65 619.072C444.098 619.408 444.65 619.576 445.306 619.576C445.946 619.576 446.442 619.448 446.794 619.192C447.162 618.936 447.346 618.608 447.346 618.208C447.346 617.776 447.122 617.456 446.674 617.248C446.242 617.024 445.546 616.784 444.586 616.528C443.594 616.288 442.778 616.04 442.138 615.784C441.514 615.528 440.97 615.136 440.506 614.608C440.058 614.08 439.834 613.368 439.834 612.472C439.834 611.736 440.042 611.064 440.458 610.456C440.89 609.848 441.498 609.368 442.282 609.016C443.082 608.664 444.018 608.488 445.09 608.488C446.674 608.488 447.938 608.888 448.882 609.688C449.826 610.472 450.346 611.536 450.442 612.88H447.226C447.178 612.352 446.954 611.936 446.554 611.632C446.17 611.312 445.65 611.152 444.994 611.152C444.386 611.152 443.914 611.264 443.578 611.488C443.258 611.712 443.098 612.024 443.098 612.424C443.098 612.872 443.322 613.216 443.77 613.456C444.218 613.68 444.914 613.912 445.858 614.152C446.818 614.392 447.61 614.64 448.234 614.896C448.858 615.152 449.394 615.552 449.842 616.096C450.306 616.624 450.546 617.328 450.562 618.208C450.562 618.976 450.346 619.664 449.914 620.272C449.498 620.88 448.89 621.36 448.09 621.712C447.306 622.048 446.386 622.216 445.33 622.216ZM455.024 607.12C454.432 607.12 453.936 606.936 453.536 606.568C453.152 606.184 452.96 605.712 452.96 605.152C452.96 604.592 453.152 604.128 453.536 603.76C453.936 603.376 454.432 603.184 455.024 603.184C455.616 603.184 456.104 603.376 456.488 603.76C456.888 604.128 457.088 604.592 457.088 605.152C457.088 605.712 456.888 606.184 456.488 606.568C456.104 606.936 455.616 607.12 455.024 607.12ZM456.68 608.704V622H453.32V608.704H456.68ZM463.912 611.464V617.896C463.912 618.344 464.016 618.672 464.224 618.88C464.448 619.072 464.816 619.168 465.328 619.168H466.888V622H464.776C461.944 622 460.528 620.624 460.528 617.872V611.464H458.944V608.704H460.528V605.416H463.912V608.704H466.888V611.464H463.912ZM478.935 611.464V617.896C478.935 618.344 479.039 618.672 479.247 618.88C479.471 619.072 479.839 619.168 480.351 619.168H481.911V622H479.799C476.967 622 475.551 620.624 475.551 617.872V611.464H473.967V608.704H475.551V605.416H478.935V608.704H481.911V611.464H478.935ZM490.232 622.216C488.952 622.216 487.8 621.936 486.776 621.376C485.752 620.8 484.944 619.992 484.352 618.952C483.776 617.912 483.488 616.712 483.488 615.352C483.488 613.992 483.784 612.792 484.376 611.752C484.984 610.712 485.808 609.912 486.848 609.352C487.888 608.776 489.048 608.488 490.328 608.488C491.608 608.488 492.768 608.776 493.808 609.352C494.848 609.912 495.664 610.712 496.256 611.752C496.864 612.792 497.168 613.992 497.168 615.352C497.168 616.712 496.856 617.912 496.232 618.952C495.624 619.992 494.792 620.8 493.736 621.376C492.696 621.936 491.528 622.216 490.232 622.216ZM490.232 619.288C490.84 619.288 491.408 619.144 491.936 618.856C492.48 618.552 492.912 618.104 493.232 617.512C493.552 616.92 493.712 616.2 493.712 615.352C493.712 614.088 493.376 613.12 492.704 612.448C492.048 611.76 491.24 611.416 490.28 611.416C489.32 611.416 488.512 611.76 487.856 612.448C487.216 613.12 486.896 614.088 486.896 615.352C486.896 616.616 487.208 617.592 487.832 618.28C488.472 618.952 489.272 619.288 490.232 619.288ZM389.376 638.704L381.144 658.288H377.568L380.448 651.664L375.12 638.704H378.888L382.32 647.992L385.8 638.704H389.376ZM397.091 652.216C395.811 652.216 394.659 651.936 393.635 651.376C392.611 650.8 391.803 649.992 391.211 648.952C390.635 647.912 390.347 646.712 390.347 645.352C390.347 643.992 390.643 642.792 391.235 641.752C391.843 640.712 392.667 639.912 393.707 639.352C394.747 638.776 395.907 638.488 397.187 638.488C398.467 638.488 399.627 638.776 400.667 639.352C401.707 639.912 402.523 640.712 403.115 641.752C403.723 642.792 404.027 643.992 404.027 645.352C404.027 646.712 403.715 647.912 403.091 648.952C402.483 649.992 401.651 650.8 400.595 651.376C399.555 651.936 398.387 652.216 397.091 652.216ZM397.091 649.288C397.699 649.288 398.267 649.144 398.795 648.856C399.339 648.552 399.771 648.104 400.091 647.512C400.411 646.92 400.571 646.2 400.571 645.352C400.571 644.088 400.235 643.12 399.563 642.448C398.907 641.76 398.099 641.416 397.139 641.416C396.179 641.416 395.371 641.76 394.715 642.448C394.075 643.12 393.755 644.088 393.755 645.352C393.755 646.616 394.067 647.592 394.691 648.28C395.331 648.952 396.131 649.288 397.091 649.288ZM419.044 638.704V652H415.66V650.32C415.228 650.896 414.66 651.352 413.956 651.688C413.268 652.008 412.516 652.168 411.7 652.168C410.66 652.168 409.74 651.952 408.94 651.52C408.14 651.072 407.508 650.424 407.044 649.576C406.596 648.712 406.372 647.688 406.372 646.504V638.704H409.732V646.024C409.732 647.08 409.996 647.896 410.524 648.472C411.052 649.032 411.772 649.312 412.684 649.312C413.612 649.312 414.34 649.032 414.868 648.472C415.396 647.896 415.66 647.08 415.66 646.024V638.704H419.044ZM425.719 640.768C426.151 640.064 426.711 639.512 427.399 639.112C428.103 638.712 428.903 638.512 429.799 638.512V642.04H428.911C427.855 642.04 427.055 642.288 426.511 642.784C425.983 643.28 425.719 644.144 425.719 645.376V652H422.359V638.704H425.719V640.768ZM456.213 638.704L452.325 652H448.701L446.277 642.712L443.853 652H440.205L436.293 638.704H439.701L442.053 648.832L444.597 638.704H448.149L450.645 648.808L452.997 638.704H456.213ZM457.167 645.304C457.167 643.96 457.431 642.768 457.959 641.728C458.503 640.688 459.231 639.888 460.143 639.328C461.071 638.768 462.103 638.488 463.239 638.488C464.231 638.488 465.095 638.688 465.831 639.088C466.583 639.488 467.183 639.992 467.631 640.6V638.704H471.015V652H467.631V650.056C467.199 650.68 466.599 651.2 465.831 651.616C465.079 652.016 464.207 652.216 463.215 652.216C462.095 652.216 461.071 651.928 460.143 651.352C459.231 650.776 458.503 649.968 457.959 648.928C457.431 647.872 457.167 646.664 457.167 645.304ZM467.631 645.352C467.631 644.536 467.471 643.84 467.151 643.264C466.831 642.672 466.399 642.224 465.855 641.92C465.311 641.6 464.727 641.44 464.103 641.44C463.479 641.44 462.903 641.592 462.375 641.896C461.847 642.2 461.415 642.648 461.079 643.24C460.759 643.816 460.599 644.504 460.599 645.304C460.599 646.104 460.759 646.808 461.079 647.416C461.415 648.008 461.847 648.464 462.375 648.784C462.919 649.104 463.495 649.264 464.103 649.264C464.727 649.264 465.311 649.112 465.855 648.808C466.399 648.488 466.831 648.04 467.151 647.464C467.471 646.872 467.631 646.168 467.631 645.352ZM477.657 634.24V652H474.297V634.24H477.657ZM484.336 634.24V652H480.976V634.24H484.336ZM500.016 645.064C500.016 645.544 499.984 645.976 499.92 646.36H490.2C490.28 647.32 490.616 648.072 491.208 648.616C491.8 649.16 492.528 649.432 493.392 649.432C494.64 649.432 495.528 648.896 496.056 647.824H499.68C499.296 649.104 498.56 650.16 497.472 650.992C496.384 651.808 495.048 652.216 493.464 652.216C492.184 652.216 491.032 651.936 490.008 651.376C489 650.8 488.208 649.992 487.632 648.952C487.072 647.912 486.792 646.712 486.792 645.352C486.792 643.976 487.072 642.768 487.632 641.728C488.192 640.688 488.976 639.888 489.984 639.328C490.992 638.768 492.152 638.488 493.464 638.488C494.728 638.488 495.856 638.76 496.848 639.304C497.856 639.848 498.632 640.624 499.176 641.632C499.736 642.624 500.016 643.768 500.016 645.064ZM496.536 644.104C496.52 643.24 496.208 642.552 495.6 642.04C494.992 641.512 494.248 641.248 493.368 641.248C492.536 641.248 491.832 641.504 491.256 642.016C490.696 642.512 490.352 643.208 490.224 644.104H496.536ZM506.381 641.464V647.896C506.381 648.344 506.485 648.672 506.693 648.88C506.917 649.072 507.285 649.168 507.797 649.168H509.357V652H507.245C504.413 652 502.997 650.624 502.997 647.872V641.464H501.413V638.704H502.997V635.416H506.381V638.704H509.357V641.464H506.381Z" fill="white"/>
<path d="M271 631C272.105 631 273 630.105 273 629C273 627.895 272.105 627 271 627V631ZM62.4142 57.4142C63.1953 56.6332 63.1953 55.3668 62.4142 54.5858L49.6863 41.8579C48.9052 41.0768 47.6389 41.0768 46.8579 41.8579C46.0768 42.6389 46.0768 43.9052 46.8579 44.6863L58.1716 56L46.8579 67.3137C46.0768 68.0948 46.0768 69.3611 46.8579 70.1421C47.6389 70.9232 48.9052 70.9232 49.6863 70.1421L62.4142 57.4142ZM61 54H56.875V58H61V54ZM48.625 54H40.375V58H48.625V54ZM32.125 54H28V58H32.125V54ZM28 54C26.2661 54 24.57 54.17 22.928 54.4948L23.7042 58.4188C25.092 58.1443 26.5282 58 28 58V54ZM13.5526 58.3805C10.7181 60.2781 8.27813 62.7181 6.38049 65.5526L9.70437 67.7779C11.3111 65.3779 13.3779 63.3111 15.7779 61.7044L13.5526 58.3805ZM2.49484 74.928C2.17 76.57 2 78.2662 2 80H6C6 78.5282 6.14425 77.092 6.41879 75.7043L2.49484 74.928ZM2 80V83.9773H6V80H2ZM2 91.9318V99.8864H6V91.9318H2ZM2 107.841V115.795H6V107.841H2ZM2 123.75V131.705H6V123.75H2ZM2 139.659V147.614H6V139.659H2ZM2 155.568V163.523H6V155.568H2ZM2 171.477V179.432H6V171.477H2ZM2 187.386V195.341H6V187.386H2ZM2 203.295V211.25H6V203.295H2ZM2 219.205V227.159H6V219.205H2ZM2 235.114V243.068H6V235.114H2ZM2 251.023V258.977H6V251.023H2ZM2 266.932V274.886H6V266.932H2ZM2 282.841V290.795H6V282.841H2ZM2 298.75V306.705H6V298.75H2ZM2 314.659V322.614H6V314.659H2ZM2 330.568V338.523H6V330.568H2ZM2 346.477V354.432H6V346.477H2ZM2 362.386V370.341H6V362.386H2ZM2 378.296V386.25H6V378.296H2ZM2 394.205V402.159H6V394.205H2ZM2 410.114V418.068H6V410.114H2ZM2 426.023V433.977H6V426.023H2ZM2 441.932V449.887H6V441.932H2ZM2 457.841V465.796H6V457.841H2ZM2 473.75V481.705H6V473.75H2ZM2 489.659V497.614H6V489.659H2ZM2 505.568V513.523H6V505.568H2ZM2 521.478V529.432H6V521.478H2ZM2 537.387V545.341H6V537.387H2ZM2 553.296V561.25H6V553.296H2ZM2 569.205V577.159H6V569.205H2ZM2 585.114V593.069H6V585.114H2ZM2 601.023V605H6V601.023H2ZM2 605C2 606.734 2.17 608.43 2.49484 610.072L6.41879 609.296C6.14425 607.908 6 606.472 6 605H2ZM6.38049 619.447C8.27813 622.282 10.7181 624.722 13.5526 626.62L15.7779 623.296C13.3779 621.689 11.3111 619.622 9.70437 617.222L6.38049 619.447ZM22.928 630.505C24.57 630.83 26.2661 631 28 631V627C26.5282 627 25.092 626.856 23.7042 626.581L22.928 630.505ZM28 631H32.05V627H28V631ZM40.15 631H48.25V627H40.15V631ZM56.35 631H64.45V627H56.35V631ZM72.55 631H80.65V627H72.55V631ZM88.75 631H96.85V627H88.75V631ZM104.95 631H113.05V627H104.95V631ZM121.15 631H129.25V627H121.15V631ZM137.35 631H145.45V627H137.35V631ZM153.55 631H161.65V627H153.55V631ZM169.75 631H177.85V627H169.75V631ZM185.95 631H194.05V627H185.95V631ZM202.15 631H210.25V627H202.15V631ZM218.35 631H226.45V627H218.35V631ZM234.55 631H242.65V627H234.55V631ZM250.75 631H258.85V627H250.75V631ZM266.95 631H271V627H266.95V631ZM271 633C273.209 633 275 631.209 275 629C275 626.791 273.209 625 271 625V633ZM63.8284 58.8284C65.3905 57.2663 65.3905 54.7337 63.8284 53.1716L38.3726 27.7157C36.8105 26.1536 34.2778 26.1536 32.7157 27.7157C31.1536 29.2778 31.1536 31.8105 32.7157 33.3726L55.3431 56L32.7157 78.6274C31.1536 80.1895 31.1536 82.7222 32.7157 84.2843C34.2778 85.8464 36.8105 85.8464 38.3726 84.2843L63.8284 58.8284ZM61 52H56.875V60H61V52ZM48.625 52H40.375V60H48.625V52ZM32.125 52H28V60H32.125V52ZM28 52C26.1351 52 24.309 52.1829 22.5398 52.5329L24.0924 60.3808C25.353 60.1314 26.6592 60 28 60V52ZM12.4399 56.7186C9.38823 58.7616 6.76163 61.3882 4.71856 64.44L11.3663 68.8905C12.8276 66.7078 14.7077 64.8276 16.8905 63.3663L12.4399 56.7186ZM0.532865 74.5399C0.18287 76.309 0 78.1351 0 80H8C8 78.6592 8.13138 77.353 8.38077 76.0924L0.532865 74.5399ZM0 80V83.9773H8V80H0ZM0 91.9318V99.8864H8V91.9318H0ZM0 107.841V115.795H8V107.841H0ZM0 123.75V131.705H8V123.75H0ZM0 139.659V147.614H8V139.659H0ZM0 155.568V163.523H8V155.568H0ZM0 171.477V179.432H8V171.477H0ZM0 187.386V195.341H8V187.386H0ZM0 203.295V211.25H8V203.295H0ZM0 219.205V227.159H8V219.205H0ZM0 235.114V243.068H8V235.114H0ZM0 251.023V258.977H8V251.023H0ZM0 266.932V274.886H8V266.932H0ZM0 282.841V290.795H8V282.841H0ZM0 298.75V306.705H8V298.75H0ZM0 314.659V322.614H8V314.659H0ZM0 330.568V338.523H8V330.568H0ZM0 346.477V354.432H8V346.477H0ZM0 362.386V370.341H8V362.386H0ZM0 378.296V386.25H8V378.296H0ZM0 394.205V402.159H8V394.205H0ZM0 410.114V418.068H8V410.114H0ZM0 426.023V433.977H8V426.023H0ZM0 441.932V449.887H8V441.932H0ZM0 457.841V465.796H8V457.841H0ZM0 473.75V481.705H8V473.75H0ZM0 489.659V497.614H8V489.659H0ZM0 505.568V513.523H8V505.568H0ZM0 521.478V529.432H8V521.478H0ZM0 537.387V545.341H8V537.387H0ZM0 553.296V561.25H8V553.296H0ZM0 569.205V577.159H8V569.205H0ZM0 585.114V593.069H8V585.114H0ZM0 601.023V605H8V601.023H0ZM0 605C0 606.865 0.18287 608.691 0.532866 610.46L8.38077 608.908C8.13138 607.647 8 606.341 8 605H0ZM4.71856 620.56C6.76163 623.612 9.38823 626.238 12.4399 628.281L16.8905 621.634C14.7077 620.172 12.8276 618.292 11.3663 616.109L4.71856 620.56ZM22.5398 632.467C24.309 632.817 26.1351 633 28 633V625C26.6592 625 25.353 624.869 24.0924 624.619L22.5398 632.467ZM28 633H32.05V625H28V633ZM40.15 633H48.25V625H40.15V633ZM56.35 633H64.45V625H56.35V633ZM72.55 633H80.65V625H72.55V633ZM88.75 633H96.85V625H88.75V633ZM104.95 633H113.05V625H104.95V633ZM121.15 633H129.25V625H121.15V633ZM137.35 633H145.45V625H137.35V633ZM153.55 633H161.65V625H153.55V633ZM169.75 633H177.85V625H169.75V633ZM185.95 633H194.05V625H185.95V633ZM202.15 633H210.25V625H202.15V633ZM218.35 633H226.45V625H218.35V633ZM234.55 633H242.65V625H234.55V633ZM250.75 633H258.85V625H250.75V633ZM266.95 633H271V625H266.95V633Z" fill="#D8DAE6"/>
<path d="M624 483C622.895 483 622 483.895 622 485C622 486.105 622.895 487 624 487V483ZM622.586 627.586C621.805 628.367 621.805 629.633 622.586 630.414L635.314 643.142C636.095 643.923 637.361 643.923 638.142 643.142C638.923 642.361 638.923 641.095 638.142 640.314L626.828 629L638.142 617.686C638.923 616.905 638.923 615.639 638.142 614.858C637.361 614.077 636.095 614.077 635.314 614.858L622.586 627.586ZM624 487H644V483H624V487ZM666 509V605H670V509H666ZM644 627H624V631H644V627ZM666 605C666 617.15 656.15 627 644 627V631C658.359 631 670 619.359 670 605H666ZM644 487C656.15 487 666 496.85 666 509H670C670 494.641 658.359 483 644 483V487Z" fill="#D8DAE6"/>
<mask id="path-26-outside-1_2004_28809" maskUnits="userSpaceOnUse" x="89" y="588" width="104" height="22" fill="black">
<rect fill="white" x="89" y="588" width="104" height="22"/>
<path d="M98.64 607.816L94.944 601.288H93.36V607.816H90V591.064H96.288C97.584 591.064 98.688 591.296 99.6 591.76C100.512 592.208 101.192 592.824 101.64 593.608C102.104 594.376 102.336 595.24 102.336 596.2C102.336 597.304 102.016 598.304 101.376 599.2C100.736 600.08 99.784 600.688 98.52 601.024L102.528 607.816H98.64ZM93.36 598.768H96.168C97.08 598.768 97.76 598.552 98.208 598.12C98.656 597.672 98.88 597.056 98.88 596.272C98.88 595.504 98.656 594.912 98.208 594.496C97.76 594.064 97.08 593.848 96.168 593.848H93.36V598.768Z"/>
<path d="M117.735 600.88C117.735 601.36 117.703 601.792 117.639 602.176H107.919C107.999 603.136 108.335 603.888 108.927 604.432C109.519 604.976 110.247 605.248 111.111 605.248C112.359 605.248 113.247 604.712 113.775 603.64H117.399C117.015 604.92 116.279 605.976 115.191 606.808C114.103 607.624 112.767 608.032 111.183 608.032C109.903 608.032 108.751 607.752 107.727 607.192C106.719 606.616 105.927 605.808 105.351 604.768C104.791 603.728 104.511 602.528 104.511 601.168C104.511 599.792 104.791 598.584 105.351 597.544C105.911 596.504 106.695 595.704 107.703 595.144C108.711 594.584 109.871 594.304 111.183 594.304C112.447 594.304 113.575 594.576 114.567 595.12C115.575 595.664 116.351 596.44 116.895 597.448C117.455 598.44 117.735 599.584 117.735 600.88ZM114.255 599.92C114.239 599.056 113.927 598.368 113.319 597.856C112.711 597.328 111.967 597.064 111.087 597.064C110.255 597.064 109.551 597.32 108.975 597.832C108.415 598.328 108.071 599.024 107.943 599.92H114.255Z"/>
<path d="M121.892 592.936C121.3 592.936 120.803 592.752 120.403 592.384C120.019 592 119.827 591.528 119.827 590.968C119.827 590.408 120.019 589.944 120.403 589.576C120.803 589.192 121.3 589 121.892 589C122.484 589 122.972 589.192 123.355 589.576C123.756 589.944 123.956 590.408 123.956 590.968C123.956 591.528 123.756 592 123.355 592.384C122.972 592.752 122.484 592.936 121.892 592.936ZM123.548 594.52V607.816H120.188V594.52H123.548Z"/>
<path d="M134.235 594.328C135.819 594.328 137.099 594.832 138.075 595.84C139.051 596.832 139.539 598.224 139.539 600.016V607.816H136.179V600.472C136.179 599.416 135.915 598.608 135.387 598.048C134.859 597.472 134.139 597.184 133.227 597.184C132.299 597.184 131.563 597.472 131.019 598.048C130.491 598.608 130.227 599.416 130.227 600.472V607.816H126.867V594.52H130.227V596.176C130.675 595.6 131.243 595.152 131.931 594.832C132.635 594.496 133.403 594.328 134.235 594.328Z"/>
<path d="M148.278 604.72L151.638 594.52H155.214L150.294 607.816H146.214L141.318 594.52H144.918L148.278 604.72Z"/>
<path d="M169.462 600.88C169.462 601.36 169.43 601.792 169.366 602.176H159.646C159.726 603.136 160.062 603.888 160.654 604.432C161.246 604.976 161.974 605.248 162.838 605.248C164.086 605.248 164.974 604.712 165.502 603.64H169.126C168.742 604.92 168.006 605.976 166.918 606.808C165.83 607.624 164.494 608.032 162.91 608.032C161.63 608.032 160.478 607.752 159.454 607.192C158.446 606.616 157.654 605.808 157.078 604.768C156.518 603.728 156.238 602.528 156.238 601.168C156.238 599.792 156.518 598.584 157.078 597.544C157.638 596.504 158.422 595.704 159.43 595.144C160.438 594.584 161.598 594.304 162.91 594.304C164.174 594.304 165.302 594.576 166.294 595.12C167.302 595.664 168.078 596.44 168.622 597.448C169.182 598.44 169.462 599.584 169.462 600.88ZM165.982 599.92C165.966 599.056 165.654 598.368 165.046 597.856C164.438 597.328 163.694 597.064 162.814 597.064C161.982 597.064 161.278 597.32 160.702 597.832C160.142 598.328 159.798 599.024 159.67 599.92H165.982Z"/>
<path d="M177.002 608.032C175.914 608.032 174.938 607.84 174.074 607.456C173.21 607.056 172.522 606.52 172.01 605.848C171.514 605.176 171.242 604.432 171.194 603.616H174.578C174.642 604.128 174.89 604.552 175.322 604.888C175.77 605.224 176.322 605.392 176.978 605.392C177.618 605.392 178.114 605.264 178.466 605.008C178.834 604.752 179.018 604.424 179.018 604.024C179.018 603.592 178.794 603.272 178.346 603.064C177.914 602.84 177.218 602.6 176.258 602.344C175.266 602.104 174.45 601.856 173.81 601.6C173.186 601.344 172.642 600.952 172.178 600.424C171.73 599.896 171.506 599.184 171.506 598.288C171.506 597.552 171.714 596.88 172.13 596.272C172.562 595.664 173.17 595.184 173.954 594.832C174.754 594.48 175.69 594.304 176.762 594.304C178.346 594.304 179.61 594.704 180.554 595.504C181.498 596.288 182.018 597.352 182.114 598.696H178.898C178.85 598.168 178.626 597.752 178.226 597.448C177.842 597.128 177.322 596.968 176.666 596.968C176.058 596.968 175.586 597.08 175.25 597.304C174.93 597.528 174.77 597.84 174.77 598.24C174.77 598.688 174.994 599.032 175.442 599.272C175.89 599.496 176.586 599.728 177.53 599.968C178.49 600.208 179.282 600.456 179.906 600.712C180.53 600.968 181.066 601.368 181.514 601.912C181.978 602.44 182.218 603.144 182.234 604.024C182.234 604.792 182.018 605.48 181.586 606.088C181.17 606.696 180.562 607.176 179.762 607.528C178.978 607.864 178.058 608.032 177.002 608.032Z"/>
<path d="M188.904 597.28V603.712C188.904 604.16 189.008 604.488 189.216 604.696C189.44 604.888 189.808 604.984 190.32 604.984H191.88V607.816H189.768C186.936 607.816 185.52 606.44 185.52 603.688V597.28H183.936V594.52H185.52V591.232H188.904V594.52H191.88V597.28H188.904Z"/>
</mask>
<path d="M98.64 607.816L94.944 601.288H93.36V607.816H90V591.064H96.288C97.584 591.064 98.688 591.296 99.6 591.76C100.512 592.208 101.192 592.824 101.64 593.608C102.104 594.376 102.336 595.24 102.336 596.2C102.336 597.304 102.016 598.304 101.376 599.2C100.736 600.08 99.784 600.688 98.52 601.024L102.528 607.816H98.64ZM93.36 598.768H96.168C97.08 598.768 97.76 598.552 98.208 598.12C98.656 597.672 98.88 597.056 98.88 596.272C98.88 595.504 98.656 594.912 98.208 594.496C97.76 594.064 97.08 593.848 96.168 593.848H93.36V598.768Z" stroke="white" stroke-width="2" mask="url(#path-26-outside-1_2004_28809)"/>
<path d="M117.735 600.88C117.735 601.36 117.703 601.792 117.639 602.176H107.919C107.999 603.136 108.335 603.888 108.927 604.432C109.519 604.976 110.247 605.248 111.111 605.248C112.359 605.248 113.247 604.712 113.775 603.64H117.399C117.015 604.92 116.279 605.976 115.191 606.808C114.103 607.624 112.767 608.032 111.183 608.032C109.903 608.032 108.751 607.752 107.727 607.192C106.719 606.616 105.927 605.808 105.351 604.768C104.791 603.728 104.511 602.528 104.511 601.168C104.511 599.792 104.791 598.584 105.351 597.544C105.911 596.504 106.695 595.704 107.703 595.144C108.711 594.584 109.871 594.304 111.183 594.304C112.447 594.304 113.575 594.576 114.567 595.12C115.575 595.664 116.351 596.44 116.895 597.448C117.455 598.44 117.735 599.584 117.735 600.88ZM114.255 599.92C114.239 599.056 113.927 598.368 113.319 597.856C112.711 597.328 111.967 597.064 111.087 597.064C110.255 597.064 109.551 597.32 108.975 597.832C108.415 598.328 108.071 599.024 107.943 599.92H114.255Z" stroke="white" stroke-width="2" mask="url(#path-26-outside-1_2004_28809)"/>
<path d="M121.892 592.936C121.3 592.936 120.803 592.752 120.403 592.384C120.019 592 119.827 591.528 119.827 590.968C119.827 590.408 120.019 589.944 120.403 589.576C120.803 589.192 121.3 589 121.892 589C122.484 589 122.972 589.192 123.355 589.576C123.756 589.944 123.956 590.408 123.956 590.968C123.956 591.528 123.756 592 123.355 592.384C122.972 592.752 122.484 592.936 121.892 592.936ZM123.548 594.52V607.816H120.188V594.52H123.548Z" stroke="white" stroke-width="2" mask="url(#path-26-outside-1_2004_28809)"/>
<path d="M134.235 594.328C135.819 594.328 137.099 594.832 138.075 595.84C139.051 596.832 139.539 598.224 139.539 600.016V607.816H136.179V600.472C136.179 599.416 135.915 598.608 135.387 598.048C134.859 597.472 134.139 597.184 133.227 597.184C132.299 597.184 131.563 597.472 131.019 598.048C130.491 598.608 130.227 599.416 130.227 600.472V607.816H126.867V594.52H130.227V596.176C130.675 595.6 131.243 595.152 131.931 594.832C132.635 594.496 133.403 594.328 134.235 594.328Z" stroke="white" stroke-width="2" mask="url(#path-26-outside-1_2004_28809)"/>
<path d="M148.278 604.72L151.638 594.52H155.214L150.294 607.816H146.214L141.318 594.52H144.918L148.278 604.72Z" stroke="white" stroke-width="2" mask="url(#path-26-outside-1_2004_28809)"/>
<path d="M169.462 600.88C169.462 601.36 169.43 601.792 169.366 602.176H159.646C159.726 603.136 160.062 603.888 160.654 604.432C161.246 604.976 161.974 605.248 162.838 605.248C164.086 605.248 164.974 604.712 165.502 603.64H169.126C168.742 604.92 168.006 605.976 166.918 606.808C165.83 607.624 164.494 608.032 162.91 608.032C161.63 608.032 160.478 607.752 159.454 607.192C158.446 606.616 157.654 605.808 157.078 604.768C156.518 603.728 156.238 602.528 156.238 601.168C156.238 599.792 156.518 598.584 157.078 597.544C157.638 596.504 158.422 595.704 159.43 595.144C160.438 594.584 161.598 594.304 162.91 594.304C164.174 594.304 165.302 594.576 166.294 595.12C167.302 595.664 168.078 596.44 168.622 597.448C169.182 598.44 169.462 599.584 169.462 600.88ZM165.982 599.92C165.966 599.056 165.654 598.368 165.046 597.856C164.438 597.328 163.694 597.064 162.814 597.064C161.982 597.064 161.278 597.32 160.702 597.832C160.142 598.328 159.798 599.024 159.67 599.92H165.982Z" stroke="white" stroke-width="2" mask="url(#path-26-outside-1_2004_28809)"/>
<path d="M177.002 608.032C175.914 608.032 174.938 607.84 174.074 607.456C173.21 607.056 172.522 606.52 172.01 605.848C171.514 605.176 171.242 604.432 171.194 603.616H174.578C174.642 604.128 174.89 604.552 175.322 604.888C175.77 605.224 176.322 605.392 176.978 605.392C177.618 605.392 178.114 605.264 178.466 605.008C178.834 604.752 179.018 604.424 179.018 604.024C179.018 603.592 178.794 603.272 178.346 603.064C177.914 602.84 177.218 602.6 176.258 602.344C175.266 602.104 174.45 601.856 173.81 601.6C173.186 601.344 172.642 600.952 172.178 600.424C171.73 599.896 171.506 599.184 171.506 598.288C171.506 597.552 171.714 596.88 172.13 596.272C172.562 595.664 173.17 595.184 173.954 594.832C174.754 594.48 175.69 594.304 176.762 594.304C178.346 594.304 179.61 594.704 180.554 595.504C181.498 596.288 182.018 597.352 182.114 598.696H178.898C178.85 598.168 178.626 597.752 178.226 597.448C177.842 597.128 177.322 596.968 176.666 596.968C176.058 596.968 175.586 597.08 175.25 597.304C174.93 597.528 174.77 597.84 174.77 598.24C174.77 598.688 174.994 599.032 175.442 599.272C175.89 599.496 176.586 599.728 177.53 599.968C178.49 600.208 179.282 600.456 179.906 600.712C180.53 600.968 181.066 601.368 181.514 601.912C181.978 602.44 182.218 603.144 182.234 604.024C182.234 604.792 182.018 605.48 181.586 606.088C181.17 606.696 180.562 607.176 179.762 607.528C178.978 607.864 178.058 608.032 177.002 608.032Z" stroke="white" stroke-width="2" mask="url(#path-26-outside-1_2004_28809)"/>
<path d="M188.904 597.28V603.712C188.904 604.16 189.008 604.488 189.216 604.696C189.44 604.888 189.808 604.984 190.32 604.984H191.88V607.816H189.768C186.936 607.816 185.52 606.44 185.52 603.688V597.28H183.936V594.52H185.52V591.232H188.904V594.52H191.88V597.28H188.904Z" stroke="white" stroke-width="2" mask="url(#path-26-outside-1_2004_28809)"/>
</svg>
