<svg width="791" height="460" viewBox="0 0 791 460" fill="none" xmlns="http://www.w3.org/2000/svg">
<rect opacity="0.15" width="790" height="460" rx="15.5687" fill="#244561"/>
<path d="M32.3804 419.294H36.1001C37.0325 419.294 37.8112 419.606 38.4361 420.231C39.061 420.856 39.3735 421.635 39.3735 422.567C39.3735 423.5 39.061 424.278 38.4361 424.903C37.8112 425.528 37.0325 425.84 36.1001 425.84H33.4219V429.709H32.3804V419.294ZM33.4219 424.858H36.1001C36.7448 424.858 37.2755 424.645 37.6921 424.219C38.1187 423.792 38.3319 423.242 38.3319 422.567C38.3319 421.902 38.1187 421.357 37.6921 420.93C37.2755 420.494 36.7448 420.276 36.1001 420.276H33.4219V424.858ZM46.2452 426.168V422.27H47.2272V429.709H46.2452V428.548C45.6897 429.441 44.8565 429.888 43.7455 429.888C42.8528 429.888 42.1436 429.615 41.6179 429.069C41.0921 428.514 40.8293 427.77 40.8293 426.837V422.27H41.8113V426.837C41.8113 427.502 41.9849 428.018 42.332 428.385C42.6891 428.752 43.1901 428.935 43.8348 428.935C44.5788 428.935 45.164 428.702 45.5905 428.236C46.027 427.77 46.2452 427.08 46.2452 426.168ZM50.2866 422.27V423.504C50.7429 422.602 51.5265 422.15 52.6375 422.15V423.103C51.9233 423.103 51.3529 423.311 50.9264 423.728C50.4998 424.134 50.2866 424.749 50.2866 425.573V429.709H49.3046V422.27H50.2866ZM56.9997 429.888C55.8788 429.888 54.9464 429.516 54.2024 428.772C53.4585 428.008 53.0865 427.08 53.0865 425.989C53.0865 424.888 53.4585 423.966 54.2024 423.222C54.9464 422.468 55.8788 422.091 56.9997 422.091C57.7337 422.091 58.3933 422.27 58.9786 422.627C59.5638 422.974 59.9903 423.445 60.2581 424.04L59.4547 424.501C59.2563 424.055 58.9339 423.703 58.4876 423.445C58.0511 423.177 57.5551 423.043 56.9997 423.043C56.1764 423.043 55.482 423.331 54.9166 423.906C54.3512 424.472 54.0685 425.166 54.0685 425.989C54.0685 426.803 54.3512 427.502 54.9166 428.087C55.482 428.653 56.1764 428.935 56.9997 428.935C57.5452 428.935 58.0362 428.806 58.4727 428.548C58.919 428.291 59.2662 427.933 59.5142 427.477L60.3325 427.953C60.025 428.548 59.5737 429.02 58.9786 429.367C58.3834 429.714 57.7238 429.888 56.9997 429.888ZM65.2241 422.091C66.1168 422.091 66.8261 422.369 67.3518 422.924C67.8775 423.47 68.1404 424.209 68.1404 425.141V429.709H67.1584V425.141C67.1584 424.477 66.9798 423.961 66.6227 423.594C66.2756 423.227 65.7796 423.043 65.1348 423.043C64.3909 423.043 63.8007 423.276 63.3642 423.743C62.9377 424.209 62.7244 424.898 62.7244 425.811V429.709H61.7424V419.294H62.7244V423.43C63.2799 422.537 64.1132 422.091 65.2241 422.091ZM76.4371 423.728V422.27H77.4191V429.709H76.4371V428.251C75.7527 429.342 74.7509 429.888 73.4316 429.888C72.3702 429.888 71.4626 429.511 70.7087 428.757C69.9648 428.003 69.5928 427.08 69.5928 425.989C69.5928 424.898 69.9648 423.976 70.7087 423.222C71.4626 422.468 72.3702 422.091 73.4316 422.091C74.7509 422.091 75.7527 422.637 76.4371 423.728ZM71.4229 428.087C71.9883 428.653 72.6827 428.935 73.506 428.935C74.3293 428.935 75.0236 428.653 75.589 428.087C76.1544 427.502 76.4371 426.803 76.4371 425.989C76.4371 425.166 76.1544 424.472 75.589 423.906C75.0236 423.331 74.3293 423.043 73.506 423.043C72.6827 423.043 71.9883 423.331 71.4229 423.906C70.8575 424.472 70.5748 425.166 70.5748 425.989C70.5748 426.803 70.8575 427.502 71.4229 428.087ZM80.2721 424.219C80.2721 424.794 80.7829 425.216 81.8046 425.483C82.0923 425.553 82.2807 425.602 82.37 425.632C82.4593 425.652 82.6329 425.707 82.8908 425.796C83.1586 425.875 83.3421 425.945 83.4413 426.004C83.5504 426.064 83.6992 426.158 83.8876 426.287C84.0761 426.406 84.21 426.53 84.2894 426.659C84.3687 426.778 84.4431 426.937 84.5126 427.135C84.582 427.323 84.6167 427.527 84.6167 427.745C84.6167 428.38 84.3638 428.896 83.8579 429.292C83.3718 429.689 82.7271 429.888 81.9236 429.888C81.2293 429.888 80.6292 429.734 80.1233 429.426C79.6174 429.109 79.2603 428.692 79.052 428.176L79.8852 427.685C80.0241 428.072 80.2721 428.38 80.6292 428.608C80.9962 428.826 81.4277 428.935 81.9236 428.935C82.4295 428.935 82.8412 428.836 83.1586 428.638C83.476 428.439 83.6347 428.142 83.6347 427.745C83.6347 427.17 83.1239 426.748 82.1022 426.48C81.8145 426.411 81.626 426.366 81.5368 426.346C81.4475 426.317 81.269 426.262 81.0011 426.183C80.7432 426.093 80.5597 426.019 80.4506 425.959C80.3514 425.9 80.2076 425.811 80.0191 425.692C79.8307 425.563 79.6967 425.439 79.6174 425.32C79.538 425.191 79.4636 425.032 79.3942 424.844C79.3248 424.645 79.2901 424.437 79.2901 424.219C79.2901 423.614 79.5281 423.108 80.0042 422.701C80.5002 422.294 81.1102 422.091 81.8344 422.091C82.4295 422.091 82.9552 422.225 83.4115 422.493C83.8777 422.761 84.2199 423.132 84.4382 423.609L83.6198 424.085C83.3421 423.39 82.7469 423.043 81.8344 423.043C81.388 423.043 81.016 423.147 80.7184 423.356C80.4209 423.564 80.2721 423.852 80.2721 424.219ZM89.474 422.091C90.585 422.091 91.4727 422.483 92.1373 423.266C92.8218 424.04 93.164 424.958 93.164 426.019C93.164 426.069 93.1541 426.222 93.1342 426.48H86.6024C86.7015 427.224 87.019 427.819 87.5546 428.266C88.0903 428.712 88.7598 428.935 89.5633 428.935C90.6941 428.935 91.4926 428.514 91.9588 427.671L92.8218 428.176C92.4944 428.712 92.0431 429.134 91.4678 429.441C90.9024 429.739 90.2626 429.888 89.5484 429.888C88.3779 429.888 87.4257 429.521 86.6916 428.786C85.9576 428.052 85.5906 427.12 85.5906 425.989C85.5906 424.868 85.9526 423.941 86.6768 423.207C87.4009 422.463 88.3333 422.091 89.474 422.091ZM89.474 423.043C88.7003 423.043 88.0506 423.271 87.5249 423.728C87.009 424.184 86.7015 424.784 86.6024 425.528H92.1522C92.0431 424.734 91.7406 424.124 91.2446 423.698C90.7288 423.261 90.1386 423.043 89.474 423.043Z" fill="#D1D5D8"/>
<path d="M217.197 419.294H218.372L214.608 425.439V429.709H213.566V425.409L209.817 419.294H210.992L214.102 424.397L217.197 419.294ZM221.513 422.091C222.624 422.091 223.512 422.483 224.177 423.266C224.861 424.04 225.203 424.958 225.203 426.019C225.203 426.069 225.194 426.222 225.174 426.48H218.642C218.741 427.224 219.058 427.819 219.594 428.266C220.13 428.712 220.799 428.935 221.603 428.935C222.734 428.935 223.532 428.514 223.998 427.671L224.861 428.176C224.534 428.712 224.083 429.134 223.507 429.441C222.942 429.739 222.302 429.888 221.588 429.888C220.417 429.888 219.465 429.521 218.731 428.786C217.997 428.052 217.63 427.12 217.63 425.989C217.63 424.868 217.992 423.941 218.716 423.207C219.44 422.463 220.373 422.091 221.513 422.091ZM221.513 423.043C220.74 423.043 220.09 423.271 219.564 423.728C219.049 424.184 218.741 424.784 218.642 425.528H224.192C224.083 424.734 223.78 424.124 223.284 423.698C222.768 423.261 222.178 423.043 221.513 423.043ZM233.163 423.728V422.27H234.145V429.709H233.163V428.251C232.479 429.342 231.477 429.888 230.158 429.888C229.097 429.888 228.189 429.511 227.435 428.757C226.691 428.003 226.319 427.08 226.319 425.989C226.319 424.898 226.691 423.976 227.435 423.222C228.189 422.468 229.097 422.091 230.158 422.091C231.477 422.091 232.479 422.637 233.163 423.728ZM228.149 428.087C228.715 428.653 229.409 428.935 230.232 428.935C231.056 428.935 231.75 428.653 232.315 428.087C232.881 427.502 233.163 426.803 233.163 425.989C233.163 425.166 232.881 424.472 232.315 423.906C231.75 423.331 231.056 423.043 230.232 423.043C229.409 423.043 228.715 423.331 228.149 423.906C227.584 424.472 227.301 425.166 227.301 425.989C227.301 426.803 227.584 427.502 228.149 428.087ZM237.207 422.27V423.504C237.663 422.602 238.447 422.15 239.558 422.15V423.103C238.843 423.103 238.273 423.311 237.846 423.728C237.42 424.134 237.207 424.749 237.207 425.573V429.709H236.225V422.27H237.207ZM243.805 420.246L246.557 419.294H247.45V429.709H246.409V420.439L244.073 421.139L243.805 420.246Z" fill="#D1D5D8"/>
<path d="M393.647 419.294H394.822L391.058 425.439V429.709H390.016V425.409L386.267 419.294H387.442L390.552 424.397L393.647 419.294ZM397.963 422.091C399.074 422.091 399.962 422.483 400.626 423.266C401.311 424.04 401.653 424.958 401.653 426.019C401.653 426.069 401.643 426.222 401.623 426.48H395.092C395.191 427.224 395.508 427.819 396.044 428.266C396.579 428.712 397.249 428.935 398.052 428.935C399.183 428.935 399.982 428.514 400.448 427.671L401.311 428.176C400.984 428.712 400.532 429.134 399.957 429.441C399.392 429.739 398.752 429.888 398.038 429.888C396.867 429.888 395.915 429.521 395.181 428.786C394.447 428.052 394.08 427.12 394.08 425.989C394.08 424.868 394.442 423.941 395.166 423.207C395.89 422.463 396.822 422.091 397.963 422.091ZM397.963 423.043C397.189 423.043 396.54 423.271 396.014 423.728C395.498 424.184 395.191 424.784 395.092 425.528H400.641C400.532 424.734 400.23 424.124 399.734 423.698C399.218 423.261 398.628 423.043 397.963 423.043ZM409.613 423.728V422.27H410.595V429.709H409.613V428.251C408.929 429.342 407.927 429.888 406.608 429.888C405.546 429.888 404.639 429.511 403.885 428.757C403.141 428.003 402.769 427.08 402.769 425.989C402.769 424.898 403.141 423.976 403.885 423.222C404.639 422.468 405.546 422.091 406.608 422.091C407.927 422.091 408.929 422.637 409.613 423.728ZM404.599 428.087C405.164 428.653 405.859 428.935 406.682 428.935C407.505 428.935 408.2 428.653 408.765 428.087C409.33 427.502 409.613 426.803 409.613 425.989C409.613 425.166 409.33 424.472 408.765 423.906C408.2 423.331 407.505 423.043 406.682 423.043C405.859 423.043 405.164 423.331 404.599 423.906C404.034 424.472 403.751 425.166 403.751 425.989C403.751 426.803 404.034 427.502 404.599 428.087ZM413.656 422.27V423.504C414.113 422.602 414.896 422.15 416.007 422.15V423.103C415.293 423.103 414.723 423.311 414.296 423.728C413.87 424.134 413.656 424.749 413.656 425.573V429.709H412.674V422.27H413.656ZM427.248 429.709H420.626V428.772L424.376 424.992C425.447 423.921 425.983 423.004 425.983 422.24C425.983 421.595 425.78 421.084 425.373 420.707C424.976 420.32 424.48 420.127 423.885 420.127C422.824 420.127 422.045 420.618 421.549 421.6L420.671 421.079C420.989 420.444 421.43 419.958 421.995 419.621C422.561 419.284 423.191 419.115 423.885 419.115C424.718 419.115 425.447 419.398 426.072 419.963C426.707 420.509 427.024 421.268 427.024 422.24C427.024 422.815 426.866 423.38 426.548 423.936C426.231 424.482 425.745 425.082 425.09 425.736L422.114 428.697H427.248V429.709Z" fill="#D1D5D8"/>
<path d="M597.374 419.294H598.549L594.785 425.439V429.709H593.743V425.409L589.994 419.294H591.169L594.279 424.397L597.374 419.294ZM601.691 422.091C602.801 422.091 603.689 422.483 604.354 423.266C605.038 424.04 605.38 424.958 605.38 426.019C605.38 426.069 605.371 426.222 605.351 426.48H598.819C598.918 427.224 599.235 427.819 599.771 428.266C600.307 428.712 600.976 428.935 601.78 428.935C602.911 428.935 603.709 428.514 604.175 427.671L605.038 428.176C604.711 428.712 604.26 429.134 603.684 429.441C603.119 429.739 602.479 429.888 601.765 429.888C600.594 429.888 599.642 429.521 598.908 428.786C598.174 428.052 597.807 427.12 597.807 425.989C597.807 424.868 598.169 423.941 598.893 423.207C599.617 422.463 600.55 422.091 601.691 422.091ZM601.691 423.043C600.917 423.043 600.267 423.271 599.741 423.728C599.226 424.184 598.918 424.784 598.819 425.528H604.369C604.26 424.734 603.957 424.124 603.461 423.698C602.945 423.261 602.355 423.043 601.691 423.043ZM613.34 423.728V422.27H614.322V429.709H613.34V428.251C612.656 429.342 611.654 429.888 610.335 429.888C609.274 429.888 608.366 429.511 607.612 428.757C606.868 428.003 606.496 427.08 606.496 425.989C606.496 424.898 606.868 423.976 607.612 423.222C608.366 422.468 609.274 422.091 610.335 422.091C611.654 422.091 612.656 422.637 613.34 423.728ZM608.326 428.087C608.892 428.653 609.586 428.935 610.409 428.935C611.233 428.935 611.927 428.653 612.492 428.087C613.058 427.502 613.34 426.803 613.34 425.989C613.34 425.166 613.058 424.472 612.492 423.906C611.927 423.331 611.233 423.043 610.409 423.043C609.586 423.043 608.892 423.331 608.326 423.906C607.761 424.472 607.478 425.166 607.478 425.989C607.478 426.803 607.761 427.502 608.326 428.087ZM617.384 422.27V423.504C617.84 422.602 618.624 422.15 619.735 422.15V423.103C619.02 423.103 618.45 423.311 618.024 423.728C617.597 424.134 617.384 424.749 617.384 425.573V429.709H616.402V422.27H617.384ZM630.603 420.276L628.178 423.623C629.001 423.723 629.685 424.045 630.231 424.591C630.777 425.106 631.049 425.806 631.049 426.689C631.049 427.671 630.707 428.454 630.023 429.039C629.358 429.605 628.535 429.888 627.553 429.888C626.769 429.888 626.075 429.709 625.47 429.352C624.865 428.985 624.443 428.474 624.205 427.819L625.068 427.313C625.237 427.819 625.534 428.206 625.961 428.474C626.397 428.742 626.928 428.876 627.553 428.876C628.287 428.876 628.877 428.682 629.323 428.295C629.78 427.899 630.008 427.363 630.008 426.689C630.008 426.014 629.78 425.483 629.323 425.097C628.877 424.7 628.287 424.501 627.553 424.501V424.486L627.538 424.501H627.255L626.809 423.817L629.398 420.276H624.503V419.294H630.603V420.276Z" fill="#D1D5D8"/>
<path d="M687.779 274H686.588L684.148 269.834H681.232V274H680.19V263.585H684.356C685.209 263.585 685.944 263.892 686.559 264.507C687.173 265.122 687.481 265.856 687.481 266.709C687.481 267.424 687.268 268.053 686.841 268.599C686.435 269.135 685.899 269.502 685.234 269.7L687.779 274ZM684.356 264.567H681.232V268.852H684.356C684.932 268.852 685.423 268.644 685.829 268.227C686.236 267.791 686.439 267.285 686.439 266.709C686.439 266.124 686.236 265.618 685.829 265.192C685.423 264.775 684.932 264.567 684.356 264.567ZM692.182 266.382C693.293 266.382 694.181 266.774 694.845 267.557C695.53 268.331 695.872 269.249 695.872 270.31C695.872 270.36 695.862 270.513 695.842 270.771H689.311C689.41 271.515 689.727 272.11 690.263 272.557C690.798 273.003 691.468 273.226 692.271 273.226C693.402 273.226 694.201 272.805 694.667 271.962L695.53 272.467C695.203 273.003 694.751 273.425 694.176 273.732C693.611 274.03 692.971 274.179 692.257 274.179C691.086 274.179 690.134 273.812 689.4 273.078C688.666 272.343 688.299 271.411 688.299 270.28C688.299 269.159 688.661 268.232 689.385 267.498C690.109 266.754 691.041 266.382 692.182 266.382ZM692.182 267.334C691.408 267.334 690.759 267.562 690.233 268.019C689.717 268.475 689.41 269.075 689.311 269.819H694.86C694.751 269.025 694.449 268.415 693.953 267.989C693.437 267.552 692.847 267.334 692.182 267.334ZM700.916 266.382C701.809 266.382 702.518 266.66 703.044 267.215C703.569 267.761 703.832 268.5 703.832 269.432V274H702.85V269.432C702.85 268.768 702.672 268.252 702.314 267.885C701.967 267.518 701.471 267.334 700.827 267.334C700.083 267.334 699.492 267.567 699.056 268.034C698.629 268.5 698.416 269.189 698.416 270.102V274H697.434V266.561H698.416V267.721C698.972 266.828 699.805 266.382 700.916 266.382ZM709.674 266.561V267.513H707.531V272.021C707.531 272.428 707.611 272.72 707.769 272.899C707.928 273.068 708.166 273.157 708.484 273.167C708.801 273.167 709.198 273.157 709.674 273.137V274C708.613 274.159 707.824 274.084 707.308 273.777C706.802 273.459 706.549 272.874 706.549 272.021V267.513H704.987V266.561H706.549V264.775L707.531 264.477V266.561H709.674ZM688.225 294H687.124L686.157 291.441H681.217L680.25 294H679.149L683.151 283.585H684.223L688.225 294ZM683.687 284.879L681.589 290.459H685.785L683.687 284.879ZM693.401 286.382C694.462 286.382 695.365 286.759 696.109 287.513C696.863 288.267 697.24 289.189 697.24 290.28C697.24 291.371 696.863 292.294 696.109 293.048C695.365 293.802 694.462 294.179 693.401 294.179C692.082 294.179 691.08 293.633 690.396 292.542V296.976H689.414V286.561H690.396V288.019C691.08 286.928 692.082 286.382 693.401 286.382ZM691.244 292.378C691.809 292.944 692.503 293.226 693.327 293.226C694.15 293.226 694.844 292.944 695.41 292.378C695.975 291.793 696.258 291.094 696.258 290.28C696.258 289.457 695.975 288.763 695.41 288.197C694.844 287.622 694.15 287.334 693.327 287.334C692.503 287.334 691.809 287.622 691.244 288.197C690.678 288.763 690.396 289.457 690.396 290.28C690.396 291.094 690.678 291.793 691.244 292.378ZM702.86 286.382C703.922 286.382 704.824 286.759 705.568 287.513C706.322 288.267 706.699 289.189 706.699 290.28C706.699 291.371 706.322 292.294 705.568 293.048C704.824 293.802 703.922 294.179 702.86 294.179C701.541 294.179 700.539 293.633 699.855 292.542V296.976H698.873V286.561H699.855V288.019C700.539 286.928 701.541 286.382 702.86 286.382ZM700.703 292.378C701.268 292.944 701.963 293.226 702.786 293.226C703.609 293.226 704.304 292.944 704.869 292.378C705.434 291.793 705.717 291.094 705.717 290.28C705.717 289.457 705.434 288.763 704.869 288.197C704.304 287.622 703.609 287.334 702.786 287.334C701.963 287.334 701.268 287.622 700.703 288.197C700.137 288.763 699.855 289.457 699.855 290.28C699.855 291.094 700.137 291.793 700.703 292.378ZM709.314 286.561V287.795C709.77 286.893 710.554 286.441 711.665 286.441V287.394C710.951 287.394 710.38 287.602 709.954 288.019C709.527 288.425 709.314 289.04 709.314 289.864V294H708.332V286.561H709.314ZM715.997 286.382C717.108 286.382 717.996 286.774 718.661 287.557C719.345 288.331 719.687 289.249 719.687 290.31C719.687 290.36 719.677 290.513 719.657 290.771H713.126C713.225 291.515 713.542 292.11 714.078 292.557C714.613 293.003 715.283 293.226 716.086 293.226C717.217 293.226 718.016 292.805 718.482 291.962L719.345 292.467C719.018 293.003 718.566 293.425 717.991 293.732C717.426 294.03 716.786 294.179 716.072 294.179C714.901 294.179 713.949 293.812 713.215 293.078C712.481 292.343 712.114 291.411 712.114 290.28C712.114 289.159 712.476 288.232 713.2 287.498C713.924 286.754 714.856 286.382 715.997 286.382ZM715.997 287.334C715.223 287.334 714.574 287.562 714.048 288.019C713.532 288.475 713.225 289.075 713.126 289.819H718.675C718.566 289.025 718.264 288.415 717.768 287.989C717.252 287.552 716.662 287.334 715.997 287.334ZM724.716 294.179C723.595 294.179 722.663 293.807 721.919 293.063C721.175 292.299 720.803 291.371 720.803 290.28C720.803 289.179 721.175 288.257 721.919 287.513C722.663 286.759 723.595 286.382 724.716 286.382C725.45 286.382 726.11 286.561 726.695 286.918C727.28 287.265 727.707 287.736 727.975 288.331L727.171 288.792C726.973 288.346 726.65 287.994 726.204 287.736C725.767 287.468 725.271 287.334 724.716 287.334C723.893 287.334 723.198 287.622 722.633 288.197C722.068 288.763 721.785 289.457 721.785 290.28C721.785 291.094 722.068 291.793 722.633 292.378C723.198 292.944 723.893 293.226 724.716 293.226C725.262 293.226 725.753 293.097 726.189 292.839C726.635 292.582 726.983 292.224 727.231 291.768L728.049 292.244C727.741 292.839 727.29 293.311 726.695 293.658C726.1 294.005 725.44 294.179 724.716 294.179ZM730.664 284.269C730.664 284.468 730.595 284.636 730.456 284.775C730.317 284.914 730.148 284.983 729.95 284.983C729.751 284.983 729.583 284.914 729.444 284.775C729.305 284.636 729.236 284.468 729.236 284.269C729.236 284.071 729.305 283.902 729.444 283.763C729.583 283.624 729.751 283.555 729.95 283.555C730.148 283.555 730.317 283.624 730.456 283.763C730.595 283.902 730.664 284.071 730.664 284.269ZM730.441 294H729.459V286.561H730.441V294ZM738.923 288.019V286.561H739.905V294H738.923V292.542C738.238 293.633 737.236 294.179 735.917 294.179C734.856 294.179 733.948 293.802 733.194 293.048C732.45 292.294 732.078 291.371 732.078 290.28C732.078 289.189 732.45 288.267 733.194 287.513C733.948 286.759 734.856 286.382 735.917 286.382C737.236 286.382 738.238 286.928 738.923 288.019ZM733.908 292.378C734.474 292.944 735.168 293.226 735.991 293.226C736.815 293.226 737.509 292.944 738.075 292.378C738.64 291.793 738.923 291.094 738.923 290.28C738.923 289.457 738.64 288.763 738.075 288.197C737.509 287.622 736.815 287.334 735.991 287.334C735.168 287.334 734.474 287.622 733.908 288.197C733.343 288.763 733.06 289.457 733.06 290.28C733.06 291.094 733.343 291.793 733.908 292.378ZM745.927 286.561V287.513H743.784V292.021C743.784 292.428 743.864 292.72 744.022 292.899C744.181 293.068 744.419 293.157 744.736 293.167C745.054 293.167 745.451 293.157 745.927 293.137V294C744.865 294.159 744.077 294.084 743.561 293.777C743.055 293.459 742.802 292.874 742.802 292.021V287.513H741.24V286.561H742.802V284.775L743.784 284.477V286.561H745.927ZM748.769 284.269C748.769 284.468 748.699 284.636 748.56 284.775C748.421 284.914 748.253 284.983 748.054 284.983C747.856 284.983 747.687 284.914 747.549 284.775C747.41 284.636 747.34 284.468 747.34 284.269C747.34 284.071 747.41 283.902 747.549 283.763C747.687 283.624 747.856 283.555 748.054 283.555C748.253 283.555 748.421 283.624 748.56 283.763C748.699 283.902 748.769 284.071 748.769 284.269ZM748.545 294H747.563V286.561H748.545V294ZM756.864 293.063C756.1 293.807 755.177 294.179 754.096 294.179C752.995 294.179 752.068 293.807 751.314 293.063C750.56 292.309 750.183 291.381 750.183 290.28C750.183 289.179 750.56 288.257 751.314 287.513C752.068 286.759 752.995 286.382 754.096 286.382C755.187 286.382 756.11 286.759 756.864 287.513C757.627 288.257 758.009 289.179 758.009 290.28C758.009 291.371 757.627 292.299 756.864 293.063ZM752.013 292.378C752.578 292.944 753.273 293.226 754.096 293.226C754.919 293.226 755.614 292.944 756.179 292.378C756.745 291.793 757.027 291.094 757.027 290.28C757.027 289.457 756.745 288.763 756.179 288.197C755.614 287.622 754.919 287.334 754.096 287.334C753.273 287.334 752.578 287.622 752.013 288.197C751.448 288.763 751.165 289.457 751.165 290.28C751.165 291.094 751.448 291.793 752.013 292.378ZM763.134 286.382C764.027 286.382 764.736 286.66 765.262 287.215C765.788 287.761 766.051 288.5 766.051 289.432V294H765.069V289.432C765.069 288.768 764.89 288.252 764.533 287.885C764.186 287.518 763.69 287.334 763.045 287.334C762.301 287.334 761.711 287.567 761.274 288.034C760.848 288.5 760.635 289.189 760.635 290.102V294H759.653V286.561H760.635V287.721C761.19 286.828 762.023 286.382 763.134 286.382Z" fill="#D1D5D8"/>
<path d="M679.643 87.1937C678.056 87.1937 676.752 86.6729 675.73 85.6314C674.699 84.5799 674.183 83.3053 674.183 81.8075C674.183 80.3097 674.699 79.0351 675.73 77.9836C676.752 76.9421 678.056 76.4213 679.643 76.4213C680.596 76.4213 681.474 76.6544 682.277 77.1206C683.08 77.5769 683.705 78.1969 684.152 78.9805L683.229 79.5161C682.902 78.8813 682.416 78.3754 681.771 77.9985C681.126 77.6216 680.417 77.4331 679.643 77.4331C678.334 77.4331 677.273 77.8547 676.459 78.6978C675.636 79.5509 675.224 80.5874 675.224 81.8075C675.224 83.0276 675.636 84.0641 676.459 84.9172C677.273 85.7603 678.334 86.1819 679.643 86.1819C680.417 86.1819 681.126 85.9934 681.771 85.6165C682.416 85.2396 682.902 84.7337 683.229 84.0989L684.152 84.6196C683.725 85.4033 683.105 86.0282 682.292 86.4944C681.478 86.9606 680.596 87.1937 679.643 87.1937ZM692.041 81.0338V79.5757H693.023V87.0151H692.041V85.557C691.357 86.6481 690.355 87.1937 689.035 87.1937C687.974 87.1937 687.067 86.8168 686.313 86.0629C685.569 85.309 685.197 84.3865 685.197 83.2954C685.197 82.2043 685.569 81.2818 686.313 80.5279C687.067 79.7741 687.974 79.3971 689.035 79.3971C690.355 79.3971 691.357 79.9427 692.041 81.0338ZM687.027 85.3933C687.592 85.9587 688.287 86.2414 689.11 86.2414C689.933 86.2414 690.628 85.9587 691.193 85.3933C691.758 84.8081 692.041 84.1088 692.041 83.2954C692.041 82.4721 691.758 81.7777 691.193 81.2123C690.628 80.637 689.933 80.3494 689.11 80.3494C688.287 80.3494 687.592 80.637 687.027 81.2123C686.461 81.7777 686.179 82.4721 686.179 83.2954C686.179 84.1088 686.461 84.8081 687.027 85.3933ZM699.09 79.3971C700.151 79.3971 701.054 79.7741 701.798 80.5279C702.552 81.2818 702.929 82.2043 702.929 83.2954C702.929 84.3865 702.552 85.309 701.798 86.0629C701.054 86.8168 700.151 87.1937 699.09 87.1937C697.771 87.1937 696.769 86.6481 696.084 85.557V89.9909H695.102V79.5757H696.084V81.0338C696.769 79.9427 697.771 79.3971 699.09 79.3971ZM696.932 85.3933C697.498 85.9587 698.192 86.2414 699.015 86.2414C699.839 86.2414 700.533 85.9587 701.098 85.3933C701.664 84.8081 701.947 84.1088 701.947 83.2954C701.947 82.4721 701.664 81.7777 701.098 81.2123C700.533 80.637 699.839 80.3494 699.015 80.3494C698.192 80.3494 697.498 80.637 696.932 81.2123C696.367 81.7777 696.084 82.4721 696.084 83.2954C696.084 84.1088 696.367 84.8081 696.932 85.3933ZM705.767 77.2843C705.767 77.4827 705.697 77.6513 705.558 77.7902C705.419 77.9291 705.251 77.9985 705.052 77.9985C704.854 77.9985 704.685 77.9291 704.547 77.7902C704.408 77.6513 704.338 77.4827 704.338 77.2843C704.338 77.0859 704.408 76.9173 704.547 76.7784C704.685 76.6396 704.854 76.5701 705.052 76.5701C705.251 76.5701 705.419 76.6396 705.558 76.7784C705.697 76.9173 705.767 77.0859 705.767 77.2843ZM705.543 87.0151H704.561V79.5757H705.543V87.0151ZM711.57 79.5757V80.5279H709.428V85.0362C709.428 85.4429 709.507 85.7355 709.666 85.9141C709.824 86.0827 710.062 86.172 710.38 86.1819C710.697 86.1819 711.094 86.172 711.57 86.1522V87.0151C710.509 87.1738 709.72 87.0995 709.204 86.792C708.699 86.4745 708.446 85.8893 708.446 85.0362V80.5279H706.883V79.5757H708.446V77.7902L709.428 77.4926V79.5757H711.57ZM719.154 81.0338V79.5757H720.136V87.0151H719.154V85.557C718.47 86.6481 717.468 87.1937 716.149 87.1937C715.088 87.1937 714.18 86.8168 713.426 86.0629C712.682 85.309 712.31 84.3865 712.31 83.2954C712.31 82.2043 712.682 81.2818 713.426 80.5279C714.18 79.7741 715.088 79.3971 716.149 79.3971C717.468 79.3971 718.47 79.9427 719.154 81.0338ZM714.14 85.3933C714.706 85.9587 715.4 86.2414 716.223 86.2414C717.047 86.2414 717.741 85.9587 718.306 85.3933C718.872 84.8081 719.154 84.1088 719.154 83.2954C719.154 82.4721 718.872 81.7777 718.306 81.2123C717.741 80.637 717.047 80.3494 716.223 80.3494C715.4 80.3494 714.706 80.637 714.14 81.2123C713.575 81.7777 713.292 82.4721 713.292 83.2954C713.292 84.1088 713.575 84.8081 714.14 85.3933ZM723.198 87.0151H722.216V76.1535H723.198V87.0151ZM726.487 77.2843C726.487 77.4827 726.417 77.6513 726.278 77.7902C726.14 77.9291 725.971 77.9985 725.773 77.9985C725.574 77.9985 725.406 77.9291 725.267 77.7902C725.128 77.6513 725.058 77.4827 725.058 77.2843C725.058 77.0859 725.128 76.9173 725.267 76.7784C725.406 76.6396 725.574 76.5701 725.773 76.5701C725.971 76.5701 726.14 76.6396 726.278 76.7784C726.417 76.9173 726.487 77.0859 726.487 77.2843ZM726.264 87.0151H725.282V79.5757H726.264V87.0151ZM733.555 80.2303L729.419 86.0629H733.704V87.0151H728.05V86.3605L732.186 80.5279H728.199V79.5757H733.555V80.2303ZM741.284 81.0338V79.5757H742.266V87.0151H741.284V85.557C740.6 86.6481 739.598 87.1937 738.278 87.1937C737.217 87.1937 736.309 86.8168 735.556 86.0629C734.812 85.309 734.44 84.3865 734.44 83.2954C734.44 82.2043 734.812 81.2818 735.556 80.5279C736.309 79.7741 737.217 79.3971 738.278 79.3971C739.598 79.3971 740.6 79.9427 741.284 81.0338ZM736.27 85.3933C736.835 85.9587 737.529 86.2414 738.353 86.2414C739.176 86.2414 739.87 85.9587 740.436 85.3933C741.001 84.8081 741.284 84.1088 741.284 83.2954C741.284 82.4721 741.001 81.7777 740.436 81.2123C739.87 80.637 739.176 80.3494 738.353 80.3494C737.529 80.3494 736.835 80.637 736.27 81.2123C735.704 81.7777 735.422 82.4721 735.422 83.2954C735.422 84.1088 735.704 84.8081 736.27 85.3933ZM748.288 79.5757V80.5279H746.146V85.0362C746.146 85.4429 746.225 85.7355 746.384 85.9141C746.542 86.0827 746.78 86.172 747.098 86.1819C747.415 86.1819 747.812 86.172 748.288 86.1522V87.0151C747.227 87.1738 746.438 87.0995 745.922 86.792C745.416 86.4745 745.164 85.8893 745.164 85.0362V80.5279H743.601V79.5757H745.164V77.7902L746.146 77.4926V79.5757H748.288ZM751.13 77.2843C751.13 77.4827 751.061 77.6513 750.922 77.7902C750.783 77.9291 750.614 77.9985 750.416 77.9985C750.217 77.9985 750.049 77.9291 749.91 77.7902C749.771 77.6513 749.702 77.4827 749.702 77.2843C749.702 77.0859 749.771 76.9173 749.91 76.7784C750.049 76.6396 750.217 76.5701 750.416 76.5701C750.614 76.5701 750.783 76.6396 750.922 76.7784C751.061 76.9173 751.13 77.0859 751.13 77.2843ZM750.907 87.0151H749.925V79.5757H750.907V87.0151ZM759.225 86.0778C758.461 86.8217 757.539 87.1937 756.457 87.1937C755.356 87.1937 754.429 86.8217 753.675 86.0778C752.921 85.3239 752.544 84.3964 752.544 83.2954C752.544 82.1944 752.921 81.2719 753.675 80.5279C754.429 79.7741 755.356 79.3971 756.457 79.3971C757.549 79.3971 758.471 79.7741 759.225 80.5279C759.989 81.2719 760.371 82.1944 760.371 83.2954C760.371 84.3865 759.989 85.314 759.225 86.0778ZM754.374 85.3933C754.94 85.9587 755.634 86.2414 756.457 86.2414C757.281 86.2414 757.975 85.9587 758.54 85.3933C759.106 84.8081 759.389 84.1088 759.389 83.2954C759.389 82.4721 759.106 81.7777 758.54 81.2123C757.975 80.637 757.281 80.3494 756.457 80.3494C755.634 80.3494 754.94 80.637 754.374 81.2123C753.809 81.7777 753.526 82.4721 753.526 83.2954C753.526 84.1088 753.809 84.8081 754.374 85.3933ZM765.496 79.3971C766.388 79.3971 767.098 79.6749 767.623 80.2303C768.149 80.7759 768.412 81.5149 768.412 82.4473V87.0151H767.43V82.4473C767.43 81.7827 767.251 81.2669 766.894 80.8999C766.547 80.5329 766.051 80.3494 765.406 80.3494C764.662 80.3494 764.072 80.5825 763.636 81.0487C763.209 81.5149 762.996 82.2043 762.996 83.1169V87.0151H762.014V79.5757H762.996V80.7362C763.551 79.8435 764.385 79.3971 765.496 79.3971Z" fill="#D1D5D8"/>
<path d="M217.835 294.533V291.893H226.875V294.233L222.135 305.893H219.215L223.815 294.533H217.835ZM234.06 297.273C233.407 297.9 232.607 298.213 231.66 298.213C230.7 298.213 229.893 297.893 229.24 297.253C228.6 296.613 228.28 295.833 228.28 294.913C228.28 293.993 228.6 293.213 229.24 292.573C229.907 291.933 230.713 291.613 231.66 291.613C232.62 291.613 233.42 291.933 234.06 292.573C234.7 293.186 235.02 293.966 235.02 294.913C235.02 295.846 234.7 296.633 234.06 297.273ZM230.9 304.473L229.7 303.773L238.82 293.633L240.04 294.313L230.9 304.473ZM230.74 295.833C230.98 296.073 231.28 296.193 231.64 296.193C232 296.193 232.3 296.073 232.54 295.833C232.78 295.58 232.9 295.273 232.9 294.913C232.9 294.553 232.78 294.253 232.54 294.013C232.3 293.773 232 293.653 231.64 293.653C231.28 293.653 230.98 293.773 230.74 294.013C230.513 294.253 230.4 294.553 230.4 294.913C230.4 295.273 230.513 295.58 230.74 295.833ZM241.78 302.833C241.78 303.753 241.46 304.533 240.82 305.173C240.18 305.813 239.38 306.133 238.42 306.133C237.46 306.133 236.66 305.813 236.02 305.173C235.38 304.533 235.06 303.753 235.06 302.833C235.06 301.913 235.38 301.133 236.02 300.493C236.66 299.853 237.46 299.533 238.42 299.533C239.38 299.533 240.18 299.853 240.82 300.493C241.46 301.133 241.78 301.913 241.78 302.833ZM239.3 303.753C239.54 303.5 239.66 303.193 239.66 302.833C239.66 302.473 239.54 302.173 239.3 301.933C239.073 301.68 238.78 301.553 238.42 301.553C238.06 301.553 237.76 301.68 237.52 301.933C237.293 302.173 237.18 302.473 237.18 302.833C237.18 303.193 237.293 303.5 237.52 303.753C237.76 303.993 238.06 304.113 238.42 304.113C238.78 304.113 239.073 303.993 239.3 303.753Z" fill="#42BFF8"/>
<path d="M387.29 214.467L390.97 213.167H393.37V227.167H390.61V216.087L387.97 216.827L387.29 214.467ZM404.625 222.227H406.125V224.787H404.625V227.167H401.845V224.787H395.225V222.227L399.885 213.167H402.845L398.205 222.227H401.845V218.907H404.625V222.227ZM412.09 218.547C411.437 219.173 410.637 219.487 409.69 219.487C408.73 219.487 407.923 219.167 407.27 218.527C406.63 217.887 406.31 217.107 406.31 216.187C406.31 215.267 406.63 214.487 407.27 213.847C407.937 213.207 408.743 212.887 409.69 212.887C410.65 212.887 411.45 213.207 412.09 213.847C412.73 214.46 413.05 215.24 413.05 216.187C413.05 217.12 412.73 217.907 412.09 218.547ZM408.93 225.747L407.73 225.047L416.85 214.907L418.07 215.587L408.93 225.747ZM408.77 217.107C409.01 217.347 409.31 217.467 409.67 217.467C410.03 217.467 410.33 217.347 410.57 217.107C410.81 216.853 410.93 216.547 410.93 216.187C410.93 215.827 410.81 215.527 410.57 215.287C410.33 215.047 410.03 214.927 409.67 214.927C409.31 214.927 409.01 215.047 408.77 215.287C408.543 215.527 408.43 215.827 408.43 216.187C408.43 216.547 408.543 216.853 408.77 217.107ZM419.81 224.107C419.81 225.027 419.49 225.807 418.85 226.447C418.21 227.087 417.41 227.407 416.45 227.407C415.49 227.407 414.69 227.087 414.05 226.447C413.41 225.807 413.09 225.027 413.09 224.107C413.09 223.187 413.41 222.407 414.05 221.767C414.69 221.127 415.49 220.807 416.45 220.807C417.41 220.807 418.21 221.127 418.85 221.767C419.49 222.407 419.81 223.187 419.81 224.107ZM417.33 225.027C417.57 224.773 417.69 224.467 417.69 224.107C417.69 223.747 417.57 223.447 417.33 223.207C417.103 222.953 416.81 222.827 416.45 222.827C416.09 222.827 415.79 222.953 415.55 223.207C415.323 223.447 415.21 223.747 415.21 224.107C415.21 224.467 415.323 224.773 415.55 225.027C415.79 225.267 416.09 225.387 416.45 225.387C416.81 225.387 417.103 225.267 417.33 225.027Z" fill="#42BFF8"/>
<g filter="url(#filter0_d_1404_1969)">
<path d="M602.88 58H591.648V55.528L597.384 49.624C598.664 48.264 599.304 47.144 599.304 46.264C599.304 45.608 599.096 45.08 598.68 44.68C598.28 44.28 597.76 44.08 597.12 44.08C595.84 44.08 594.904 44.736 594.312 46.048L591.528 44.416C592.04 43.28 592.784 42.408 593.76 41.8C594.752 41.176 595.856 40.864 597.072 40.864C598.592 40.864 599.896 41.344 600.984 42.304C602.072 43.248 602.616 44.528 602.616 46.144C602.616 47.888 601.696 49.68 599.856 51.52L596.568 54.808H602.88V58ZM614.005 41.2L610.285 46.648C612.029 46.696 613.445 47.264 614.533 48.352C615.621 49.44 616.165 50.816 616.165 52.48C616.165 54.192 615.597 55.6 614.461 56.704C613.325 57.792 611.861 58.336 610.069 58.336C608.277 58.336 606.813 57.792 605.677 56.704C604.557 55.632 603.997 54.224 603.997 52.48C603.997 51.216 604.325 50.088 604.981 49.096L610.213 41.2H614.005ZM612.877 52.48C612.877 51.68 612.613 51.032 612.085 50.536C611.557 50.024 610.885 49.768 610.069 49.768C609.253 49.768 608.581 50.016 608.053 50.512C607.541 51.008 607.285 51.664 607.285 52.48C607.285 53.296 607.541 53.96 608.053 54.472C608.581 54.968 609.253 55.216 610.069 55.216C610.885 55.216 611.557 54.968 612.085 54.472C612.613 53.96 612.877 53.296 612.877 52.48ZM624 47.656C623.216 48.408 622.256 48.784 621.12 48.784C619.968 48.784 619 48.4 618.216 47.632C617.448 46.864 617.064 45.928 617.064 44.824C617.064 43.72 617.448 42.784 618.216 42.016C619.016 41.248 619.984 40.864 621.12 40.864C622.272 40.864 623.232 41.248 624 42.016C624.768 42.752 625.152 43.688 625.152 44.824C625.152 45.944 624.768 46.888 624 47.656ZM620.208 56.296L618.768 55.456L629.712 43.288L631.176 44.104L620.208 56.296ZM620.016 45.928C620.304 46.216 620.664 46.36 621.096 46.36C621.528 46.36 621.888 46.216 622.176 45.928C622.464 45.624 622.608 45.256 622.608 44.824C622.608 44.392 622.464 44.032 622.176 43.744C621.888 43.456 621.528 43.312 621.096 43.312C620.664 43.312 620.304 43.456 620.016 43.744C619.744 44.032 619.608 44.392 619.608 44.824C619.608 45.256 619.744 45.624 620.016 45.928ZM633.264 54.328C633.264 55.432 632.88 56.368 632.112 57.136C631.344 57.904 630.384 58.288 629.232 58.288C628.08 58.288 627.12 57.904 626.352 57.136C625.584 56.368 625.2 55.432 625.2 54.328C625.2 53.224 625.584 52.288 626.352 51.52C627.12 50.752 628.08 50.368 629.232 50.368C630.384 50.368 631.344 50.752 632.112 51.52C632.88 52.288 633.264 53.224 633.264 54.328ZM630.288 55.432C630.576 55.128 630.72 54.76 630.72 54.328C630.72 53.896 630.576 53.536 630.288 53.248C630.016 52.944 629.664 52.792 629.232 52.792C628.8 52.792 628.44 52.944 628.152 53.248C627.88 53.536 627.744 53.896 627.744 54.328C627.744 54.76 627.88 55.128 628.152 55.432C628.44 55.72 628.8 55.864 629.232 55.864C629.664 55.864 630.016 55.72 630.288 55.432Z" fill="#42BFF8"/>
</g>
<path opacity="0.25" d="M642.238 404.131H663.078V152.205H642.238" stroke="#787A7B" stroke-width="0.926199"/>
<path opacity="0.25" d="M642.238 23H663.078V142.943H642.238" stroke="#787A7B" stroke-width="0.926199"/>
<line opacity="0.25" x1="59.1963" y1="404.347" x2="614.448" y2="404.347" stroke="white" stroke-width="0.642652" stroke-dasharray="5.78 5.78"/>
<path d="M614.916 401.816H61.9746L614.916 154.058V401.816Z" fill="url(#paint0_linear_1404_1969)" fill-opacity="0.6"/>
<path d="M614.453 154.983L406.984 248.066L614.453 153V154.983Z" fill="url(#paint1_linear_1404_1969)"/>
<path d="M605.9 143H596.54V140.94L601.32 136.02C602.387 134.887 602.92 133.953 602.92 133.22C602.92 132.673 602.747 132.233 602.4 131.9C602.067 131.567 601.633 131.4 601.1 131.4C600.033 131.4 599.253 131.947 598.76 133.04L596.44 131.68C596.867 130.733 597.487 130.007 598.3 129.5C599.127 128.98 600.047 128.72 601.06 128.72C602.327 128.72 603.413 129.12 604.32 129.92C605.227 130.707 605.68 131.773 605.68 133.12C605.68 134.573 604.913 136.067 603.38 137.6L600.64 140.34H605.9V143ZM606.552 130.3L610.232 129H612.632V143H609.872V131.92L607.232 132.66L606.552 130.3ZM620.746 134.38C620.093 135.007 619.293 135.32 618.346 135.32C617.386 135.32 616.58 135 615.926 134.36C615.286 133.72 614.966 132.94 614.966 132.02C614.966 131.1 615.286 130.32 615.926 129.68C616.593 129.04 617.4 128.72 618.346 128.72C619.306 128.72 620.106 129.04 620.746 129.68C621.386 130.293 621.706 131.073 621.706 132.02C621.706 132.953 621.386 133.74 620.746 134.38ZM617.586 141.58L616.386 140.88L625.506 130.74L626.726 131.42L617.586 141.58ZM617.426 132.94C617.666 133.18 617.966 133.3 618.326 133.3C618.686 133.3 618.986 133.18 619.226 132.94C619.466 132.687 619.586 132.38 619.586 132.02C619.586 131.66 619.466 131.36 619.226 131.12C618.986 130.88 618.686 130.76 618.326 130.76C617.966 130.76 617.666 130.88 617.426 131.12C617.2 131.36 617.086 131.66 617.086 132.02C617.086 132.38 617.2 132.687 617.426 132.94ZM628.466 139.94C628.466 140.86 628.146 141.64 627.506 142.28C626.866 142.92 626.066 143.24 625.106 143.24C624.146 143.24 623.346 142.92 622.706 142.28C622.066 141.64 621.746 140.86 621.746 139.94C621.746 139.02 622.066 138.24 622.706 137.6C623.346 136.96 624.146 136.64 625.106 136.64C626.066 136.64 626.866 136.96 627.506 137.6C628.146 138.24 628.466 139.02 628.466 139.94ZM625.986 140.86C626.226 140.607 626.346 140.3 626.346 139.94C626.346 139.58 626.226 139.28 625.986 139.04C625.76 138.787 625.466 138.66 625.106 138.66C624.746 138.66 624.446 138.787 624.206 139.04C623.98 139.28 623.866 139.58 623.866 139.94C623.866 140.3 623.98 140.607 624.206 140.86C624.446 141.1 624.746 141.22 625.106 141.22C625.466 141.22 625.76 141.1 625.986 140.86Z" fill="#328FBA"/>
<path d="M60.1221 402.279L231.006 326.331" stroke="#42BFF8" stroke-width="2.7786" stroke-linecap="round"/>
<path d="M232.858 325.404L405.131 248.993L614.5 78.5" stroke="#42BFF8" stroke-width="2.7786" stroke-linecap="round"/>
<line opacity="0.15" x1="231.006" y1="326.793" x2="231.006" y2="403.668" stroke="#FEFEFE" stroke-width="0.926199"/>
<line opacity="0.15" x1="406.058" y1="245.288" x2="406.058" y2="403.668" stroke="#FEFEFE" stroke-width="0.926199"/>
<path opacity="0.15" d="M615.263 154.52C615.263 154.265 615.056 154.057 614.8 154.057C614.544 154.057 614.337 154.265 614.337 154.52H615.263ZM615.263 403.67V154.52H614.337V403.67H615.263Z" fill="#FEFEFE"/>
<circle cx="231" cy="326" r="5" fill="#42BFF8"/>
<circle cx="60" cy="402" r="5" fill="#42BFF8"/>
<circle cx="614.5" cy="152.5" r="4.5" fill="#328FBA"/>
<circle cx="406" cy="248" r="5" fill="#42BFF8"/>
<circle cx="614" cy="78" r="5" fill="#42BFF8"/>
<defs>
<filter id="filter0_d_1404_1969" x="569.528" y="18.8638" width="85.7363" height="61.4722" filterUnits="userSpaceOnUse" color-interpolation-filters="sRGB">
<feFlood flood-opacity="0" result="BackgroundImageFix"/>
<feColorMatrix in="SourceAlpha" type="matrix" values="0 0 0 0 0 0 0 0 0 0 0 0 0 0 0 0 0 0 127 0" result="hardAlpha"/>
<feOffset/>
<feGaussianBlur stdDeviation="11"/>
<feComposite in2="hardAlpha" operator="out"/>
<feColorMatrix type="matrix" values="0 0 0 0 0.137255 0 0 0 0 0.511216 0 0 0 0 0.721569 0 0 0 0.25 0"/>
<feBlend mode="normal" in2="BackgroundImageFix" result="effect1_dropShadow_1404_1969"/>
<feBlend mode="normal" in="SourceGraphic" in2="effect1_dropShadow_1404_1969" result="shape"/>
</filter>
<linearGradient id="paint0_linear_1404_1969" x1="338.445" y1="154.058" x2="337.982" y2="387.923" gradientUnits="userSpaceOnUse">
<stop stop-color="#42BFF8" stop-opacity="0.5"/>
<stop offset="1" stop-color="#42BFF8" stop-opacity="0"/>
</linearGradient>
<linearGradient id="paint1_linear_1404_1969" x1="562.5" y1="158" x2="588" y2="241.5" gradientUnits="userSpaceOnUse">
<stop stop-color="#328FBA"/>
<stop offset="1" stop-color="#328FBA" stop-opacity="0"/>
</linearGradient>
</defs>
</svg>
