<svg width="734" height="415" viewBox="0 0 734 415" fill="none" xmlns="http://www.w3.org/2000/svg">
<rect opacity="0.15" width="734" height="415" rx="15.5687" fill="#244561"/>
<path opacity="0.5" d="M59.3275 359.956V358.805L63.6485 354.075C64.1556 353.521 64.5732 353.039 64.9014 352.63C65.2295 352.217 65.4724 351.829 65.6301 351.467C65.792 351.1 65.873 350.717 65.873 350.316C65.873 349.856 65.7622 349.458 65.5406 349.121C65.3232 348.784 65.0249 348.524 64.6457 348.341C64.2664 348.158 63.8403 348.066 63.3673 348.066C62.8644 348.066 62.4255 348.171 62.0505 348.38C61.6798 348.584 61.3921 348.872 61.1876 349.242C60.9873 349.613 60.8872 350.048 60.8872 350.546H59.3786C59.3786 349.779 59.5555 349.106 59.9092 348.527C60.2629 347.947 60.7444 347.495 61.3538 347.171C61.9674 346.848 62.6556 346.686 63.4184 346.686C64.1855 346.686 64.8651 346.848 65.4575 347.171C66.0498 347.495 66.5143 347.932 66.8509 348.482C67.1876 349.032 67.3559 349.643 67.3559 350.316C67.3559 350.798 67.2686 351.269 67.0938 351.729C66.9234 352.185 66.6251 352.694 66.1989 353.257C65.7771 353.815 65.1911 354.497 64.4411 355.302L61.5008 358.447V358.549H67.586V359.956H59.3275ZM74.4958 360.135C73.5328 360.135 72.7124 359.872 72.0349 359.348C71.3573 358.82 70.8396 358.055 70.4816 357.054C70.1237 356.048 69.9447 354.833 69.9447 353.41C69.9447 351.995 70.1237 350.787 70.4816 349.786C70.8438 348.78 71.3637 348.013 72.0413 347.485C72.7231 346.952 73.5413 346.686 74.4958 346.686C75.4504 346.686 76.2664 346.952 76.944 347.485C77.6258 348.013 78.1457 348.78 78.5036 349.786C78.8659 350.787 79.047 351.995 79.047 353.41C79.047 354.833 78.868 356.048 78.51 357.054C78.1521 358.055 77.6343 358.82 76.9568 359.348C76.2792 359.872 75.4589 360.135 74.4958 360.135ZM74.4958 358.728C75.4504 358.728 76.1918 358.268 76.7203 357.348C77.2487 356.427 77.5129 355.115 77.5129 353.41C77.5129 352.277 77.3914 351.311 77.1485 350.515C76.9099 349.718 76.5647 349.11 76.113 348.693C75.6656 348.275 75.1265 348.066 74.4958 348.066C73.5498 348.066 72.8105 348.533 72.2778 349.466C71.7451 350.395 71.4788 351.71 71.4788 353.41C71.4788 354.544 71.5981 355.507 71.8367 356.299C72.0754 357.092 72.4184 357.695 72.8659 358.108C73.3176 358.522 73.8609 358.728 74.4958 358.728ZM86.0782 346.865V359.956H84.493V348.527H84.4163L81.2203 350.649V349.038L84.493 346.865H86.0782ZM93.934 360.135C93.184 360.135 92.5086 359.985 91.9078 359.687C91.3069 359.389 90.8254 358.98 90.4632 358.46C90.1009 357.94 89.9028 357.348 89.8687 356.683H91.4028C91.4624 357.275 91.7309 357.765 92.2082 358.153C92.6897 358.537 93.265 358.728 93.934 358.728C94.471 358.728 94.9482 358.603 95.3659 358.351C95.7877 358.1 96.118 357.755 96.3566 357.316C96.5995 356.872 96.721 356.372 96.721 355.814C96.721 355.242 96.5953 354.733 96.3438 354.286C96.0967 353.834 95.7558 353.478 95.3211 353.218C94.8864 352.958 94.39 352.826 93.8318 352.822C93.4312 352.818 93.02 352.88 92.5981 353.007C92.1762 353.131 91.8289 353.291 91.5562 353.487L90.0732 353.308L90.8659 346.865H97.667V348.271H92.1954L91.7352 352.132H91.8119C92.0803 351.919 92.417 351.742 92.8218 351.601C93.2266 351.461 93.6485 351.39 94.0874 351.39C94.8886 351.39 95.6024 351.582 96.2288 351.966C96.8595 352.345 97.3538 352.865 97.7117 353.525C98.0739 354.186 98.2551 354.94 98.2551 355.788C98.2551 356.623 98.0676 357.369 97.6926 358.025C97.3218 358.677 96.8105 359.193 96.1585 359.572C95.5065 359.947 94.765 360.135 93.934 360.135Z" fill="white"/>
<g filter="url(#filter0_b_1274_3653)">
<rect x="55.9561" y="160.715" width="45.4987" height="171.129" rx="6" fill="#64B9E0" fill-opacity="0.45"/>
<rect x="56.4561" y="161.215" width="44.4987" height="170.129" rx="5.5" stroke="url(#paint0_linear_1274_3653)"/>
</g>
<g filter="url(#filter1_d_1274_3653)">
<path d="M63.0384 145.328V128.055H64.1449V145.328H63.0384ZM66.4997 133.412C66.4277 132.774 66.1309 132.279 65.6091 131.928C65.0873 131.573 64.4306 131.395 63.6389 131.395C63.0721 131.395 62.5819 131.485 62.168 131.665C61.7542 131.84 61.4326 132.083 61.2032 132.394C60.9783 132.699 60.8658 133.048 60.8658 133.439C60.8658 133.768 60.9423 134.051 61.0952 134.29C61.2527 134.528 61.4573 134.728 61.7092 134.89C61.9656 135.047 62.24 135.18 62.5324 135.288C62.8248 135.392 63.1059 135.477 63.3758 135.544L64.7252 135.895C65.166 136.003 65.6181 136.149 66.0814 136.334C66.5447 136.518 66.9743 136.761 67.3701 137.063C67.7659 137.364 68.0853 137.737 68.3282 138.183C68.5756 138.628 68.6993 139.161 68.6993 139.782C68.6993 140.564 68.4969 141.259 68.092 141.867C67.6917 142.474 67.1092 142.953 66.3445 143.304C65.5843 143.655 64.6645 143.83 63.5849 143.83C62.5504 143.83 61.6552 143.666 60.8996 143.337C60.1439 143.009 59.5524 142.544 59.1251 141.941C58.6977 141.334 58.4616 140.614 58.4166 139.782H60.5082C60.5487 140.281 60.7106 140.697 60.994 141.03C61.2819 141.358 61.6485 141.603 62.0938 141.765C62.5436 141.923 63.0362 142.002 63.5714 142.002C64.1607 142.002 64.6847 141.909 65.1435 141.725C65.6068 141.536 65.9712 141.275 66.2366 140.942C66.502 140.605 66.6346 140.211 66.6346 139.761C66.6346 139.352 66.5177 139.017 66.2838 138.756C66.0544 138.495 65.7418 138.279 65.3459 138.108C64.9546 137.937 64.5115 137.787 64.0168 137.656L62.3839 137.211C61.2774 136.91 60.4003 136.467 59.7525 135.882C59.1093 135.297 58.7877 134.523 58.7877 133.561C58.7877 132.765 59.0036 132.07 59.4354 131.476C59.8672 130.882 60.452 130.421 61.1897 130.093C61.9274 129.76 62.7595 129.593 63.6861 129.593C64.6217 129.593 65.4471 129.758 66.1623 130.086C66.882 130.414 67.4488 130.866 67.8626 131.442C68.2765 132.013 68.4924 132.67 68.5104 133.412H66.4997ZM75.826 143.79C75.2097 143.781 74.6025 143.668 74.0042 143.452C73.4105 143.236 72.8707 142.876 72.3849 142.373C71.8991 141.869 71.51 141.192 71.2177 140.342C70.9298 139.492 70.7858 138.43 70.7858 137.157C70.7858 135.952 70.905 134.881 71.1434 133.945C71.3863 133.01 71.7349 132.22 72.1892 131.577C72.6436 130.929 73.1923 130.437 73.8356 130.1C74.4788 129.762 75.2007 129.593 76.0014 129.593C76.8245 129.593 77.5555 129.755 78.1942 130.079C78.833 130.403 79.3502 130.851 79.7461 131.422C80.1464 131.993 80.4005 132.643 80.5085 133.372H78.4506C78.3112 132.796 78.0345 132.326 77.6207 131.962C77.2069 131.597 76.6671 131.415 76.0014 131.415C74.9893 131.415 74.1999 131.856 73.6331 132.738C73.0709 133.619 72.7875 134.845 72.783 136.415H72.8842C73.1226 136.024 73.415 135.691 73.7613 135.416C74.1122 135.137 74.5035 134.924 74.9353 134.775C75.3717 134.622 75.8305 134.546 76.3118 134.546C77.1124 134.546 77.8366 134.742 78.4843 135.133C79.1366 135.52 79.6561 136.055 80.0429 136.739C80.4298 137.422 80.6232 138.205 80.6232 139.087C80.6232 139.968 80.423 140.767 80.0227 141.482C79.6269 142.197 79.0691 142.764 78.3494 143.182C77.6297 143.596 76.7886 143.799 75.826 143.79ZM75.8192 142.035C76.35 142.035 76.8245 141.905 77.2429 141.644C77.6612 141.383 77.9918 141.032 78.2347 140.591C78.4776 140.151 78.599 139.658 78.599 139.114C78.599 138.583 78.4798 138.099 78.2415 137.663C78.0075 137.227 77.6837 136.88 77.2699 136.624C76.8605 136.368 76.3927 136.239 75.8665 136.239C75.4661 136.239 75.095 136.316 74.7532 136.469C74.4158 136.622 74.1189 136.833 73.8625 137.103C73.6062 137.373 73.4037 137.683 73.2553 138.034C73.1114 138.381 73.0394 138.747 73.0394 139.134C73.0394 139.651 73.1586 140.13 73.397 140.571C73.6399 141.012 73.9705 141.367 74.3888 141.637C74.8116 141.903 75.2884 142.035 75.8192 142.035ZM83.8062 143.729C83.4373 143.729 83.1202 143.598 82.8548 143.337C82.5894 143.072 82.4567 142.753 82.4567 142.379C82.4567 142.011 82.5894 141.696 82.8548 141.435C83.1202 141.169 83.4373 141.037 83.8062 141.037C84.175 141.037 84.4921 141.169 84.7575 141.435C85.0229 141.696 85.1556 142.011 85.1556 142.379C85.1556 142.627 85.0926 142.854 84.9667 143.061C84.8452 143.263 84.6833 143.425 84.4809 143.547C84.2785 143.668 84.0536 143.729 83.8062 143.729ZM87.8308 143.601V142.089L92.5066 137.245C93.0059 136.718 93.4175 136.257 93.7414 135.862C94.0697 135.461 94.3149 135.081 94.4768 134.721C94.6387 134.361 94.7197 133.979 94.7197 133.574C94.7197 133.116 94.6117 132.72 94.3958 132.387C94.1799 132.049 93.8853 131.791 93.512 131.611C93.1386 131.426 92.718 131.334 92.2502 131.334C91.7554 131.334 91.3236 131.435 90.9548 131.638C90.5859 131.84 90.3026 132.126 90.1046 132.495C89.9067 132.864 89.8078 133.295 89.8078 133.79H87.8174C87.8174 132.949 88.0108 132.214 88.3976 131.584C88.7844 130.954 89.3152 130.466 89.9899 130.12C90.6647 129.769 91.4316 129.593 92.2907 129.593C93.1589 129.593 93.9235 129.767 94.5848 130.113C95.2505 130.455 95.77 130.923 96.1433 131.516C96.5167 132.106 96.7034 132.771 96.7034 133.514C96.7034 134.026 96.6067 134.528 96.4132 135.018C96.2243 135.508 95.8937 136.055 95.4214 136.658C94.9491 137.256 94.2924 137.982 93.4512 138.837L90.7051 141.711V141.813H96.926V143.601H87.8308Z" fill="white"/>
</g>
<path opacity="0.5" d="M141.366 359.956V358.805L145.687 354.075C146.194 353.521 146.612 353.039 146.94 352.63C147.268 352.217 147.511 351.829 147.669 351.467C147.83 351.1 147.911 350.717 147.911 350.316C147.911 349.856 147.801 349.458 147.579 349.121C147.362 348.784 147.063 348.524 146.684 348.341C146.305 348.158 145.879 348.066 145.406 348.066C144.903 348.066 144.464 348.171 144.089 348.38C143.718 348.584 143.431 348.872 143.226 349.242C143.026 349.613 142.926 350.048 142.926 350.546H141.417C141.417 349.779 141.594 349.106 141.948 348.527C142.301 347.947 142.783 347.495 143.392 347.171C144.006 346.848 144.694 346.686 145.457 346.686C146.224 346.686 146.904 346.848 147.496 347.171C148.088 347.495 148.553 347.932 148.889 348.482C149.226 349.032 149.394 349.643 149.394 350.316C149.394 350.798 149.307 351.269 149.132 351.729C148.962 352.185 148.664 352.694 148.237 353.257C147.816 353.815 147.23 354.497 146.48 355.302L143.539 358.447V358.549H149.625V359.956H141.366ZM156.534 360.135C155.571 360.135 154.751 359.872 154.073 359.348C153.396 358.82 152.878 358.055 152.52 357.054C152.162 356.048 151.983 354.833 151.983 353.41C151.983 351.995 152.162 350.787 152.52 349.786C152.882 348.78 153.402 348.013 154.08 347.485C154.762 346.952 155.58 346.686 156.534 346.686C157.489 346.686 158.305 346.952 158.982 347.485C159.664 348.013 160.184 348.78 160.542 349.786C160.904 350.787 161.085 351.995 161.085 353.41C161.085 354.833 160.906 356.048 160.549 357.054C160.191 358.055 159.673 358.82 158.995 359.348C158.318 359.872 157.497 360.135 156.534 360.135ZM156.534 358.728C157.489 358.728 158.23 358.268 158.759 357.348C159.287 356.427 159.551 355.115 159.551 353.41C159.551 352.277 159.43 351.311 159.187 350.515C158.948 349.718 158.603 349.11 158.152 348.693C157.704 348.275 157.165 348.066 156.534 348.066C155.588 348.066 154.849 348.533 154.316 349.466C153.784 350.395 153.517 351.71 153.517 353.41C153.517 354.544 153.637 355.507 153.875 356.299C154.114 357.092 154.457 357.695 154.904 358.108C155.356 358.522 155.899 358.728 156.534 358.728ZM168.117 346.865V359.956H166.531V348.527H166.455L163.259 350.649V349.038L166.531 346.865H168.117ZM176.228 360.135C175.691 360.126 175.154 360.024 174.617 359.828C174.08 359.632 173.59 359.301 173.147 358.837C172.704 358.368 172.348 357.735 172.08 356.939C171.811 356.137 171.677 355.132 171.677 353.921C171.677 352.762 171.786 351.735 172.003 350.841C172.22 349.941 172.536 349.185 172.949 348.571C173.362 347.953 173.861 347.485 174.445 347.165C175.033 346.845 175.696 346.686 176.433 346.686C177.166 346.686 177.818 346.833 178.389 347.127C178.964 347.417 179.433 347.821 179.795 348.341C180.157 348.861 180.392 349.46 180.498 350.137H178.938C178.794 349.549 178.512 349.061 178.095 348.674C177.677 348.286 177.123 348.092 176.433 348.092C175.419 348.092 174.62 348.533 174.036 349.415C173.456 350.297 173.164 351.535 173.16 353.129H173.262C173.501 352.767 173.784 352.458 174.112 352.202C174.445 351.942 174.811 351.742 175.212 351.601C175.612 351.461 176.036 351.39 176.484 351.39C177.234 351.39 177.92 351.578 178.542 351.953C179.164 352.323 179.663 352.837 180.038 353.493C180.413 354.145 180.6 354.893 180.6 355.737C180.6 356.546 180.419 357.288 180.057 357.961C179.695 358.63 179.186 359.163 178.529 359.559C177.877 359.951 177.11 360.143 176.228 360.135ZM176.228 358.728C176.765 358.728 177.247 358.594 177.673 358.326C178.103 358.057 178.442 357.697 178.689 357.245C178.941 356.794 179.066 356.291 179.066 355.737C179.066 355.196 178.945 354.703 178.702 354.26C178.463 353.813 178.133 353.457 177.711 353.193C177.294 352.929 176.816 352.796 176.279 352.796C175.875 352.796 175.497 352.877 175.148 353.039C174.799 353.197 174.492 353.414 174.228 353.691C173.968 353.968 173.763 354.286 173.614 354.644C173.465 354.997 173.39 355.37 173.39 355.762C173.39 356.282 173.512 356.768 173.754 357.22C174.002 357.671 174.338 358.036 174.764 358.313C175.195 358.59 175.683 358.728 176.228 358.728Z" fill="white"/>
<g filter="url(#filter2_b_1274_3653)">
<rect x="137.642" y="160.715" width="45.4987" height="171.129" rx="6" fill="#64B9E0" fill-opacity="0.45"/>
<rect x="138.142" y="161.215" width="44.4987" height="170.129" rx="5.5" stroke="url(#paint1_linear_1274_3653)"/>
</g>
<g filter="url(#filter3_d_1274_3653)">
<path d="M145.736 145.278V128.005H146.843V145.278H145.736ZM149.198 133.363C149.126 132.724 148.829 132.229 148.307 131.878C147.785 131.523 147.129 131.345 146.337 131.345C145.77 131.345 145.28 131.435 144.866 131.615C144.452 131.79 144.131 132.033 143.901 132.344C143.676 132.65 143.564 132.998 143.564 133.39C143.564 133.718 143.64 134.001 143.793 134.24C143.951 134.478 144.155 134.678 144.407 134.84C144.664 134.998 144.938 135.13 145.23 135.238C145.523 135.342 145.804 135.427 146.074 135.495L147.423 135.846C147.864 135.953 148.316 136.1 148.779 136.284C149.243 136.469 149.672 136.711 150.068 137.013C150.464 137.314 150.783 137.688 151.026 138.133C151.274 138.578 151.397 139.111 151.397 139.732C151.397 140.515 151.195 141.21 150.79 141.817C150.39 142.424 149.807 142.903 149.043 143.254C148.282 143.605 147.363 143.78 146.283 143.78C145.248 143.78 144.353 143.616 143.598 143.288C142.842 142.959 142.25 142.494 141.823 141.891C141.396 141.284 141.16 140.564 141.115 139.732H143.206C143.247 140.231 143.409 140.647 143.692 140.98C143.98 141.308 144.347 141.554 144.792 141.716C145.242 141.873 145.734 141.952 146.269 141.952C146.859 141.952 147.383 141.859 147.842 141.675C148.305 141.486 148.669 141.225 148.935 140.892C149.2 140.555 149.333 140.161 149.333 139.712C149.333 139.302 149.216 138.967 148.982 138.706C148.752 138.445 148.44 138.23 148.044 138.059C147.653 137.888 147.21 137.737 146.715 137.607L145.082 137.161C143.975 136.86 143.098 136.417 142.451 135.832C141.807 135.247 141.486 134.474 141.486 133.511C141.486 132.715 141.702 132.02 142.133 131.426C142.565 130.832 143.15 130.371 143.888 130.043C144.625 129.71 145.458 129.544 146.384 129.544C147.32 129.544 148.145 129.708 148.86 130.036C149.58 130.365 150.147 130.817 150.561 131.392C150.975 131.964 151.19 132.62 151.208 133.363H149.198ZM158.524 143.74C157.908 143.731 157.301 143.618 156.702 143.402C156.109 143.186 155.569 142.827 155.083 142.323C154.597 141.819 154.208 141.142 153.916 140.292C153.628 139.442 153.484 138.38 153.484 137.107C153.484 135.902 153.603 134.831 153.841 133.896C154.084 132.96 154.433 132.171 154.887 131.527C155.342 130.88 155.89 130.387 156.534 130.05C157.177 129.712 157.899 129.544 158.699 129.544C159.523 129.544 160.254 129.706 160.892 130.029C161.531 130.353 162.048 130.801 162.444 131.372C162.844 131.943 163.099 132.593 163.207 133.322H161.149C161.009 132.746 160.733 132.276 160.319 131.912C159.905 131.548 159.365 131.365 158.699 131.365C157.687 131.365 156.898 131.806 156.331 132.688C155.769 133.569 155.486 134.795 155.481 136.365H155.582C155.821 135.974 156.113 135.641 156.459 135.366C156.81 135.088 157.202 134.874 157.633 134.725C158.07 134.573 158.529 134.496 159.01 134.496C159.81 134.496 160.535 134.692 161.182 135.083C161.835 135.47 162.354 136.005 162.741 136.689C163.128 137.373 163.321 138.155 163.321 139.037C163.321 139.919 163.121 140.717 162.721 141.432C162.325 142.147 161.767 142.714 161.047 143.132C160.328 143.546 159.487 143.749 158.524 143.74ZM158.517 141.985C159.048 141.985 159.523 141.855 159.941 141.594C160.359 141.333 160.69 140.982 160.933 140.542C161.176 140.101 161.297 139.608 161.297 139.064C161.297 138.533 161.178 138.05 160.939 137.613C160.706 137.177 160.382 136.831 159.968 136.574C159.559 136.318 159.091 136.19 158.564 136.19C158.164 136.19 157.793 136.266 157.451 136.419C157.114 136.572 156.817 136.783 156.561 137.053C156.304 137.323 156.102 137.634 155.953 137.984C155.809 138.331 155.737 138.697 155.737 139.084C155.737 139.601 155.857 140.08 156.095 140.521C156.338 140.962 156.669 141.317 157.087 141.587C157.51 141.853 157.986 141.985 158.517 141.985ZM166.504 143.679C166.135 143.679 165.818 143.549 165.553 143.288C165.287 143.022 165.155 142.703 165.155 142.33C165.155 141.961 165.287 141.646 165.553 141.385C165.818 141.12 166.135 140.987 166.504 140.987C166.873 140.987 167.19 141.12 167.456 141.385C167.721 141.646 167.854 141.961 167.854 142.33C167.854 142.577 167.791 142.804 167.665 143.011C167.543 143.213 167.381 143.375 167.179 143.497C166.977 143.618 166.752 143.679 166.504 143.679ZM170.529 143.551V142.039L175.205 137.195C175.704 136.669 176.116 136.208 176.439 135.812C176.768 135.411 177.013 135.031 177.175 134.672C177.337 134.312 177.418 133.929 177.418 133.525C177.418 133.066 177.31 132.67 177.094 132.337C176.878 132 176.583 131.741 176.21 131.561C175.837 131.377 175.416 131.284 174.948 131.284C174.453 131.284 174.022 131.386 173.653 131.588C173.284 131.79 173.001 132.076 172.803 132.445C172.605 132.814 172.506 133.246 172.506 133.74H170.515C170.515 132.899 170.709 132.164 171.096 131.534C171.482 130.904 172.013 130.416 172.688 130.07C173.363 129.719 174.13 129.544 174.989 129.544C175.857 129.544 176.622 129.717 177.283 130.063C177.949 130.405 178.468 130.873 178.841 131.467C179.215 132.056 179.401 132.722 179.401 133.464C179.401 133.977 179.305 134.478 179.111 134.968C178.922 135.459 178.592 136.005 178.119 136.608C177.647 137.206 176.99 137.933 176.149 138.787L173.403 141.662V141.763H179.624V143.551H170.529Z" fill="white"/>
</g>
<path opacity="0.5" d="M223.526 359.955V358.805L227.847 354.074C228.354 353.52 228.772 353.039 229.1 352.63C229.428 352.216 229.671 351.829 229.829 351.466C229.991 351.1 230.072 350.716 230.072 350.316C230.072 349.856 229.961 349.457 229.739 349.121C229.522 348.784 229.224 348.524 228.844 348.341C228.465 348.157 228.039 348.066 227.566 348.066C227.063 348.066 226.624 348.17 226.249 348.379C225.879 348.584 225.591 348.871 225.386 349.242C225.186 349.613 225.086 350.047 225.086 350.546H223.577C223.577 349.779 223.754 349.106 224.108 348.526C224.462 347.947 224.943 347.495 225.553 347.171C226.166 346.847 226.854 346.685 227.617 346.685C228.384 346.685 229.064 346.847 229.656 347.171C230.249 347.495 230.713 347.932 231.05 348.481C231.386 349.031 231.555 349.643 231.555 350.316C231.555 350.797 231.467 351.268 231.293 351.729C231.122 352.184 230.824 352.694 230.398 353.256C229.976 353.814 229.39 354.496 228.64 355.302L225.7 358.447V358.549H231.785V359.955H223.526ZM238.695 360.134C237.732 360.134 236.911 359.872 236.234 359.348C235.556 358.819 235.038 358.055 234.68 357.053C234.322 356.047 234.143 354.833 234.143 353.41C234.143 351.995 234.322 350.787 234.68 349.785C235.043 348.78 235.563 348.013 236.24 347.484C236.922 346.952 237.74 346.685 238.695 346.685C239.649 346.685 240.465 346.952 241.143 347.484C241.825 348.013 242.344 348.78 242.702 349.785C243.065 350.787 243.246 351.995 243.246 353.41C243.246 354.833 243.067 356.047 242.709 357.053C242.351 358.055 241.833 358.819 241.156 359.348C240.478 359.872 239.658 360.134 238.695 360.134ZM238.695 358.728C239.649 358.728 240.391 358.268 240.919 357.347C241.447 356.427 241.712 355.114 241.712 353.41C241.712 352.276 241.59 351.311 241.347 350.514C241.109 349.717 240.764 349.11 240.312 348.692C239.864 348.275 239.325 348.066 238.695 348.066C237.749 348.066 237.009 348.532 236.477 349.466C235.944 350.395 235.678 351.709 235.678 353.41C235.678 354.543 235.797 355.506 236.036 356.299C236.274 357.091 236.617 357.694 237.065 358.108C237.516 358.521 238.06 358.728 238.695 358.728ZM250.277 346.864V359.955H248.692V348.526H248.615L245.419 350.648V349.037L248.692 346.864H250.277ZM254.451 359.955L260.306 348.373V348.27H253.556V346.864H261.943V348.347L256.113 359.955H254.451Z" fill="white"/>
<g filter="url(#filter4_b_1274_3653)">
<rect x="220.315" y="134.044" width="45.4987" height="197.798" rx="6" fill="#64B9E0" fill-opacity="0.45"/>
<rect x="220.815" y="134.544" width="44.4987" height="196.798" rx="5.5" stroke="url(#paint2_linear_1274_3653)"/>
</g>
<g filter="url(#filter5_d_1274_3653)">
<path d="M232.019 119.817V102.544H233.126V119.817H232.019ZM235.481 107.901C235.409 107.262 235.112 106.768 234.59 106.417C234.068 106.061 233.411 105.884 232.62 105.884C232.053 105.884 231.563 105.974 231.149 106.154C230.735 106.329 230.413 106.572 230.184 106.882C229.959 107.188 229.847 107.537 229.847 107.928C229.847 108.256 229.923 108.54 230.076 108.778C230.234 109.017 230.438 109.217 230.69 109.379C230.946 109.536 231.221 109.669 231.513 109.777C231.806 109.88 232.087 109.966 232.357 110.033L233.706 110.384C234.147 110.492 234.599 110.638 235.062 110.823C235.526 111.007 235.955 111.25 236.351 111.551C236.747 111.853 237.066 112.226 237.309 112.671C237.556 113.117 237.68 113.65 237.68 114.27C237.68 115.053 237.478 115.748 237.073 116.355C236.673 116.963 236.09 117.442 235.325 117.792C234.565 118.143 233.645 118.319 232.566 118.319C231.531 118.319 230.636 118.155 229.88 117.826C229.125 117.498 228.533 117.032 228.106 116.43C227.679 115.822 227.442 115.103 227.397 114.27H229.489C229.53 114.77 229.692 115.186 229.975 115.519C230.263 115.847 230.629 116.092 231.075 116.254C231.524 116.412 232.017 116.49 232.552 116.49C233.142 116.49 233.666 116.398 234.124 116.214C234.588 116.025 234.952 115.764 235.217 115.431C235.483 115.094 235.616 114.7 235.616 114.25C235.616 113.841 235.499 113.506 235.265 113.245C235.035 112.984 234.723 112.768 234.327 112.597C233.935 112.426 233.492 112.276 232.998 112.145L231.365 111.7C230.258 111.398 229.381 110.955 228.733 110.371C228.09 109.786 227.769 109.012 227.769 108.05C227.769 107.253 227.984 106.558 228.416 105.965C228.848 105.371 229.433 104.91 230.171 104.582C230.908 104.249 231.74 104.082 232.667 104.082C233.603 104.082 234.428 104.246 235.143 104.575C235.863 104.903 236.43 105.355 236.843 105.931C237.257 106.502 237.473 107.159 237.491 107.901H235.481ZM240.448 118.089L246.48 106.16V106.059H239.504V104.271H248.639V106.12L242.627 118.089H240.448ZM249.967 118.218C249.598 118.218 249.281 118.087 249.015 117.826C248.75 117.561 248.617 117.241 248.617 116.868C248.617 116.499 248.75 116.184 249.015 115.924C249.281 115.658 249.598 115.525 249.967 115.525C250.336 115.525 250.653 115.658 250.918 115.924C251.183 116.184 251.316 116.499 251.316 116.868C251.316 117.116 251.253 117.343 251.127 117.55C251.006 117.752 250.844 117.914 250.641 118.035C250.439 118.157 250.214 118.218 249.967 118.218ZM257.564 104.271V118.089H255.472V106.363H255.391L252.085 108.522V106.525L255.533 104.271H257.564Z" fill="white"/>
</g>
<path opacity="0.5" d="M304.806 359.956V358.805L309.127 354.075C309.635 353.521 310.052 353.039 310.38 352.63C310.708 352.217 310.951 351.829 311.109 351.467C311.271 351.1 311.352 350.717 311.352 350.316C311.352 349.856 311.241 349.458 311.019 349.121C310.802 348.784 310.504 348.524 310.125 348.341C309.745 348.158 309.319 348.066 308.846 348.066C308.343 348.066 307.904 348.171 307.529 348.38C307.159 348.584 306.871 348.872 306.667 349.242C306.466 349.613 306.366 350.048 306.366 350.546H304.858C304.858 349.779 305.034 349.106 305.388 348.527C305.742 347.947 306.223 347.495 306.833 347.171C307.446 346.848 308.135 346.686 308.897 346.686C309.664 346.686 310.344 346.848 310.936 347.171C311.529 347.495 311.993 347.932 312.33 348.482C312.667 349.032 312.835 349.643 312.835 350.316C312.835 350.798 312.747 351.269 312.573 351.729C312.402 352.185 312.104 352.694 311.678 353.257C311.256 353.815 310.67 354.497 309.92 355.302L306.98 358.447V358.549H313.065V359.956H304.806ZM319.975 360.135C319.012 360.135 318.191 359.872 317.514 359.348C316.836 358.82 316.319 358.055 315.961 357.054C315.603 356.048 315.424 354.833 315.424 353.41C315.424 351.995 315.603 350.787 315.961 349.786C316.323 348.78 316.843 348.013 317.52 347.485C318.202 346.952 319.02 346.686 319.975 346.686C320.929 346.686 321.745 346.952 322.423 347.485C323.105 348.013 323.625 348.78 323.983 349.786C324.345 350.787 324.526 351.995 324.526 353.41C324.526 354.833 324.347 356.048 323.989 357.054C323.631 358.055 323.113 358.82 322.436 359.348C321.758 359.872 320.938 360.135 319.975 360.135ZM319.975 358.728C320.929 358.728 321.671 358.268 322.199 357.348C322.728 356.427 322.992 355.115 322.992 353.41C322.992 352.277 322.87 351.311 322.627 350.515C322.389 349.718 322.044 349.11 321.592 348.693C321.144 348.275 320.605 348.066 319.975 348.066C319.029 348.066 318.289 348.533 317.757 349.466C317.224 350.395 316.958 351.71 316.958 353.41C316.958 354.544 317.077 355.507 317.316 356.299C317.554 357.092 317.897 357.695 318.345 358.108C318.796 358.522 319.34 358.728 319.975 358.728ZM331.557 346.865V359.956H329.972V348.527H329.895L326.699 350.649V349.038L329.972 346.865H331.557ZM339.515 360.135C338.637 360.135 337.862 359.979 337.189 359.668C336.519 359.353 335.997 358.92 335.622 358.37C335.247 357.816 335.062 357.186 335.066 356.478C335.062 355.924 335.171 355.413 335.392 354.944C335.614 354.471 335.917 354.077 336.3 353.762C336.688 353.442 337.12 353.24 337.598 353.154V353.078C336.971 352.916 336.473 352.564 336.102 352.023C335.731 351.478 335.548 350.858 335.552 350.163C335.548 349.498 335.716 348.904 336.057 348.38C336.398 347.855 336.867 347.442 337.463 347.14C338.064 346.837 338.748 346.686 339.515 346.686C340.274 346.686 340.951 346.837 341.548 347.14C342.144 347.442 342.613 347.855 342.954 348.38C343.299 348.904 343.474 349.498 343.478 350.163C343.474 350.858 343.284 351.478 342.909 352.023C342.539 352.564 342.046 352.916 341.433 353.078V353.154C341.906 353.24 342.332 353.442 342.711 353.762C343.091 354.077 343.393 354.471 343.619 354.944C343.845 355.413 343.96 355.924 343.964 356.478C343.96 357.186 343.768 357.816 343.389 358.37C343.014 358.92 342.492 359.353 341.823 359.668C341.158 359.979 340.389 360.135 339.515 360.135ZM339.515 358.728C340.108 358.728 340.619 358.632 341.049 358.441C341.48 358.249 341.812 357.978 342.046 357.629C342.281 357.279 342.4 356.87 342.404 356.402C342.4 355.907 342.272 355.47 342.021 355.091C341.769 354.712 341.426 354.414 340.992 354.196C340.561 353.979 340.069 353.87 339.515 353.87C338.957 353.87 338.458 353.979 338.019 354.196C337.585 354.414 337.242 354.712 336.99 355.091C336.743 355.47 336.622 355.907 336.626 356.402C336.622 356.87 336.735 357.279 336.965 357.629C337.199 357.978 337.534 358.249 337.968 358.441C338.403 358.632 338.919 358.728 339.515 358.728ZM339.515 352.515C339.984 352.515 340.399 352.421 340.762 352.234C341.128 352.046 341.416 351.784 341.625 351.448C341.833 351.111 341.94 350.717 341.944 350.265C341.94 349.822 341.836 349.436 341.631 349.108C341.426 348.776 341.143 348.52 340.781 348.341C340.419 348.158 339.997 348.066 339.515 348.066C339.025 348.066 338.597 348.158 338.23 348.341C337.864 348.52 337.581 348.776 337.38 349.108C337.18 349.436 337.082 349.822 337.086 350.265C337.082 350.717 337.182 351.111 337.387 351.448C337.595 351.784 337.883 352.046 338.25 352.234C338.616 352.421 339.038 352.515 339.515 352.515Z" fill="white"/>
<g filter="url(#filter6_b_1274_3653)">
<rect x="301.011" y="88.1147" width="45.4987" height="243.729" rx="6" fill="#64B9E0" fill-opacity="0.45"/>
<rect x="301.511" y="88.6147" width="44.4987" height="242.729" rx="5.5" stroke="url(#paint3_linear_1274_3653)"/>
</g>
<g filter="url(#filter7_d_1274_3653)">
<path d="M309.139 75.6609V58.3881H310.245V75.6609H309.139ZM312.6 63.7454C312.528 63.1067 312.231 62.6119 311.709 62.261C311.187 61.9057 310.531 61.728 309.739 61.728C309.172 61.728 308.682 61.8179 308.268 61.9979C307.854 62.1733 307.533 62.4162 307.303 62.7266C307.078 63.0324 306.966 63.381 306.966 63.7724C306.966 64.1007 307.042 64.3841 307.195 64.6225C307.353 64.8609 307.557 65.0611 307.809 65.223C308.066 65.3804 308.34 65.5131 308.632 65.6211C308.925 65.7245 309.206 65.81 309.476 65.8775L310.825 66.2283C311.266 66.3363 311.718 66.4825 312.181 66.6669C312.645 66.8513 313.074 67.0942 313.47 67.3956C313.866 67.697 314.185 68.0703 314.428 68.5156C314.676 68.9609 314.799 69.494 314.799 70.1147C314.799 70.8974 314.597 71.5923 314.192 72.1996C313.792 72.8068 313.209 73.2859 312.445 73.6367C311.684 73.9876 310.765 74.163 309.685 74.163C308.65 74.163 307.755 73.9988 307 73.6705C306.244 73.3421 305.652 72.8765 305.225 72.2738C304.798 71.6665 304.562 70.9469 304.517 70.1147H306.608C306.649 70.614 306.811 71.0301 307.094 71.3629C307.382 71.6913 307.749 71.9364 308.194 72.0984C308.644 72.2558 309.136 72.3345 309.672 72.3345C310.261 72.3345 310.785 72.2423 311.244 72.0579C311.707 71.869 312.071 71.6081 312.337 71.2752C312.602 70.9379 312.735 70.5443 312.735 70.0945C312.735 69.6851 312.618 69.35 312.384 69.0891C312.154 68.8282 311.842 68.6123 311.446 68.4414C311.055 68.2705 310.612 68.1198 310.117 67.9893L308.484 67.544C307.378 67.2427 306.5 66.7996 305.853 66.2148C305.209 65.6301 304.888 64.8564 304.888 63.8938C304.888 63.0977 305.104 62.4027 305.536 61.8089C305.967 61.2152 306.552 60.7541 307.29 60.4258C308.027 60.0929 308.86 59.9265 309.786 59.9265C310.722 59.9265 311.547 60.0907 312.262 60.419C312.982 60.7474 313.549 61.1995 313.963 61.7752C314.377 62.3465 314.592 63.0032 314.61 63.7454H312.6ZM321.771 74.1225C320.804 74.1225 319.949 73.9561 319.207 73.6232C318.469 73.2904 317.891 72.8316 317.473 72.2468C317.055 71.6621 316.848 70.9963 316.852 70.2496C316.848 69.6649 316.967 69.1274 317.21 68.6371C317.457 68.1423 317.792 67.7307 318.215 67.4023C318.638 67.0695 319.11 66.8581 319.632 66.7681V66.6871C318.944 66.5207 318.393 66.1519 317.979 65.5806C317.565 65.0094 317.36 64.3526 317.365 63.6104C317.36 62.9042 317.547 62.2745 317.925 61.7212C318.307 61.1635 318.831 60.7249 319.497 60.4055C320.163 60.0862 320.921 59.9265 321.771 59.9265C322.612 59.9265 323.363 60.0884 324.024 60.4123C324.69 60.7317 325.214 61.1702 325.597 61.728C325.979 62.2812 326.172 62.9087 326.177 63.6104C326.172 64.3526 325.961 65.0094 325.543 65.5806C325.124 66.1519 324.58 66.5207 323.91 66.6871V66.7681C324.427 66.8581 324.893 67.0695 325.306 67.4023C325.725 67.7307 326.058 68.1423 326.305 68.6371C326.557 69.1274 326.685 69.6649 326.69 70.2496C326.685 70.9963 326.474 71.6621 326.055 72.2468C325.637 72.8316 325.057 73.2904 324.315 73.6232C323.577 73.9561 322.729 74.1225 321.771 74.1225ZM321.771 72.4155C322.342 72.4155 322.837 72.321 323.255 72.1321C323.674 71.9387 323.997 71.671 324.227 71.3292C324.456 70.9828 324.573 70.578 324.578 70.1147C324.573 69.6334 324.447 69.2083 324.2 68.8395C323.957 68.4706 323.626 68.1805 323.208 67.9691C322.79 67.7577 322.311 67.652 321.771 67.652C321.227 67.652 320.743 67.7577 320.32 67.9691C319.897 68.1805 319.565 68.4706 319.322 68.8395C319.079 69.2083 318.96 69.6334 318.964 70.1147C318.96 70.578 319.07 70.9828 319.295 71.3292C319.524 71.671 319.85 71.9387 320.273 72.1321C320.696 72.321 321.195 72.4155 321.771 72.4155ZM321.771 65.9854C322.23 65.9854 322.637 65.8932 322.992 65.7088C323.347 65.5244 323.626 65.268 323.829 64.9396C324.036 64.6113 324.141 64.2267 324.146 63.7859C324.141 63.354 324.038 62.9762 323.836 62.6523C323.638 62.3285 323.361 62.0788 323.006 61.9034C322.65 61.7235 322.239 61.6335 321.771 61.6335C321.294 61.6335 320.876 61.7235 320.516 61.9034C320.161 62.0788 319.884 62.3285 319.686 62.6523C319.488 62.9762 319.391 63.354 319.396 63.7859C319.391 64.2267 319.49 64.6113 319.693 64.9396C319.895 65.268 320.174 65.5244 320.529 65.7088C320.889 65.8932 321.303 65.9854 321.771 65.9854ZM330.055 74.0618C329.686 74.0618 329.369 73.9313 329.103 73.6705C328.838 73.4051 328.705 73.0857 328.705 72.7124C328.705 72.3435 328.838 72.0286 329.103 71.7678C329.369 71.5024 329.686 71.3697 330.055 71.3697C330.424 71.3697 330.741 71.5024 331.006 71.7678C331.271 72.0286 331.404 72.3435 331.404 72.7124C331.404 72.9598 331.341 73.1869 331.215 73.3938C331.094 73.5962 330.932 73.7582 330.729 73.8796C330.527 74.0011 330.302 74.0618 330.055 74.0618ZM334.192 73.9336L340.224 62.0046V61.9034H333.248V60.1154H342.383V61.9641L336.372 73.9336H334.192Z" fill="white"/>
</g>
<path opacity="0.5" d="M387.411 359.956V358.805L391.732 354.075C392.239 353.521 392.657 353.039 392.985 352.63C393.313 352.217 393.556 351.829 393.713 351.467C393.875 351.1 393.956 350.717 393.956 350.316C393.956 349.856 393.846 349.458 393.624 349.121C393.407 348.784 393.108 348.524 392.729 348.341C392.35 348.158 391.924 348.066 391.451 348.066C390.948 348.066 390.509 348.171 390.134 348.38C389.763 348.584 389.476 348.872 389.271 349.242C389.071 349.613 388.971 350.048 388.971 350.546H387.462C387.462 349.779 387.639 349.106 387.993 348.527C388.346 347.947 388.828 347.495 389.437 347.171C390.051 346.848 390.739 346.686 391.502 346.686C392.269 346.686 392.949 346.848 393.541 347.171C394.133 347.495 394.598 347.932 394.934 348.482C395.271 349.032 395.439 349.643 395.439 350.316C395.439 350.798 395.352 351.269 395.177 351.729C395.007 352.185 394.709 352.694 394.282 353.257C393.86 353.815 393.275 354.497 392.525 355.302L389.584 358.447V358.549H395.669V359.956H387.411ZM402.579 360.135C401.616 360.135 400.796 359.872 400.118 359.348C399.441 358.82 398.923 358.055 398.565 357.054C398.207 356.048 398.028 354.833 398.028 353.41C398.028 351.995 398.207 350.787 398.565 349.786C398.927 348.78 399.447 348.013 400.125 347.485C400.807 346.952 401.625 346.686 402.579 346.686C403.534 346.686 404.35 346.952 405.027 347.485C405.709 348.013 406.229 348.78 406.587 349.786C406.949 350.787 407.13 351.995 407.13 353.41C407.13 354.833 406.951 356.048 406.593 357.054C406.235 358.055 405.718 358.82 405.04 359.348C404.363 359.872 403.542 360.135 402.579 360.135ZM402.579 358.728C403.534 358.728 404.275 358.268 404.804 357.348C405.332 356.427 405.596 355.115 405.596 353.41C405.596 352.277 405.475 351.311 405.232 350.515C404.993 349.718 404.648 349.11 404.196 348.693C403.749 348.275 403.21 348.066 402.579 348.066C401.633 348.066 400.894 348.533 400.361 349.466C399.829 350.395 399.562 351.71 399.562 353.41C399.562 354.544 399.682 355.507 399.92 356.299C400.159 357.092 400.502 357.695 400.949 358.108C401.401 358.522 401.944 358.728 402.579 358.728ZM414.162 346.865V359.956H412.576V348.527H412.5L409.304 350.649V349.038L412.576 346.865H414.162ZM422.094 346.686C422.631 346.69 423.168 346.792 423.705 346.992C424.242 347.193 424.732 347.525 425.175 347.99C425.618 348.45 425.974 349.078 426.243 349.875C426.511 350.672 426.645 351.671 426.645 352.873C426.645 354.037 426.535 355.07 426.313 355.973C426.096 356.872 425.78 357.631 425.367 358.249C424.958 358.867 424.459 359.336 423.871 359.655C423.287 359.975 422.627 360.135 421.89 360.135C421.157 360.135 420.503 359.99 419.927 359.7C419.356 359.406 418.887 358.999 418.521 358.479C418.159 357.955 417.927 357.348 417.824 356.657H419.384C419.525 357.258 419.804 357.755 420.221 358.147C420.643 358.534 421.199 358.728 421.89 358.728C422.9 358.728 423.696 358.287 424.28 357.405C424.868 356.523 425.162 355.277 425.162 353.666H425.06C424.821 354.024 424.538 354.333 424.21 354.593C423.882 354.853 423.517 355.053 423.117 355.193C422.716 355.334 422.29 355.404 421.838 355.404C421.088 355.404 420.4 355.219 419.774 354.848C419.152 354.473 418.653 353.96 418.278 353.308C417.907 352.652 417.722 351.902 417.722 351.058C417.722 350.257 417.901 349.524 418.259 348.859C418.621 348.19 419.128 347.657 419.78 347.261C420.436 346.865 421.208 346.673 422.094 346.686ZM422.094 348.092C421.557 348.092 421.074 348.226 420.643 348.495C420.217 348.759 419.878 349.117 419.627 349.568C419.38 350.016 419.256 350.512 419.256 351.058C419.256 351.603 419.375 352.1 419.614 352.547C419.857 352.99 420.187 353.344 420.605 353.608C421.027 353.868 421.506 353.998 422.043 353.998C422.448 353.998 422.825 353.919 423.174 353.762C423.524 353.6 423.829 353.38 424.088 353.103C424.353 352.822 424.559 352.505 424.709 352.151C424.858 351.793 424.932 351.42 424.932 351.032C424.932 350.521 424.809 350.042 424.561 349.594C424.319 349.147 423.982 348.784 423.552 348.507C423.125 348.23 422.64 348.092 422.094 348.092Z" fill="white"/>
<g filter="url(#filter8_b_1274_3653)">
<rect x="384.686" y="140.712" width="45.4987" height="191.131" rx="6" fill="#64B9E0" fill-opacity="0.45"/>
<rect x="385.186" y="141.212" width="44.4987" height="190.131" rx="5.5" stroke="url(#paint4_linear_1274_3653)"/>
</g>
<g filter="url(#filter9_d_1274_3653)">
<path d="M392.26 125.325V108.053H393.367V125.325H392.26ZM395.722 113.41C395.65 112.771 395.353 112.276 394.831 111.926C394.309 111.57 393.653 111.393 392.861 111.393C392.294 111.393 391.804 111.482 391.39 111.662C390.976 111.838 390.655 112.081 390.425 112.391C390.2 112.697 390.088 113.046 390.088 113.437C390.088 113.765 390.164 114.049 390.317 114.287C390.475 114.525 390.679 114.726 390.931 114.888C391.188 115.045 391.462 115.178 391.754 115.286C392.047 115.389 392.328 115.475 392.598 115.542L393.947 115.893C394.388 116.001 394.84 116.147 395.303 116.331C395.767 116.516 396.196 116.759 396.592 117.06C396.988 117.362 397.307 117.735 397.55 118.18C397.798 118.625 397.921 119.159 397.921 119.779C397.921 120.562 397.719 121.257 397.314 121.864C396.914 122.471 396.331 122.95 395.567 123.301C394.806 123.652 393.886 123.828 392.807 123.828C391.772 123.828 390.877 123.663 390.122 123.335C389.366 123.007 388.774 122.541 388.347 121.938C387.92 121.331 387.684 120.611 387.639 119.779H389.73C389.771 120.279 389.933 120.695 390.216 121.027C390.504 121.356 390.871 121.601 391.316 121.763C391.766 121.92 392.258 121.999 392.793 121.999C393.383 121.999 393.907 121.907 394.366 121.722C394.829 121.534 395.193 121.273 395.459 120.94C395.724 120.602 395.857 120.209 395.857 119.759C395.857 119.35 395.74 119.015 395.506 118.754C395.276 118.493 394.964 118.277 394.568 118.106C394.177 117.935 393.734 117.784 393.239 117.654L391.606 117.209C390.499 116.907 389.622 116.464 388.975 115.879C388.331 115.295 388.01 114.521 388.01 113.558C388.01 112.762 388.226 112.067 388.657 111.473C389.089 110.88 389.674 110.419 390.412 110.09C391.149 109.757 391.982 109.591 392.908 109.591C393.844 109.591 394.669 109.755 395.384 110.084C396.104 110.412 396.671 110.864 397.085 111.44C397.498 112.011 397.714 112.668 397.732 113.41H395.722ZM405.048 123.787C404.432 123.778 403.824 123.666 403.226 123.45C402.632 123.234 402.093 122.874 401.607 122.37C401.121 121.866 400.732 121.189 400.44 120.339C400.152 119.489 400.008 118.428 400.008 117.155C400.008 115.949 400.127 114.879 400.365 113.943C400.608 113.007 400.957 112.218 401.411 111.575C401.866 110.927 402.414 110.434 403.058 110.097C403.701 109.76 404.423 109.591 405.223 109.591C406.047 109.591 406.778 109.753 407.416 110.077C408.055 110.401 408.572 110.848 408.968 111.42C409.368 111.991 409.623 112.641 409.731 113.369H407.673C407.533 112.794 407.257 112.324 406.843 111.959C406.429 111.595 405.889 111.413 405.223 111.413C404.211 111.413 403.422 111.854 402.855 112.735C402.293 113.617 402.01 114.843 402.005 116.412H402.106C402.345 116.021 402.637 115.688 402.983 115.414C403.334 115.135 403.726 114.921 404.157 114.773C404.594 114.62 405.052 114.543 405.534 114.543C406.334 114.543 407.059 114.739 407.706 115.13C408.359 115.517 408.878 116.053 409.265 116.736C409.652 117.42 409.845 118.203 409.845 119.084C409.845 119.966 409.645 120.764 409.245 121.48C408.849 122.195 408.291 122.761 407.571 123.18C406.852 123.594 406.011 123.796 405.048 123.787ZM405.041 122.033C405.572 122.033 406.047 121.902 406.465 121.641C406.883 121.381 407.214 121.03 407.457 120.589C407.7 120.148 407.821 119.656 407.821 119.111C407.821 118.581 407.702 118.097 407.463 117.661C407.23 117.224 406.906 116.878 406.492 116.622C406.083 116.365 405.615 116.237 405.088 116.237C404.688 116.237 404.317 116.313 403.975 116.466C403.638 116.619 403.341 116.831 403.085 117.101C402.828 117.371 402.626 117.681 402.477 118.032C402.333 118.378 402.261 118.745 402.261 119.132C402.261 119.649 402.381 120.128 402.619 120.569C402.862 121.009 403.193 121.365 403.611 121.635C404.034 121.9 404.51 122.033 405.041 122.033ZM413.028 123.726C412.659 123.726 412.342 123.596 412.077 123.335C411.811 123.07 411.679 122.75 411.679 122.377C411.679 122.008 411.811 121.693 412.077 121.432C412.342 121.167 412.659 121.034 413.028 121.034C413.397 121.034 413.714 121.167 413.98 121.432C414.245 121.693 414.378 122.008 414.378 122.377C414.378 122.624 414.315 122.851 414.189 123.058C414.067 123.261 413.905 123.423 413.703 123.544C413.5 123.666 413.276 123.726 413.028 123.726ZM421.481 109.591C422.097 109.596 422.704 109.708 423.302 109.928C423.901 110.149 424.44 110.509 424.922 111.008C425.408 111.507 425.794 112.182 426.082 113.032C426.375 113.878 426.523 114.93 426.528 116.19C426.528 117.4 426.406 118.477 426.163 119.422C425.92 120.362 425.572 121.156 425.117 121.803C424.668 122.451 424.121 122.944 423.478 123.281C422.835 123.618 422.11 123.787 421.305 123.787C420.482 123.787 419.751 123.625 419.112 123.301C418.474 122.977 417.954 122.53 417.554 121.959C417.154 121.383 416.904 120.722 416.805 119.975H418.863C418.998 120.569 419.272 121.05 419.686 121.419C420.104 121.783 420.644 121.965 421.305 121.965C422.317 121.965 423.107 121.525 423.674 120.643C424.24 119.757 424.526 118.52 424.53 116.932H424.422C424.189 117.319 423.896 117.652 423.545 117.931C423.199 118.209 422.81 118.425 422.378 118.578C421.946 118.731 421.485 118.808 420.995 118.808C420.199 118.808 419.475 118.612 418.822 118.221C418.17 117.829 417.651 117.292 417.264 116.608C416.877 115.924 416.683 115.144 416.683 114.267C416.683 113.394 416.881 112.603 417.277 111.892C417.678 111.181 418.235 110.619 418.951 110.205C419.67 109.787 420.514 109.582 421.481 109.591ZM421.487 111.345C420.961 111.345 420.487 111.476 420.064 111.737C419.645 111.993 419.315 112.342 419.072 112.782C418.829 113.219 418.708 113.705 418.708 114.24C418.708 114.775 418.825 115.261 419.058 115.697C419.297 116.129 419.621 116.473 420.03 116.73C420.444 116.981 420.916 117.107 421.447 117.107C421.843 117.107 422.212 117.031 422.553 116.878C422.895 116.725 423.194 116.514 423.451 116.244C423.707 115.969 423.907 115.659 424.051 115.313C424.195 114.966 424.267 114.602 424.267 114.22C424.267 113.711 424.146 113.239 423.903 112.803C423.665 112.366 423.336 112.016 422.918 111.75C422.5 111.48 422.023 111.345 421.487 111.345Z" fill="white"/>
</g>
<path opacity="0.5" d="M470.294 359.956V358.805L474.615 354.075C475.122 353.521 475.54 353.04 475.868 352.631C476.196 352.217 476.439 351.83 476.597 351.467C476.758 351.101 476.839 350.717 476.839 350.317C476.839 349.857 476.729 349.458 476.507 349.122C476.29 348.785 475.991 348.525 475.612 348.342C475.233 348.158 474.807 348.067 474.334 348.067C473.831 348.067 473.392 348.171 473.017 348.38C472.646 348.585 472.359 348.872 472.154 349.243C471.954 349.614 471.854 350.048 471.854 350.547H470.345C470.345 349.78 470.522 349.107 470.876 348.527C471.229 347.948 471.711 347.496 472.32 347.172C472.934 346.848 473.622 346.686 474.385 346.686C475.152 346.686 475.832 346.848 476.424 347.172C477.016 347.496 477.481 347.933 477.817 348.482C478.154 349.032 478.322 349.644 478.322 350.317C478.322 350.798 478.235 351.269 478.06 351.729C477.89 352.185 477.592 352.695 477.165 353.257C476.744 353.815 476.158 354.497 475.408 355.303L472.467 358.448V358.55H478.553V359.956H470.294ZM485.462 360.135C484.499 360.135 483.679 359.873 483.001 359.349C482.324 358.82 481.806 358.055 481.448 357.054C481.09 356.048 480.911 354.834 480.911 353.411C480.911 351.996 481.09 350.788 481.448 349.786C481.81 348.781 482.33 348.014 483.008 347.485C483.69 346.953 484.508 346.686 485.462 346.686C486.417 346.686 487.233 346.953 487.91 347.485C488.592 348.014 489.112 348.781 489.47 349.786C489.832 350.788 490.013 351.996 490.013 353.411C490.013 354.834 489.834 356.048 489.477 357.054C489.119 358.055 488.601 358.82 487.923 359.349C487.246 359.873 486.425 360.135 485.462 360.135ZM485.462 358.729C486.417 358.729 487.158 358.269 487.687 357.348C488.215 356.428 488.479 355.115 488.479 353.411C488.479 352.277 488.358 351.312 488.115 350.515C487.876 349.718 487.531 349.111 487.08 348.693C486.632 348.276 486.093 348.067 485.462 348.067C484.516 348.067 483.777 348.533 483.244 349.467C482.712 350.396 482.445 351.71 482.445 353.411C482.445 354.544 482.565 355.507 482.803 356.3C483.042 357.092 483.385 357.695 483.832 358.109C484.284 358.522 484.827 358.729 485.462 358.729ZM492.442 359.956V358.805L496.763 354.075C497.271 353.521 497.688 353.04 498.016 352.631C498.344 352.217 498.587 351.83 498.745 351.467C498.907 351.101 498.988 350.717 498.988 350.317C498.988 349.857 498.877 349.458 498.655 349.122C498.438 348.785 498.14 348.525 497.761 348.342C497.381 348.158 496.955 348.067 496.482 348.067C495.979 348.067 495.54 348.171 495.165 348.38C494.795 348.585 494.507 348.872 494.303 349.243C494.102 349.614 494.002 350.048 494.002 350.547H492.494C492.494 349.78 492.67 349.107 493.024 348.527C493.378 347.948 493.859 347.496 494.469 347.172C495.082 346.848 495.771 346.686 496.533 346.686C497.3 346.686 497.98 346.848 498.572 347.172C499.165 347.496 499.629 347.933 499.966 348.482C500.303 349.032 500.471 349.644 500.471 350.317C500.471 350.798 500.383 351.269 500.209 351.729C500.038 352.185 499.74 352.695 499.314 353.257C498.892 353.815 498.306 354.497 497.556 355.303L494.616 358.448V358.55H500.701V359.956H492.442ZM507.611 360.135C506.648 360.135 505.827 359.873 505.15 359.349C504.472 358.82 503.954 358.055 503.597 357.054C503.239 356.048 503.06 354.834 503.06 353.411C503.06 351.996 503.239 350.788 503.597 349.786C503.959 348.781 504.479 348.014 505.156 347.485C505.838 346.953 506.656 346.686 507.611 346.686C508.565 346.686 509.381 346.953 510.059 347.485C510.741 348.014 511.261 348.781 511.619 349.786C511.981 350.788 512.162 351.996 512.162 353.411C512.162 354.834 511.983 356.048 511.625 357.054C511.267 358.055 510.749 358.82 510.072 359.349C509.394 359.873 508.574 360.135 507.611 360.135ZM507.611 358.729C508.565 358.729 509.307 358.269 509.835 357.348C510.364 356.428 510.628 355.115 510.628 353.411C510.628 352.277 510.506 351.312 510.263 350.515C510.025 349.718 509.68 349.111 509.228 348.693C508.78 348.276 508.241 348.067 507.611 348.067C506.665 348.067 505.925 348.533 505.393 349.467C504.86 350.396 504.594 351.71 504.594 353.411C504.594 354.544 504.713 355.507 504.952 356.3C505.19 357.092 505.533 357.695 505.981 358.109C506.432 358.522 506.976 358.729 507.611 358.729Z" fill="white"/>
<g filter="url(#filter10_b_1274_3653)">
<rect x="468.359" y="176.272" width="45.4987" height="155.572" rx="6" fill="#64B9E0" fill-opacity="0.45"/>
<rect x="468.859" y="176.772" width="44.4987" height="154.572" rx="5.5" stroke="url(#paint5_linear_1274_3653)"/>
</g>
<g filter="url(#filter11_d_1274_3653)">
<path d="M475.974 160.975V143.703H477.081V160.975H475.974ZM479.436 149.06C479.364 148.421 479.067 147.926 478.545 147.575C478.023 147.22 477.367 147.042 476.575 147.042C476.008 147.042 475.518 147.132 475.104 147.312C474.69 147.488 474.369 147.731 474.139 148.041C473.914 148.347 473.802 148.695 473.802 149.087C473.802 149.415 473.878 149.699 474.031 149.937C474.189 150.175 474.393 150.376 474.645 150.537C474.902 150.695 475.176 150.828 475.468 150.936C475.761 151.039 476.042 151.124 476.312 151.192L477.661 151.543C478.102 151.651 478.554 151.797 479.017 151.981C479.481 152.166 479.91 152.409 480.306 152.71C480.702 153.011 481.021 153.385 481.264 153.83C481.512 154.275 481.635 154.808 481.635 155.429C481.635 156.212 481.433 156.907 481.028 157.514C480.628 158.121 480.045 158.6 479.28 158.951C478.52 159.302 477.6 159.477 476.521 159.477C475.486 159.477 474.591 159.313 473.836 158.985C473.08 158.657 472.488 158.191 472.061 157.588C471.634 156.981 471.398 156.261 471.353 155.429H473.444C473.485 155.928 473.647 156.345 473.93 156.677C474.218 157.006 474.584 157.251 475.03 157.413C475.48 157.57 475.972 157.649 476.507 157.649C477.097 157.649 477.621 157.557 478.079 157.372C478.543 157.183 478.907 156.923 479.173 156.59C479.438 156.252 479.571 155.859 479.571 155.409C479.571 155 479.454 154.664 479.22 154.404C478.99 154.143 478.678 153.927 478.282 153.756C477.891 153.585 477.447 153.434 476.953 153.304L475.32 152.858C474.213 152.557 473.336 152.114 472.689 151.529C472.045 150.945 471.724 150.171 471.724 149.208C471.724 148.412 471.94 147.717 472.371 147.123C472.803 146.53 473.388 146.069 474.126 145.74C474.863 145.407 475.695 145.241 476.622 145.241C477.558 145.241 478.383 145.405 479.098 145.733C479.818 146.062 480.385 146.514 480.799 147.09C481.212 147.661 481.428 148.318 481.446 149.06H479.436ZM488.499 159.437C487.653 159.437 486.893 159.275 486.218 158.951C485.548 158.623 485.013 158.173 484.612 157.602C484.212 157.03 483.998 156.378 483.971 155.645H485.996C486.045 156.239 486.308 156.727 486.785 157.109C487.262 157.492 487.833 157.683 488.499 157.683C489.03 157.683 489.5 157.561 489.909 157.318C490.323 157.071 490.647 156.731 490.881 156.3C491.119 155.868 491.238 155.375 491.238 154.822C491.238 154.26 491.117 153.758 490.874 153.317C490.631 152.876 490.296 152.53 489.868 152.278C489.446 152.026 488.96 151.898 488.411 151.894C487.993 151.894 487.572 151.966 487.149 152.11C486.727 152.253 486.385 152.442 486.124 152.676L484.214 152.393L484.99 145.43H492.588V147.218H486.724L486.286 151.084H486.367C486.637 150.823 486.994 150.605 487.439 150.43C487.889 150.254 488.371 150.166 488.883 150.166C489.725 150.166 490.473 150.367 491.13 150.767C491.791 151.167 492.311 151.714 492.689 152.406C493.071 153.095 493.26 153.886 493.256 154.781C493.26 155.677 493.058 156.475 492.648 157.177C492.243 157.878 491.681 158.432 490.961 158.836C490.246 159.237 489.425 159.437 488.499 159.437ZM496.575 159.376C496.206 159.376 495.889 159.246 495.624 158.985C495.358 158.72 495.226 158.4 495.226 158.027C495.226 157.658 495.358 157.343 495.624 157.082C495.889 156.817 496.206 156.684 496.575 156.684C496.944 156.684 497.261 156.817 497.526 157.082C497.792 157.343 497.925 157.658 497.925 158.027C497.925 158.274 497.862 158.501 497.736 158.708C497.614 158.911 497.452 159.073 497.25 159.194C497.047 159.316 496.823 159.376 496.575 159.376ZM504.923 159.437C504.307 159.428 503.7 159.316 503.101 159.1C502.508 158.884 501.968 158.524 501.482 158.02C500.996 157.516 500.607 156.839 500.315 155.989C500.027 155.139 499.883 154.077 499.883 152.805C499.883 151.599 500.002 150.528 500.241 149.593C500.483 148.657 500.832 147.868 501.286 147.225C501.741 146.577 502.289 146.084 502.933 145.747C503.576 145.41 504.298 145.241 505.098 145.241C505.922 145.241 506.653 145.403 507.291 145.727C507.93 146.051 508.447 146.498 508.843 147.069C509.243 147.641 509.498 148.291 509.606 149.019H507.548C507.408 148.444 507.132 147.974 506.718 147.609C506.304 147.245 505.764 147.063 505.098 147.063C504.086 147.063 503.297 147.503 502.73 148.385C502.168 149.267 501.885 150.492 501.88 152.062H501.981C502.22 151.671 502.512 151.338 502.858 151.064C503.209 150.785 503.601 150.571 504.032 150.423C504.469 150.27 504.928 150.193 505.409 150.193C506.21 150.193 506.934 150.389 507.581 150.78C508.234 151.167 508.753 151.702 509.14 152.386C509.527 153.07 509.72 153.853 509.72 154.734C509.72 155.616 509.52 156.414 509.12 157.129C508.724 157.845 508.166 158.411 507.446 158.83C506.727 159.244 505.886 159.446 504.923 159.437ZM504.916 157.683C505.447 157.683 505.922 157.552 506.34 157.291C506.758 157.03 507.089 156.68 507.332 156.239C507.575 155.798 507.696 155.305 507.696 154.761C507.696 154.23 507.577 153.747 507.339 153.311C507.105 152.874 506.781 152.528 506.367 152.271C505.958 152.015 505.49 151.887 504.964 151.887C504.563 151.887 504.192 151.963 503.85 152.116C503.513 152.269 503.216 152.481 502.96 152.751C502.703 153.02 502.501 153.331 502.352 153.682C502.208 154.028 502.136 154.395 502.136 154.781C502.136 155.299 502.256 155.778 502.494 156.219C502.737 156.659 503.068 157.015 503.486 157.285C503.909 157.55 504.386 157.683 504.916 157.683Z" fill="white"/>
</g>
<path opacity="0.5" d="M555.399 359.955V358.805L559.72 354.074C560.227 353.52 560.645 353.039 560.973 352.63C561.301 352.216 561.544 351.829 561.701 351.466C561.863 351.1 561.944 350.716 561.944 350.316C561.944 349.856 561.833 349.457 561.612 349.121C561.395 348.784 561.096 348.524 560.717 348.341C560.338 348.157 559.912 348.066 559.439 348.066C558.936 348.066 558.497 348.17 558.122 348.379C557.751 348.584 557.463 348.871 557.259 349.242C557.059 349.613 556.958 350.047 556.958 350.546H555.45C555.45 349.779 555.627 349.106 555.98 348.526C556.334 347.947 556.816 347.495 557.425 347.171C558.039 346.847 558.727 346.685 559.49 346.685C560.257 346.685 560.936 346.847 561.529 347.171C562.121 347.495 562.586 347.932 562.922 348.481C563.259 349.031 563.427 349.643 563.427 350.316C563.427 350.797 563.34 351.268 563.165 351.729C562.995 352.184 562.696 352.694 562.27 353.256C561.848 353.814 561.262 354.496 560.512 355.302L557.572 358.447V358.549H563.657V359.955H555.399ZM570.567 360.134C569.604 360.134 568.784 359.872 568.106 359.348C567.429 358.819 566.911 358.055 566.553 357.053C566.195 356.047 566.016 354.833 566.016 353.41C566.016 351.995 566.195 350.787 566.553 349.785C566.915 348.78 567.435 348.013 568.113 347.484C568.794 346.952 569.613 346.685 570.567 346.685C571.522 346.685 572.338 346.952 573.015 347.484C573.697 348.013 574.217 348.78 574.575 349.785C574.937 350.787 575.118 351.995 575.118 353.41C575.118 354.833 574.939 356.047 574.581 357.053C574.223 358.055 573.706 358.819 573.028 359.348C572.35 359.872 571.53 360.134 570.567 360.134ZM570.567 358.728C571.522 358.728 572.263 358.268 572.792 357.347C573.32 356.427 573.584 355.114 573.584 353.41C573.584 352.276 573.463 351.311 573.22 350.514C572.981 349.717 572.636 349.11 572.184 348.692C571.737 348.275 571.198 348.066 570.567 348.066C569.621 348.066 568.882 348.532 568.349 349.466C567.816 350.395 567.55 351.709 567.55 353.41C567.55 354.543 567.669 355.506 567.908 356.299C568.147 357.091 568.49 357.694 568.937 358.108C569.389 358.521 569.932 358.728 570.567 358.728ZM577.547 359.955V358.805L581.868 354.074C582.375 353.52 582.793 353.039 583.121 352.63C583.449 352.216 583.692 351.829 583.85 351.466C584.012 351.1 584.093 350.716 584.093 350.316C584.093 349.856 583.982 349.457 583.76 349.121C583.543 348.784 583.245 348.524 582.865 348.341C582.486 348.157 582.06 348.066 581.587 348.066C581.084 348.066 580.645 348.17 580.27 348.379C579.899 348.584 579.612 348.871 579.407 349.242C579.207 349.613 579.107 350.047 579.107 350.546H577.598C577.598 349.779 577.775 349.106 578.129 348.526C578.483 347.947 578.964 347.495 579.574 347.171C580.187 346.847 580.875 346.685 581.638 346.685C582.405 346.685 583.085 346.847 583.677 347.171C584.27 347.495 584.734 347.932 585.071 348.481C585.407 349.031 585.576 349.643 585.576 350.316C585.576 350.797 585.488 351.268 585.314 351.729C585.143 352.184 584.845 352.694 584.419 353.256C583.997 353.814 583.411 354.496 582.661 355.302L579.721 358.447V358.549H585.806V359.955H577.547ZM593.048 346.864V359.955H591.463V348.526H591.386L588.19 350.648V349.037L591.463 346.864H593.048Z" fill="white"/>
<g filter="url(#filter12_b_1274_3653)">
<rect x="552.001" y="191.087" width="45.4987" height="140.755" rx="6" fill="#64B9E0" fill-opacity="0.45"/>
<rect x="552.501" y="191.587" width="44.4987" height="139.755" rx="5.5" stroke="url(#paint6_linear_1274_3653)"/>
</g>
<g filter="url(#filter13_d_1274_3653)">
<path d="M562.244 175.7V158.428H563.35V175.7H562.244ZM565.705 163.785C565.633 163.146 565.336 162.651 564.814 162.301C564.293 161.945 563.636 161.768 562.844 161.768C562.278 161.768 561.787 161.857 561.373 162.037C560.96 162.213 560.638 162.456 560.409 162.766C560.184 163.072 560.071 163.421 560.071 163.812C560.071 164.14 560.148 164.424 560.301 164.662C560.458 164.9 560.663 165.101 560.915 165.263C561.171 165.42 561.445 165.553 561.738 165.661C562.03 165.764 562.311 165.85 562.581 165.917L563.931 166.268C564.371 166.376 564.823 166.522 565.287 166.706C565.75 166.891 566.18 167.134 566.575 167.435C566.971 167.737 567.291 168.11 567.534 168.555C567.781 169 567.905 169.534 567.905 170.154C567.905 170.937 567.702 171.632 567.297 172.239C566.897 172.846 566.315 173.325 565.55 173.676C564.79 174.027 563.87 174.203 562.79 174.203C561.756 174.203 560.861 174.038 560.105 173.71C559.349 173.382 558.758 172.916 558.33 172.313C557.903 171.706 557.667 170.986 557.622 170.154H559.714C559.754 170.654 559.916 171.07 560.199 171.402C560.487 171.731 560.854 171.976 561.299 172.138C561.749 172.295 562.242 172.374 562.777 172.374C563.366 172.374 563.89 172.282 564.349 172.097C564.812 171.909 565.177 171.648 565.442 171.315C565.707 170.977 565.84 170.584 565.84 170.134C565.84 169.725 565.723 169.39 565.489 169.129C565.26 168.868 564.947 168.652 564.551 168.481C564.16 168.31 563.717 168.159 563.222 168.029L561.589 167.584C560.483 167.282 559.606 166.839 558.958 166.254C558.315 165.67 557.993 164.896 557.993 163.933C557.993 163.137 558.209 162.442 558.641 161.848C559.073 161.255 559.657 160.794 560.395 160.465C561.133 160.132 561.965 159.966 562.892 159.966C563.827 159.966 564.653 160.13 565.368 160.459C566.087 160.787 566.654 161.239 567.068 161.815C567.482 162.386 567.698 163.043 567.716 163.785H565.705ZM574.768 174.162C573.923 174.162 573.162 174 572.488 173.676C571.817 173.348 571.282 172.898 570.882 172.327C570.482 171.756 570.268 171.103 570.241 170.37H572.265C572.314 170.964 572.578 171.452 573.054 171.834C573.531 172.217 574.102 172.408 574.768 172.408C575.299 172.408 575.769 172.286 576.178 172.043C576.592 171.796 576.916 171.456 577.15 171.025C577.388 170.593 577.508 170.1 577.508 169.547C577.508 168.985 577.386 168.483 577.143 168.042C576.9 167.602 576.565 167.255 576.138 167.003C575.715 166.751 575.229 166.623 574.681 166.619C574.262 166.619 573.842 166.691 573.419 166.835C572.996 166.979 572.654 167.168 572.393 167.401L570.484 167.118L571.26 160.155H578.857V161.943H572.994L572.555 165.809H572.636C572.906 165.548 573.264 165.33 573.709 165.155C574.159 164.979 574.64 164.891 575.153 164.891C575.994 164.891 576.743 165.092 577.4 165.492C578.061 165.892 578.58 166.439 578.958 167.132C579.341 167.82 579.529 168.611 579.525 169.507C579.529 170.402 579.327 171.2 578.918 171.902C578.513 172.603 577.951 173.157 577.231 173.562C576.516 173.962 575.695 174.162 574.768 174.162ZM582.845 174.101C582.476 174.101 582.159 173.971 581.893 173.71C581.628 173.445 581.495 173.125 581.495 172.752C581.495 172.383 581.628 172.068 581.893 171.807C582.159 171.542 582.476 171.409 582.845 171.409C583.213 171.409 583.531 171.542 583.796 171.807C584.061 172.068 584.194 172.383 584.194 172.752C584.194 172.999 584.131 173.226 584.005 173.433C583.884 173.636 583.722 173.798 583.519 173.919C583.317 174.041 583.092 174.101 582.845 174.101ZM590.442 160.155V173.973H588.35V162.247H588.269L584.963 164.406V162.409L588.411 160.155H590.442Z" fill="white"/>
</g>
<path opacity="0.5" d="M637.301 359.956V358.805L641.622 354.075C642.13 353.521 642.547 353.039 642.875 352.63C643.203 352.217 643.446 351.829 643.604 351.467C643.766 351.1 643.847 350.717 643.847 350.316C643.847 349.856 643.736 349.458 643.514 349.121C643.297 348.784 642.999 348.524 642.62 348.341C642.24 348.158 641.814 348.066 641.341 348.066C640.838 348.066 640.399 348.171 640.024 348.38C639.654 348.584 639.366 348.872 639.161 349.242C638.961 349.613 638.861 350.048 638.861 350.546H637.353C637.353 349.779 637.529 349.106 637.883 348.527C638.237 347.947 638.718 347.495 639.328 347.171C639.941 346.848 640.63 346.686 641.392 346.686C642.159 346.686 642.839 346.848 643.431 347.171C644.024 347.495 644.488 347.932 644.825 348.482C645.161 349.032 645.33 349.643 645.33 350.316C645.33 350.798 645.242 351.269 645.068 351.729C644.897 352.185 644.599 352.694 644.173 353.257C643.751 353.815 643.165 354.497 642.415 355.302L639.475 358.447V358.549H645.56V359.956H637.301ZM652.47 360.135C651.507 360.135 650.686 359.872 650.009 359.348C649.331 358.82 648.813 358.055 648.456 357.054C648.098 356.048 647.919 354.833 647.919 353.41C647.919 351.995 648.098 350.787 648.456 349.786C648.818 348.78 649.338 348.013 650.015 347.485C650.697 346.952 651.515 346.686 652.47 346.686C653.424 346.686 654.24 346.952 654.918 347.485C655.6 348.013 656.12 348.78 656.478 349.786C656.84 350.787 657.021 351.995 657.021 353.41C657.021 354.833 656.842 356.048 656.484 357.054C656.126 358.055 655.608 358.82 654.931 359.348C654.253 359.872 653.433 360.135 652.47 360.135ZM652.47 358.728C653.424 358.728 654.166 358.268 654.694 357.348C655.223 356.427 655.487 355.115 655.487 353.41C655.487 352.277 655.365 351.311 655.122 350.515C654.884 349.718 654.539 349.11 654.087 348.693C653.639 348.275 653.1 348.066 652.47 348.066C651.524 348.066 650.784 348.533 650.252 349.466C649.719 350.395 649.453 351.71 649.453 353.41C649.453 354.544 649.572 355.507 649.811 356.299C650.049 357.092 650.392 357.695 650.84 358.108C651.291 358.522 651.835 358.728 652.47 358.728ZM659.45 359.956V358.805L663.771 354.075C664.278 353.521 664.696 353.039 665.024 352.63C665.352 352.217 665.595 351.829 665.752 351.467C665.914 351.1 665.995 350.717 665.995 350.316C665.995 349.856 665.884 349.458 665.663 349.121C665.446 348.784 665.147 348.524 664.768 348.341C664.389 348.158 663.963 348.066 663.49 348.066C662.987 348.066 662.548 348.171 662.173 348.38C661.802 348.584 661.514 348.872 661.31 349.242C661.11 349.613 661.009 350.048 661.009 350.546H659.501C659.501 349.779 659.678 349.106 660.032 348.527C660.385 347.947 660.867 347.495 661.476 347.171C662.09 346.848 662.778 346.686 663.541 346.686C664.308 346.686 664.987 346.848 665.58 347.171C666.172 347.495 666.637 347.932 666.973 348.482C667.31 349.032 667.478 349.643 667.478 350.316C667.478 350.798 667.391 351.269 667.216 351.729C667.046 352.185 666.747 352.694 666.321 353.257C665.899 353.815 665.313 354.497 664.563 355.302L661.623 358.447V358.549H667.708V359.956H659.45ZM670.348 359.956V358.805L674.669 354.075C675.176 353.521 675.594 353.039 675.922 352.63C676.25 352.217 676.493 351.829 676.651 351.467C676.813 351.1 676.894 350.717 676.894 350.316C676.894 349.856 676.783 349.458 676.561 349.121C676.344 348.784 676.046 348.524 675.666 348.341C675.287 348.158 674.861 348.066 674.388 348.066C673.885 348.066 673.446 348.171 673.071 348.38C672.701 348.584 672.413 348.872 672.208 349.242C672.008 349.613 671.908 350.048 671.908 350.546H670.399C670.399 349.779 670.576 349.106 670.93 348.527C671.284 347.947 671.765 347.495 672.375 347.171C672.988 346.848 673.676 346.686 674.439 346.686C675.206 346.686 675.886 346.848 676.478 347.171C677.071 347.495 677.535 347.932 677.872 348.482C678.208 349.032 678.377 349.643 678.377 350.316C678.377 350.798 678.289 351.269 678.115 351.729C677.944 352.185 677.646 352.694 677.22 353.257C676.798 353.815 676.212 354.497 675.462 355.302L672.522 358.447V358.549H678.607V359.956H670.348Z" fill="white"/>
<g filter="url(#filter14_b_1274_3653)">
<rect x="635.686" y="143.675" width="45.4987" height="188.168" rx="6" fill="#64B9E0" fill-opacity="0.45"/>
<rect x="636.186" y="144.175" width="44.4987" height="187.168" rx="5.5" stroke="url(#paint7_linear_1274_3653)"/>
</g>
<g filter="url(#filter15_d_1274_3653)">
<path d="M643.235 131.782V114.51H644.341V131.782H643.235ZM646.696 119.867C646.624 119.228 646.327 118.733 645.805 118.383C645.284 118.027 644.627 117.85 643.835 117.85C643.268 117.85 642.778 117.94 642.364 118.119C641.95 118.295 641.629 118.538 641.399 118.848C641.174 119.154 641.062 119.503 641.062 119.894C641.062 120.222 641.139 120.506 641.291 120.744C641.449 120.982 641.654 121.183 641.905 121.345C642.162 121.502 642.436 121.635 642.729 121.743C643.021 121.846 643.302 121.932 643.572 121.999L644.921 122.35C645.362 122.458 645.814 122.604 646.278 122.788C646.741 122.973 647.17 123.216 647.566 123.517C647.962 123.819 648.281 124.192 648.524 124.637C648.772 125.083 648.895 125.616 648.895 126.236C648.895 127.019 648.693 127.714 648.288 128.321C647.888 128.928 647.305 129.407 646.541 129.758C645.781 130.109 644.861 130.285 643.781 130.285C642.747 130.285 641.851 130.12 641.096 129.792C640.34 129.464 639.749 128.998 639.321 128.395C638.894 127.788 638.658 127.068 638.613 126.236H640.704C640.745 126.736 640.907 127.152 641.19 127.485C641.478 127.813 641.845 128.058 642.29 128.22C642.74 128.377 643.232 128.456 643.768 128.456C644.357 128.456 644.881 128.364 645.34 128.179C645.803 127.991 646.167 127.73 646.433 127.397C646.698 127.059 646.831 126.666 646.831 126.216C646.831 125.807 646.714 125.472 646.48 125.211C646.251 124.95 645.938 124.734 645.542 124.563C645.151 124.392 644.708 124.241 644.213 124.111L642.58 123.666C641.474 123.364 640.596 122.921 639.949 122.336C639.306 121.752 638.984 120.978 638.984 120.015C638.984 119.219 639.2 118.524 639.632 117.931C640.063 117.337 640.648 116.876 641.386 116.547C642.124 116.215 642.956 116.048 643.882 116.048C644.818 116.048 645.643 116.212 646.359 116.541C647.078 116.869 647.645 117.321 648.059 117.897C648.473 118.468 648.689 119.125 648.707 119.867H646.696ZM656.022 130.244C655.406 130.235 654.799 130.123 654.2 129.907C653.607 129.691 653.067 129.331 652.581 128.827C652.095 128.323 651.706 127.646 651.414 126.796C651.126 125.946 650.982 124.885 650.982 123.612C650.982 122.406 651.101 121.336 651.34 120.4C651.583 119.464 651.931 118.675 652.385 118.032C652.84 117.384 653.389 116.891 654.032 116.554C654.675 116.217 655.397 116.048 656.198 116.048C657.021 116.048 657.752 116.21 658.39 116.534C659.029 116.858 659.546 117.305 659.942 117.877C660.343 118.448 660.597 119.098 660.705 119.826H658.647C658.507 119.251 658.231 118.781 657.817 118.416C657.403 118.052 656.863 117.87 656.198 117.87C655.186 117.87 654.396 118.311 653.829 119.192C653.267 120.074 652.984 121.3 652.979 122.869H653.08C653.319 122.478 653.611 122.145 653.958 121.871C654.308 121.592 654.7 121.378 655.132 121.23C655.568 121.077 656.027 121 656.508 121C657.309 121 658.033 121.196 658.681 121.587C659.333 121.974 659.852 122.51 660.239 123.193C660.626 123.877 660.819 124.66 660.819 125.541C660.819 126.423 660.619 127.221 660.219 127.937C659.823 128.652 659.265 129.219 658.546 129.637C657.826 130.051 656.985 130.253 656.022 130.244ZM656.015 128.49C656.546 128.49 657.021 128.359 657.439 128.098C657.857 127.838 658.188 127.487 658.431 127.046C658.674 126.605 658.795 126.113 658.795 125.568C658.795 125.038 658.676 124.554 658.438 124.118C658.204 123.681 657.88 123.335 657.466 123.079C657.057 122.822 656.589 122.694 656.063 122.694C655.662 122.694 655.291 122.77 654.949 122.923C654.612 123.076 654.315 123.288 654.059 123.558C653.802 123.828 653.6 124.138 653.452 124.489C653.308 124.835 653.236 125.202 653.236 125.589C653.236 126.106 653.355 126.585 653.593 127.026C653.836 127.467 654.167 127.822 654.585 128.092C655.008 128.357 655.485 128.49 656.015 128.49ZM664.002 130.183C663.634 130.183 663.316 130.053 663.051 129.792C662.786 129.527 662.653 129.207 662.653 128.834C662.653 128.465 662.786 128.15 663.051 127.889C663.316 127.624 663.634 127.491 664.002 127.491C664.371 127.491 664.688 127.624 664.954 127.889C665.219 128.15 665.352 128.465 665.352 128.834C665.352 129.081 665.289 129.308 665.163 129.515C665.041 129.718 664.88 129.88 664.677 130.001C664.475 130.123 664.25 130.183 664.002 130.183ZM672.232 130.244C671.265 130.244 670.41 130.078 669.668 129.745C668.931 129.412 668.353 128.953 667.934 128.368C667.516 127.784 667.309 127.118 667.314 126.371C667.309 125.786 667.428 125.249 667.671 124.759C667.919 124.264 668.254 123.852 668.676 123.524C669.099 123.191 669.572 122.98 670.093 122.89V122.809C669.405 122.642 668.854 122.273 668.44 121.702C668.026 121.131 667.822 120.474 667.826 119.732C667.822 119.026 668.009 118.396 668.386 117.843C668.769 117.285 669.293 116.846 669.958 116.527C670.624 116.208 671.382 116.048 672.232 116.048C673.073 116.048 673.825 116.21 674.486 116.534C675.151 116.853 675.676 117.292 676.058 117.85C676.44 118.403 676.634 119.03 676.638 119.732C676.634 120.474 676.422 121.131 676.004 121.702C675.586 122.273 675.041 122.642 674.371 122.809V122.89C674.888 122.98 675.354 123.191 675.768 123.524C676.186 123.852 676.519 124.264 676.766 124.759C677.018 125.249 677.146 125.786 677.151 126.371C677.146 127.118 676.935 127.784 676.517 128.368C676.098 128.953 675.518 129.412 674.776 129.745C674.038 130.078 673.19 130.244 672.232 130.244ZM672.232 128.537C672.803 128.537 673.298 128.443 673.717 128.254C674.135 128.06 674.459 127.793 674.688 127.451C674.918 127.104 675.035 126.7 675.039 126.236C675.035 125.755 674.909 125.33 674.661 124.961C674.418 124.592 674.088 124.302 673.669 124.091C673.251 123.879 672.772 123.774 672.232 123.774C671.688 123.774 671.204 123.879 670.782 124.091C670.359 124.302 670.026 124.592 669.783 124.961C669.54 125.33 669.421 125.755 669.425 126.236C669.421 126.7 669.531 127.104 669.756 127.451C669.985 127.793 670.312 128.06 670.734 128.254C671.157 128.443 671.656 128.537 672.232 128.537ZM672.232 122.107C672.691 122.107 673.098 122.015 673.453 121.83C673.809 121.646 674.088 121.39 674.29 121.061C674.497 120.733 674.603 120.348 674.607 119.907C674.603 119.476 674.499 119.098 674.297 118.774C674.099 118.45 673.822 118.2 673.467 118.025C673.112 117.845 672.7 117.755 672.232 117.755C671.755 117.755 671.337 117.845 670.977 118.025C670.622 118.2 670.345 118.45 670.147 118.774C669.949 119.098 669.853 119.476 669.857 119.907C669.853 120.348 669.952 120.733 670.154 121.061C670.357 121.39 670.635 121.646 670.991 121.83C671.351 122.015 671.764 122.107 672.232 122.107Z" fill="white"/>
</g>
<defs>
<filter id="filter0_b_1274_3653" x="50.9561" y="155.715" width="55.499" height="181.129" filterUnits="userSpaceOnUse" color-interpolation-filters="sRGB">
<feFlood flood-opacity="0" result="BackgroundImageFix"/>
<feGaussianBlur in="BackgroundImageFix" stdDeviation="2.5"/>
<feComposite in2="SourceAlpha" operator="in" result="effect1_backgroundBlur_1274_3653"/>
<feBlend mode="normal" in="SourceGraphic" in2="effect1_backgroundBlur_1274_3653" result="shape"/>
</filter>
<filter id="filter1_d_1274_3653" x="36.417" y="106.055" width="82.5088" height="61.2725" filterUnits="userSpaceOnUse" color-interpolation-filters="sRGB">
<feFlood flood-opacity="0" result="BackgroundImageFix"/>
<feColorMatrix in="SourceAlpha" type="matrix" values="0 0 0 0 0 0 0 0 0 0 0 0 0 0 0 0 0 0 127 0" result="hardAlpha"/>
<feOffset/>
<feGaussianBlur stdDeviation="11"/>
<feComposite in2="hardAlpha" operator="out"/>
<feColorMatrix type="matrix" values="0 0 0 0 1 0 0 0 0 1 0 0 0 0 1 0 0 0 0.21 0"/>
<feBlend mode="normal" in2="BackgroundImageFix" result="effect1_dropShadow_1274_3653"/>
<feBlend mode="normal" in="SourceGraphic" in2="effect1_dropShadow_1274_3653" result="shape"/>
</filter>
<filter id="filter2_b_1274_3653" x="132.642" y="155.715" width="55.499" height="181.129" filterUnits="userSpaceOnUse" color-interpolation-filters="sRGB">
<feFlood flood-opacity="0" result="BackgroundImageFix"/>
<feGaussianBlur in="BackgroundImageFix" stdDeviation="2.5"/>
<feComposite in2="SourceAlpha" operator="in" result="effect1_backgroundBlur_1274_3653"/>
<feBlend mode="normal" in="SourceGraphic" in2="effect1_backgroundBlur_1274_3653" result="shape"/>
</filter>
<filter id="filter3_d_1274_3653" x="119.114" y="106.005" width="82.5098" height="61.2725" filterUnits="userSpaceOnUse" color-interpolation-filters="sRGB">
<feFlood flood-opacity="0" result="BackgroundImageFix"/>
<feColorMatrix in="SourceAlpha" type="matrix" values="0 0 0 0 0 0 0 0 0 0 0 0 0 0 0 0 0 0 127 0" result="hardAlpha"/>
<feOffset/>
<feGaussianBlur stdDeviation="11"/>
<feComposite in2="hardAlpha" operator="out"/>
<feColorMatrix type="matrix" values="0 0 0 0 1 0 0 0 0 1 0 0 0 0 1 0 0 0 0.21 0"/>
<feBlend mode="normal" in2="BackgroundImageFix" result="effect1_dropShadow_1274_3653"/>
<feBlend mode="normal" in="SourceGraphic" in2="effect1_dropShadow_1274_3653" result="shape"/>
</filter>
<filter id="filter4_b_1274_3653" x="215.315" y="129.044" width="55.499" height="207.798" filterUnits="userSpaceOnUse" color-interpolation-filters="sRGB">
<feFlood flood-opacity="0" result="BackgroundImageFix"/>
<feGaussianBlur in="BackgroundImageFix" stdDeviation="2.5"/>
<feComposite in2="SourceAlpha" operator="in" result="effect1_backgroundBlur_1274_3653"/>
<feBlend mode="normal" in="SourceGraphic" in2="effect1_backgroundBlur_1274_3653" result="shape"/>
</filter>
<filter id="filter5_d_1274_3653" x="205.397" y="80.5439" width="74.167" height="61.2725" filterUnits="userSpaceOnUse" color-interpolation-filters="sRGB">
<feFlood flood-opacity="0" result="BackgroundImageFix"/>
<feColorMatrix in="SourceAlpha" type="matrix" values="0 0 0 0 0 0 0 0 0 0 0 0 0 0 0 0 0 0 127 0" result="hardAlpha"/>
<feOffset/>
<feGaussianBlur stdDeviation="11"/>
<feComposite in2="hardAlpha" operator="out"/>
<feColorMatrix type="matrix" values="0 0 0 0 1 0 0 0 0 1 0 0 0 0 1 0 0 0 0.21 0"/>
<feBlend mode="normal" in2="BackgroundImageFix" result="effect1_dropShadow_1274_3653"/>
<feBlend mode="normal" in="SourceGraphic" in2="effect1_dropShadow_1274_3653" result="shape"/>
</filter>
<filter id="filter6_b_1274_3653" x="296.011" y="83.1147" width="55.499" height="253.729" filterUnits="userSpaceOnUse" color-interpolation-filters="sRGB">
<feFlood flood-opacity="0" result="BackgroundImageFix"/>
<feGaussianBlur in="BackgroundImageFix" stdDeviation="2.5"/>
<feComposite in2="SourceAlpha" operator="in" result="effect1_backgroundBlur_1274_3653"/>
<feBlend mode="normal" in="SourceGraphic" in2="effect1_backgroundBlur_1274_3653" result="shape"/>
</filter>
<filter id="filter7_d_1274_3653" x="282.517" y="36.3882" width="81.8672" height="61.2725" filterUnits="userSpaceOnUse" color-interpolation-filters="sRGB">
<feFlood flood-opacity="0" result="BackgroundImageFix"/>
<feColorMatrix in="SourceAlpha" type="matrix" values="0 0 0 0 0 0 0 0 0 0 0 0 0 0 0 0 0 0 127 0" result="hardAlpha"/>
<feOffset/>
<feGaussianBlur stdDeviation="11"/>
<feComposite in2="hardAlpha" operator="out"/>
<feColorMatrix type="matrix" values="0 0 0 0 1 0 0 0 0 1 0 0 0 0 1 0 0 0 0.21 0"/>
<feBlend mode="normal" in2="BackgroundImageFix" result="effect1_dropShadow_1274_3653"/>
<feBlend mode="normal" in="SourceGraphic" in2="effect1_dropShadow_1274_3653" result="shape"/>
</filter>
<filter id="filter8_b_1274_3653" x="379.686" y="135.712" width="55.499" height="201.131" filterUnits="userSpaceOnUse" color-interpolation-filters="sRGB">
<feFlood flood-opacity="0" result="BackgroundImageFix"/>
<feGaussianBlur in="BackgroundImageFix" stdDeviation="2.5"/>
<feComposite in2="SourceAlpha" operator="in" result="effect1_backgroundBlur_1274_3653"/>
<feBlend mode="normal" in="SourceGraphic" in2="effect1_backgroundBlur_1274_3653" result="shape"/>
</filter>
<filter id="filter9_d_1274_3653" x="365.639" y="86.0527" width="82.8887" height="61.2725" filterUnits="userSpaceOnUse" color-interpolation-filters="sRGB">
<feFlood flood-opacity="0" result="BackgroundImageFix"/>
<feColorMatrix in="SourceAlpha" type="matrix" values="0 0 0 0 0 0 0 0 0 0 0 0 0 0 0 0 0 0 127 0" result="hardAlpha"/>
<feOffset/>
<feGaussianBlur stdDeviation="11"/>
<feComposite in2="hardAlpha" operator="out"/>
<feColorMatrix type="matrix" values="0 0 0 0 1 0 0 0 0 1 0 0 0 0 1 0 0 0 0.21 0"/>
<feBlend mode="normal" in2="BackgroundImageFix" result="effect1_dropShadow_1274_3653"/>
<feBlend mode="normal" in="SourceGraphic" in2="effect1_dropShadow_1274_3653" result="shape"/>
</filter>
<filter id="filter10_b_1274_3653" x="463.359" y="171.272" width="55.499" height="165.572" filterUnits="userSpaceOnUse" color-interpolation-filters="sRGB">
<feFlood flood-opacity="0" result="BackgroundImageFix"/>
<feGaussianBlur in="BackgroundImageFix" stdDeviation="2.5"/>
<feComposite in2="SourceAlpha" operator="in" result="effect1_backgroundBlur_1274_3653"/>
<feBlend mode="normal" in="SourceGraphic" in2="effect1_backgroundBlur_1274_3653" result="shape"/>
</filter>
<filter id="filter11_d_1274_3653" x="449.353" y="121.703" width="82.3682" height="61.2725" filterUnits="userSpaceOnUse" color-interpolation-filters="sRGB">
<feFlood flood-opacity="0" result="BackgroundImageFix"/>
<feColorMatrix in="SourceAlpha" type="matrix" values="0 0 0 0 0 0 0 0 0 0 0 0 0 0 0 0 0 0 127 0" result="hardAlpha"/>
<feOffset/>
<feGaussianBlur stdDeviation="11"/>
<feComposite in2="hardAlpha" operator="out"/>
<feColorMatrix type="matrix" values="0 0 0 0 1 0 0 0 0 1 0 0 0 0 1 0 0 0 0.21 0"/>
<feBlend mode="normal" in2="BackgroundImageFix" result="effect1_dropShadow_1274_3653"/>
<feBlend mode="normal" in="SourceGraphic" in2="effect1_dropShadow_1274_3653" result="shape"/>
</filter>
<filter id="filter12_b_1274_3653" x="547.001" y="186.087" width="55.499" height="150.755" filterUnits="userSpaceOnUse" color-interpolation-filters="sRGB">
<feFlood flood-opacity="0" result="BackgroundImageFix"/>
<feGaussianBlur in="BackgroundImageFix" stdDeviation="2.5"/>
<feComposite in2="SourceAlpha" operator="in" result="effect1_backgroundBlur_1274_3653"/>
<feBlend mode="normal" in="SourceGraphic" in2="effect1_backgroundBlur_1274_3653" result="shape"/>
</filter>
<filter id="filter13_d_1274_3653" x="535.622" y="136.428" width="76.8193" height="61.2725" filterUnits="userSpaceOnUse" color-interpolation-filters="sRGB">
<feFlood flood-opacity="0" result="BackgroundImageFix"/>
<feColorMatrix in="SourceAlpha" type="matrix" values="0 0 0 0 0 0 0 0 0 0 0 0 0 0 0 0 0 0 127 0" result="hardAlpha"/>
<feOffset/>
<feGaussianBlur stdDeviation="11"/>
<feComposite in2="hardAlpha" operator="out"/>
<feColorMatrix type="matrix" values="0 0 0 0 1 0 0 0 0 1 0 0 0 0 1 0 0 0 0.21 0"/>
<feBlend mode="normal" in2="BackgroundImageFix" result="effect1_dropShadow_1274_3653"/>
<feBlend mode="normal" in="SourceGraphic" in2="effect1_dropShadow_1274_3653" result="shape"/>
</filter>
<filter id="filter14_b_1274_3653" x="630.686" y="138.675" width="55.499" height="198.168" filterUnits="userSpaceOnUse" color-interpolation-filters="sRGB">
<feFlood flood-opacity="0" result="BackgroundImageFix"/>
<feGaussianBlur in="BackgroundImageFix" stdDeviation="2.5"/>
<feComposite in2="SourceAlpha" operator="in" result="effect1_backgroundBlur_1274_3653"/>
<feBlend mode="normal" in="SourceGraphic" in2="effect1_backgroundBlur_1274_3653" result="shape"/>
</filter>
<filter id="filter15_d_1274_3653" x="616.613" y="92.5098" width="82.5381" height="61.2725" filterUnits="userSpaceOnUse" color-interpolation-filters="sRGB">
<feFlood flood-opacity="0" result="BackgroundImageFix"/>
<feColorMatrix in="SourceAlpha" type="matrix" values="0 0 0 0 0 0 0 0 0 0 0 0 0 0 0 0 0 0 127 0" result="hardAlpha"/>
<feOffset/>
<feGaussianBlur stdDeviation="11"/>
<feComposite in2="hardAlpha" operator="out"/>
<feColorMatrix type="matrix" values="0 0 0 0 1 0 0 0 0 1 0 0 0 0 1 0 0 0 0.21 0"/>
<feBlend mode="normal" in2="BackgroundImageFix" result="effect1_dropShadow_1274_3653"/>
<feBlend mode="normal" in="SourceGraphic" in2="effect1_dropShadow_1274_3653" result="shape"/>
</filter>
<linearGradient id="paint0_linear_1274_3653" x1="78.7054" y1="160.715" x2="78.7054" y2="331.844" gradientUnits="userSpaceOnUse">
<stop stop-color="#42BFF8" stop-opacity="0"/>
<stop offset="1" stop-color="#42BFF8"/>
</linearGradient>
<linearGradient id="paint1_linear_1274_3653" x1="160.391" y1="160.715" x2="160.391" y2="331.844" gradientUnits="userSpaceOnUse">
<stop stop-color="#42BFF8" stop-opacity="0"/>
<stop offset="1" stop-color="#42BFF8"/>
</linearGradient>
<linearGradient id="paint2_linear_1274_3653" x1="243.065" y1="134.044" x2="243.065" y2="331.842" gradientUnits="userSpaceOnUse">
<stop stop-color="#42BFF8" stop-opacity="0"/>
<stop offset="1" stop-color="#42BFF8"/>
</linearGradient>
<linearGradient id="paint3_linear_1274_3653" x1="323.76" y1="88.1147" x2="323.76" y2="331.844" gradientUnits="userSpaceOnUse">
<stop stop-color="#42BFF8" stop-opacity="0"/>
<stop offset="1" stop-color="#42BFF8"/>
</linearGradient>
<linearGradient id="paint4_linear_1274_3653" x1="407.435" y1="140.712" x2="407.435" y2="331.843" gradientUnits="userSpaceOnUse">
<stop stop-color="#42BFF8" stop-opacity="0"/>
<stop offset="1" stop-color="#42BFF8"/>
</linearGradient>
<linearGradient id="paint5_linear_1274_3653" x1="491.109" y1="176.272" x2="491.109" y2="331.844" gradientUnits="userSpaceOnUse">
<stop stop-color="#42BFF8" stop-opacity="0"/>
<stop offset="1" stop-color="#42BFF8"/>
</linearGradient>
<linearGradient id="paint6_linear_1274_3653" x1="574.75" y1="191.087" x2="574.75" y2="331.843" gradientUnits="userSpaceOnUse">
<stop stop-color="#42BFF8" stop-opacity="0"/>
<stop offset="1" stop-color="#42BFF8"/>
</linearGradient>
<linearGradient id="paint7_linear_1274_3653" x1="658.435" y1="143.675" x2="658.435" y2="331.843" gradientUnits="userSpaceOnUse">
<stop stop-color="#42BFF8" stop-opacity="0"/>
<stop offset="1" stop-color="#42BFF8"/>
</linearGradient>
</defs>
</svg>
