<svg width="40" height="50" viewBox="0 0 40 50" fill="none" xmlns="http://www.w3.org/2000/svg">
<path fill-rule="evenodd" clip-rule="evenodd" d="M29.0032 8.125H10.9932C8.08708 4.19954 12.0024 -1.29432 16.8659 0.27462L19.1853 1.02285C19.7134 1.19321 20.283 1.19321 20.8111 1.02285L23.1306 0.274621C27.9941 -1.29432 31.9094 4.19955 29.0032 8.125ZM11.2636 11.875H28.7328C32.031 13.7012 34.6077 16.7503 35.7876 20.5259L38.9126 30.5259C41.931 40.1848 34.715 50 24.5954 50H15.4011C5.28148 50 -1.93454 40.1848 1.08388 30.5259L4.20889 20.5259C5.38875 16.7503 7.96544 13.7012 11.2636 11.875ZM21.75 18.75C21.75 17.7835 20.9665 17 20 17C19.0335 17 18.25 17.7835 18.25 18.75V20.9624C15.4876 21.6416 13.25 23.8916 13.25 26.875C13.25 30.4699 16.4989 33 20 33C22.0217 33 23.25 34.3874 23.25 35.625C23.25 36.8626 22.0217 38.25 20 38.25C17.9783 38.25 16.75 36.8626 16.75 35.625C16.75 34.6585 15.9665 33.875 15 33.875C14.0335 33.875 13.25 34.6585 13.25 35.625C13.25 38.6084 15.4876 40.8584 18.25 41.5376V43.75C18.25 44.7165 19.0335 45.5 20 45.5C20.9665 45.5 21.75 44.7165 21.75 43.75V41.5376C24.5124 40.8584 26.75 38.6084 26.75 35.625C26.75 32.0301 23.5011 29.5 20 29.5C17.9783 29.5 16.75 28.1126 16.75 26.875C16.75 25.6374 17.9783 24.25 20 24.25C22.0217 24.25 23.25 25.6374 23.25 26.875C23.25 27.8415 24.0335 28.625 25 28.625C25.9665 28.625 26.75 27.8415 26.75 26.875C26.75 23.8916 24.5124 21.6416 21.75 20.9624V18.75Z" fill="white"/>
</svg>
