<svg width="1744" height="559" viewBox="0 0 1744 559" fill="none" xmlns="http://www.w3.org/2000/svg">
<path d="M1704.24 192.361C1703.82 173.749 1689.28 158.528 1670.7 157.259L71.4936 48.0547C40.9769 45.9708 21.9298 80.4856 39.9615 105.193L347.398 526.454C354.753 536.532 366.803 542.084 379.243 541.125L1675.82 441.236C1694.88 439.767 1709.48 423.647 1709.04 404.528L1704.24 192.361Z" fill="url(#paint0_linear_0_6)"/>
<mask id="mask0_0_6" style="mask-type:alpha" maskUnits="userSpaceOnUse" x="1" y="38" width="1741" height="513">
<path d="M1736.17 188.639C1735.73 169.324 1720.63 153.528 1701.35 152.212L41.1921 38.8976C9.51239 36.7353 -10.2609 72.5533 8.45781 98.1937L327.608 535.356C335.243 545.815 347.752 551.576 360.666 550.581L1706.66 446.911C1726.45 445.386 1741.6 428.657 1741.15 408.817L1736.17 188.639Z" fill="url(#paint1_linear_0_6)"/>
</mask>
<g mask="url(#mask0_0_6)">
<g filter="url(#filter0_d_0_6)">
<path fill-rule="evenodd" clip-rule="evenodd" d="M71.3573 50.05L1670.57 159.255C1688.11 160.452 1701.84 174.828 1702.24 192.406L1707.04 404.574C1707.45 422.63 1693.67 437.855 1675.66 439.242L379.089 539.131C367.34 540.036 355.96 534.793 349.014 525.275L41.5769 104.014C24.547 80.6792 42.536 48.0819 71.3573 50.05ZM1670.7 157.259C1689.28 158.528 1703.82 173.749 1704.24 192.361L1709.04 404.528C1709.48 423.647 1694.88 439.767 1675.82 441.236L379.243 541.125C366.803 542.084 354.753 536.532 347.398 526.454L39.9615 105.193C21.9298 80.4856 40.9769 45.9708 71.4936 48.0547L1670.7 157.259Z" fill="url(#paint2_linear_0_6)" shape-rendering="crispEdges"/>
</g>
</g>
<g filter="url(#filter1_d_0_6)">
<path fill-rule="evenodd" clip-rule="evenodd" d="M71.3573 50.05L1670.57 159.255C1688.11 160.452 1701.84 174.828 1702.24 192.406L1707.04 404.574C1707.45 422.63 1693.67 437.855 1675.66 439.242L379.089 539.131C367.34 540.036 355.96 534.793 349.014 525.275L41.5769 104.014C24.547 80.6792 42.536 48.0819 71.3573 50.05ZM1670.7 157.259C1689.28 158.528 1703.82 173.749 1704.24 192.361L1709.04 404.528C1709.48 423.647 1694.88 439.767 1675.82 441.236L379.243 541.125C366.803 542.084 354.753 536.532 347.398 526.454L39.9615 105.193C21.9298 80.4856 40.9769 45.9708 71.4936 48.0547L1670.7 157.259Z" fill="url(#paint3_linear_0_6)" shape-rendering="crispEdges"/>
</g>
<defs>
<filter id="filter0_d_0_6" x="20.9605" y="35.9646" width="1700.09" height="517.267" filterUnits="userSpaceOnUse" color-interpolation-filters="sRGB">
<feFlood flood-opacity="0" result="BackgroundImageFix"/>
<feColorMatrix in="SourceAlpha" type="matrix" values="0 0 0 0 0 0 0 0 0 0 0 0 0 0 0 0 0 0 127 0" result="hardAlpha"/>
<feOffset/>
<feGaussianBlur stdDeviation="6"/>
<feComposite in2="hardAlpha" operator="out"/>
<feColorMatrix type="matrix" values="0 0 0 0 0.0627451 0 0 0 0 0.603922 0 0 0 0 0.913725 0 0 0 1 0"/>
<feBlend mode="normal" in2="BackgroundImageFix" result="effect1_dropShadow_0_6"/>
<feBlend mode="normal" in="SourceGraphic" in2="effect1_dropShadow_0_6" result="shape"/>
</filter>
<filter id="filter1_d_0_6" x="28.9605" y="47.9646" width="1684.09" height="501.267" filterUnits="userSpaceOnUse" color-interpolation-filters="sRGB">
<feFlood flood-opacity="0" result="BackgroundImageFix"/>
<feColorMatrix in="SourceAlpha" type="matrix" values="0 0 0 0 0 0 0 0 0 0 0 0 0 0 0 0 0 0 127 0" result="hardAlpha"/>
<feOffset dy="4"/>
<feGaussianBlur stdDeviation="2"/>
<feComposite in2="hardAlpha" operator="out"/>
<feColorMatrix type="matrix" values="0 0 0 0 0 0 0 0 0 0 0 0 0 0 0 0 0 0 0.25 0"/>
<feBlend mode="normal" in2="BackgroundImageFix" result="effect1_dropShadow_0_6"/>
<feBlend mode="normal" in="SourceGraphic" in2="effect1_dropShadow_0_6" result="shape"/>
</filter>
<linearGradient id="paint0_linear_0_6" x1="1620.6" y1="440.636" x2="235.465" y2="157.105" gradientUnits="userSpaceOnUse">
<stop stop-color="#233F54" stop-opacity="0.57"/>
<stop offset="1" stop-color="#233F54" stop-opacity="0.64"/>
</linearGradient>
<linearGradient id="paint1_linear_0_6" x1="1332.2" y1="371.613" x2="137.941" y2="150.257" gradientUnits="userSpaceOnUse">
<stop stop-color="#233F54" stop-opacity="0"/>
<stop offset="1" stop-color="#233F54" stop-opacity="0.64"/>
</linearGradient>
<linearGradient id="paint2_linear_0_6" x1="503.621" y1="134.296" x2="1282.32" y2="443.76" gradientUnits="userSpaceOnUse">
<stop stop-color="#07A6FF"/>
<stop offset="1" stop-color="#20AFFF" stop-opacity="0"/>
</linearGradient>
<linearGradient id="paint3_linear_0_6" x1="503.621" y1="134.296" x2="1282.32" y2="443.76" gradientUnits="userSpaceOnUse">
<stop stop-color="#07A6FF"/>
<stop offset="1" stop-color="#20AFFF" stop-opacity="0"/>
</linearGradient>
</defs>
</svg>
