<svg width="30" height="34" viewBox="0 0 30 34" fill="none" xmlns="http://www.w3.org/2000/svg">
<path d="M7.4453 3.97317C3.65904 6.15063 0.501342 7.99887 0.419032 8.06621C0.344205 8.13355 0.216999 8.3281 0.142171 8.49272C0.00748271 8.77707 0 9.18113 0 16.4394C0 20.6521 0.0224481 24.0942 0.0598617 24.0942C0.0897925 24.0942 1.9455 22.1711 4.19032 19.8141C6.7494 17.1353 8.35819 15.504 8.50784 15.4442C8.79967 15.317 9.11394 15.3095 9.40577 15.4142C9.51801 15.4591 10.1391 16.0353 10.7751 16.6938L11.9349 17.8985L14.6511 14.5687C16.4096 12.4137 17.4422 11.2089 17.5694 11.1641C18.0034 10.9919 18.1306 10.9845 18.4524 11.1117C18.7592 11.2239 19.2156 11.7627 24.0569 17.659C26.9602 21.1984 29.3696 24.1091 29.407 24.1316C29.4594 24.1615 29.4819 21.5276 29.4819 16.4843C29.4819 9.18113 29.4744 8.77707 29.3397 8.49272C29.2649 8.3281 29.1377 8.13355 29.0554 8.06621C28.973 7.99138 25.8153 6.15063 22.0366 3.96568C15.1824 0.00733185 15.16 -0.000150681 14.7409 -0.000150681C14.3219 -0.000150681 14.3069 0.00733185 7.4453 3.97317ZM11.0819 7.48256C12.4063 7.73697 13.5287 8.807 13.8804 10.1389C14.5239 12.6307 12.107 15.0476 9.61528 14.4041C7.84188 13.9401 6.66709 12.2116 6.94395 10.4532C7.25074 8.48524 9.15135 7.11591 11.0819 7.48256Z" fill="#42BFF8"/>
<path d="M15.8041 16.7537C14.5619 18.2727 13.5443 19.5373 13.5443 19.5672C13.5443 19.5897 14.2776 20.3828 15.1755 21.3256C16.9714 23.2263 17.136 23.4657 16.9938 23.997C16.8816 24.416 16.6646 24.6629 16.2755 24.8051C15.7816 24.9997 15.4748 24.9099 14.9884 24.4459C14.7714 24.2364 13.3348 22.7399 11.8008 21.1236C10.2743 19.5073 9.00228 18.1829 8.97235 18.1829C8.91249 18.1829 1.39985 26.0398 1.42978 26.0772C1.44474 26.0846 4.35552 27.7683 7.88735 29.811C14.3 33.5075 14.3225 33.5225 14.7415 33.5225C15.1605 33.5225 15.1905 33.5075 21.5134 29.8559C25.0003 27.8431 27.8886 26.167 27.926 26.1295C27.9635 26.0921 25.9581 23.5854 23.1521 20.1583C20.4957 16.9108 18.2584 14.1946 18.191 14.1198C18.0713 14.0001 17.9366 14.1497 15.8041 16.7537Z" fill="#42BFF8"/>
</svg>
