<svg width="33" height="29" viewBox="0 0 33 29" fill="none" xmlns="http://www.w3.org/2000/svg">
<path d="M28.8399 1.01849C28.433 1.08773 27.951 1.30804 27.6442 1.55352C27.4752 1.692 15.2179 13.45 12.789 15.8041L12.3633 16.2195L12.789 16.3643C13.7593 16.679 14.5731 17.2077 15.3243 17.9819C16.0067 18.6995 16.4261 19.373 16.8768 20.4808C16.9144 20.5815 16.9707 20.6508 16.9958 20.6382C17.0458 20.6193 30.3235 6.66458 31.2125 5.70154C31.4441 5.44976 31.6945 5.09727 31.8072 4.85808C31.9887 4.46783 32.0012 4.39859 32.0012 3.7188C32.0012 3.039 31.9887 2.96976 31.8072 2.57951C31.2626 1.43393 30.0731 0.804483 28.8399 1.01849Z" fill="#42BFF8"/>
<path d="M9.81366 17.9509C9.63211 17.9824 9.21895 18.0957 8.90594 18.2027C7.42856 18.6999 6.5584 19.4552 5.33142 21.3058C4.56143 22.4703 4.04184 23.0682 3.39078 23.5529C2.82111 23.9683 1.70682 24.5097 0.792839 24.8181C-0.0021949 25.0824 -0.0272353 25.0887 0.0103253 25.2461C0.160568 25.8378 1.20601 27.0085 2.06364 27.5436C3.0277 28.1352 4.30476 28.5947 5.73207 28.8465C6.63978 29.0102 8.21733 29.0227 9.15009 28.8717C11.9421 28.4311 13.9453 27.1722 14.8969 25.2713C15.285 24.5097 15.3914 24.0565 15.4227 23.0745C15.454 22.3066 15.4352 22.1115 15.3163 21.6268C14.7529 19.3105 12.9688 17.8628 10.7339 17.8879C10.4146 17.8942 10.0015 17.9194 9.81366 17.9509Z" fill="#42BFF8"/>
</svg>
