<svg width="791" height="503" viewBox="0 0 791 503" fill="none" xmlns="http://www.w3.org/2000/svg">
<path opacity="0.65" d="M0 167C0 166.448 0.447715 166 1 166H790C790.552 166 791 166.448 791 167C791 167.552 790.552 168 790 168H0.999994C0.447709 168 0 167.552 0 167Z" fill="url(#paint0_linear_1274_3458)"/>
<g filter="url(#filter0_d_1274_3458)">
<path d="M277.8 424.2H270.3V421.72H277.8V424.2ZM293.778 417.28L291.158 420.68C292.131 420.96 292.904 421.453 293.478 422.16C294.064 422.867 294.358 423.707 294.358 424.68C294.358 426.12 293.871 427.247 292.898 428.06C291.951 428.873 290.771 429.28 289.358 429.28C288.251 429.28 287.271 429.027 286.418 428.52C285.564 428 284.944 427.267 284.558 426.32L286.918 424.96C287.251 426.04 288.064 426.58 289.358 426.58C290.064 426.58 290.611 426.413 290.998 426.08C291.398 425.733 291.598 425.267 291.598 424.68C291.598 424.107 291.398 423.647 290.998 423.3C290.611 422.953 290.064 422.78 289.358 422.78H288.758L287.698 421.18L290.458 417.58H284.978V415H293.778V417.28ZM304.285 417.28L301.665 420.68C302.639 420.96 303.412 421.453 303.985 422.16C304.572 422.867 304.865 423.707 304.865 424.68C304.865 426.12 304.379 427.247 303.405 428.06C302.459 428.873 301.279 429.28 299.865 429.28C298.759 429.28 297.779 429.027 296.925 428.52C296.072 428 295.452 427.267 295.065 426.32L297.425 424.96C297.759 426.04 298.572 426.58 299.865 426.58C300.572 426.58 301.119 426.413 301.505 426.08C301.905 425.733 302.105 425.267 302.105 424.68C302.105 424.107 301.905 423.647 301.505 423.3C301.119 422.953 300.572 422.78 299.865 422.78H299.265L298.205 421.18L300.965 417.58H295.485V415H304.285V417.28ZM306.893 426.24H309.693L308.193 431.8H306.093L306.893 426.24ZM316.374 429.28C314.628 429.28 313.254 428.62 312.254 427.3C311.268 425.953 310.774 424.187 310.774 422C310.774 419.813 311.268 418.053 312.254 416.72C313.254 415.387 314.628 414.72 316.374 414.72C318.148 414.72 319.521 415.387 320.494 416.72C321.481 418.053 321.974 419.813 321.974 422C321.974 424.187 321.481 425.953 320.494 427.3C319.521 428.62 318.148 429.28 316.374 429.28ZM319.234 422C319.234 420.507 318.988 419.367 318.494 418.58C318.014 417.793 317.308 417.4 316.374 417.4C315.441 417.4 314.734 417.793 314.254 418.58C313.774 419.367 313.534 420.507 313.534 422C313.534 423.493 313.774 424.633 314.254 425.42C314.734 426.193 315.441 426.58 316.374 426.58C317.308 426.58 318.014 426.187 318.494 425.4C318.988 424.613 319.234 423.48 319.234 422ZM332.492 424.06H333.992V426.62H332.492V429H329.712V426.62H323.092V424.06L327.752 415H330.712L326.072 424.06H329.712V420.74H332.492V424.06ZM339.957 420.38C339.304 421.007 338.504 421.32 337.557 421.32C336.597 421.32 335.791 421 335.137 420.36C334.497 419.72 334.177 418.94 334.177 418.02C334.177 417.1 334.497 416.32 335.137 415.68C335.804 415.04 336.611 414.72 337.557 414.72C338.517 414.72 339.317 415.04 339.957 415.68C340.597 416.293 340.917 417.073 340.917 418.02C340.917 418.953 340.597 419.74 339.957 420.38ZM336.797 427.58L335.597 426.88L344.717 416.74L345.937 417.42L336.797 427.58ZM336.637 418.94C336.877 419.18 337.177 419.3 337.537 419.3C337.897 419.3 338.197 419.18 338.437 418.94C338.677 418.687 338.797 418.38 338.797 418.02C338.797 417.66 338.677 417.36 338.437 417.12C338.197 416.88 337.897 416.76 337.537 416.76C337.177 416.76 336.877 416.88 336.637 417.12C336.411 417.36 336.297 417.66 336.297 418.02C336.297 418.38 336.411 418.687 336.637 418.94ZM347.677 425.94C347.677 426.86 347.357 427.64 346.717 428.28C346.077 428.92 345.277 429.24 344.317 429.24C343.357 429.24 342.557 428.92 341.917 428.28C341.277 427.64 340.957 426.86 340.957 425.94C340.957 425.02 341.277 424.24 341.917 423.6C342.557 422.96 343.357 422.64 344.317 422.64C345.277 422.64 346.077 422.96 346.717 423.6C347.357 424.24 347.677 425.02 347.677 425.94ZM345.197 426.86C345.437 426.607 345.557 426.3 345.557 425.94C345.557 425.58 345.437 425.28 345.197 425.04C344.971 424.787 344.677 424.66 344.317 424.66C343.957 424.66 343.657 424.787 343.417 425.04C343.191 425.28 343.077 425.58 343.077 425.94C343.077 426.3 343.191 426.607 343.417 426.86C343.657 427.1 343.957 427.22 344.317 427.22C344.677 427.22 344.971 427.1 345.197 426.86Z" fill="#FF531D"/>
</g>
<path d="M287.081 399.66V389.4H288.341V402H287.261L280.241 391.74V402H278.981V389.4H280.061L287.081 399.66ZM298.775 394.764V393H299.963V402H298.775V400.236C297.947 401.556 296.735 402.216 295.139 402.216C293.855 402.216 292.757 401.76 291.845 400.848C290.945 399.936 290.495 398.82 290.495 397.5C290.495 396.18 290.945 395.064 291.845 394.152C292.757 393.24 293.855 392.784 295.139 392.784C296.735 392.784 297.947 393.444 298.775 394.764ZM292.709 400.038C293.393 400.722 294.233 401.064 295.229 401.064C296.225 401.064 297.065 400.722 297.749 400.038C298.433 399.33 298.775 398.484 298.775 397.5C298.775 396.504 298.433 395.664 297.749 394.98C297.065 394.284 296.225 393.936 295.229 393.936C294.233 393.936 293.393 394.284 292.709 394.98C292.025 395.664 291.683 396.504 291.683 397.5C291.683 398.484 292.025 399.33 292.709 400.038ZM303.415 395.358C303.415 396.054 304.033 396.564 305.269 396.888C305.617 396.972 305.845 397.032 305.953 397.068C306.061 397.092 306.271 397.158 306.583 397.266C306.907 397.362 307.129 397.446 307.249 397.518C307.381 397.59 307.561 397.704 307.789 397.86C308.017 398.004 308.179 398.154 308.275 398.31C308.371 398.454 308.461 398.646 308.545 398.886C308.629 399.114 308.671 399.36 308.671 399.624C308.671 400.392 308.365 401.016 307.753 401.496C307.165 401.976 306.385 402.216 305.413 402.216C304.573 402.216 303.847 402.03 303.235 401.658C302.623 401.274 302.191 400.77 301.939 400.146L302.947 399.552C303.115 400.02 303.415 400.392 303.847 400.668C304.291 400.932 304.813 401.064 305.413 401.064C306.025 401.064 306.523 400.944 306.907 400.704C307.291 400.464 307.483 400.104 307.483 399.624C307.483 398.928 306.865 398.418 305.629 398.094C305.281 398.01 305.053 397.956 304.945 397.932C304.837 397.896 304.621 397.83 304.297 397.734C303.985 397.626 303.763 397.536 303.631 397.464C303.511 397.392 303.337 397.284 303.109 397.14C302.881 396.984 302.719 396.834 302.623 396.69C302.527 396.534 302.437 396.342 302.353 396.114C302.269 395.874 302.227 395.622 302.227 395.358C302.227 394.626 302.515 394.014 303.091 393.522C303.691 393.03 304.429 392.784 305.305 392.784C306.025 392.784 306.661 392.946 307.213 393.27C307.777 393.594 308.191 394.044 308.455 394.62L307.465 395.196C307.129 394.356 306.409 393.936 305.305 393.936C304.765 393.936 304.315 394.062 303.955 394.314C303.595 394.566 303.415 394.914 303.415 395.358ZM318.129 394.764V389.4H319.317V402H318.129V400.236C317.301 401.556 316.089 402.216 314.493 402.216C313.209 402.216 312.111 401.76 311.199 400.848C310.299 399.936 309.849 398.82 309.849 397.5C309.849 396.18 310.299 395.064 311.199 394.152C312.111 393.24 313.209 392.784 314.493 392.784C316.089 392.784 317.301 393.444 318.129 394.764ZM312.063 400.038C312.747 400.722 313.587 401.064 314.583 401.064C315.579 401.064 316.419 400.722 317.103 400.038C317.787 399.33 318.129 398.484 318.129 397.5C318.129 396.504 317.787 395.664 317.103 394.98C316.419 394.284 315.579 393.936 314.583 393.936C313.587 393.936 312.747 394.284 312.063 394.98C311.379 395.664 311.037 396.504 311.037 397.5C311.037 398.484 311.379 399.33 312.063 400.038ZM329.572 394.764V393H330.76V402H329.572V400.236C328.744 401.556 327.532 402.216 325.936 402.216C324.652 402.216 323.554 401.76 322.642 400.848C321.742 399.936 321.292 398.82 321.292 397.5C321.292 396.18 321.742 395.064 322.642 394.152C323.554 393.24 324.652 392.784 325.936 392.784C327.532 392.784 328.744 393.444 329.572 394.764ZM323.506 400.038C324.19 400.722 325.03 401.064 326.026 401.064C327.022 401.064 327.862 400.722 328.546 400.038C329.23 399.33 329.572 398.484 329.572 397.5C329.572 396.504 329.23 395.664 328.546 394.98C327.862 394.284 327.022 393.936 326.026 393.936C325.03 393.936 324.19 394.284 323.506 394.98C322.822 395.664 322.48 396.504 322.48 397.5C322.48 398.484 322.822 399.33 323.506 400.038ZM341.016 394.764V393H342.204V405.6H341.016V400.236C340.188 401.556 338.976 402.216 337.38 402.216C336.096 402.216 334.998 401.76 334.086 400.848C333.186 399.936 332.736 398.82 332.736 397.5C332.736 396.18 333.186 395.064 334.086 394.152C334.998 393.24 336.096 392.784 337.38 392.784C338.976 392.784 340.188 393.444 341.016 394.764ZM334.95 400.038C335.634 400.722 336.474 401.064 337.47 401.064C338.466 401.064 339.306 400.722 339.99 400.038C340.674 399.33 341.016 398.484 341.016 397.5C341.016 396.504 340.674 395.664 339.99 394.98C339.306 394.284 338.466 393.936 337.47 393.936C336.474 393.936 335.634 394.284 334.95 394.98C334.266 395.664 333.924 396.504 333.924 397.5C333.924 398.484 334.266 399.33 334.95 400.038Z" fill="#D1D5D8"/>
<g filter="url(#filter1_b_1274_3458)">
<path d="M291 168H330V358C330 360.209 328.209 362 326 362H295C292.791 362 291 360.209 291 358V168Z" fill="#FF531D" fill-opacity="0.5"/>
<path d="M291.5 168.5H329.5V358C329.5 359.933 327.933 361.5 326 361.5H295C293.067 361.5 291.5 359.933 291.5 358V168.5Z" stroke="url(#paint1_linear_1274_3458)"/>
</g>
<g filter="url(#filter2_d_1274_3458)">
<path d="M201.8 368.2H194.3V365.72H201.8V368.2ZM217.998 373H208.638V370.94L213.418 366.02C214.484 364.887 215.018 363.953 215.018 363.22C215.018 362.673 214.844 362.233 214.498 361.9C214.164 361.567 213.731 361.4 213.198 361.4C212.131 361.4 211.351 361.947 210.858 363.04L208.538 361.68C208.964 360.733 209.584 360.007 210.398 359.5C211.224 358.98 212.144 358.72 213.158 358.72C214.424 358.72 215.511 359.12 216.418 359.92C217.324 360.707 217.778 361.773 217.778 363.12C217.778 364.573 217.011 366.067 215.478 367.6L212.738 370.34H217.998V373ZM224.827 373.28C223.081 373.28 221.707 372.62 220.707 371.3C219.721 369.953 219.227 368.187 219.227 366C219.227 363.813 219.721 362.053 220.707 360.72C221.707 359.387 223.081 358.72 224.827 358.72C226.601 358.72 227.974 359.387 228.947 360.72C229.934 362.053 230.427 363.813 230.427 366C230.427 368.187 229.934 369.953 228.947 371.3C227.974 372.62 226.601 373.28 224.827 373.28ZM227.687 366C227.687 364.507 227.441 363.367 226.947 362.58C226.467 361.793 225.761 361.4 224.827 361.4C223.894 361.4 223.187 361.793 222.707 362.58C222.227 363.367 221.987 364.507 221.987 366C221.987 367.493 222.227 368.633 222.707 369.42C223.187 370.193 223.894 370.58 224.827 370.58C225.761 370.58 226.467 370.187 226.947 369.4C227.441 368.613 227.687 367.48 227.687 366ZM232.3 370.24H235.1L233.6 375.8H231.5L232.3 370.24ZM244.846 365.72C246.139 366.493 246.786 367.62 246.786 369.1C246.786 370.393 246.333 371.413 245.426 372.16C244.533 372.907 243.313 373.28 241.766 373.28C240.206 373.28 238.979 372.907 238.086 372.16C237.193 371.413 236.746 370.393 236.746 369.1C236.746 367.633 237.386 366.507 238.666 365.72C237.693 365.027 237.206 364.06 237.206 362.82C237.206 361.527 237.639 360.52 238.506 359.8C239.386 359.08 240.473 358.72 241.766 358.72C243.073 358.72 244.153 359.08 245.006 359.8C245.873 360.52 246.306 361.527 246.306 362.82C246.306 364.06 245.819 365.027 244.846 365.72ZM243.566 362.96C243.566 362.453 243.399 362.053 243.066 361.76C242.733 361.467 242.299 361.32 241.766 361.32C241.233 361.32 240.799 361.467 240.466 361.76C240.133 362.053 239.966 362.453 239.966 362.96C239.966 363.48 240.133 363.887 240.466 364.18C240.799 364.473 241.233 364.62 241.766 364.62C242.299 364.62 242.733 364.473 243.066 364.18C243.399 363.887 243.566 363.48 243.566 362.96ZM243.426 370.16C243.839 369.813 244.046 369.34 244.046 368.74C244.046 368.14 243.839 367.673 243.426 367.34C243.013 366.993 242.459 366.82 241.766 366.82C241.073 366.82 240.519 366.993 240.106 367.34C239.693 367.673 239.486 368.14 239.486 368.74C239.486 369.34 239.693 369.813 240.106 370.16C240.519 370.507 241.073 370.68 241.766 370.68C242.459 370.68 243.013 370.507 243.426 370.16ZM258.053 363.58C258.053 364.66 257.773 365.607 257.213 366.42H257.233L252.873 373H249.713L252.833 368.44C251.38 368.427 250.193 367.967 249.273 367.06C248.366 366.153 247.913 364.993 247.913 363.58C247.913 362.14 248.38 360.973 249.313 360.08C250.26 359.173 251.48 358.72 252.973 358.72C254.466 358.72 255.686 359.173 256.633 360.08C257.58 360.987 258.053 362.153 258.053 363.58ZM250.653 363.58C250.653 364.26 250.873 364.813 251.313 365.24C251.753 365.653 252.306 365.86 252.973 365.86C253.666 365.86 254.226 365.653 254.653 365.24C255.093 364.813 255.313 364.26 255.313 363.58C255.313 362.9 255.093 362.353 254.653 361.94C254.226 361.527 253.666 361.32 252.973 361.32C252.306 361.32 251.753 361.533 251.313 361.96C250.873 362.373 250.653 362.913 250.653 363.58ZM265.188 364.38C264.534 365.007 263.734 365.32 262.788 365.32C261.828 365.32 261.021 365 260.368 364.36C259.728 363.72 259.408 362.94 259.408 362.02C259.408 361.1 259.728 360.32 260.368 359.68C261.034 359.04 261.841 358.72 262.788 358.72C263.748 358.72 264.548 359.04 265.188 359.68C265.828 360.293 266.148 361.073 266.148 362.02C266.148 362.953 265.828 363.74 265.188 364.38ZM262.028 371.58L260.828 370.88L269.948 360.74L271.168 361.42L262.028 371.58ZM261.868 362.94C262.108 363.18 262.408 363.3 262.768 363.3C263.128 363.3 263.428 363.18 263.668 362.94C263.908 362.687 264.028 362.38 264.028 362.02C264.028 361.66 263.908 361.36 263.668 361.12C263.428 360.88 263.128 360.76 262.768 360.76C262.408 360.76 262.108 360.88 261.868 361.12C261.641 361.36 261.528 361.66 261.528 362.02C261.528 362.38 261.641 362.687 261.868 362.94ZM272.908 369.94C272.908 370.86 272.588 371.64 271.948 372.28C271.308 372.92 270.508 373.24 269.548 373.24C268.588 373.24 267.788 372.92 267.148 372.28C266.508 371.64 266.188 370.86 266.188 369.94C266.188 369.02 266.508 368.24 267.148 367.6C267.788 366.96 268.588 366.64 269.548 366.64C270.508 366.64 271.308 366.96 271.948 367.6C272.588 368.24 272.908 369.02 272.908 369.94ZM270.428 370.86C270.668 370.607 270.788 370.3 270.788 369.94C270.788 369.58 270.668 369.28 270.428 369.04C270.201 368.787 269.908 368.66 269.548 368.66C269.188 368.66 268.888 368.787 268.648 369.04C268.421 369.28 268.308 369.58 268.308 369.94C268.308 370.3 268.421 370.607 268.648 370.86C268.888 371.1 269.188 371.22 269.548 371.22C269.908 371.22 270.201 371.1 270.428 370.86Z" fill="#FF531D"/>
</g>
<path d="M205.306 346.216C204.154 346.216 203.164 345.946 202.336 345.406C201.52 344.854 200.95 344.098 200.626 343.138L201.706 342.508C201.934 343.3 202.354 343.912 202.966 344.344C203.59 344.776 204.376 344.992 205.324 344.992C206.248 344.992 206.974 344.788 207.502 344.38C208.03 343.972 208.294 343.42 208.294 342.724C208.294 342.064 208.054 341.566 207.574 341.23C207.106 340.894 206.314 340.546 205.198 340.186C203.866 339.742 203.002 339.394 202.606 339.142C201.646 338.566 201.166 337.732 201.166 336.64C201.166 335.572 201.538 334.732 202.282 334.12C203.014 333.496 203.932 333.184 205.036 333.184C205.984 333.184 206.824 333.436 207.556 333.94C208.288 334.432 208.834 335.086 209.194 335.902L208.132 336.496C207.556 335.104 206.524 334.408 205.036 334.408C204.244 334.408 203.608 334.606 203.128 335.002C202.66 335.386 202.426 335.914 202.426 336.586C202.426 337.222 202.642 337.69 203.074 337.99C203.518 338.302 204.232 338.62 205.216 338.944L206.188 339.286C206.392 339.346 206.68 339.454 207.052 339.61C207.46 339.766 207.742 339.898 207.898 340.006C208.534 340.39 208.936 340.744 209.104 341.068C209.404 341.548 209.554 342.088 209.554 342.688C209.554 343.756 209.164 344.614 208.384 345.262C207.604 345.898 206.578 346.216 205.306 346.216ZM219.786 343.786L221.478 345.586L220.362 346.216L219.03 344.794C218.082 345.742 216.846 346.216 215.322 346.216C214.098 346.216 213.096 345.898 212.316 345.262C211.56 344.614 211.182 343.744 211.182 342.652C211.182 341.848 211.386 341.128 211.794 340.492C212.214 339.856 212.82 339.358 213.612 338.998C212.988 338.302 212.676 337.51 212.676 336.622C212.676 335.578 213.036 334.744 213.756 334.12C214.464 333.496 215.304 333.184 216.276 333.184C217.08 333.184 217.812 333.412 218.472 333.868C219.144 334.324 219.624 334.93 219.912 335.686L218.85 336.298C218.67 335.71 218.346 335.248 217.878 334.912C217.422 334.576 216.894 334.408 216.294 334.408C215.646 334.408 215.088 334.606 214.62 335.002C214.164 335.398 213.936 335.914 213.936 336.55C213.936 336.958 214.026 337.33 214.206 337.666C214.386 337.99 214.686 338.368 215.106 338.8L218.904 342.85C219.252 342.154 219.48 341.356 219.588 340.456L220.704 341.104C220.536 342.16 220.23 343.054 219.786 343.786ZM215.286 344.992C216.486 344.992 217.446 344.62 218.166 343.876L214.458 339.934C213.774 340.186 213.264 340.552 212.928 341.032C212.604 341.5 212.442 342.028 212.442 342.616C212.442 343.348 212.694 343.93 213.198 344.362C213.714 344.782 214.41 344.992 215.286 344.992ZM223.372 333.4H227.872C229 333.4 229.942 333.778 230.698 334.534C231.454 335.29 231.832 336.232 231.832 337.36C231.832 338.488 231.454 339.43 230.698 340.186C229.942 340.942 229 341.32 227.872 341.32H224.632V346H223.372V333.4ZM224.632 340.132H227.872C228.652 340.132 229.294 339.874 229.798 339.358C230.314 338.842 230.572 338.176 230.572 337.36C230.572 336.556 230.314 335.896 229.798 335.38C229.294 334.852 228.652 334.588 227.872 334.588H224.632V340.132ZM239.695 338.476H241.819C243.007 338.476 244.003 338.824 244.807 339.52C245.635 340.204 246.049 341.146 246.049 342.346C246.049 343.534 245.635 344.482 244.807 345.19C244.003 345.874 243.007 346.216 241.819 346.216C240.847 346.216 239.989 345.982 239.245 345.514C238.513 345.034 238.021 344.374 237.769 343.534L238.831 342.922C239.011 343.582 239.365 344.092 239.893 344.452C240.421 344.812 241.063 344.992 241.819 344.992C242.707 344.992 243.421 344.758 243.961 344.29C244.513 343.81 244.789 343.162 244.789 342.346C244.789 341.53 244.513 340.888 243.961 340.42C243.421 339.94 242.707 339.7 241.819 339.7H238.399L238.849 333.4H245.599V334.588H239.965L239.695 338.476ZM255.598 344.452C254.77 345.628 253.6 346.216 252.088 346.216C250.588 346.216 249.412 345.628 248.56 344.452C247.732 343.264 247.318 341.68 247.318 339.7C247.318 337.708 247.732 336.13 248.56 334.966C249.412 333.778 250.588 333.184 252.088 333.184C253.6 333.184 254.77 333.778 255.598 334.966C256.438 336.13 256.858 337.708 256.858 339.7C256.858 341.692 256.438 343.276 255.598 344.452ZM249.496 343.606C250.132 344.53 250.996 344.992 252.088 344.992C253.192 344.992 254.05 344.53 254.662 343.606C255.286 342.694 255.598 341.392 255.598 339.7C255.598 338.008 255.286 336.706 254.662 335.794C254.05 334.87 253.192 334.408 252.088 334.408C250.996 334.408 250.132 334.87 249.496 335.794C248.884 336.718 248.578 338.02 248.578 339.7C248.578 341.38 248.884 342.682 249.496 343.606ZM266.936 344.452C266.108 345.628 264.938 346.216 263.426 346.216C261.926 346.216 260.75 345.628 259.898 344.452C259.07 343.264 258.656 341.68 258.656 339.7C258.656 337.708 259.07 336.13 259.898 334.966C260.75 333.778 261.926 333.184 263.426 333.184C264.938 333.184 266.108 333.778 266.936 334.966C267.776 336.13 268.196 337.708 268.196 339.7C268.196 341.692 267.776 343.276 266.936 344.452ZM260.834 343.606C261.47 344.53 262.334 344.992 263.426 344.992C264.53 344.992 265.388 344.53 266 343.606C266.624 342.694 266.936 341.392 266.936 339.7C266.936 338.008 266.624 336.706 266 335.794C265.388 334.87 264.53 334.408 263.426 334.408C262.334 334.408 261.47 334.87 260.834 335.794C260.222 336.718 259.916 338.02 259.916 339.7C259.916 341.38 260.222 342.682 260.834 343.606Z" fill="#D1D5D8"/>
<g filter="url(#filter3_b_1274_3458)">
<path d="M215 168H254V302C254 304.209 252.209 306 250 306H219C216.791 306 215 304.209 215 302V168Z" fill="#FF531D" fill-opacity="0.5"/>
<path d="M215.5 168.5H253.5V302C253.5 303.933 251.933 305.5 250 305.5H219C217.067 305.5 215.5 303.933 215.5 302V168.5Z" stroke="url(#paint2_linear_1274_3458)"/>
</g>
<g filter="url(#filter4_d_1274_3458)">
<path d="M433.8 275.2H426.3V272.72H433.8V275.2ZM440.318 267.3L443.998 266H446.398V280H443.638V268.92L440.998 269.66L440.318 267.3ZM454.132 280.28C452.385 280.28 451.012 279.62 450.012 278.3C449.025 276.953 448.532 275.187 448.532 273C448.532 270.813 449.025 269.053 450.012 267.72C451.012 266.387 452.385 265.72 454.132 265.72C455.905 265.72 457.279 266.387 458.252 267.72C459.239 269.053 459.732 270.813 459.732 273C459.732 275.187 459.239 276.953 458.252 278.3C457.279 279.62 455.905 280.28 454.132 280.28ZM456.992 273C456.992 271.507 456.745 270.367 456.252 269.58C455.772 268.793 455.065 268.4 454.132 268.4C453.199 268.4 452.492 268.793 452.012 269.58C451.532 270.367 451.292 271.507 451.292 273C451.292 274.493 451.532 275.633 452.012 276.42C452.492 277.193 453.199 277.58 454.132 277.58C455.065 277.58 455.772 277.187 456.252 276.4C456.745 275.613 456.992 274.48 456.992 273ZM461.604 277.24H464.404L462.904 282.8H460.804L461.604 277.24ZM474.151 272.72C475.444 273.493 476.091 274.62 476.091 276.1C476.091 277.393 475.637 278.413 474.731 279.16C473.837 279.907 472.617 280.28 471.071 280.28C469.511 280.28 468.284 279.907 467.391 279.16C466.497 278.413 466.051 277.393 466.051 276.1C466.051 274.633 466.691 273.507 467.971 272.72C466.997 272.027 466.511 271.06 466.511 269.82C466.511 268.527 466.944 267.52 467.811 266.8C468.691 266.08 469.777 265.72 471.071 265.72C472.377 265.72 473.457 266.08 474.311 266.8C475.177 267.52 475.611 268.527 475.611 269.82C475.611 271.06 475.124 272.027 474.151 272.72ZM472.871 269.96C472.871 269.453 472.704 269.053 472.371 268.76C472.037 268.467 471.604 268.32 471.071 268.32C470.537 268.32 470.104 268.467 469.771 268.76C469.437 269.053 469.271 269.453 469.271 269.96C469.271 270.48 469.437 270.887 469.771 271.18C470.104 271.473 470.537 271.62 471.071 271.62C471.604 271.62 472.037 271.473 472.371 271.18C472.704 270.887 472.871 270.48 472.871 269.96ZM472.731 277.16C473.144 276.813 473.351 276.34 473.351 275.74C473.351 275.14 473.144 274.673 472.731 274.34C472.317 273.993 471.764 273.82 471.071 273.82C470.377 273.82 469.824 273.993 469.411 274.34C468.997 274.673 468.791 275.14 468.791 275.74C468.791 276.34 468.997 276.813 469.411 277.16C469.824 277.507 470.377 277.68 471.071 277.68C471.764 277.68 472.317 277.507 472.731 277.16ZM485.735 268.28L483.115 271.68C484.088 271.96 484.861 272.453 485.435 273.16C486.021 273.867 486.315 274.707 486.315 275.68C486.315 277.12 485.828 278.247 484.855 279.06C483.908 279.873 482.728 280.28 481.315 280.28C480.208 280.28 479.228 280.027 478.375 279.52C477.521 279 476.901 278.267 476.515 277.32L478.875 275.96C479.208 277.04 480.021 277.58 481.315 277.58C482.021 277.58 482.568 277.413 482.955 277.08C483.355 276.733 483.555 276.267 483.555 275.68C483.555 275.107 483.355 274.647 482.955 274.3C482.568 273.953 482.021 273.78 481.315 273.78H480.715L479.655 272.18L482.415 268.58H476.935V266H485.735V268.28ZM493.028 271.38C492.374 272.007 491.574 272.32 490.628 272.32C489.668 272.32 488.861 272 488.208 271.36C487.568 270.72 487.248 269.94 487.248 269.02C487.248 268.1 487.568 267.32 488.208 266.68C488.874 266.04 489.681 265.72 490.628 265.72C491.588 265.72 492.388 266.04 493.028 266.68C493.668 267.293 493.988 268.073 493.988 269.02C493.988 269.953 493.668 270.74 493.028 271.38ZM489.868 278.58L488.668 277.88L497.788 267.74L499.008 268.42L489.868 278.58ZM489.708 269.94C489.948 270.18 490.248 270.3 490.608 270.3C490.968 270.3 491.268 270.18 491.508 269.94C491.748 269.687 491.868 269.38 491.868 269.02C491.868 268.66 491.748 268.36 491.508 268.12C491.268 267.88 490.968 267.76 490.608 267.76C490.248 267.76 489.948 267.88 489.708 268.12C489.481 268.36 489.368 268.66 489.368 269.02C489.368 269.38 489.481 269.687 489.708 269.94ZM500.748 276.94C500.748 277.86 500.428 278.64 499.788 279.28C499.148 279.92 498.348 280.24 497.388 280.24C496.428 280.24 495.628 279.92 494.988 279.28C494.348 278.64 494.028 277.86 494.028 276.94C494.028 276.02 494.348 275.24 494.988 274.6C495.628 273.96 496.428 273.64 497.388 273.64C498.348 273.64 499.148 273.96 499.788 274.6C500.428 275.24 500.748 276.02 500.748 276.94ZM498.268 277.86C498.508 277.607 498.628 277.3 498.628 276.94C498.628 276.58 498.508 276.28 498.268 276.04C498.041 275.787 497.748 275.66 497.388 275.66C497.028 275.66 496.728 275.787 496.488 276.04C496.261 276.28 496.148 276.58 496.148 276.94C496.148 277.3 496.261 277.607 496.488 277.86C496.728 278.1 497.028 278.22 497.388 278.22C497.748 278.22 498.041 278.1 498.268 277.86Z" fill="#FF531D"/>
</g>
<path d="M449.254 238.4H454.114C455.83 238.4 457.246 239.012 458.362 240.236C459.49 241.436 460.054 242.924 460.054 244.7C460.054 246.476 459.49 247.97 458.362 249.182C457.246 250.394 455.83 251 454.114 251H449.254V238.4ZM450.514 249.812H454.114C455.494 249.812 456.622 249.32 457.498 248.336C458.386 247.34 458.83 246.128 458.83 244.7C458.83 243.272 458.386 242.06 457.498 241.064C456.622 240.08 455.494 239.588 454.114 239.588H450.514V249.812ZM469.571 249.866C468.647 250.766 467.531 251.216 466.223 251.216C464.891 251.216 463.769 250.766 462.857 249.866C461.945 248.954 461.489 247.832 461.489 246.5C461.489 245.168 461.945 244.052 462.857 243.152C463.769 242.24 464.891 241.784 466.223 241.784C467.543 241.784 468.659 242.24 469.571 243.152C470.495 244.052 470.957 245.168 470.957 246.5C470.957 247.82 470.495 248.942 469.571 249.866ZM463.703 249.038C464.387 249.722 465.227 250.064 466.223 250.064C467.219 250.064 468.059 249.722 468.743 249.038C469.427 248.33 469.769 247.484 469.769 246.5C469.769 245.504 469.427 244.664 468.743 243.98C468.059 243.284 467.219 242.936 466.223 242.936C465.227 242.936 464.387 243.284 463.703 243.98C463.019 244.664 462.677 245.504 462.677 246.5C462.677 247.484 463.019 248.33 463.703 249.038ZM481.216 249.47L483.43 242H484.654L481.882 251H480.586L478.264 243.746L475.942 251H474.646L471.874 242H473.098L475.312 249.47L477.67 242H478.858L481.216 249.47Z" fill="#D1D5D8"/>
<g filter="url(#filter5_b_1274_3458)">
<path d="M447 168H486V217C486 219.209 484.209 221 482 221H451C448.791 221 447 219.209 447 217V168Z" fill="#FF531D" fill-opacity="0.5"/>
<path d="M447.5 168.5H485.5V217C485.5 218.933 483.933 220.5 482 220.5H451C449.067 220.5 447.5 218.933 447.5 217V168.5Z" stroke="url(#paint3_linear_1274_3458)"/>
</g>
<g filter="url(#filter6_d_1274_3458)">
<path d="M357.97 321.107H350.325V318.58H357.97V321.107ZM364.613 313.055L368.364 311.73H370.811V326H367.997V314.706L365.306 315.46L364.613 313.055ZM381.242 311.73L378.083 316.357C379.564 316.398 380.767 316.881 381.691 317.805C382.615 318.729 383.077 319.898 383.077 321.311C383.077 322.765 382.595 323.961 381.63 324.899C380.665 325.823 379.421 326.285 377.899 326.285C376.377 326.285 375.133 325.823 374.169 324.899C373.217 323.989 372.742 322.793 372.742 321.311C372.742 320.238 373.02 319.279 373.577 318.437L378.021 311.73H381.242ZM380.284 321.311C380.284 320.632 380.06 320.081 379.612 319.66C379.163 319.225 378.592 319.008 377.899 319.008C377.206 319.008 376.635 319.218 376.187 319.64C375.752 320.061 375.534 320.618 375.534 321.311C375.534 322.004 375.752 322.568 376.187 323.003C376.635 323.425 377.206 323.635 377.899 323.635C378.592 323.635 379.163 323.425 379.612 323.003C380.06 322.568 380.284 322.004 380.284 321.311ZM384.957 323.187H387.811L386.282 328.854H384.141L384.957 323.187ZM398.826 320.965H400.355V323.574H398.826V326H395.992V323.574H389.244V320.965L393.994 311.73H397.011L392.282 320.965H395.992V317.581H398.826V320.965ZM409.73 318.58C411.048 319.368 411.708 320.516 411.708 322.025C411.708 323.343 411.245 324.383 410.321 325.144C409.411 325.905 408.167 326.285 406.591 326.285C405.001 326.285 403.75 325.905 402.84 325.144C401.929 324.383 401.474 323.343 401.474 322.025C401.474 320.53 402.126 319.381 403.431 318.58C402.439 317.873 401.943 316.887 401.943 315.624C401.943 314.305 402.384 313.279 403.268 312.545C404.165 311.811 405.272 311.444 406.591 311.444C407.923 311.444 409.023 311.811 409.893 312.545C410.777 313.279 411.218 314.305 411.218 315.624C411.218 316.887 410.722 317.873 409.73 318.58ZM408.425 315.766C408.425 315.25 408.256 314.842 407.916 314.543C407.576 314.244 407.134 314.095 406.591 314.095C406.047 314.095 405.605 314.244 405.266 314.543C404.926 314.842 404.756 315.25 404.756 315.766C404.756 316.296 404.926 316.711 405.266 317.01C405.605 317.309 406.047 317.458 406.591 317.458C407.134 317.458 407.576 317.309 407.916 317.01C408.256 316.711 408.425 316.296 408.425 315.766ZM408.283 323.105C408.704 322.752 408.915 322.269 408.915 321.658C408.915 321.046 408.704 320.571 408.283 320.231C407.861 319.877 407.297 319.701 406.591 319.701C405.884 319.701 405.32 319.877 404.899 320.231C404.477 320.571 404.267 321.046 404.267 321.658C404.267 322.269 404.477 322.752 404.899 323.105C405.32 323.459 405.884 323.635 406.591 323.635C407.297 323.635 407.861 323.459 408.283 323.105ZM418.798 317.214C418.132 317.852 417.317 318.172 416.352 318.172C415.374 318.172 414.551 317.846 413.885 317.193C413.233 316.541 412.907 315.746 412.907 314.808C412.907 313.87 413.233 313.075 413.885 312.423C414.565 311.771 415.387 311.444 416.352 311.444C417.331 311.444 418.146 311.771 418.798 312.423C419.451 313.048 419.777 313.843 419.777 314.808C419.777 315.759 419.451 316.561 418.798 317.214ZM415.577 324.553L414.354 323.839L423.65 313.503L424.894 314.197L415.577 324.553ZM415.414 315.746C415.659 315.99 415.965 316.113 416.332 316.113C416.699 316.113 417.004 315.99 417.249 315.746C417.494 315.488 417.616 315.175 417.616 314.808C417.616 314.441 417.494 314.135 417.249 313.891C417.004 313.646 416.699 313.524 416.332 313.524C415.965 313.524 415.659 313.646 415.414 313.891C415.183 314.135 415.068 314.441 415.068 314.808C415.068 315.175 415.183 315.488 415.414 315.746ZM426.667 322.881C426.667 323.819 426.341 324.614 425.689 325.266C425.036 325.918 424.221 326.245 423.242 326.245C422.264 326.245 421.449 325.918 420.796 325.266C420.144 324.614 419.818 323.819 419.818 322.881C419.818 321.943 420.144 321.148 420.796 320.496C421.449 319.843 422.264 319.517 423.242 319.517C424.221 319.517 425.036 319.843 425.689 320.496C426.341 321.148 426.667 321.943 426.667 322.881ZM424.139 323.819C424.384 323.56 424.506 323.248 424.506 322.881C424.506 322.514 424.384 322.208 424.139 321.964C423.908 321.705 423.609 321.576 423.242 321.576C422.876 321.576 422.57 321.705 422.325 321.964C422.094 322.208 421.979 322.514 421.979 322.881C421.979 323.248 422.094 323.56 422.325 323.819C422.57 324.063 422.876 324.186 423.242 324.186C423.609 324.186 423.908 324.063 424.139 323.819Z" fill="#FF531D"/>
</g>
<path d="M373.058 290.466C373.682 290.73 374.174 291.132 374.534 291.672C374.894 292.212 375.074 292.818 375.074 293.49C375.074 294.462 374.732 295.29 374.048 295.974C373.364 296.658 372.536 297 371.564 297H366.074V284.4H371.15C372.074 284.4 372.872 284.736 373.544 285.408C374.204 286.068 374.534 286.86 374.534 287.784C374.534 288.96 374.042 289.854 373.058 290.466ZM371.15 285.588H367.334V289.98H371.15C371.726 289.98 372.224 289.77 372.644 289.35C373.064 288.906 373.274 288.384 373.274 287.784C373.274 287.196 373.064 286.68 372.644 286.236C372.224 285.804 371.726 285.588 371.15 285.588ZM367.334 295.812H371.564C372.188 295.812 372.716 295.59 373.148 295.146C373.592 294.702 373.814 294.15 373.814 293.49C373.814 292.842 373.592 292.296 373.148 291.852C372.716 291.396 372.188 291.168 371.564 291.168H367.334V295.812ZM384.598 295.866C383.674 296.766 382.558 297.216 381.25 297.216C379.918 297.216 378.796 296.766 377.884 295.866C376.972 294.954 376.516 293.832 376.516 292.5C376.516 291.168 376.972 290.052 377.884 289.152C378.796 288.24 379.918 287.784 381.25 287.784C382.57 287.784 383.686 288.24 384.598 289.152C385.522 290.052 385.984 291.168 385.984 292.5C385.984 293.82 385.522 294.942 384.598 295.866ZM378.73 295.038C379.414 295.722 380.254 296.064 381.25 296.064C382.246 296.064 383.086 295.722 383.77 295.038C384.454 294.33 384.796 293.484 384.796 292.5C384.796 291.504 384.454 290.664 383.77 289.98C383.086 289.284 382.246 288.936 381.25 288.936C380.254 288.936 379.414 289.284 378.73 289.98C378.046 290.664 377.704 291.504 377.704 292.5C377.704 293.484 378.046 294.33 378.73 295.038ZM392.184 287.784C393.264 287.784 394.122 288.12 394.758 288.792C395.394 289.452 395.712 290.346 395.712 291.474V297H394.524V291.474C394.524 290.67 394.308 290.046 393.876 289.602C393.456 289.158 392.856 288.936 392.076 288.936C391.176 288.936 390.462 289.218 389.934 289.782C389.418 290.346 389.16 291.18 389.16 292.284V297H387.972V288H389.16V289.404C389.832 288.324 390.84 287.784 392.184 287.784ZM405.749 289.764V284.4H406.937V297H405.749V295.236C404.921 296.556 403.709 297.216 402.113 297.216C400.829 297.216 399.731 296.76 398.819 295.848C397.919 294.936 397.469 293.82 397.469 292.5C397.469 291.18 397.919 290.064 398.819 289.152C399.731 288.24 400.829 287.784 402.113 287.784C403.709 287.784 404.921 288.444 405.749 289.764ZM399.683 295.038C400.367 295.722 401.207 296.064 402.203 296.064C403.199 296.064 404.039 295.722 404.723 295.038C405.407 294.33 405.749 293.484 405.749 292.5C405.749 291.504 405.407 290.664 404.723 289.98C404.039 289.284 403.199 288.936 402.203 288.936C401.207 288.936 400.367 289.284 399.683 289.98C398.999 290.664 398.657 291.504 398.657 292.5C398.657 293.484 398.999 294.33 399.683 295.038ZM410.388 290.358C410.388 291.054 411.006 291.564 412.242 291.888C412.59 291.972 412.818 292.032 412.926 292.068C413.034 292.092 413.244 292.158 413.556 292.266C413.88 292.362 414.102 292.446 414.222 292.518C414.354 292.59 414.534 292.704 414.762 292.86C414.99 293.004 415.152 293.154 415.248 293.31C415.344 293.454 415.434 293.646 415.518 293.886C415.602 294.114 415.644 294.36 415.644 294.624C415.644 295.392 415.338 296.016 414.726 296.496C414.138 296.976 413.358 297.216 412.386 297.216C411.546 297.216 410.82 297.03 410.208 296.658C409.596 296.274 409.164 295.77 408.912 295.146L409.92 294.552C410.088 295.02 410.388 295.392 410.82 295.668C411.264 295.932 411.786 296.064 412.386 296.064C412.998 296.064 413.496 295.944 413.88 295.704C414.264 295.464 414.456 295.104 414.456 294.624C414.456 293.928 413.838 293.418 412.602 293.094C412.254 293.01 412.026 292.956 411.918 292.932C411.81 292.896 411.594 292.83 411.27 292.734C410.958 292.626 410.736 292.536 410.604 292.464C410.484 292.392 410.31 292.284 410.082 292.14C409.854 291.984 409.692 291.834 409.596 291.69C409.5 291.534 409.41 291.342 409.326 291.114C409.242 290.874 409.2 290.622 409.2 290.358C409.2 289.626 409.488 289.014 410.064 288.522C410.664 288.03 411.402 287.784 412.278 287.784C412.998 287.784 413.634 287.946 414.186 288.27C414.75 288.594 415.164 289.044 415.428 289.62L414.438 290.196C414.102 289.356 413.382 288.936 412.278 288.936C411.738 288.936 411.288 289.062 410.928 289.314C410.568 289.566 410.388 289.914 410.388 290.358Z" fill="#D1D5D8"/>
<g filter="url(#filter7_b_1274_3458)">
<path d="M371 168H410V258C410 260.209 408.209 262 406 262H375C372.791 262 371 260.209 371 258V168Z" fill="#FF531D" fill-opacity="0.5"/>
<path d="M371.5 168.5H409.5V258C409.5 259.933 407.933 261.5 406 261.5H375C373.067 261.5 371.5 259.933 371.5 258V168.5Z" stroke="url(#paint4_linear_1274_3458)"/>
</g>
<g filter="url(#filter8_d_1274_3458)">
<path d="M125.97 473.107H118.325V470.58H125.97V473.107ZM136.629 468.928H138.097C139.483 468.928 140.639 469.343 141.563 470.172C142.5 470.987 142.969 472.129 142.969 473.597C142.969 475.064 142.473 476.213 141.481 477.042C140.516 477.871 139.313 478.285 137.873 478.285C136.704 478.285 135.678 478.027 134.795 477.511C133.925 476.981 133.293 476.22 132.899 475.228L135.304 473.821C135.644 474.962 136.5 475.533 137.873 475.533C138.593 475.533 139.15 475.363 139.544 475.024C139.952 474.67 140.156 474.195 140.156 473.597C140.156 473.012 139.959 472.543 139.565 472.19C139.171 471.837 138.634 471.66 137.954 471.66H133.633L134.203 463.73H142.297V466.36H136.813L136.629 468.928ZM153.567 472.965H155.096V475.574H153.567V478H150.733V475.574H143.986V472.965L148.736 463.73H151.753L147.023 472.965H150.733V469.581H153.567V472.965ZM157.197 475.187H160.051L158.522 480.854H156.382L157.197 475.187ZM171.066 472.965H172.595V475.574H171.066V478H168.233V475.574H161.485V472.965L166.235 463.73H169.252L164.522 472.965H168.233V469.581H171.066V472.965ZM182.749 466.054L180.078 469.519C181.071 469.805 181.859 470.308 182.443 471.028C183.041 471.748 183.34 472.605 183.34 473.597C183.34 475.064 182.844 476.213 181.852 477.042C180.887 477.871 179.684 478.285 178.244 478.285C177.116 478.285 176.117 478.027 175.247 477.511C174.377 476.981 173.745 476.233 173.351 475.268L175.757 473.882C176.096 474.983 176.925 475.533 178.244 475.533C178.964 475.533 179.521 475.363 179.915 475.024C180.323 474.67 180.527 474.195 180.527 473.597C180.527 473.012 180.323 472.543 179.915 472.19C179.521 471.837 178.964 471.66 178.244 471.66H177.632L176.552 470.029L179.365 466.36H173.779V463.73H182.749V466.054ZM190.183 469.214C189.517 469.852 188.701 470.172 187.736 470.172C186.758 470.172 185.936 469.846 185.27 469.193C184.617 468.541 184.291 467.746 184.291 466.808C184.291 465.87 184.617 465.075 185.27 464.423C185.949 463.771 186.771 463.444 187.736 463.444C188.715 463.444 189.53 463.771 190.183 464.423C190.835 465.048 191.161 465.843 191.161 466.808C191.161 467.759 190.835 468.561 190.183 469.214ZM186.962 476.553L185.739 475.839L195.035 465.503L196.278 466.197L186.962 476.553ZM186.799 467.746C187.043 467.99 187.349 468.113 187.716 468.113C188.083 468.113 188.389 467.99 188.633 467.746C188.878 467.488 189 467.175 189 466.808C189 466.441 188.878 466.135 188.633 465.891C188.389 465.646 188.083 465.524 187.716 465.524C187.349 465.524 187.043 465.646 186.799 465.891C186.568 466.135 186.452 466.441 186.452 466.808C186.452 467.175 186.568 467.488 186.799 467.746ZM198.052 474.881C198.052 475.819 197.726 476.614 197.073 477.266C196.421 477.918 195.605 478.245 194.627 478.245C193.648 478.245 192.833 477.918 192.181 477.266C191.528 476.614 191.202 475.819 191.202 474.881C191.202 473.943 191.528 473.148 192.181 472.496C192.833 471.843 193.648 471.517 194.627 471.517C195.605 471.517 196.421 471.843 197.073 472.496C197.726 473.148 198.052 473.943 198.052 474.881ZM195.524 475.819C195.768 475.56 195.891 475.248 195.891 474.881C195.891 474.514 195.768 474.208 195.524 473.964C195.293 473.705 194.994 473.576 194.627 473.576C194.26 473.576 193.954 473.705 193.71 473.964C193.478 474.208 193.363 474.514 193.363 474.881C193.363 475.248 193.478 475.56 193.71 475.819C193.954 476.063 194.26 476.186 194.627 476.186C194.994 476.186 195.293 476.063 195.524 475.819Z" fill="#FF531D"/>
</g>
<path d="M139.133 442.466C139.757 442.73 140.249 443.132 140.609 443.672C140.969 444.212 141.149 444.818 141.149 445.49C141.149 446.462 140.807 447.29 140.123 447.974C139.439 448.658 138.611 449 137.639 449H132.149V436.4H137.225C138.149 436.4 138.947 436.736 139.619 437.408C140.279 438.068 140.609 438.86 140.609 439.784C140.609 440.96 140.117 441.854 139.133 442.466ZM137.225 437.588H133.409V441.98H137.225C137.801 441.98 138.299 441.77 138.719 441.35C139.139 440.906 139.349 440.384 139.349 439.784C139.349 439.196 139.139 438.68 138.719 438.236C138.299 437.804 137.801 437.588 137.225 437.588ZM133.409 447.812H137.639C138.263 447.812 138.791 447.59 139.223 447.146C139.667 446.702 139.889 446.15 139.889 445.49C139.889 444.842 139.667 444.296 139.223 443.852C138.791 443.396 138.263 443.168 137.639 443.168H133.409V447.812ZM144.589 437.228C144.589 437.468 144.505 437.672 144.337 437.84C144.169 438.008 143.965 438.092 143.725 438.092C143.485 438.092 143.281 438.008 143.113 437.84C142.945 437.672 142.861 437.468 142.861 437.228C142.861 436.988 142.945 436.784 143.113 436.616C143.281 436.448 143.485 436.364 143.725 436.364C143.965 436.364 144.169 436.448 144.337 436.616C144.505 436.784 144.589 436.988 144.589 437.228ZM144.319 449H143.131V440H144.319V449ZM151.61 440V441.152H149.018V446.606C149.018 447.098 149.114 447.452 149.306 447.668C149.498 447.872 149.786 447.98 150.17 447.992C150.554 447.992 151.034 447.98 151.61 447.956V449C150.326 449.192 149.372 449.102 148.748 448.73C148.136 448.346 147.83 447.638 147.83 446.606V441.152H145.94V440H147.83V437.84L149.018 437.48V440H151.61ZM157.239 449.216C155.883 449.216 154.755 448.766 153.855 447.866C152.955 446.942 152.505 445.82 152.505 444.5C152.505 443.168 152.955 442.052 153.855 441.152C154.755 440.24 155.883 439.784 157.239 439.784C158.127 439.784 158.925 440 159.633 440.432C160.341 440.852 160.857 441.422 161.181 442.142L160.209 442.7C159.969 442.16 159.579 441.734 159.039 441.422C158.511 441.098 157.911 440.936 157.239 440.936C156.243 440.936 155.403 441.284 154.719 441.98C154.035 442.664 153.693 443.504 153.693 444.5C153.693 445.484 154.035 446.33 154.719 447.038C155.403 447.722 156.243 448.064 157.239 448.064C157.899 448.064 158.493 447.908 159.021 447.596C159.561 447.284 159.981 446.852 160.281 446.3L161.271 446.876C160.899 447.596 160.353 448.166 159.633 448.586C158.913 449.006 158.115 449.216 157.239 449.216ZM170.431 447.866C169.507 448.766 168.391 449.216 167.083 449.216C165.751 449.216 164.629 448.766 163.717 447.866C162.805 446.954 162.349 445.832 162.349 444.5C162.349 443.168 162.805 442.052 163.717 441.152C164.629 440.24 165.751 439.784 167.083 439.784C168.403 439.784 169.519 440.24 170.431 441.152C171.355 442.052 171.817 443.168 171.817 444.5C171.817 445.82 171.355 446.942 170.431 447.866ZM164.563 447.038C165.247 447.722 166.087 448.064 167.083 448.064C168.079 448.064 168.919 447.722 169.603 447.038C170.287 446.33 170.629 445.484 170.629 444.5C170.629 443.504 170.287 442.664 169.603 441.98C168.919 441.284 168.079 440.936 167.083 440.936C166.087 440.936 165.247 441.284 164.563 441.98C163.879 442.664 163.537 443.504 163.537 444.5C163.537 445.484 163.879 446.33 164.563 447.038ZM175.263 437.228C175.263 437.468 175.179 437.672 175.011 437.84C174.843 438.008 174.639 438.092 174.399 438.092C174.159 438.092 173.955 438.008 173.787 437.84C173.619 437.672 173.535 437.468 173.535 437.228C173.535 436.988 173.619 436.784 173.787 436.616C173.955 436.448 174.159 436.364 174.399 436.364C174.639 436.364 174.843 436.448 175.011 436.616C175.179 436.784 175.263 436.988 175.263 437.228ZM174.993 449H173.805V440H174.993V449ZM181.726 439.784C182.806 439.784 183.664 440.12 184.3 440.792C184.936 441.452 185.254 442.346 185.254 443.474V449H184.066V443.474C184.066 442.67 183.85 442.046 183.418 441.602C182.998 441.158 182.398 440.936 181.618 440.936C180.718 440.936 180.004 441.218 179.476 441.782C178.96 442.346 178.702 443.18 178.702 444.284V449H177.514V440H178.702V441.404C179.374 440.324 180.382 439.784 181.726 439.784Z" fill="#D1D5D8"/>
<g filter="url(#filter9_b_1274_3458)">
<path d="M139 168H178V404C178 406.209 176.209 408 174 408H143C140.791 408 139 406.209 139 404V168Z" fill="#FF531D" fill-opacity="0.5"/>
<path d="M139.5 168.5H177.5V404C177.5 405.933 175.933 407.5 174 407.5H143C141.067 407.5 139.5 405.933 139.5 404V168.5Z" stroke="url(#paint5_linear_1274_3458)"/>
</g>
<g filter="url(#filter10_d_1274_3458)">
<path d="M535.308 39.22L540.46 37.4H543.82V57H539.956V41.488L536.26 42.524L535.308 39.22ZM559.576 50.084H561.676V53.668H559.576V57H555.684V53.668H546.416V50.084L552.94 37.4H557.084L550.588 50.084H555.684V45.436H559.576V50.084ZM564.562 53.136H568.482L566.382 60.92H563.442L564.562 53.136ZM583.723 57H570.619V54.116L577.311 47.228C578.805 45.6413 579.551 44.3347 579.551 43.308C579.551 42.5427 579.309 41.9267 578.823 41.46C578.357 40.9933 577.75 40.76 577.003 40.76C575.51 40.76 574.418 41.5253 573.727 43.056L570.479 41.152C571.077 39.8267 571.945 38.8093 573.083 38.1C574.241 37.372 575.529 37.008 576.947 37.008C578.721 37.008 580.242 37.568 581.511 38.688C582.781 39.7893 583.415 41.2827 583.415 43.168C583.415 45.2027 582.342 47.2933 580.195 49.44L576.359 53.276H583.723V57ZM593.817 44.932C592.902 45.8093 591.782 46.248 590.457 46.248C589.113 46.248 587.984 45.8 587.069 44.904C586.173 44.008 585.725 42.916 585.725 41.628C585.725 40.34 586.173 39.248 587.069 38.352C588.002 37.456 589.132 37.008 590.457 37.008C591.801 37.008 592.921 37.456 593.817 38.352C594.713 39.2107 595.161 40.3027 595.161 41.628C595.161 42.9347 594.713 44.036 593.817 44.932ZM589.393 55.012L587.713 54.032L600.481 39.836L602.189 40.788L589.393 55.012ZM589.169 42.916C589.505 43.252 589.925 43.42 590.429 43.42C590.933 43.42 591.353 43.252 591.689 42.916C592.025 42.5613 592.193 42.132 592.193 41.628C592.193 41.124 592.025 40.704 591.689 40.368C591.353 40.032 590.933 39.864 590.429 39.864C589.925 39.864 589.505 40.032 589.169 40.368C588.852 40.704 588.693 41.124 588.693 41.628C588.693 42.132 588.852 42.5613 589.169 42.916ZM604.625 52.716C604.625 54.004 604.177 55.096 603.281 55.992C602.385 56.888 601.265 57.336 599.921 57.336C598.577 57.336 597.457 56.888 596.561 55.992C595.665 55.096 595.217 54.004 595.217 52.716C595.217 51.428 595.665 50.336 596.561 49.44C597.457 48.544 598.577 48.096 599.921 48.096C601.265 48.096 602.385 48.544 603.281 49.44C604.177 50.336 604.625 51.428 604.625 52.716ZM601.153 54.004C601.489 53.6493 601.657 53.22 601.657 52.716C601.657 52.212 601.489 51.792 601.153 51.456C600.836 51.1013 600.425 50.924 599.921 50.924C599.417 50.924 598.997 51.1013 598.661 51.456C598.344 51.792 598.185 52.212 598.185 52.716C598.185 53.22 598.344 53.6493 598.661 54.004C598.997 54.34 599.417 54.508 599.921 54.508C600.425 54.508 600.836 54.34 601.153 54.004Z" fill="#42BFF8"/>
</g>
<path d="M550.848 6.2H552.936V23H551.256V8.744L545.376 18.584H545.136L539.256 8.744V23H537.576V6.2H539.664L545.256 15.56L550.848 6.2ZM558.476 7.304C558.476 7.624 558.364 7.896 558.14 8.12C557.916 8.344 557.644 8.456 557.324 8.456C557.004 8.456 556.732 8.344 556.508 8.12C556.284 7.896 556.172 7.624 556.172 7.304C556.172 6.984 556.284 6.712 556.508 6.488C556.732 6.264 557.004 6.152 557.324 6.152C557.644 6.152 557.916 6.264 558.14 6.488C558.364 6.712 558.476 6.984 558.476 7.304ZM558.116 23H556.532V11H558.116V23ZM571.797 13.352V11H573.381V23H571.797V20.648C570.693 22.408 569.077 23.288 566.949 23.288C565.237 23.288 563.773 22.68 562.557 21.464C561.357 20.248 560.757 18.76 560.757 17C560.757 15.24 561.357 13.752 562.557 12.536C563.773 11.32 565.237 10.712 566.949 10.712C569.077 10.712 570.693 11.592 571.797 13.352ZM563.709 20.384C564.621 21.296 565.741 21.752 567.069 21.752C568.397 21.752 569.517 21.296 570.429 20.384C571.341 19.44 571.797 18.312 571.797 17C571.797 15.672 571.341 14.552 570.429 13.64C569.517 12.712 568.397 12.248 567.069 12.248C565.741 12.248 564.621 12.712 563.709 13.64C562.797 14.552 562.341 15.672 562.341 17C562.341 18.312 562.797 19.44 563.709 20.384ZM589.527 10.712C590.887 10.712 591.975 11.144 592.791 12.008C593.607 12.872 594.015 14.04 594.015 15.512V23H592.431V15.512C592.431 14.488 592.167 13.688 591.639 13.112C591.111 12.536 590.399 12.248 589.503 12.248C588.463 12.248 587.647 12.592 587.055 13.28C586.463 13.968 586.167 14.992 586.167 16.352V23H584.583V15.512C584.583 14.472 584.335 13.672 583.839 13.112C583.343 12.536 582.655 12.248 581.775 12.248C580.767 12.248 579.935 12.6 579.279 13.304C578.639 14.008 578.319 15.024 578.319 16.352V23H576.735V11H578.319V12.752C579.183 11.392 580.407 10.712 581.991 10.712C583.735 10.712 584.951 11.44 585.639 12.896C586.503 11.44 587.799 10.712 589.527 10.712ZM599.022 7.304C599.022 7.624 598.91 7.896 598.686 8.12C598.462 8.344 598.19 8.456 597.87 8.456C597.55 8.456 597.278 8.344 597.054 8.12C596.83 7.896 596.718 7.624 596.718 7.304C596.718 6.984 596.83 6.712 597.054 6.488C597.278 6.264 597.55 6.152 597.87 6.152C598.19 6.152 598.462 6.264 598.686 6.488C598.91 6.712 599.022 6.984 599.022 7.304ZM598.662 23H597.078V11H598.662V23Z" fill="#D1D5D8"/>
<g filter="url(#filter11_b_1274_3458)">
<path d="M542 166H595V82C595 79.7909 593.209 78 591 78H546C543.791 78 542 79.7909 542 82V166Z" fill="#42BFF8" fill-opacity="0.6"/>
<path d="M542.75 165.25H594.25V82C594.25 80.2051 592.795 78.75 591 78.75H546C544.205 78.75 542.75 80.2051 542.75 82V165.25Z" stroke="url(#paint6_linear_1274_3458)" stroke-width="1.5"/>
</g>
<defs>
<filter id="filter0_d_1274_3458" x="248.3" y="392.72" width="121.378" height="61.0796" filterUnits="userSpaceOnUse" color-interpolation-filters="sRGB">
<feFlood flood-opacity="0" result="BackgroundImageFix"/>
<feColorMatrix in="SourceAlpha" type="matrix" values="0 0 0 0 0 0 0 0 0 0 0 0 0 0 0 0 0 0 127 0" result="hardAlpha"/>
<feOffset/>
<feGaussianBlur stdDeviation="11"/>
<feComposite in2="hardAlpha" operator="out"/>
<feColorMatrix type="matrix" values="0 0 0 0 0.905882 0 0 0 0 0.313726 0 0 0 0 0.129412 0 0 0 0.32 0"/>
<feBlend mode="normal" in2="BackgroundImageFix" result="effect1_dropShadow_1274_3458"/>
<feBlend mode="normal" in="SourceGraphic" in2="effect1_dropShadow_1274_3458" result="shape"/>
</filter>
<filter id="filter1_b_1274_3458" x="271" y="148" width="79" height="234" filterUnits="userSpaceOnUse" color-interpolation-filters="sRGB">
<feFlood flood-opacity="0" result="BackgroundImageFix"/>
<feGaussianBlur in="BackgroundImageFix" stdDeviation="10"/>
<feComposite in2="SourceAlpha" operator="in" result="effect1_backgroundBlur_1274_3458"/>
<feBlend mode="normal" in="SourceGraphic" in2="effect1_backgroundBlur_1274_3458" result="shape"/>
</filter>
<filter id="filter2_d_1274_3458" x="172.3" y="336.72" width="122.608" height="61.0796" filterUnits="userSpaceOnUse" color-interpolation-filters="sRGB">
<feFlood flood-opacity="0" result="BackgroundImageFix"/>
<feColorMatrix in="SourceAlpha" type="matrix" values="0 0 0 0 0 0 0 0 0 0 0 0 0 0 0 0 0 0 127 0" result="hardAlpha"/>
<feOffset/>
<feGaussianBlur stdDeviation="11"/>
<feComposite in2="hardAlpha" operator="out"/>
<feColorMatrix type="matrix" values="0 0 0 0 0.890196 0 0 0 0 0.309804 0 0 0 0 0.129412 0 0 0 0.32 0"/>
<feBlend mode="normal" in2="BackgroundImageFix" result="effect1_dropShadow_1274_3458"/>
<feBlend mode="normal" in="SourceGraphic" in2="effect1_dropShadow_1274_3458" result="shape"/>
</filter>
<filter id="filter3_b_1274_3458" x="195" y="148" width="79" height="178" filterUnits="userSpaceOnUse" color-interpolation-filters="sRGB">
<feFlood flood-opacity="0" result="BackgroundImageFix"/>
<feGaussianBlur in="BackgroundImageFix" stdDeviation="10"/>
<feComposite in2="SourceAlpha" operator="in" result="effect1_backgroundBlur_1274_3458"/>
<feBlend mode="normal" in="SourceGraphic" in2="effect1_backgroundBlur_1274_3458" result="shape"/>
</filter>
<filter id="filter4_d_1274_3458" x="404.3" y="243.72" width="118.448" height="61.0796" filterUnits="userSpaceOnUse" color-interpolation-filters="sRGB">
<feFlood flood-opacity="0" result="BackgroundImageFix"/>
<feColorMatrix in="SourceAlpha" type="matrix" values="0 0 0 0 0 0 0 0 0 0 0 0 0 0 0 0 0 0 127 0" result="hardAlpha"/>
<feOffset/>
<feGaussianBlur stdDeviation="11"/>
<feComposite in2="hardAlpha" operator="out"/>
<feColorMatrix type="matrix" values="0 0 0 0 0.913725 0 0 0 0 0.313726 0 0 0 0 0.12549 0 0 0 0.32 0"/>
<feBlend mode="normal" in2="BackgroundImageFix" result="effect1_dropShadow_1274_3458"/>
<feBlend mode="normal" in="SourceGraphic" in2="effect1_dropShadow_1274_3458" result="shape"/>
</filter>
<filter id="filter5_b_1274_3458" x="427" y="148" width="79" height="93" filterUnits="userSpaceOnUse" color-interpolation-filters="sRGB">
<feFlood flood-opacity="0" result="BackgroundImageFix"/>
<feGaussianBlur in="BackgroundImageFix" stdDeviation="10"/>
<feComposite in2="SourceAlpha" operator="in" result="effect1_backgroundBlur_1274_3458"/>
<feBlend mode="normal" in="SourceGraphic" in2="effect1_backgroundBlur_1274_3458" result="shape"/>
</filter>
<filter id="filter6_d_1274_3458" x="328.325" y="289.444" width="120.342" height="61.4097" filterUnits="userSpaceOnUse" color-interpolation-filters="sRGB">
<feFlood flood-opacity="0" result="BackgroundImageFix"/>
<feColorMatrix in="SourceAlpha" type="matrix" values="0 0 0 0 0 0 0 0 0 0 0 0 0 0 0 0 0 0 127 0" result="hardAlpha"/>
<feOffset/>
<feGaussianBlur stdDeviation="11"/>
<feComposite in2="hardAlpha" operator="out"/>
<feColorMatrix type="matrix" values="0 0 0 0 0.917647 0 0 0 0 0.313726 0 0 0 0 0.12549 0 0 0 0.32 0"/>
<feBlend mode="normal" in2="BackgroundImageFix" result="effect1_dropShadow_1274_3458"/>
<feBlend mode="normal" in="SourceGraphic" in2="effect1_dropShadow_1274_3458" result="shape"/>
</filter>
<filter id="filter7_b_1274_3458" x="351" y="148" width="79" height="134" filterUnits="userSpaceOnUse" color-interpolation-filters="sRGB">
<feFlood flood-opacity="0" result="BackgroundImageFix"/>
<feGaussianBlur in="BackgroundImageFix" stdDeviation="10"/>
<feComposite in2="SourceAlpha" operator="in" result="effect1_backgroundBlur_1274_3458"/>
<feBlend mode="normal" in="SourceGraphic" in2="effect1_backgroundBlur_1274_3458" result="shape"/>
</filter>
<filter id="filter8_d_1274_3458" x="96.3252" y="441.444" width="123.727" height="61.4097" filterUnits="userSpaceOnUse" color-interpolation-filters="sRGB">
<feFlood flood-opacity="0" result="BackgroundImageFix"/>
<feColorMatrix in="SourceAlpha" type="matrix" values="0 0 0 0 0 0 0 0 0 0 0 0 0 0 0 0 0 0 127 0" result="hardAlpha"/>
<feOffset/>
<feGaussianBlur stdDeviation="11"/>
<feComposite in2="hardAlpha" operator="out"/>
<feColorMatrix type="matrix" values="0 0 0 0 0.909804 0 0 0 0 0.313726 0 0 0 0 0.12549 0 0 0 0.32 0"/>
<feBlend mode="normal" in2="BackgroundImageFix" result="effect1_dropShadow_1274_3458"/>
<feBlend mode="normal" in="SourceGraphic" in2="effect1_dropShadow_1274_3458" result="shape"/>
</filter>
<filter id="filter9_b_1274_3458" x="119" y="148" width="79" height="280" filterUnits="userSpaceOnUse" color-interpolation-filters="sRGB">
<feFlood flood-opacity="0" result="BackgroundImageFix"/>
<feGaussianBlur in="BackgroundImageFix" stdDeviation="10"/>
<feComposite in2="SourceAlpha" operator="in" result="effect1_backgroundBlur_1274_3458"/>
<feBlend mode="normal" in="SourceGraphic" in2="effect1_backgroundBlur_1274_3458" result="shape"/>
</filter>
<filter id="filter10_d_1274_3458" x="513.308" y="15.0081" width="113.317" height="67.9119" filterUnits="userSpaceOnUse" color-interpolation-filters="sRGB">
<feFlood flood-opacity="0" result="BackgroundImageFix"/>
<feColorMatrix in="SourceAlpha" type="matrix" values="0 0 0 0 0 0 0 0 0 0 0 0 0 0 0 0 0 0 127 0" result="hardAlpha"/>
<feOffset/>
<feGaussianBlur stdDeviation="11"/>
<feComposite in2="hardAlpha" operator="out"/>
<feColorMatrix type="matrix" values="0 0 0 0 0.137255 0 0 0 0 0.511216 0 0 0 0 0.721569 0 0 0 0.32 0"/>
<feBlend mode="normal" in2="BackgroundImageFix" result="effect1_dropShadow_1274_3458"/>
<feBlend mode="normal" in="SourceGraphic" in2="effect1_dropShadow_1274_3458" result="shape"/>
</filter>
<filter id="filter11_b_1274_3458" x="522" y="58" width="93" height="128" filterUnits="userSpaceOnUse" color-interpolation-filters="sRGB">
<feFlood flood-opacity="0" result="BackgroundImageFix"/>
<feGaussianBlur in="BackgroundImageFix" stdDeviation="10"/>
<feComposite in2="SourceAlpha" operator="in" result="effect1_backgroundBlur_1274_3458"/>
<feBlend mode="normal" in="SourceGraphic" in2="effect1_backgroundBlur_1274_3458" result="shape"/>
</filter>
<linearGradient id="paint0_linear_1274_3458" x1="734.5" y1="168.002" x2="39.5011" y2="167.121" gradientUnits="userSpaceOnUse">
<stop stop-color="white" stop-opacity="0"/>
<stop offset="0.473681" stop-color="#A8D5FF"/>
<stop offset="1" stop-color="white" stop-opacity="0"/>
</linearGradient>
<linearGradient id="paint1_linear_1274_3458" x1="310.5" y1="168" x2="310.5" y2="362" gradientUnits="userSpaceOnUse">
<stop stop-color="#FF531D"/>
<stop offset="1" stop-color="#FF531D" stop-opacity="0"/>
</linearGradient>
<linearGradient id="paint2_linear_1274_3458" x1="234.5" y1="168" x2="234.5" y2="306" gradientUnits="userSpaceOnUse">
<stop stop-color="#FF531D"/>
<stop offset="1" stop-color="#FF531D" stop-opacity="0"/>
</linearGradient>
<linearGradient id="paint3_linear_1274_3458" x1="466.5" y1="168" x2="466.5" y2="221" gradientUnits="userSpaceOnUse">
<stop stop-color="#FF531D"/>
<stop offset="1" stop-color="#FF531D" stop-opacity="0"/>
</linearGradient>
<linearGradient id="paint4_linear_1274_3458" x1="390.5" y1="168" x2="390.5" y2="262" gradientUnits="userSpaceOnUse">
<stop stop-color="#FF531D"/>
<stop offset="1" stop-color="#FF531D" stop-opacity="0"/>
</linearGradient>
<linearGradient id="paint5_linear_1274_3458" x1="158.5" y1="168" x2="158.5" y2="408" gradientUnits="userSpaceOnUse">
<stop stop-color="#FF531D"/>
<stop offset="1" stop-color="#FF531D" stop-opacity="0"/>
</linearGradient>
<linearGradient id="paint6_linear_1274_3458" x1="568.5" y1="166" x2="568.5" y2="78" gradientUnits="userSpaceOnUse">
<stop stop-color="#64B9E0"/>
<stop offset="1" stop-color="#64B9E0" stop-opacity="0"/>
</linearGradient>
</defs>
</svg>
