<svg width="750" height="424" viewBox="0 0 750 424" fill="none" xmlns="http://www.w3.org/2000/svg">
<g filter="url(#filter0_d_1009_1635)">
<path opacity="0.15" d="M10 25.7259C10 17.0407 17.0407 10 25.7259 10H723.562C732.247 10 739.288 17.0407 739.288 25.7259V398.399C739.288 407.084 732.247 414.125 723.562 414.125H25.7259C17.0407 414.125 10 407.084 10 398.399V25.7259Z" fill="#244561"/>
<line opacity="0.25" x1="95.4111" y1="87.6764" x2="700.957" y2="87.6764" stroke="#D1D5D8" stroke-width="0.700863" stroke-dasharray="6.31 6.31"/>
<line opacity="0.25" x1="95.4111" y1="227.849" x2="700.957" y2="227.849" stroke="#D1D5D8" stroke-width="0.700863" stroke-dasharray="6.31 6.31"/>
<path opacity="0.25" d="M95.4111 346.609H700.957" stroke="#A9C7DD" stroke-width="1.4743" stroke-linecap="round"/>
<g opacity="0.8">
<g filter="url(#filter1_d_1009_1635)">
<path d="M130.402 322.098L93.5439 347.562H694.648V77.7959L691.845 88.3088L679.58 106.531L668.016 145.78L652.947 169.609L640 182.5L622 184L611.5 194.5L597 193.5L585 205.5L572 208L558.5 222L544 224L528 236L515.5 236.5L500.86 250.208L485.791 247.755L473 258.5L459.509 260.02L447 281L430.773 281.397L420.5 292H415.5L402.739 283.85L391.5 289.5L374.354 278.243L363.5 280L348.422 272.285L341.5 277L335.5 276.5L320.5 251.5L311 248L296 230L260.763 222.225L253.104 228.935L245.044 230.935L227.5 254L208.95 269.482L201 281L183 292.5L174.659 301.072L154.582 310.183L141.368 322.098H130.402Z" fill="url(#paint0_linear_1009_1635)" shape-rendering="crispEdges"/>
</g>
<g filter="url(#filter2_d_1009_1635)">
<path d="M93.5439 346.579L127.794 323.212C128.842 322.498 130.08 322.115 131.349 322.115H139.643C141.382 322.115 143.044 321.397 144.236 320.131L152.651 311.19C153.264 310.538 154.01 310.024 154.838 309.682L174.23 301.679C175.169 301.292 176 300.683 176.653 299.905L182.419 293.041C182.816 292.569 183.281 292.157 183.797 291.819L200.122 281.145C200.86 280.663 201.488 280.032 201.966 279.292L208.386 269.371C208.759 268.794 209.225 268.281 209.764 267.854L226.86 254.306C227.3 253.958 227.691 253.552 228.024 253.099L243.154 232.523C244.343 230.906 246.229 229.952 248.236 229.952H250.217C252.051 229.952 253.793 229.154 254.991 227.767L257.328 225.061C258.83 223.322 261.159 222.537 263.407 223.013L294.081 229.502C295.459 229.793 296.7 230.537 297.605 231.616L309.933 246.292C310.585 247.068 311.415 247.676 312.351 248.063L319.033 250.828C320.363 251.378 321.465 252.367 322.155 253.63L333.233 273.885C335.103 277.303 339.594 278.226 342.66 275.821L344.994 273.991C347.057 272.373 349.906 272.2 352.15 273.557L361.124 278.983C362.632 279.895 364.453 280.134 366.146 279.643L371.238 278.164C373.193 277.597 375.303 278.008 376.902 279.268L388.033 288.043C390.28 289.814 393.437 289.851 395.725 288.133L398.896 285.752C401.166 284.048 404.295 284.069 406.541 285.805L413.47 291.159C416.105 293.195 419.869 292.832 422.067 290.33L428.69 282.786C430.001 281.293 431.94 280.505 433.921 280.659L443.268 281.389C445.764 281.584 448.139 280.284 449.321 278.077L457.726 262.369C458.823 260.318 460.961 259.037 463.287 259.037H470.615C472.257 259.037 473.834 258.397 475.012 257.252L483.282 249.212C484.843 247.694 487.075 247.089 489.189 247.61L498.135 249.815C500.458 250.388 502.904 249.597 504.453 247.773L512.637 238.134C513.836 236.723 515.594 235.909 517.445 235.909H527.185C528.737 235.909 530.234 235.337 531.391 234.302L541.414 225.334C542.388 224.462 543.609 223.915 544.908 223.767L556.003 222.507C557.504 222.336 558.895 221.632 559.921 220.522L569.861 209.777C570.792 208.77 572.027 208.094 573.377 207.851L582.82 206.157C584.208 205.907 585.474 205.2 586.413 204.147L594.36 195.236C595.72 193.712 597.734 192.94 599.764 193.165L608.926 194.183C611.031 194.417 613.112 193.579 614.468 191.952L619.342 186.104C620.438 184.788 622.022 183.975 623.73 183.851L637.799 182.828C639.424 182.709 640.94 181.967 642.03 180.756L652.59 169.023C652.827 168.759 653.042 168.475 653.232 168.175L667.545 145.541C667.857 145.047 668.099 144.513 668.264 143.952L679.305 106.481C679.487 105.863 679.763 105.276 680.123 104.742L691.255 88.2022C691.646 87.6221 691.937 86.981 692.117 86.3054L694.648 76.813" stroke="#42BFF8" stroke-width="1.5" stroke-linecap="round"/>
</g>
</g>
<path opacity="0.5" d="M107.337 340.126L94.5264 346.579H695.059V243.378L660.711 266.163L641.629 270.72L634 267.5L594.445 274.576L557.669 280.885L538.24 284.391L513 286.143L501 290L491.056 286.143L445.607 290.35L430.176 292.03L418 296.5L413.44 295.06L383.157 301.918L354.36 303.67L332.5 308.5L323.5 302.5L312.033 306.124L279.074 315.589L264.502 314.537L252.706 319.094L242.5 318L236.4 324.001L180.5 333L173.603 330.662L145.154 336.621H133.705L107.337 340.126Z" fill="url(#paint1_linear_1009_1635)"/>
<g filter="url(#filter3_d_1009_1635)">
<path d="M93.5439 346.579L105.995 340.143C106.643 339.808 107.345 339.588 108.068 339.493L133.608 336.132H144.525C144.955 336.132 145.384 336.088 145.805 336.001L171.846 330.603C173.184 330.325 174.576 330.49 175.812 331.072L178.09 332.143C179.246 332.687 180.54 332.867 181.8 332.66L235.117 323.882C236.552 323.646 237.861 322.922 238.823 321.831L240.468 319.966C241.803 318.454 243.779 317.671 245.787 317.859L252.34 318.473C253.304 318.564 254.276 318.431 255.181 318.085L264.414 314.555C265.274 314.226 266.197 314.089 267.116 314.155L279.332 315.028C280.064 315.08 280.8 315.004 281.506 314.803L312.991 305.855C313.481 305.715 313.953 305.517 314.396 305.264L319.009 302.628C321.639 301.125 324.965 301.704 326.933 304.007L328.886 306.291C330.427 308.095 332.851 308.881 335.157 308.325L355.941 303.322C356.301 303.236 356.668 303.181 357.038 303.158L385.069 301.47C385.401 301.45 385.731 301.403 386.056 301.331L412.802 295.393C413.842 295.162 414.931 295.343 415.841 295.898V295.898C416.933 296.564 418.273 296.685 419.467 296.226L430.852 291.846C431.382 291.642 431.937 291.511 432.502 291.455L448.646 289.876L488.879 285.845C490.02 285.731 491.17 285.93 492.207 286.42L498.486 289.393C500.054 290.135 501.859 290.199 503.476 289.568L512.555 286.029C513.165 285.791 513.808 285.65 514.462 285.61L542.211 283.918L561.835 280.414L598.981 274.106L632.486 267.485C634.159 267.154 635.896 267.515 637.299 268.486L638.965 269.64C640.56 270.744 642.576 271.053 644.429 270.476L662.672 264.801C663.292 264.608 663.878 264.321 664.41 263.949L694.568 242.887" stroke="#1F769E" stroke-width="1.5" stroke-linecap="round"/>
</g>
<path opacity="0.5" d="M50.2416 55.9087L47.7283 59.378C48.5815 59.4808 49.2908 59.8148 49.8562 60.3802C50.4215 60.9147 50.7042 61.6394 50.7042 62.5543C50.7042 63.5719 50.3496 64.384 49.6403 64.9905C48.9516 65.5764 48.0984 65.8694 47.0807 65.8694C46.2687 65.8694 45.5491 65.6843 44.9221 65.3143C44.295 64.9339 43.8582 64.4045 43.6115 63.7261L44.5058 63.2019C44.6805 63.7261 44.9889 64.127 45.4309 64.4045C45.8832 64.6821 46.4331 64.8209 47.0807 64.8209C47.8414 64.8209 48.453 64.6204 48.9156 64.2195C49.3884 63.8083 49.6249 63.2533 49.6249 62.5543C49.6249 61.8553 49.3884 61.3053 48.9156 60.9044C48.453 60.4933 47.8414 60.2877 47.0807 60.2877V60.2723L47.0653 60.2877H46.7724L46.3098 59.5784L48.9927 55.9087H43.9198V54.891H50.2416V55.9087ZM59.1889 64.3583C58.4796 65.3657 57.4774 65.8694 56.1822 65.8694C54.8972 65.8694 53.8899 65.3657 53.16 64.3583C52.4508 63.3406 52.0961 61.9838 52.0961 60.2877C52.0961 58.5813 52.4508 57.2296 53.16 56.2325C53.8899 55.2148 54.8972 54.706 56.1822 54.706C57.4774 54.706 58.4796 55.2148 59.1889 56.2325C59.9084 57.2296 60.2682 58.5813 60.2682 60.2877C60.2682 61.994 59.9084 63.3509 59.1889 64.3583ZM53.9618 63.6336C54.5066 64.4251 55.2467 64.8209 56.1822 64.8209C57.1279 64.8209 57.8628 64.4251 58.3871 63.6336C58.9216 62.8524 59.1889 61.7371 59.1889 60.2877C59.1889 58.8383 58.9216 57.723 58.3871 56.9418C57.8628 56.1502 57.1279 55.7545 56.1822 55.7545C55.2467 55.7545 54.5066 56.1502 53.9618 56.9418C53.4376 57.7333 53.1755 58.8486 53.1755 60.2877C53.1755 61.7268 53.4376 62.8421 53.9618 63.6336ZM68.901 64.3583C68.1917 65.3657 67.1895 65.8694 65.8943 65.8694C64.6094 65.8694 63.602 65.3657 62.8722 64.3583C62.1629 63.3406 61.8083 61.9838 61.8083 60.2877C61.8083 58.5813 62.1629 57.2296 62.8722 56.2325C63.602 55.2148 64.6094 54.706 65.8943 54.706C67.1895 54.706 68.1917 55.2148 68.901 56.2325C69.6206 57.2296 69.9804 58.5813 69.9804 60.2877C69.9804 61.994 69.6206 63.3509 68.901 64.3583ZM63.674 63.6336C64.2188 64.4251 64.9589 64.8209 65.8943 64.8209C66.84 64.8209 67.575 64.4251 68.0992 63.6336C68.6338 62.8524 68.901 61.7371 68.901 60.2877C68.901 58.8383 68.6338 57.723 68.0992 56.9418C67.575 56.1502 66.84 55.7545 65.8943 55.7545C64.9589 55.7545 64.2188 56.1502 63.674 56.9418C63.1497 57.7333 62.8876 58.8486 62.8876 60.2877C62.8876 61.7268 63.1497 62.8421 63.674 63.6336Z" fill="#D1D5D8"/>
<path d="M51.3348 93.0181H44.4734V92.0467L48.3589 88.1302C49.4691 87.0201 50.0242 86.0692 50.0242 85.2777C50.0242 84.6096 49.8135 84.0802 49.392 83.6896C48.9808 83.2887 48.4669 83.0882 47.8501 83.0882C46.7502 83.0882 45.9433 83.5971 45.4293 84.6147L44.5196 84.075C44.8486 83.4172 45.306 82.9135 45.8919 82.564C46.4778 82.2145 47.1306 82.0397 47.8501 82.0397C48.7136 82.0397 49.4691 82.3327 50.1167 82.9186C50.7746 83.484 51.1035 84.2704 51.1035 85.2777C51.1035 85.8739 50.9391 86.4599 50.6101 87.0355C50.2812 87.6009 49.7775 88.2228 49.0991 88.9012L46.0153 91.9696H51.3348V93.0181ZM57.9266 87.4518C58.4816 87.7088 58.9185 88.0686 59.2372 88.5311C59.5558 88.9937 59.7152 89.5128 59.7152 90.0885C59.7152 91.065 59.3708 91.8308 58.6821 92.3859C57.9831 92.9307 57.1248 93.2031 56.1071 93.2031C55.0895 93.2031 54.2311 92.9307 53.5321 92.3859C52.8434 91.8308 52.4991 91.065 52.4991 90.0885C52.4991 89.5128 52.6584 88.9937 52.9771 88.5311C53.2957 88.0686 53.7326 87.7088 54.2877 87.4518C53.3317 86.907 52.8537 86.1001 52.8537 85.031C52.8537 84.0648 53.1724 83.3247 53.8097 82.8107C54.4676 82.2967 55.2334 82.0397 56.1071 82.0397C56.9911 82.0397 57.7518 82.2967 58.3891 82.8107C59.0367 83.3247 59.3605 84.0648 59.3605 85.031C59.3605 86.1001 58.8825 86.907 57.9266 87.4518ZM53.933 85.031C53.933 85.6272 54.1386 86.1001 54.5498 86.4496C54.9712 86.7991 55.4904 86.9738 56.1071 86.9738C56.7239 86.9738 57.2378 86.7991 57.649 86.4496C58.0705 86.1001 58.2812 85.6272 58.2812 85.031C58.2812 84.404 58.0807 83.926 57.6798 83.5971C57.279 83.2578 56.7547 83.0882 56.1071 83.0882C55.4595 83.0882 54.9353 83.2578 54.5344 83.5971C54.1335 83.926 53.933 84.404 53.933 85.031ZM54.2723 91.6304C54.7245 91.9799 55.3362 92.1546 56.1071 92.1546C56.8781 92.1546 57.4897 91.9799 57.942 91.6304C58.4045 91.2706 58.6358 90.7566 58.6358 90.0885C58.6358 89.4306 58.4045 88.9218 57.942 88.562C57.4691 88.2022 56.8575 88.0223 56.1071 88.0223C55.3567 88.0223 54.7451 88.2022 54.2723 88.562C53.8097 88.9218 53.5784 89.4306 53.5784 90.0885C53.5784 90.7669 53.8097 91.2809 54.2723 91.6304ZM68.1933 91.692C67.484 92.6994 66.4818 93.2031 65.1866 93.2031C63.9017 93.2031 62.8943 92.6994 62.1645 91.692C61.4552 90.6744 61.1006 89.3175 61.1006 87.6214C61.1006 85.915 61.4552 84.5633 62.1645 83.5662C62.8943 82.5486 63.9017 82.0397 65.1866 82.0397C66.4818 82.0397 67.484 82.5486 68.1933 83.5662C68.9129 84.5633 69.2726 85.915 69.2726 87.6214C69.2726 89.3278 68.9129 90.6847 68.1933 91.692ZM62.9663 90.9673C63.5111 91.7588 64.2512 92.1546 65.1866 92.1546C66.1323 92.1546 66.8673 91.7588 67.3915 90.9673C67.9261 90.1861 68.1933 89.0708 68.1933 87.6214C68.1933 86.172 67.9261 85.0567 67.3915 84.2755C66.8673 83.484 66.1323 83.0882 65.1866 83.0882C64.2512 83.0882 63.5111 83.484 62.9663 84.2755C62.442 85.067 62.1799 86.1823 62.1799 87.6214C62.1799 89.0605 62.442 90.1758 62.9663 90.9673Z" fill="#D1D5D8"/>
<path opacity="0.5" d="M51.5833 120.352H44.7218V119.38L48.6074 115.464C49.7176 114.354 50.2726 113.403 50.2726 112.611C50.2726 111.943 50.0619 111.414 49.6405 111.023C49.2293 110.622 48.7153 110.422 48.0986 110.422C46.9987 110.422 46.1918 110.931 45.6778 111.948L44.7681 111.409C45.097 110.751 45.5544 110.247 46.1404 109.898C46.7263 109.548 47.379 109.373 48.0986 109.373C48.962 109.373 49.7176 109.666 50.3652 110.252C51.023 110.818 51.352 111.604 51.352 112.611C51.352 113.208 51.1875 113.794 50.8586 114.369C50.5296 114.935 50.0259 115.556 49.3475 116.235L46.2637 119.303H51.5833V120.352ZM55.9909 113.413C57.0394 113.413 57.908 113.747 58.5967 114.415C59.2752 115.084 59.6144 115.937 59.6144 116.975C59.6144 118.034 59.2752 118.892 58.5967 119.55C57.9286 120.208 57.06 120.537 55.9909 120.537C54.9219 120.537 54.0533 120.208 53.3851 119.55C52.7067 118.892 52.3675 118.034 52.3675 116.975C52.3675 116.163 52.5885 115.443 53.0305 114.816L56.5614 109.559H57.7795L55.1275 113.506C55.405 113.444 55.6928 113.413 55.9909 113.413ZM54.1406 118.794C54.6238 119.257 55.2405 119.488 55.9909 119.488C56.7516 119.488 57.3632 119.257 57.8258 118.794C58.2986 118.332 58.5351 117.725 58.5351 116.975C58.5351 116.225 58.2986 115.618 57.8258 115.156C57.3632 114.693 56.7516 114.462 55.9909 114.462C55.2405 114.462 54.6238 114.693 54.1406 115.156C53.6781 115.618 53.4468 116.225 53.4468 116.975C53.4468 117.725 53.6781 118.332 54.1406 118.794ZM67.9449 119.026C67.2356 120.033 66.2334 120.537 64.9382 120.537C63.6532 120.537 62.6459 120.033 61.916 119.026C61.2068 118.008 60.8521 116.651 60.8521 114.955C60.8521 113.249 61.2068 111.897 61.916 110.9C62.6459 109.882 63.6532 109.373 64.9382 109.373C66.2334 109.373 67.2356 109.882 67.9449 110.9C68.6644 111.897 69.0242 113.249 69.0242 114.955C69.0242 116.662 68.6644 118.018 67.9449 119.026ZM62.7178 118.301C63.2626 119.093 64.0027 119.488 64.9382 119.488C65.8839 119.488 66.6188 119.093 67.1431 118.301C67.6776 117.52 67.9449 116.405 67.9449 114.955C67.9449 113.506 67.6776 112.39 67.1431 111.609C66.6188 110.818 65.8839 110.422 64.9382 110.422C64.0027 110.422 63.2626 110.818 62.7178 111.609C62.1936 112.401 61.9315 113.516 61.9315 114.955C61.9315 116.394 62.1936 117.51 62.7178 118.301Z" fill="#D1D5D8"/>
<path opacity="0.5" d="M51.1993 147.686H44.3378V146.714L48.2234 142.798C49.3336 141.688 49.8887 140.737 49.8887 139.945C49.8887 139.277 49.678 138.748 49.2565 138.357C48.8453 137.956 48.3314 137.756 47.7146 137.756C46.6147 137.756 45.8078 138.265 45.2938 139.282L44.3841 138.743C44.713 138.085 45.1705 137.581 45.7564 137.231C46.3423 136.882 46.995 136.707 47.7146 136.707C48.5781 136.707 49.3336 137 49.9812 137.586C50.6391 138.151 50.968 138.938 50.968 139.945C50.968 140.541 50.8035 141.127 50.4746 141.703C50.1457 142.268 49.642 142.89 48.9635 143.569L45.8797 146.637H51.1993V147.686ZM58.6908 144.509H60.0785V145.527H58.6908V147.686H57.6114V145.527H51.9064V144.509L55.9153 136.892H57.1026L53.0937 144.509H57.6114V141.21H58.6908V144.509ZM68.3288 146.36C67.6196 147.367 66.6173 147.871 65.3221 147.871C64.0372 147.871 63.0298 147.367 62.3 146.36C61.5907 145.342 61.2361 143.985 61.2361 142.289C61.2361 140.583 61.5907 139.231 62.3 138.234C63.0298 137.216 64.0372 136.707 65.3221 136.707C66.6173 136.707 67.6196 137.216 68.3288 138.234C69.0484 139.231 69.4082 140.583 69.4082 142.289C69.4082 143.995 69.0484 145.352 68.3288 146.36ZM63.1018 145.635C63.6466 146.426 64.3867 146.822 65.3221 146.822C66.2678 146.822 67.0028 146.426 67.527 145.635C68.0616 144.854 68.3288 143.738 68.3288 142.289C68.3288 140.84 68.0616 139.724 67.527 138.943C67.0028 138.151 66.2678 137.756 65.3221 137.756C64.3867 137.756 63.6466 138.151 63.1018 138.943C62.5775 139.734 62.3154 140.85 62.3154 142.289C62.3154 143.728 62.5775 144.843 63.1018 145.635Z" fill="#D1D5D8"/>
<path opacity="0.5" d="M51.5456 175.72H44.6842V174.749L48.5698 170.832C49.6799 169.722 50.235 168.771 50.235 167.98C50.235 167.312 50.0243 166.782 49.6028 166.392C49.1917 165.991 48.6777 165.79 48.0609 165.79C46.961 165.79 46.1541 166.299 45.6401 167.317L44.7304 166.777C45.0594 166.119 45.5168 165.616 46.1027 165.266C46.6886 164.917 47.3414 164.742 48.0609 164.742C48.9244 164.742 49.6799 165.035 50.3275 165.621C50.9854 166.186 51.3143 166.973 51.3143 167.98C51.3143 168.576 51.1499 169.162 50.8209 169.738C50.492 170.303 49.9883 170.925 49.3099 171.603L46.2261 174.672H51.5456V175.72ZM59.6466 175.72H52.7852V174.749L56.6707 170.832C57.7809 169.722 58.336 168.771 58.336 167.98C58.336 167.312 58.1253 166.782 57.7038 166.392C57.2926 165.991 56.7787 165.79 56.1619 165.79C55.062 165.79 54.2551 166.299 53.7411 167.317L52.8314 166.777C53.1604 166.119 53.6178 165.616 54.2037 165.266C54.7896 164.917 55.4424 164.742 56.1619 164.742C57.0254 164.742 57.7809 165.035 58.4285 165.621C59.0864 166.186 59.4153 166.973 59.4153 167.98C59.4153 168.576 59.2509 169.162 58.9219 169.738C58.593 170.303 58.0893 170.925 57.4109 171.603L54.3271 174.672H59.6466V175.72ZM67.9825 174.394C67.2732 175.402 66.271 175.905 64.9758 175.905C63.6909 175.905 62.6835 175.402 61.9537 174.394C61.2444 173.377 60.8898 172.02 60.8898 170.324C60.8898 168.617 61.2444 167.265 61.9537 166.268C62.6835 165.251 63.6909 164.742 64.9758 164.742C66.271 164.742 67.2732 165.251 67.9825 166.268C68.7021 167.265 69.0618 168.617 69.0618 170.324C69.0618 172.03 68.7021 173.387 67.9825 174.394ZM62.7555 173.669C63.3003 174.461 64.0404 174.857 64.9758 174.857C65.9215 174.857 66.6565 174.461 67.1807 173.669C67.7152 172.888 67.9825 171.773 67.9825 170.324C67.9825 168.874 67.7152 167.759 67.1807 166.978C66.6565 166.186 65.9215 165.79 64.9758 165.79C64.0404 165.79 63.3003 166.186 62.7555 166.978C62.2312 167.769 61.9691 168.884 61.9691 170.324C61.9691 171.763 62.2312 172.878 62.7555 173.669Z" fill="#D1D5D8"/>
<path opacity="0.5" d="M50.74 203.754H43.8786V202.783L47.7642 198.867C48.8743 197.756 49.4294 196.806 49.4294 196.014C49.4294 195.346 49.2187 194.817 48.7972 194.426C48.3861 194.025 47.8721 193.825 47.2553 193.825C46.1555 193.825 45.3485 194.333 44.8346 195.351L43.9248 194.811C44.2538 194.154 44.7112 193.65 45.2971 193.3C45.8831 192.951 46.5358 192.776 47.2553 192.776C48.1188 192.776 48.8743 193.069 49.5219 193.655C50.1798 194.22 50.5088 195.007 50.5088 196.014C50.5088 196.61 50.3443 197.196 50.0153 197.772C49.6864 198.337 49.1827 198.959 48.5043 199.638L45.4205 202.706H50.74V203.754ZM59.0759 202.428C58.3667 203.436 57.3644 203.939 56.0692 203.939C54.7843 203.939 53.7769 203.436 53.0471 202.428C52.3378 201.411 51.9832 200.054 51.9832 198.358C51.9832 196.651 52.3378 195.3 53.0471 194.303C53.7769 193.285 54.7843 192.776 56.0692 192.776C57.3644 192.776 58.3667 193.285 59.0759 194.303C59.7955 195.3 60.1553 196.651 60.1553 198.358C60.1553 200.064 59.7955 201.421 59.0759 202.428ZM53.8489 201.704C54.3937 202.495 55.1338 202.891 56.0692 202.891C57.0149 202.891 57.7499 202.495 58.2741 201.704C58.8087 200.922 59.0759 199.807 59.0759 198.358C59.0759 196.908 58.8087 195.793 58.2741 195.012C57.7499 194.22 57.0149 193.825 56.0692 193.825C55.1338 193.825 54.3937 194.22 53.8489 195.012C53.3246 195.803 53.0625 196.919 53.0625 198.358C53.0625 199.797 53.3246 200.912 53.8489 201.704ZM68.7881 202.428C68.0788 203.436 67.0766 203.939 65.7814 203.939C64.4965 203.939 63.4891 203.436 62.7593 202.428C62.05 201.411 61.6953 200.054 61.6953 198.358C61.6953 196.651 62.05 195.3 62.7593 194.303C63.4891 193.285 64.4965 192.776 65.7814 192.776C67.0766 192.776 68.0788 193.285 68.7881 194.303C69.5076 195.3 69.8674 196.651 69.8674 198.358C69.8674 200.064 69.5076 201.421 68.7881 202.428ZM63.561 201.704C64.1059 202.495 64.846 202.891 65.7814 202.891C66.7271 202.891 67.4621 202.495 67.9863 201.704C68.5208 200.922 68.7881 199.807 68.7881 198.358C68.7881 196.908 68.5208 195.793 67.9863 195.012C67.4621 194.22 66.7271 193.825 65.7814 193.825C64.846 193.825 64.1059 194.22 63.561 195.012C63.0368 195.803 62.7747 196.919 62.7747 198.358C62.7747 199.797 63.0368 200.912 63.561 201.704Z" fill="#D1D5D8"/>
<path d="M45.4807 221.983L48.3332 220.996H49.2584V231.789H48.179V222.183L45.7583 222.908L45.4807 221.983ZM56.5337 226.223C57.0888 226.48 57.5257 226.84 57.8443 227.302C58.163 227.765 58.3223 228.284 58.3223 228.859C58.3223 229.836 57.978 230.602 57.2893 231.157C56.5903 231.702 55.7319 231.974 54.7143 231.974C53.6966 231.974 52.8383 231.702 52.1393 231.157C51.4506 230.602 51.1062 229.836 51.1062 228.859C51.1062 228.284 51.2656 227.765 51.5842 227.302C51.9029 226.84 52.3398 226.48 52.8948 226.223C51.9389 225.678 51.4609 224.871 51.4609 223.802C51.4609 222.836 51.7795 222.096 52.4169 221.582C53.0747 221.068 53.8405 220.811 54.7143 220.811C55.5983 220.811 56.359 221.068 56.9963 221.582C57.6439 222.096 57.9677 222.836 57.9677 223.802C57.9677 224.871 57.4897 225.678 56.5337 226.223ZM52.5402 223.802C52.5402 224.398 52.7458 224.871 53.157 225.221C53.5784 225.57 54.0975 225.745 54.7143 225.745C55.331 225.745 55.845 225.57 56.2562 225.221C56.6776 224.871 56.8884 224.398 56.8884 223.802C56.8884 223.175 56.6879 222.697 56.287 222.368C55.8861 222.029 55.3619 221.859 54.7143 221.859C54.0667 221.859 53.5424 222.029 53.1415 222.368C52.7407 222.697 52.5402 223.175 52.5402 223.802ZM52.8794 230.401C53.3317 230.751 53.9433 230.926 54.7143 230.926C55.4852 230.926 56.0969 230.751 56.5491 230.401C57.0117 230.042 57.243 229.528 57.243 228.859C57.243 228.202 57.0117 227.693 56.5491 227.333C56.0763 226.973 55.4647 226.793 54.7143 226.793C53.9639 226.793 53.3523 226.973 52.8794 227.333C52.4169 227.693 52.1856 228.202 52.1856 228.859C52.1856 229.538 52.4169 230.052 52.8794 230.401ZM66.8005 230.463C66.0912 231.47 65.089 231.974 63.7938 231.974C62.5089 231.974 61.5015 231.47 60.7717 230.463C60.0624 229.445 59.7077 228.089 59.7077 226.392C59.7077 224.686 60.0624 223.334 60.7717 222.337C61.5015 221.32 62.5089 220.811 63.7938 220.811C65.089 220.811 66.0912 221.32 66.8005 222.337C67.52 223.334 67.8798 224.686 67.8798 226.392C67.8798 228.099 67.52 229.456 66.8005 230.463ZM61.5734 229.738C62.1183 230.53 62.8584 230.926 63.7938 230.926C64.7395 230.926 65.4745 230.53 65.9987 229.738C66.5332 228.957 66.8005 227.842 66.8005 226.392C66.8005 224.943 66.5332 223.828 65.9987 223.046C65.4745 222.255 64.7395 221.859 63.7938 221.859C62.8584 221.859 62.1183 222.255 61.5734 223.046C61.0492 223.838 60.7871 224.953 60.7871 226.392C60.7871 227.832 61.0492 228.947 61.5734 229.738Z" fill="#D1D5D8"/>
<path opacity="0.5" d="M45.6162 250.017L48.4687 249.03H49.3939V259.824H48.3146V250.218L45.8938 250.942L45.6162 250.017ZM54.711 252.885C55.7595 252.885 56.6281 253.219 57.3168 253.887C57.9953 254.556 58.3345 255.409 58.3345 256.447C58.3345 257.506 57.9953 258.364 57.3168 259.022C56.6487 259.68 55.7801 260.009 54.711 260.009C53.642 260.009 52.7734 259.68 52.1052 259.022C51.4268 258.364 51.0876 257.506 51.0876 256.447C51.0876 255.635 51.3086 254.915 51.7506 254.288L55.2815 249.03H56.4996L53.8476 252.978C54.1251 252.916 54.4129 252.885 54.711 252.885ZM52.8607 258.266C53.3439 258.729 53.9606 258.96 54.711 258.96C55.4717 258.96 56.0833 258.729 56.5459 258.266C57.0187 257.804 57.2552 257.197 57.2552 256.447C57.2552 255.697 57.0187 255.09 56.5459 254.628C56.0833 254.165 55.4717 253.934 54.711 253.934C53.9606 253.934 53.3439 254.165 52.8607 254.628C52.3982 255.09 52.1669 255.697 52.1669 256.447C52.1669 257.197 52.3982 257.804 52.8607 258.266ZM66.665 258.498C65.9557 259.505 64.9535 260.009 63.6583 260.009C62.3733 260.009 61.366 259.505 60.6361 258.498C59.9269 257.48 59.5722 256.123 59.5722 254.427C59.5722 252.721 59.9269 251.369 60.6361 250.372C61.366 249.354 62.3733 248.845 63.6583 248.845C64.9535 248.845 65.9557 249.354 66.665 250.372C67.3845 251.369 67.7443 252.721 67.7443 254.427C67.7443 256.133 67.3845 257.49 66.665 258.498ZM61.4379 257.773C61.9827 258.565 62.7228 258.96 63.6583 258.96C64.604 258.96 65.3389 258.565 65.8632 257.773C66.3977 256.992 66.665 255.876 66.665 254.427C66.665 252.978 66.3977 251.862 65.8632 251.081C65.3389 250.29 64.604 249.894 63.6583 249.894C62.7228 249.894 61.9827 250.29 61.4379 251.081C60.9137 251.873 60.6516 252.988 60.6516 254.427C60.6516 255.866 60.9137 256.981 61.4379 257.773Z" fill="#D1D5D8"/>
<path opacity="0.5" d="M45.2323 278.752L48.0848 277.766H49.0099V288.559H47.9306V278.953L45.5098 279.677L45.2323 278.752ZM57.4109 285.383H58.7986V286.4H57.4109V288.559H56.3315V286.4H50.6265V285.383L54.6354 277.766H55.8227L51.8138 285.383H56.3315V282.083H57.4109V285.383ZM67.0489 287.233C66.3397 288.24 65.3374 288.744 64.0422 288.744C62.7573 288.744 61.7499 288.24 61.0201 287.233C60.3108 286.215 59.9562 284.858 59.9562 283.162C59.9562 281.456 60.3108 280.104 61.0201 279.107C61.7499 278.089 62.7573 277.581 64.0422 277.581C65.3374 277.581 66.3397 278.089 67.0489 279.107C67.7685 280.104 68.1283 281.456 68.1283 283.162C68.1283 284.869 67.7685 286.225 67.0489 287.233ZM61.8219 286.508C62.3667 287.3 63.1068 287.695 64.0422 287.695C64.9879 287.695 65.7229 287.3 66.2471 286.508C66.7817 285.727 67.0489 284.612 67.0489 283.162C67.0489 281.713 66.7817 280.597 66.2471 279.816C65.7229 279.025 64.9879 278.629 64.0422 278.629C63.1068 278.629 62.3667 279.025 61.8219 279.816C61.2976 280.608 61.0355 281.723 61.0355 283.162C61.0355 284.601 61.2976 285.717 61.8219 286.508Z" fill="#D1D5D8"/>
<path opacity="0.5" d="M45.7292 306.787L48.5817 305.8H49.5068V316.593H48.4275V306.987L46.0067 307.712L45.7292 306.787ZM58.2161 316.593H51.3547V315.622L55.2403 311.705C56.3504 310.595 56.9055 309.644 56.9055 308.853C56.9055 308.185 56.6948 307.655 56.2733 307.265C55.8622 306.864 55.3482 306.663 54.7314 306.663C53.6316 306.663 52.8246 307.172 52.3107 308.19L51.4009 307.65C51.7299 306.992 52.1873 306.489 52.7732 306.139C53.3592 305.79 54.0119 305.615 54.7314 305.615C55.5949 305.615 56.3504 305.908 56.998 306.494C57.6559 307.059 57.9849 307.846 57.9849 308.853C57.9849 309.449 57.8204 310.035 57.4914 310.611C57.1625 311.176 56.6588 311.798 55.9804 312.476L52.8966 315.545H58.2161V316.593ZM66.552 315.267C65.8428 316.275 64.8405 316.778 63.5453 316.778C62.2604 316.778 61.253 316.275 60.5232 315.267C59.8139 314.25 59.4593 312.893 59.4593 311.197C59.4593 309.49 59.8139 308.139 60.5232 307.141C61.253 306.124 62.2604 305.615 63.5453 305.615C64.8405 305.615 65.8428 306.124 66.552 307.141C67.2716 308.139 67.6314 309.49 67.6314 311.197C67.6314 312.903 67.2716 314.26 66.552 315.267ZM61.325 314.543C61.8698 315.334 62.6099 315.73 63.5453 315.73C64.491 315.73 65.226 315.334 65.7502 314.543C66.2848 313.761 66.552 312.646 66.552 311.197C66.552 309.747 66.2848 308.632 65.7502 307.851C65.226 307.059 64.491 306.663 63.5453 306.663C62.6099 306.663 61.8698 307.059 61.325 307.851C60.8007 308.642 60.5386 309.758 60.5386 311.197C60.5386 312.636 60.8007 313.751 61.325 314.543Z" fill="#D1D5D8"/>
<path d="M44.8483 335.522L47.7008 334.536H48.6259V345.329H47.5466V335.723L45.1258 336.448L44.8483 335.522ZM57.7207 344.003C57.0115 345.01 56.0092 345.514 54.714 345.514C53.4291 345.514 52.4218 345.01 51.6919 344.003C50.9826 342.985 50.628 341.628 50.628 339.932C50.628 338.226 50.9826 336.874 51.6919 335.877C52.4218 334.859 53.4291 334.351 54.714 334.351C56.0092 334.351 57.0115 334.859 57.7207 335.877C58.4403 336.874 58.8001 338.226 58.8001 339.932C58.8001 341.639 58.4403 342.995 57.7207 344.003ZM52.4937 343.278C53.0385 344.07 53.7786 344.465 54.714 344.465C55.6597 344.465 56.3947 344.07 56.919 343.278C57.4535 342.497 57.7207 341.382 57.7207 339.932C57.7207 338.483 57.4535 337.368 56.919 336.586C56.3947 335.795 55.6597 335.399 54.714 335.399C53.7786 335.399 53.0385 335.795 52.4937 336.586C51.9695 337.378 51.7073 338.493 51.7073 339.932C51.7073 341.371 51.9695 342.487 52.4937 343.278ZM67.4329 344.003C66.7236 345.01 65.7214 345.514 64.4262 345.514C63.1413 345.514 62.1339 345.01 61.4041 344.003C60.6948 342.985 60.3402 341.628 60.3402 339.932C60.3402 338.226 60.6948 336.874 61.4041 335.877C62.1339 334.859 63.1413 334.351 64.4262 334.351C65.7214 334.351 66.7236 334.859 67.4329 335.877C68.1525 336.874 68.5122 338.226 68.5122 339.932C68.5122 341.639 68.1525 342.995 67.4329 344.003ZM62.2059 343.278C62.7507 344.07 63.4908 344.465 64.4262 344.465C65.3719 344.465 66.1069 344.07 66.6311 343.278C67.1656 342.497 67.4329 341.382 67.4329 339.932C67.4329 338.483 67.1656 337.368 66.6311 336.586C66.1069 335.795 65.3719 335.399 64.4262 335.399C63.4908 335.399 62.7507 335.795 62.2059 336.586C61.6816 337.378 61.4195 338.493 61.4195 339.932C61.4195 341.371 61.6816 342.487 62.2059 343.278Z" fill="#D1D5D8"/>
<path d="M88.9754 361.084H87.7419L88.6671 357.614H89.5922L88.9754 361.084ZM98.0835 367.082C97.3742 368.089 96.372 368.593 95.0768 368.593C93.7919 368.593 92.7845 368.089 92.0547 367.082C91.3454 366.064 90.9907 364.707 90.9907 363.011C90.9907 361.305 91.3454 359.953 92.0547 358.956C92.7845 357.938 93.7919 357.429 95.0768 357.429C96.372 357.429 97.3742 357.938 98.0835 358.956C98.803 359.953 99.1628 361.305 99.1628 363.011C99.1628 364.717 98.803 366.074 98.0835 367.082ZM92.8564 366.357C93.4012 367.148 94.1414 367.544 95.0768 367.544C96.0225 367.544 96.7574 367.148 97.2817 366.357C97.8162 365.576 98.0835 364.46 98.0835 363.011C98.0835 361.562 97.8162 360.446 97.2817 359.665C96.7574 358.874 96.0225 358.478 95.0768 358.478C94.1414 358.478 93.4012 358.874 92.8564 359.665C92.3322 360.457 92.0701 361.572 92.0701 363.011C92.0701 364.45 92.3322 365.565 92.8564 366.357ZM107.796 367.082C107.086 368.089 106.084 368.593 104.789 368.593C103.504 368.593 102.497 368.089 101.767 367.082C101.058 366.064 100.703 364.707 100.703 363.011C100.703 361.305 101.058 359.953 101.767 358.956C102.497 357.938 103.504 357.429 104.789 357.429C106.084 357.429 107.086 357.938 107.796 358.956C108.515 359.953 108.875 361.305 108.875 363.011C108.875 364.717 108.515 366.074 107.796 367.082ZM102.569 366.357C103.113 367.148 103.854 367.544 104.789 367.544C105.735 367.544 106.47 367.148 106.994 366.357C107.528 365.576 107.796 364.46 107.796 363.011C107.796 361.562 107.528 360.446 106.994 359.665C106.47 358.874 105.735 358.478 104.789 358.478C103.854 358.478 103.113 358.874 102.569 359.665C102.044 360.457 101.782 361.572 101.782 363.011C101.782 364.45 102.044 365.565 102.569 366.357Z" fill="#D1D5D8"/>
<path d="M216.457 361.084H215.224L216.149 357.614H217.074L216.457 361.084ZM225.565 367.082C224.856 368.089 223.854 368.593 222.558 368.593C221.274 368.593 220.266 368.089 219.536 367.082C218.827 366.064 218.472 364.707 218.472 363.011C218.472 361.305 218.827 359.953 219.536 358.956C220.266 357.938 221.274 357.429 222.558 357.429C223.854 357.429 224.856 357.938 225.565 358.956C226.285 359.953 226.645 361.305 226.645 363.011C226.645 364.717 226.285 366.074 225.565 367.082ZM220.338 366.357C220.883 367.148 221.623 367.544 222.558 367.544C223.504 367.544 224.239 367.148 224.763 366.357C225.298 365.576 225.565 364.46 225.565 363.011C225.565 361.562 225.298 360.446 224.763 359.665C224.239 358.874 223.504 358.478 222.558 358.478C221.623 358.478 220.883 358.874 220.338 359.665C219.814 360.457 219.552 361.572 219.552 363.011C219.552 364.45 219.814 365.565 220.338 366.357ZM229.68 361.963H231.5C232.517 361.963 233.371 362.261 234.059 362.857C234.769 363.443 235.123 364.25 235.123 365.278C235.123 366.295 234.769 367.107 234.059 367.714C233.371 368.3 232.517 368.593 231.5 368.593C230.667 368.593 229.932 368.392 229.295 367.991C228.668 367.58 228.246 367.015 228.03 366.295L228.94 365.771C229.094 366.336 229.398 366.773 229.85 367.082C230.302 367.39 230.852 367.544 231.5 367.544C232.26 367.544 232.872 367.344 233.335 366.943C233.807 366.532 234.044 365.977 234.044 365.278C234.044 364.579 233.807 364.029 233.335 363.628C232.872 363.217 232.26 363.011 231.5 363.011H228.57L228.956 357.614H234.738V358.632H229.912L229.68 361.963Z" fill="#D1D5D8"/>
<path d="M631.69 207.944V197.151H632.769V207.944H631.69ZM638.698 200.05C639.623 200.05 640.358 200.338 640.902 200.913C641.447 201.479 641.72 202.244 641.72 203.211V207.944H640.702V203.211C640.702 202.522 640.517 201.987 640.147 201.607C639.787 201.227 639.273 201.037 638.605 201.037C637.834 201.037 637.222 201.278 636.77 201.761C636.328 202.244 636.107 202.959 636.107 203.905V207.944H635.089V200.235H636.107V201.438C636.683 200.512 637.546 200.05 638.698 200.05ZM647.28 208.129C646.118 208.129 645.152 207.744 644.381 206.973C643.61 206.181 643.225 205.22 643.225 204.09C643.225 202.949 643.61 201.993 644.381 201.222C645.152 200.44 646.118 200.05 647.28 200.05C648.041 200.05 648.724 200.235 649.331 200.605C649.937 200.965 650.379 201.453 650.657 202.07L649.824 202.548C649.619 202.085 649.284 201.72 648.822 201.453C648.37 201.175 647.856 201.037 647.28 201.037C646.427 201.037 645.707 201.335 645.121 201.931C644.535 202.517 644.242 203.236 644.242 204.09C644.242 204.932 644.535 205.657 645.121 206.264C645.707 206.85 646.427 207.143 647.28 207.143C647.845 207.143 648.354 207.009 648.806 206.742C649.269 206.474 649.629 206.104 649.886 205.631L650.734 206.125C650.415 206.742 649.947 207.23 649.331 207.59C648.714 207.949 648.03 208.129 647.28 208.129ZM658.58 206.973C657.789 207.744 656.833 208.129 655.712 208.129C654.571 208.129 653.61 207.744 652.829 206.973C652.048 206.192 651.657 205.231 651.657 204.09C651.657 202.949 652.048 201.993 652.829 201.222C653.61 200.44 654.571 200.05 655.712 200.05C656.843 200.05 657.799 200.44 658.58 201.222C659.372 201.993 659.767 202.949 659.767 204.09C659.767 205.22 659.372 206.181 658.58 206.973ZM653.554 206.264C654.14 206.85 654.859 207.143 655.712 207.143C656.565 207.143 657.285 206.85 657.871 206.264C658.457 205.657 658.75 204.932 658.75 204.09C658.75 203.236 658.457 202.517 657.871 201.931C657.285 201.335 656.565 201.037 655.712 201.037C654.859 201.037 654.14 201.335 653.554 201.931C652.968 202.517 652.675 203.236 652.675 204.09C652.675 204.932 652.968 205.657 653.554 206.264ZM669.689 200.05C670.562 200.05 671.261 200.327 671.786 200.882C672.31 201.438 672.572 202.188 672.572 203.134V207.944H671.554V203.134C671.554 202.476 671.385 201.962 671.046 201.592C670.706 201.222 670.249 201.037 669.673 201.037C669.005 201.037 668.481 201.258 668.101 201.7C667.72 202.142 667.53 202.8 667.53 203.673V207.944H666.512V203.134C666.512 202.465 666.353 201.951 666.034 201.592C665.716 201.222 665.274 201.037 664.708 201.037C664.061 201.037 663.526 201.263 663.105 201.715C662.694 202.167 662.488 202.82 662.488 203.673V207.944H661.47V200.235H662.488V201.36C663.043 200.487 663.83 200.05 664.847 200.05C665.968 200.05 666.749 200.518 667.191 201.453C667.746 200.518 668.579 200.05 669.689 200.05ZM678.102 200.05C679.253 200.05 680.173 200.456 680.862 201.268C681.571 202.07 681.926 203.021 681.926 204.12C681.926 204.172 681.916 204.331 681.895 204.598H675.126C675.229 205.369 675.558 205.986 676.113 206.449C676.668 206.911 677.362 207.143 678.195 207.143C679.367 207.143 680.194 206.706 680.677 205.832L681.571 206.356C681.232 206.911 680.765 207.348 680.168 207.667C679.582 207.975 678.919 208.129 678.179 208.129C676.966 208.129 675.98 207.749 675.219 206.988C674.458 206.228 674.078 205.261 674.078 204.09C674.078 202.928 674.453 201.967 675.203 201.206C675.954 200.435 676.92 200.05 678.102 200.05ZM678.102 201.037C677.3 201.037 676.627 201.273 676.082 201.746C675.548 202.219 675.229 202.841 675.126 203.612H680.878C680.765 202.789 680.451 202.157 679.937 201.715C679.403 201.263 678.791 201.037 678.102 201.037Z" fill="#D1D5D8"/>
<path d="M629.288 311.984V301.191H630.368V311.984H629.288ZM636.296 304.089C637.221 304.089 637.956 304.377 638.501 304.953C639.046 305.518 639.318 306.284 639.318 307.25V311.984H638.3V307.25C638.3 306.562 638.115 306.027 637.745 305.647C637.385 305.266 636.871 305.076 636.203 305.076C635.432 305.076 634.821 305.318 634.368 305.801C633.926 306.284 633.705 306.998 633.705 307.944V311.984H632.688V304.274H633.705V305.477C634.281 304.552 635.145 304.089 636.296 304.089ZM645.14 301.006C645.737 301.006 646.384 301.067 647.083 301.191V311.984H646.066V301.977C645.737 301.946 645.428 301.931 645.14 301.931C644.369 301.931 643.804 302.09 643.444 302.409C643.095 302.727 642.92 303.246 642.92 303.966V304.274H644.678V305.261H642.92V311.984H641.902V305.261H640.592V304.274H641.902V303.966C641.902 301.992 642.982 301.006 645.14 301.006ZM655.866 305.785V304.274H656.884V311.984H655.866V310.473C655.157 311.604 654.119 312.169 652.752 312.169C651.652 312.169 650.711 311.778 649.93 310.997C649.159 310.216 648.774 309.26 648.774 308.129C648.774 306.998 649.159 306.042 649.93 305.261C650.711 304.48 651.652 304.089 652.752 304.089C654.119 304.089 655.157 304.655 655.866 305.785ZM650.67 310.303C651.256 310.889 651.976 311.182 652.829 311.182C653.682 311.182 654.401 310.889 654.987 310.303C655.573 309.697 655.866 308.972 655.866 308.129C655.866 307.276 655.573 306.556 654.987 305.97C654.401 305.374 653.682 305.076 652.829 305.076C651.976 305.076 651.256 305.374 650.67 305.97C650.084 306.556 649.791 307.276 649.791 308.129C649.791 308.972 650.084 309.697 650.67 310.303ZM663.125 304.274V305.261H660.904V309.933C660.904 310.355 660.987 310.658 661.151 310.843C661.315 311.018 661.562 311.11 661.891 311.12C662.22 311.12 662.631 311.11 663.125 311.09V311.984C662.025 312.148 661.208 312.071 660.673 311.753C660.149 311.424 659.887 310.817 659.887 309.933V305.261H658.268V304.274H659.887V302.424L660.904 302.116V304.274H663.125ZM666.07 301.9C666.07 302.105 665.998 302.28 665.854 302.424C665.71 302.568 665.535 302.64 665.33 302.64C665.124 302.64 664.949 302.568 664.805 302.424C664.661 302.28 664.589 302.105 664.589 301.9C664.589 301.694 664.661 301.52 664.805 301.376C664.949 301.232 665.124 301.16 665.33 301.16C665.535 301.16 665.71 301.232 665.854 301.376C665.998 301.52 666.07 301.694 666.07 301.9ZM665.838 311.984H664.821V304.274H665.838V311.984ZM674.458 311.012C673.667 311.783 672.711 312.169 671.59 312.169C670.449 312.169 669.488 311.783 668.707 311.012C667.926 310.231 667.535 309.27 667.535 308.129C667.535 306.988 667.926 306.032 668.707 305.261C669.488 304.48 670.449 304.089 671.59 304.089C672.721 304.089 673.677 304.48 674.458 305.261C675.25 306.032 675.646 306.988 675.646 308.129C675.646 309.26 675.25 310.221 674.458 311.012ZM669.432 310.303C670.018 310.889 670.737 311.182 671.59 311.182C672.444 311.182 673.163 310.889 673.749 310.303C674.335 309.697 674.628 308.972 674.628 308.129C674.628 307.276 674.335 306.556 673.749 305.97C673.163 305.374 672.444 305.076 671.59 305.076C670.737 305.076 670.018 305.374 669.432 305.97C668.846 306.556 668.553 307.276 668.553 308.129C668.553 308.972 668.846 309.697 669.432 310.303ZM680.957 304.089C681.882 304.089 682.617 304.377 683.162 304.953C683.706 305.518 683.979 306.284 683.979 307.25V311.984H682.961V307.25C682.961 306.562 682.776 306.027 682.406 305.647C682.046 305.266 681.532 305.076 680.864 305.076C680.093 305.076 679.482 305.318 679.029 305.801C678.587 306.284 678.366 306.998 678.366 307.944V311.984H677.349V304.274H678.366V305.477C678.942 304.552 679.805 304.089 680.957 304.089Z" fill="#D1D5D8"/>
<path d="M344.408 361.084H343.174L344.099 357.614H345.024L344.408 361.084ZM346.651 358.601L349.504 357.614H350.429V368.408H349.35V358.802L346.929 359.526L346.651 358.601ZM359.524 367.082C358.814 368.089 357.812 368.593 356.517 368.593C355.232 368.593 354.225 368.089 353.495 367.082C352.786 366.064 352.431 364.707 352.431 363.011C352.431 361.305 352.786 359.953 353.495 358.956C354.225 357.938 355.232 357.429 356.517 357.429C357.812 357.429 358.814 357.938 359.524 358.956C360.243 359.953 360.603 361.305 360.603 363.011C360.603 364.717 360.243 366.074 359.524 367.082ZM354.297 366.357C354.841 367.148 355.582 367.544 356.517 367.544C357.463 367.544 358.198 367.148 358.722 366.357C359.256 365.576 359.524 364.46 359.524 363.011C359.524 361.562 359.256 360.446 358.722 359.665C358.198 358.874 357.463 358.478 356.517 358.478C355.582 358.478 354.841 358.874 354.297 359.665C353.772 360.457 353.51 361.572 353.51 363.011C353.51 364.45 353.772 365.565 354.297 366.357Z" fill="#D1D5D8"/>
<path d="M471.889 361.084H470.656L471.581 357.614H472.506L471.889 361.084ZM474.133 358.601L476.985 357.614H477.911V368.408H476.831V358.802L474.41 359.526L474.133 358.601ZM481.408 361.963H483.228C484.245 361.963 485.099 362.261 485.787 362.857C486.497 363.443 486.851 364.25 486.851 365.278C486.851 366.295 486.497 367.107 485.787 367.714C485.099 368.3 484.245 368.593 483.228 368.593C482.395 368.593 481.66 368.392 481.023 367.991C480.396 367.58 479.974 367.015 479.758 366.295L480.668 365.771C480.822 366.336 481.126 366.773 481.578 367.082C482.03 367.39 482.58 367.544 483.228 367.544C483.988 367.544 484.6 367.344 485.063 366.943C485.535 366.532 485.772 365.977 485.772 365.278C485.772 364.579 485.535 364.029 485.063 363.628C484.6 363.217 483.988 363.011 483.228 363.011H480.298L480.684 357.614H486.466V358.632H481.64L481.408 361.963Z" fill="#D1D5D8"/>
<path d="M596.879 361.084H595.645L596.57 357.614H597.495L596.879 361.084ZM605.902 368.408H599.041V367.436L602.926 363.52C604.037 362.41 604.592 361.459 604.592 360.667C604.592 359.999 604.381 359.47 603.96 359.079C603.548 358.678 603.034 358.478 602.418 358.478C601.318 358.478 600.511 358.987 599.997 360.004L599.087 359.465C599.416 358.807 599.873 358.303 600.459 357.954C601.045 357.604 601.698 357.429 602.418 357.429C603.281 357.429 604.037 357.722 604.684 358.308C605.342 358.874 605.671 359.66 605.671 360.667C605.671 361.264 605.507 361.85 605.178 362.425C604.849 362.991 604.345 363.612 603.667 364.291L600.583 367.359H605.902V368.408ZM614.238 367.082C613.529 368.089 612.527 368.593 611.231 368.593C609.947 368.593 608.939 368.089 608.209 367.082C607.5 366.064 607.145 364.707 607.145 363.011C607.145 361.305 607.5 359.953 608.209 358.956C608.939 357.938 609.947 357.429 611.231 357.429C612.527 357.429 613.529 357.938 614.238 358.956C614.958 359.953 615.318 361.305 615.318 363.011C615.318 364.717 614.958 366.074 614.238 367.082ZM609.011 366.357C609.556 367.148 610.296 367.544 611.231 367.544C612.177 367.544 612.912 367.148 613.436 366.357C613.971 365.576 614.238 364.46 614.238 363.011C614.238 361.562 613.971 360.446 613.436 359.665C612.912 358.874 612.177 358.478 611.231 358.478C610.296 358.478 609.556 358.874 609.011 359.665C608.487 360.457 608.225 361.572 608.225 363.011C608.225 364.45 608.487 365.565 609.011 366.357Z" fill="#D1D5D8"/>
<path d="M687.049 361.084H685.816L686.741 357.614H687.666L687.049 361.084ZM696.073 368.408H689.212V367.436L693.097 363.52C694.207 362.41 694.762 361.459 694.762 360.667C694.762 359.999 694.552 359.47 694.13 359.079C693.719 358.678 693.205 358.478 692.588 358.478C691.488 358.478 690.682 358.987 690.168 360.004L689.258 359.465C689.587 358.807 690.044 358.303 690.63 357.954C691.216 357.604 691.869 357.429 692.588 357.429C693.452 357.429 694.207 357.722 694.855 358.308C695.513 358.874 695.842 359.66 695.842 360.667C695.842 361.264 695.677 361.85 695.348 362.425C695.019 362.991 694.516 363.612 693.837 364.291L690.753 367.359H696.073V368.408ZM704.174 368.408H697.313V367.436L701.198 363.52C702.308 362.41 702.863 361.459 702.863 360.667C702.863 359.999 702.653 359.47 702.231 359.079C701.82 358.678 701.306 358.478 700.689 358.478C699.589 358.478 698.783 358.987 698.269 360.004L697.359 359.465C697.688 358.807 698.145 358.303 698.731 357.954C699.317 357.604 699.97 357.429 700.689 357.429C701.553 357.429 702.308 357.722 702.956 358.308C703.614 358.874 703.943 359.66 703.943 360.667C703.943 361.264 703.778 361.85 703.449 362.425C703.12 362.991 702.617 363.612 701.938 364.291L698.854 367.359H704.174V368.408Z" fill="#D1D5D8"/>
</g>
<defs>
<filter id="filter0_d_1009_1635" x="0.17132" y="0.17132" width="748.945" height="423.782" filterUnits="userSpaceOnUse" color-interpolation-filters="sRGB">
<feFlood flood-opacity="0" result="BackgroundImageFix"/>
<feColorMatrix in="SourceAlpha" type="matrix" values="0 0 0 0 0 0 0 0 0 0 0 0 0 0 0 0 0 0 127 0" result="hardAlpha"/>
<feOffset/>
<feGaussianBlur stdDeviation="4.91434"/>
<feComposite in2="hardAlpha" operator="out"/>
<feColorMatrix type="matrix" values="0 0 0 0 0.0941176 0 0 0 0 0.188235 0 0 0 0 0.262745 0 0 0 0.25 0"/>
<feBlend mode="normal" in2="BackgroundImageFix" result="effect1_dropShadow_1009_1635"/>
<feBlend mode="normal" in="SourceGraphic" in2="effect1_dropShadow_1009_1635" result="shape"/>
</filter>
<filter id="filter1_d_1009_1635" x="73.8866" y="62.07" width="640.419" height="309.081" filterUnits="userSpaceOnUse" color-interpolation-filters="sRGB">
<feFlood flood-opacity="0" result="BackgroundImageFix"/>
<feColorMatrix in="SourceAlpha" type="matrix" values="0 0 0 0 0 0 0 0 0 0 0 0 0 0 0 0 0 0 127 0" result="hardAlpha"/>
<feOffset dy="3.93147"/>
<feGaussianBlur stdDeviation="9.82868"/>
<feComposite in2="hardAlpha" operator="out"/>
<feColorMatrix type="matrix" values="0 0 0 0 0.137255 0 0 0 0 0.616392 0 0 0 0 0.721569 0 0 0 0.25 0"/>
<feBlend mode="normal" in2="BackgroundImageFix" result="effect1_dropShadow_1009_1635"/>
<feBlend mode="normal" in="SourceGraphic" in2="effect1_dropShadow_1009_1635" result="shape"/>
</filter>
<filter id="filter2_d_1009_1635" x="73.1366" y="60.3369" width="641.919" height="310.581" filterUnits="userSpaceOnUse" color-interpolation-filters="sRGB">
<feFlood flood-opacity="0" result="BackgroundImageFix"/>
<feColorMatrix in="SourceAlpha" type="matrix" values="0 0 0 0 0 0 0 0 0 0 0 0 0 0 0 0 0 0 127 0" result="hardAlpha"/>
<feOffset dy="3.93147"/>
<feGaussianBlur stdDeviation="9.82868"/>
<feComposite in2="hardAlpha" operator="out"/>
<feColorMatrix type="matrix" values="0 0 0 0 0.137255 0 0 0 0 0.694118 0 0 0 0 0.721569 0 0 0 0.25 0"/>
<feBlend mode="normal" in2="BackgroundImageFix" result="effect1_dropShadow_1009_1635"/>
<feBlend mode="normal" in="SourceGraphic" in2="effect1_dropShadow_1009_1635" result="shape"/>
</filter>
<filter id="filter3_d_1009_1635" x="73.1366" y="226.411" width="641.838" height="144.507" filterUnits="userSpaceOnUse" color-interpolation-filters="sRGB">
<feFlood flood-opacity="0" result="BackgroundImageFix"/>
<feColorMatrix in="SourceAlpha" type="matrix" values="0 0 0 0 0 0 0 0 0 0 0 0 0 0 0 0 0 0 127 0" result="hardAlpha"/>
<feOffset dy="3.93147"/>
<feGaussianBlur stdDeviation="9.82868"/>
<feComposite in2="hardAlpha" operator="out"/>
<feColorMatrix type="matrix" values="0 0 0 0 0.137255 0 0 0 0 0.694118 0 0 0 0 0.721569 0 0 0 0.25 0"/>
<feBlend mode="normal" in2="BackgroundImageFix" result="effect1_dropShadow_1009_1635"/>
<feBlend mode="normal" in="SourceGraphic" in2="effect1_dropShadow_1009_1635" result="shape"/>
</filter>
<linearGradient id="paint0_linear_1009_1635" x1="370.099" y1="178.268" x2="393.836" y2="347.459" gradientUnits="userSpaceOnUse">
<stop stop-color="#00AFFF"/>
<stop offset="1" stop-color="#42BFF8" stop-opacity="0.11"/>
</linearGradient>
<linearGradient id="paint1_linear_1009_1635" x1="374.288" y1="274.317" x2="395.139" y2="411.896" gradientUnits="userSpaceOnUse">
<stop stop-color="#102732"/>
<stop offset="1" stop-color="#2F7392" stop-opacity="0"/>
</linearGradient>
</defs>
</svg>
