<svg width="46" height="49" viewBox="0 0 46 49" fill="none" xmlns="http://www.w3.org/2000/svg">
<path fill-rule="evenodd" clip-rule="evenodd" d="M6.44426 7.35801L18.9388 1.80488C21.5245 0.655699 24.4759 0.655697 27.0616 1.80488L39.5066 7.33599C43.1459 8.95344 45.5347 12.5887 45.2797 16.5631C44.3016 31.8075 39.9432 38.699 28.1618 46.694C25.0526 48.8039 20.9512 48.7987 17.8397 46.6922C6.0944 38.7405 1.57428 31.9451 0.675201 16.5096C0.445227 12.5614 2.8302 8.96426 6.44426 7.35801ZM32.1935 18.9815C33.0118 18.0463 32.917 16.6248 31.9818 15.8065C31.0467 14.9882 29.6252 15.083 28.8069 16.0182L21.4746 24.3979L16.9058 20.7429C15.9354 19.9666 14.5195 20.1239 13.7432 21.0943C12.967 22.0646 13.1243 23.4805 14.0946 24.2568L19.5975 28.659C20.9556 29.7455 22.9283 29.5702 24.0736 28.2613L32.1935 18.9815Z" fill="white"/>
</svg>
