<svg width="670" height="342" viewBox="0 0 670 342" fill="none" xmlns="http://www.w3.org/2000/svg">
<g clip-path="url(#clip0_2004_29131)">
<path d="M296.649 112.148L293.76 115.99L291.835 117.912L287.984 120.024L287.405 121.754C287.405 121.754 285.864 123.291 286.058 124.252C286.251 125.213 286.251 126.942 286.251 126.942C286.251 126.942 283.555 129.44 282.399 130.208C281.243 130.976 279.702 132.706 279.702 132.706C279.702 132.706 278.74 133.859 278.162 134.243C277.585 134.626 276.622 135.779 275.851 136.933C275.081 138.086 274.311 138.853 273.925 139.43C273.54 140.006 272.385 141.351 271.807 143.465C271.23 145.579 269.689 148.076 269.689 148.076L269.303 149.036C269.496 152.303 269.495 152.879 269.881 154.032C270.266 155.185 270.652 154.8 270.266 157.298C269.881 159.795 269.881 160.756 269.496 161.91C269.111 163.061 267.955 165.175 267.571 166.137C267.185 167.097 268.341 168.825 268.341 168.825C268.341 168.825 268.919 171.324 268.534 171.9C268.149 172.477 268.726 173.63 268.726 173.63C268.726 173.63 271.037 174.974 271.808 175.743C272.578 176.511 273.926 177.665 274.119 178.241C274.312 178.818 275.852 181.508 276.045 182.084C276.237 182.66 277.778 184.773 278.163 185.35C278.548 185.927 280.474 188.04 280.474 188.04C280.474 188.04 282.978 189.96 283.556 190.729C284.134 191.498 285.867 191.882 286.444 192.458C287.022 193.034 288.37 192.841 289.14 193.419C289.91 193.995 291.451 193.034 292.221 193.419C292.991 193.803 295.111 193.035 295.688 192.651C296.266 192.267 297.613 190.922 298.577 191.498C299.539 192.073 300.117 191.498 300.888 191.69C301.657 191.882 302.813 190.922 303.583 190.922C304.354 190.922 306.279 190.153 306.856 190.153C307.435 190.153 309.361 188.999 310.131 188.999C310.901 188.999 311.864 188.232 312.827 188.616C313.789 188.999 313.404 187.848 315.138 188.424C316.871 188.999 317.448 188.424 318.026 188.999C318.604 189.576 319.375 189.001 319.953 189.769C320.53 190.536 321.493 191.113 321.685 191.882C321.877 192.651 323.033 193.42 323.033 193.42L324.189 193.611C324.189 193.611 325.731 192.459 326.115 193.228C326.5 193.996 328.233 193.805 328.233 193.805L329.966 195.725L330.544 196.494C330.544 196.494 331.7 199.568 331.507 200.721C331.314 201.873 331.314 204.371 330.737 204.947C330.159 205.524 329.774 208.022 329.774 208.022C329.774 208.022 329.003 208.79 330.737 210.327C332.47 211.866 333.626 213.209 334.203 213.977C334.782 214.746 336.323 216.86 336.514 218.205C336.707 219.549 337.092 220.317 337.863 222.047C338.633 223.776 339.595 223.968 339.788 225.891C339.981 227.811 340.365 227.812 340.173 229.156C339.98 230.501 339.403 230.693 339.98 231.653C340.558 232.614 341.327 234.344 341.136 234.92C340.944 235.496 340.558 237.994 340.558 237.994L340.173 239.147L338.44 242.415L337.284 244.143C336.899 245.487 336.129 246.832 336.322 248.754C336.514 250.675 335.359 250.674 336.899 252.595C338.44 254.517 339.21 256.631 340.173 258.36C341.136 260.089 341.714 261.818 341.905 262.971C342.099 264.124 342.869 264.509 343.254 266.045C343.638 267.583 343.831 268.35 343.831 269.311C343.831 270.272 343.638 272.77 344.025 273.346C344.409 273.923 344.602 275.653 344.795 276.421C344.987 277.19 344.216 277.382 345.372 278.728C346.528 280.072 347.298 280.84 348.068 281.801C348.838 282.763 348.646 282.378 349.224 283.723C349.802 285.067 350.572 285.837 350.765 286.989C350.958 288.141 351.149 291.023 351.728 292.368C352.305 293.714 353.075 295.059 353.075 295.059C353.075 295.059 355.194 296.403 355.965 296.211C356.734 296.019 358.275 294.292 359.431 294.867C360.587 295.443 361.55 294.867 362.512 294.867C363.475 294.867 364.438 293.714 365.402 293.714C366.364 293.714 367.712 292.176 368.483 292.561C369.254 292.945 370.215 292.175 371.179 291.215C372.142 290.256 372.72 289.487 374.452 287.95C376.186 286.413 375.993 286.412 377.148 285.452C378.304 284.49 379.46 282.377 380.807 281.993C382.155 281.609 382.54 280.265 382.925 279.304C383.311 278.343 383.503 277.766 384.081 276.997C384.659 276.23 384.273 277.192 385.237 274.693C386.2 272.194 387.357 271.235 388.319 270.658C389.282 270.081 389.86 268.929 390.437 268.736C391.015 268.543 391.978 269.312 391.593 267.583C391.209 265.854 391.593 263.357 391.209 262.78C390.823 262.202 390.245 264.124 390.438 261.241C390.632 258.36 392.749 255.478 392.749 255.478C392.749 255.478 395.637 251.828 396.601 251.251C397.564 250.675 397.756 250.099 399.105 249.33C400.452 248.563 403.341 246.641 403.341 245.68C403.341 244.719 404.497 242.221 404.497 241.644C404.497 241.068 404.497 240.492 404.113 237.225C403.727 233.96 404.497 234.727 403.342 231.653C402.187 228.579 401.993 224.736 401.223 223.776C400.453 222.815 400.838 220.316 400.838 219.549C400.838 218.781 402.187 216.859 402.764 216.091C403.342 215.322 405.845 212.247 405.845 212.247C405.845 212.247 409.696 207.829 411.045 205.716C412.393 203.602 413.741 201.681 414.703 200.913C415.667 200.145 417.978 198.413 419.325 196.493C420.674 194.572 423.37 190.922 423.563 190.344C423.755 189.769 425.295 187.847 425.295 187.847C425.295 187.847 427.413 185.349 427.799 184.004C428.183 182.659 430.108 175.166 429.723 175.55C429.34 175.935 427.028 176.319 426.257 176.511C425.488 176.704 427.414 177.471 421.828 177.088C416.244 176.703 413.356 177.664 413.356 177.664C411.621 177.279 410.274 179.2 409.696 176.511C409.118 173.822 408.732 172.284 407.578 170.363C406.422 168.441 405.651 167.673 403.919 165.175C402.187 162.678 402.378 163.829 400.837 161.91C399.297 159.988 398.911 160.563 397.948 158.067C396.986 155.569 396.216 156.53 395.06 153.071C393.904 149.611 393.134 149.227 392.556 147.307C391.978 145.386 391.209 144.808 390.823 143.08C390.438 141.35 386.009 132.513 385.431 131.936C384.853 131.36 383.89 128.285 384.083 128.862C384.276 129.438 386.972 131.359 386.972 131.359C386.972 131.359 388.512 130.782 389.09 130.782C389.668 130.782 391.979 132.897 391.979 133.664C391.979 134.433 396.025 138.084 396.987 140.774C397.949 143.464 399.107 145.385 399.298 146.153C399.488 146.922 401.416 149.996 402.187 151.15C402.956 152.303 405.46 154.608 405.845 155.761C406.23 156.914 409.89 160.756 409.89 163.254C409.89 165.752 411.621 169.018 411.815 169.786C412.008 170.554 415.473 171.516 415.473 171.516L420.096 170.363C420.096 170.363 427.028 165.943 427.799 165.943C428.568 165.943 434.733 163.061 434.733 163.061C434.733 163.061 437.235 160.756 438.968 159.412C440.701 158.067 442.627 155.57 443.013 154.416C443.397 153.262 444.168 153.071 445.708 151.341C447.249 149.611 449.367 147.883 448.02 146.73C446.672 145.577 445.901 145.961 443.976 144.04C442.05 142.119 442.242 142.503 440.894 140.005C439.545 137.508 441.086 134.625 438.197 137.508C435.309 140.39 436.464 141.158 433.575 141.736C430.687 142.311 429.531 144.233 428.183 142.311C426.836 140.39 425.488 141.543 424.716 138.66C423.946 135.779 423.368 135.586 423.176 134.434C422.985 133.281 423.176 133.281 421.635 130.398C420.095 127.517 421.25 123.097 422.213 125.595C423.176 128.093 424.716 128.477 427.221 130.206C429.723 131.935 430.88 133.281 433.19 133.473C435.501 133.664 437.427 133.473 437.812 133.856C438.197 134.241 438.582 133.665 439.545 134.048C440.509 134.433 440.892 133.473 441.278 135.009C441.663 136.546 443.781 136.738 444.744 137.698C445.707 138.659 445.707 138.275 448.212 138.659C450.716 139.044 454.183 139.044 454.183 139.044L457.84 138.851L462.077 139.234C462.077 139.234 465.16 140.964 465.929 140.964C466.699 140.964 466.892 143.078 468.818 144.23C470.744 145.384 471.129 145.575 472.284 146.92C473.441 148.265 473.247 148.842 474.787 150.186C476.329 151.532 478.833 149.995 479.218 149.419C479.601 148.842 481.527 147.882 481.144 149.419C480.758 150.956 483.068 150.379 482.491 154.031C481.913 157.68 481.527 156.72 482.491 159.218C483.453 161.716 487.69 169.401 487.884 171.706C488.077 174.012 489.231 173.244 489.424 175.358C489.617 177.471 490.771 178.239 490.771 179.777C490.771 181.314 492.12 181.697 492.312 182.851C492.506 184.004 494.624 183.042 495.201 182.851C495.78 182.658 498.475 180.161 498.475 180.161C498.475 180.161 499.633 179.777 499.438 177.855C499.245 175.935 499.438 176.319 499.438 173.437C499.438 170.555 498.283 170.555 498.861 167.674C499.438 164.792 500.978 163.062 501.364 161.717C501.749 160.373 503.29 158.067 504.059 157.874C504.829 157.682 509.067 155.57 510.03 154.224C510.993 152.879 512.534 151.342 514.075 149.805C515.615 148.269 518.311 146.347 518.889 146.923C519.467 147.5 519.274 147.308 520.238 147.308C521.2 147.308 522.934 148.077 524.281 148.269C525.63 148.461 528.326 151.727 528.904 153.456C529.481 155.186 529.096 154.801 531.215 157.299C533.333 159.796 535.259 158.259 535.259 161.333C535.259 164.408 535.259 164.215 536.223 165.368C537.185 166.522 538.34 163.255 539.495 163.64C540.65 164.025 540.843 163.256 541.805 166.33C542.768 169.404 543.345 169.404 543.54 172.478C543.731 175.552 543.346 172.67 543.346 175.167C543.346 177.666 543.153 177.858 543.54 180.162C543.924 182.47 545.27 183.238 545.08 183.622C545.08 183.622 546.235 180.356 545.849 178.05C545.466 175.745 545.849 172.479 546.812 171.519C547.775 170.557 548.739 169.597 549.508 172.095C550.279 174.592 550.664 172.671 552.397 175.553C554.131 178.436 555.671 177.858 555.864 179.203C556.056 180.548 557.021 180.741 558.367 181.893C559.715 183.046 560.87 181.701 562.411 180.548C563.953 179.395 568.188 175.168 568.383 173.438C568.574 171.71 570.308 172.093 567.226 167.676C564.144 163.257 564.144 161.719 560.87 159.029C557.599 156.34 555.672 156.148 558.176 152.689C560.68 149.23 561.836 146.925 563.376 147.886C564.917 148.847 567.611 148.654 567.611 152.498C567.611 156.34 566.841 160.567 569.537 155.956C572.233 151.344 573.582 148.655 572.81 149.425C572.041 150.193 574.544 147.887 574.544 147.887C574.544 147.887 574.737 146.158 578.011 145.389C581.284 144.62 582.247 144.236 583.403 143.66C584.558 143.083 587.833 139.24 588.41 137.511C588.988 135.782 590.529 132.708 590.144 131.364C589.759 130.018 587.832 123.487 587.447 123.678C587.063 123.871 587.255 123.871 584.753 121.181C582.247 118.491 580.515 116.57 580.13 115.417C579.745 114.263 578.781 114.071 579.936 112.535C581.093 110.998 581.671 111.19 581.863 109.845C582.055 108.501 583.595 107.347 580.706 108.308C577.819 109.269 579.936 108.693 577.433 108.501C574.93 108.308 568.383 109.846 571.657 105.812C574.93 101.777 575.891 99.2798 576.47 99.2798C577.049 99.2798 579.937 96.013 580.129 99.0869C580.322 102.161 581.477 101.392 581.67 103.313C581.863 105.235 585.714 101.2 585.714 101.2C585.714 101.2 587.062 101.585 588.024 102.545C588.988 103.505 588.988 106.58 588.988 106.58C588.988 106.58 588.218 105.619 590.336 107.156C592.455 108.694 594.765 107.924 594.765 111.191C594.765 114.457 594.765 114.65 596.113 115.418C597.462 116.186 598.808 115.803 599.966 114.842C601.121 113.882 603.046 110.423 603.046 110.423C603.046 110.423 603.238 109.078 600.157 107.156C597.076 105.235 595.151 103.891 593.996 102.93C592.84 101.97 593.225 99.0877 594.38 97.9336C595.537 96.7804 596.113 96.2042 595.728 94.6677C595.342 93.1295 596.306 91.9771 599.195 92.1692C602.083 92.3621 602.661 91.978 602.661 91.978C602.661 91.978 603.24 92.3612 603.24 91.2088C603.24 90.0565 606.898 84.6761 605.934 84.6761C604.972 84.6761 606.129 83.3317 605.549 81.2181C604.972 79.1037 607.475 75.8386 605.358 74.3013C603.239 72.7639 602.661 71.9948 601.313 69.6901C599.966 67.3836 600.157 67.0003 595.151 66.4233C590.144 65.8471 587.833 67.5765 586.677 66.04C585.521 64.5026 584.944 68.3448 584.174 63.7335C583.404 59.1223 585.33 56.0476 585.33 56.0476C585.33 56.0476 588.411 54.1269 589.18 52.7817C589.95 51.4364 593.031 50.8602 595.537 51.8213C598.041 52.7817 601.698 52.5896 604.781 53.1675C607.862 53.7428 607.669 55.6643 609.21 53.1675C610.75 50.6681 609.21 49.5166 610.365 48.1713C611.522 46.826 612.869 44.7124 613.831 46.0569C614.794 47.403 616.722 48.7466 618.263 47.0172C619.803 45.2886 620.381 45.0966 620.381 45.0966L621.149 45.8657C621.149 45.8657 622.883 44.9036 622.883 46.6322C622.883 48.3625 624.617 50.284 623.654 51.6284C622.689 52.9746 621.344 52.7816 621.344 56.0476C621.344 59.3152 621.344 58.7382 623.46 61.4288C625.58 64.1177 626.927 61.812 627.312 64.6947C627.698 67.5765 628.081 67.0012 630.201 68.9218C632.32 70.8424 631.933 70.8424 633.475 71.9957C635.016 73.1489 635.787 74.3021 635.787 72.3807C635.787 70.4592 635.979 69.4988 635.787 67.7694C635.592 66.0409 637.328 64.6947 636.17 61.8129C635.015 58.9311 635.978 59.1232 633.667 57.0096C631.356 54.8969 629.815 57.3946 629.046 54.3199C628.276 51.246 632.704 49.9007 633.861 49.5166C635.016 49.1333 636.748 46.8268 637.133 48.3642C637.518 49.9007 634.245 55.4731 639.83 49.5166C645.414 43.5609 642.911 46.0586 642.911 46.0586C642.911 46.0586 645.8 45.6745 646.377 46.0586C646.954 46.4436 648.497 44.3292 647.917 44.5221C647.34 44.715 641.757 41.4474 641.757 41.4474L637.711 39.1426C637.711 39.1426 639.06 38.1814 640.023 38.3743C640.986 38.5664 641.18 36.4528 642.143 36.2599C643.105 36.0679 649.652 37.6061 651.002 38.3743C652.349 39.1426 657.163 39.3347 656.584 38.9505C656.007 38.5655 652.927 36.2608 652.733 35.4917C652.542 34.7234 645.801 33.1861 643.683 33.3781C641.564 33.5693 639.639 34.1455 637.906 33.5693C636.172 32.9931 633.669 31.4558 632.321 31.4558C630.973 31.4558 614.026 28.1899 613.256 28.3819C612.486 28.574 611.33 32.224 610.752 31.6479C610.175 31.0717 609.212 31.0708 606.514 30.3026C603.82 29.5343 600.16 28.9573 595.345 28.574C590.531 28.1899 587.259 28.9581 585.91 27.4207C584.562 25.8842 581.674 26.4604 578.4 26.2675C575.126 26.0763 571.274 26.2675 569.541 26.2675C567.808 26.2675 563.765 26.0763 562.802 25.8834C561.838 25.6905 560.683 24.346 559.528 24.1548C558.371 23.9619 558.564 23.5786 556.254 23.1945C553.943 22.8095 554.135 20.3127 553.365 22.4254C552.595 24.5398 552.979 23.9628 551.824 24.731C550.668 25.5001 549.513 27.0366 548.742 27.0366C547.973 27.0366 544.892 27.2287 544.313 26.8446C543.735 26.4604 542.772 26.0763 540.846 26.0763C538.92 26.0763 538.92 26.2675 536.417 25.8834C533.913 25.4993 531.987 25.6905 529.677 24.5389C527.366 23.3857 527.366 22.6175 525.44 22.8095C523.515 23.0024 523.515 22.4254 520.818 22.4254C518.123 22.4254 514.849 23.9628 513.115 24.1548C511.383 24.3469 507.531 23.9619 506.183 23.3857C504.834 22.8095 504.45 21.4651 499.442 22.0404C494.435 22.6175 491.546 22.6175 492.509 21.0801C493.472 19.5436 494.627 18.0062 495.205 17.8142C495.783 17.6221 497.13 16.6618 496.167 16.2777C495.205 15.8927 494.241 15.3173 491.931 15.1244C489.62 14.9324 489.811 15.8927 486.346 15.5085C482.88 15.1244 488.272 14.1641 481.148 14.3562C474.022 14.5491 472.289 15.1244 471.519 15.1244C470.748 15.1244 469.784 13.5879 467.859 15.8927C465.933 18.1983 463.236 19.5427 459.386 19.7348C455.535 19.9277 455.341 19.3507 451.684 20.6951C448.024 22.0396 445.712 20.311 446.483 23.3849C447.252 26.4587 448.217 27.612 448.217 28.1881C448.217 28.7643 446.483 32.6073 444.366 30.3017C442.246 27.9961 438.395 18.9657 440.128 25.1143C441.861 31.262 445.712 33.3764 442.054 34.3367C438.395 35.2971 438.779 33.9526 438.201 33.5676C437.625 33.1835 438.201 30.4938 438.009 28.9564C437.815 27.4199 437.431 26.4587 436.661 25.6905C435.892 24.9214 436.083 23.769 434.543 23.3849C433.002 23.0007 434.35 22.2316 431.847 22.2316C429.343 22.2316 427.226 20.6943 427.803 24.1531C428.38 27.6111 428.957 25.3063 430.497 28.5723C432.038 31.8382 434.927 29.5326 432.809 31.8382C430.691 34.1438 425.106 33.3756 423.758 32.4152C422.41 31.4541 422.795 32.7994 420.29 31.07C417.787 29.3405 418.559 27.9952 415.67 29.3405C412.782 30.6858 411.818 33.1835 410.662 32.2223C409.506 31.2612 406.811 33.5668 405.848 32.4152C404.885 31.262 401.033 31.262 400.264 32.4152C399.493 33.5676 397.182 33.3756 393.908 34.9129C390.635 36.4494 391.596 35.1041 387.553 38.3709C383.508 41.6369 381.197 44.3266 379.85 42.213C378.502 40.1003 371.183 36.4494 374.072 35.8724C376.962 35.2962 378.309 34.1438 379.85 35.4883C381.391 36.8327 383.895 36.4494 384.279 35.4883C384.664 34.5271 386.398 33.5668 384.086 32.4144C381.775 31.2612 381.583 32.0294 377.924 30.685C374.265 29.3397 377.924 29.7247 372.916 28.9555C367.909 28.1873 365.79 27.8032 364.443 27.419C363.096 27.0349 361.169 27.419 359.244 27.227C357.317 27.0349 355.971 26.6508 354.236 26.8428C352.504 27.0349 351.541 26.6508 349.229 28.3802C346.918 30.1096 345.184 30.8779 343.644 32.2223C342.104 33.5668 338.06 36.2574 336.905 37.2185C335.749 38.1789 331.704 41.2527 331.319 42.406C330.934 43.5592 331.704 44.5195 330.163 45.2878C328.622 46.056 327.082 46.056 325.926 46.2481C324.771 46.4401 325.927 44.5187 324.771 46.4401C323.616 48.3616 324.001 55.2785 324.963 54.3173C325.926 53.3561 325.348 50.2831 329.585 53.1658C333.822 56.0467 336.519 55.6626 336.325 58.3523C336.133 61.0421 339.214 60.85 339.599 61.4271C339.984 62.0024 341.91 60.658 341.91 60.658C341.91 60.658 346.147 57.9682 346.147 56.6238C346.147 55.2785 348.843 52.2046 348.843 52.2046C348.843 52.2046 346.916 51.2443 346.916 49.3228C346.916 47.4022 347.495 46.8243 347.879 44.9028C348.264 42.9822 345.761 44.9036 351.539 41.2519C357.315 37.6018 357.701 40.1003 357.701 40.1003C357.701 40.1003 358.47 40.8686 357.507 42.021C356.545 43.1742 354.811 46.2489 354.426 46.6322C354.04 47.0172 356.16 50.0911 357.121 50.0911C358.085 50.0911 360.011 49.3219 361.167 49.514C362.322 49.7069 364.247 48.9387 364.825 49.3228C365.403 49.7069 366.751 50.8593 365.788 51.8205C364.825 52.7808 362.706 53.9332 361.167 53.5499C359.625 53.1666 357.314 50.4752 358.662 54.3182C360.011 58.1611 358.47 59.1215 357.314 58.9294C356.16 58.7373 353.655 56.8167 354.04 59.6985C354.426 62.5794 351.538 64.5009 350.959 64.5009C350.381 64.5009 349.227 64.3089 349.227 64.3089C349.227 64.3089 347.492 64.116 346.531 64.116C345.567 64.116 343.641 65.0763 343.064 65.8454C342.486 66.6136 341.716 66.0383 340.753 66.0383C339.79 66.0383 340.753 64.8851 338.827 64.5009C336.902 64.1168 335.746 63.7327 334.591 64.5009C333.435 65.2692 331.703 65.6533 330.932 65.0771C330.162 64.5009 331.318 63.1548 329.776 63.9247C328.236 64.693 327.08 66.8065 326.502 66.9995C325.925 67.1907 328.236 66.9995 325.925 67.1907C323.614 67.3836 322.651 67.9606 321.495 68.3439C320.34 68.7289 321.88 71.0336 319.762 71.8019C317.644 72.5702 319.185 70.8416 317.066 72.5702C314.948 74.3004 314.562 75.8369 313.793 76.029C313.022 76.2219 313.215 76.6052 311.482 76.7973C309.748 76.9893 309.942 77.1814 308.977 77.3734C308.015 77.5655 309.171 77.9505 307.052 77.5655C304.933 77.1814 303.393 77.9505 303.778 78.7188C304.163 79.487 311.288 81.6006 305.896 81.4085C300.504 81.2164 302.238 82.1767 303.393 82.945C304.549 83.7132 305.125 84.4815 305.704 84.6744C306.282 84.8665 307.244 87.173 307.244 87.173C307.244 87.173 308.785 86.98 307.822 88.3253C306.86 89.6706 308.207 90.0548 307.244 91.7842C306.281 93.5136 306.281 92.3604 305.511 92.7445C304.741 93.1278 303.585 94.4739 301.466 93.3207C299.348 92.1674 297.808 91.5913 295.304 91.4C292.801 91.2071 294.533 90.8239 292.801 92.1674C291.067 93.5136 290.682 95.0501 290.876 96.7787C291.068 98.5072 291.261 100.814 290.682 101.967C290.105 103.119 290.105 104.273 290.489 106.002C290.875 107.731 292.031 108.501 292.031 108.501C292.031 108.501 294.727 108.884 295.304 109.077C295.882 109.269 297.038 108.693 298.578 109.652C300.118 110.613 301.659 110.998 302.622 109.845C303.584 108.693 307.436 107.347 308.593 106.195C309.748 105.042 310.518 104.658 309.941 103.505C309.363 102.352 311.097 99.4701 312.059 98.8939C313.022 98.3177 315.14 97.7407 315.14 97.7407L317.451 94.2827C317.451 94.2827 319.377 92.1683 320.339 92.3612C321.302 92.5533 326.694 94.4756 326.31 91.978C325.925 89.4794 326.695 88.7112 327.272 89.6715C327.85 90.6318 329.391 90.2477 329.391 90.2477C329.391 90.2477 330.161 89.8644 330.738 90.4406C331.316 91.0159 332.086 93.5153 333.242 94.0906C334.398 94.6677 335.36 95.2439 336.131 95.6272C336.901 96.0121 337.672 95.6272 339.213 96.9725C340.753 98.3177 342.294 99.0869 342.486 99.6622C342.68 100.238 344.027 101.584 344.027 101.584C344.027 101.584 345.375 101.968 344.99 102.737C344.605 103.505 342.68 105.812 341.716 106.195C340.753 106.579 338.25 105.81 339.213 106.579C340.175 107.347 341.524 108.308 342.101 107.731C342.68 107.155 346.337 103.312 346.337 103.312C346.337 103.312 346.145 103.504 346.337 102.351C346.531 101.2 346.337 99.8543 347.301 100.43C348.263 101.007 348.842 101.776 349.227 101.007C349.612 100.238 349.997 100.623 349.033 100.047C348.07 99.4701 345.76 96.2042 344.604 96.0121C343.448 95.8192 340.559 93.8977 340.559 93.8977C340.559 93.8977 339.982 93.3215 338.634 91.785C337.285 90.2477 336.901 90.6318 336.514 89.2865C336.13 87.9421 334.973 86.2126 337.093 86.5968C339.212 86.9809 340.559 88.3253 342.485 89.4786C344.411 90.6318 344.026 91.0151 345.759 92.1683C347.492 93.3215 347.686 94.4748 349.033 94.2827C350.38 94.0906 351.922 95.051 351.922 96.7804C351.922 98.5098 352.306 100.43 352.691 100.815C353.077 101.2 354.231 101.969 354.617 102.737C355.002 103.505 355.773 105.427 356.35 106.195C356.928 106.963 357.505 107.54 358.083 108.501C358.66 109.462 358.853 108.308 359.431 108.693C360.009 109.078 360.779 108.885 360.779 108.116C360.779 107.348 360.971 106.003 360.971 106.003C360.971 106.003 363.668 105.235 362.898 104.85C362.127 104.465 359.816 102.16 360.009 101.392C360.201 100.623 360.009 99.0869 360.971 99.2789C361.934 99.4701 362.897 101.2 365.016 99.6622C367.134 98.1248 369.638 97.3566 368.867 99.6622C368.098 101.968 369.061 102.351 368.867 104.85C368.675 107.348 369.639 106.579 370.987 107.924C372.335 109.27 373.297 109.463 374.26 109.846C375.223 110.231 376.763 110.039 378.305 110.231C379.846 110.423 380.808 109.654 382.157 110.039C383.503 110.423 386.585 109.846 387.164 110.231C387.742 110.615 390.053 109.463 390.245 110.807C390.437 112.152 391.208 110.615 390.63 113.689C390.053 116.763 389.282 118.876 389.282 118.876C387.164 122.911 386.394 123.872 385.43 124.064C384.468 124.257 383.89 124.833 382.158 124.641C380.424 124.448 378.306 124.641 375.802 124.064C373.299 123.487 368.676 124.641 366.751 123.487C364.825 122.335 362.129 123.295 360.972 121.951C359.817 120.606 357.892 120.798 357.121 120.029C356.351 119.261 355.966 117.148 355.966 120.222C355.966 123.297 354.233 123.488 353.848 125.026C353.462 126.562 354.424 125.794 352.306 125.602C350.188 125.409 349.61 126.562 346.529 124.257C343.447 121.952 341.907 121.952 340.367 120.991C338.825 120.029 337.285 122.719 335.745 119.646C334.204 116.571 332.086 119.069 331.893 116.571C331.701 114.073 331.893 114.267 332.086 112.729C332.28 111.192 334.397 109.848 333.434 109.271C332.471 108.695 333.241 107.734 331.893 108.311C330.545 108.887 328.62 109.079 327.079 109.655C325.538 110.233 330.545 109.655 323.035 110.233C315.524 110.809 313.405 111.577 313.405 111.577C313.405 111.577 312.827 111.193 311.864 111.961C310.901 112.729 309.553 113.883 308.206 113.306C306.858 112.729 306.087 112.921 304.932 113.114C303.776 113.306 303.007 112.154 301.659 113.114C300.31 114.074 298.77 114.459 298.192 114.074C297.593 113.681 296.626 112.145 296.626 112.145L296.649 112.148Z" fill="url(#paint0_linear_2004_29131)"/>
<path d="M425.486 238.568C424.909 240.682 422.79 243.755 422.79 243.755L418.937 245.677C418.937 245.677 417.592 246.83 416.82 247.022C416.05 247.213 414.124 248.175 414.124 248.175C414.124 248.175 412.391 247.79 412.968 249.519C413.545 251.248 413.739 253.363 413.545 253.938C413.354 254.515 413.354 255.668 413.354 257.206C413.354 258.742 412.776 260.663 411.813 261.047C410.85 261.432 409.887 261.816 410.079 263.161C410.273 264.507 410.273 268.541 410.273 268.541L412.777 272.384C412.777 272.384 413.547 271.808 415.088 271.808C416.627 271.808 418.169 270.464 418.169 270.464C418.169 270.464 419.903 270.846 419.709 268.735C419.517 266.62 420.481 264.123 420.287 263.546C420.095 262.97 422.021 260.472 422.021 259.896C422.021 259.319 423.947 256.631 423.947 255.669C423.947 254.709 425.294 253.171 425.487 252.02C425.679 250.866 425.872 248.177 426.257 247.409C426.643 246.64 426.835 245.871 426.835 245.103C426.835 244.335 426.835 242.797 426.835 242.797L425.466 238.563L425.486 238.568Z" fill="url(#paint1_linear_2004_29131)"/>
<path d="M576.274 264.509C575.696 265.277 575.311 273.54 574.926 274.5C574.541 275.46 573.771 280.457 574.157 281.608C574.541 282.762 575.119 286.989 574.735 288.334C574.349 289.678 574.927 293.905 573.963 293.713C573.001 293.52 572.617 293.906 572.617 294.482C572.617 295.059 573.963 296.21 573.963 296.21C573.963 296.21 576.276 296.211 577.238 296.018C578.201 295.826 580.127 294.865 581.668 294.865C583.209 294.865 584.172 293.712 585.519 293.712C586.867 293.712 589.756 292.752 590.526 293.135C591.296 293.519 592.451 290.83 593.8 291.407C595.148 291.983 598.038 290.062 599.385 290.062C600.732 290.062 601.311 287.947 602.852 288.333C604.392 288.717 607.281 287.565 608.63 288.139C609.976 288.717 612.096 286.219 613.058 288.139C614.022 290.062 616.911 290.83 616.911 291.79C616.911 292.75 616.716 294.865 616.716 294.865L619.028 294.672C619.028 294.672 622.685 292.366 623.265 292.366C623.842 292.366 625.191 290.446 625.191 291.407C625.191 292.366 624.034 294.482 623.65 295.441C623.265 296.402 624.034 297.555 624.034 297.555C624.034 297.555 625.961 298.516 625.191 300.244C624.42 301.974 625.382 301.59 625.191 302.934C624.997 304.279 625.191 303.702 625.959 304.471C626.731 305.24 628.08 306.587 629.234 306.393C630.391 306.2 630.774 305.048 631.738 305.625C632.7 306.201 634.625 305.817 635.203 306.586C635.783 307.353 631.545 309.275 638.863 306.01C646.181 302.742 646.949 301.974 647.912 300.82C648.878 299.668 650.033 298.516 650.802 297.747C651.573 296.978 650.996 297.17 653.305 295.441C655.616 293.712 655.616 294.481 657.736 291.214C659.855 287.949 661.394 286.796 661.781 286.219C662.166 285.641 662.936 285.45 663.128 283.143C663.321 280.838 664.861 278.725 664.861 277.956C664.861 277.189 665.438 276.037 665.246 274.69C665.053 273.345 666.017 271.425 664.861 269.504C663.705 267.582 665.438 266.815 663.705 266.044C661.972 265.276 660.816 265.661 660.431 264.316C660.046 262.97 658.505 263.162 657.927 259.512C657.35 255.862 655.039 255.476 655.039 255.476C655.039 255.476 652.728 254.516 653.305 254.133C653.884 253.748 654.076 251.057 653.884 250.289C653.691 249.521 653.691 247.791 653.114 246.64C652.537 245.486 652.151 243.95 651.574 242.604C650.996 241.259 650.033 240.875 649.648 239.338C649.262 237.801 648.684 237.224 648.493 236.84C648.298 236.456 647.912 234.536 647.529 236.647C647.144 238.761 646.372 242.795 646.372 242.795C646.372 242.795 644.832 246.063 644.254 247.023C643.676 247.983 643.099 250.481 642.136 250.288C641.173 250.096 640.594 251.25 639.825 251.056C639.055 250.864 637.9 251.249 637.322 250.673C636.744 250.096 635.204 248.56 634.433 248.367C633.663 248.175 633.085 246.639 632.507 246.639C631.927 246.639 630.966 245.293 631.159 244.525C631.351 243.756 631.543 242.028 631.737 241.259C631.928 240.49 633.085 238.76 633.085 238.76C633.085 238.76 633.085 237.608 632.122 237.608C631.159 237.608 630.966 237.608 628.847 237.415C626.73 237.222 626.153 237.031 625.381 237.031C624.612 237.031 626.152 236.647 624.033 237.223C621.915 237.801 620.952 239.337 619.604 240.682C618.258 242.027 619.412 241.642 618.258 242.027C617.1 242.412 617.294 241.066 616.523 243.18C615.753 245.294 616.909 245.869 616.329 246.254C615.752 246.639 611.709 244.91 611.709 244.91C611.709 244.91 612.672 244.717 611.901 243.756C611.132 242.795 610.361 241.452 609.206 242.028C608.049 242.604 607.085 242.989 606.317 243.949C605.546 244.91 605.546 245.678 604.969 246.446C604.391 247.214 602.851 247.214 602.658 247.983C602.465 248.753 602.465 250.673 601.889 250.865C601.311 251.058 601.119 250.099 600.541 249.906C599.964 249.714 600.155 248.176 599.771 249.138C599.386 250.098 599.001 249.905 598.423 251.442C597.844 252.98 597.653 254.325 597.075 254.517C596.498 254.71 597.075 254.901 595.341 255.862C593.609 256.823 593.223 256.823 590.721 257.976C588.218 259.129 588.796 259.129 587.062 259.32C585.33 259.513 584.943 260.089 583.788 260.281C582.631 260.474 581.863 260.665 580.706 261.818C579.551 262.971 578.588 263.354 577.818 263.547C577.048 263.74 576.313 264.495 576.313 264.495L576.274 264.509Z" fill="url(#paint2_linear_2004_29131)"/>
<path d="M587.638 188.615C586.869 189.769 584.366 193.226 583.403 193.419C582.44 193.61 581.476 194.572 580.706 194.379C579.936 194.186 578.203 194.379 577.625 196.877C577.048 199.375 576.084 200.72 575.505 200.527C574.928 200.335 576.468 204.177 573.195 202.641C569.922 201.104 571.077 203.987 570.692 204.756C570.307 205.523 571.269 207.638 571.462 208.406C571.656 209.174 572.232 210.519 573.003 211.671C573.773 212.824 574.35 214.169 575.698 213.786C577.047 213.4 581.282 213.786 581.282 213.786C581.282 213.786 582.825 214.362 583.786 214.362C584.749 214.362 584.942 213.978 585.519 213.978C586.096 213.978 587.252 212.056 587.06 211.865C586.867 211.671 586.291 211.096 587.445 209.942C588.601 208.789 589.948 208.406 590.142 207.061C590.334 205.716 589.757 205.716 590.334 204.946C590.912 204.178 592.259 204.372 591.875 203.602C591.489 202.833 592.259 203.025 591.489 201.487C590.72 199.951 589.756 199.374 590.526 197.452C591.297 195.532 592.068 195.147 591.875 193.994C591.682 192.84 592.838 192.457 591.489 191.112C590.143 189.768 589.564 189.383 588.601 188.997L587.651 188.604L587.638 188.615Z" fill="url(#paint3_linear_2004_29131)"/>
<path d="M625.384 207.83C626.155 207.638 628.851 205.716 629.044 209.175C629.236 212.633 629.427 211.672 630.585 213.593C631.74 215.515 632.508 216.093 633.857 215.131C635.204 214.169 636.745 214.169 637.13 212.442C637.516 210.712 637.516 210.712 638.671 210.712C639.829 210.712 640.212 210.52 640.792 211.29C641.369 212.057 641.752 211.288 644.257 212.634C646.761 213.979 648.878 213.593 650.421 214.939C651.962 216.284 652.732 216.093 654.849 216.861C656.968 217.629 656.004 216.477 657.93 218.59C659.857 220.703 659.088 221.279 660.049 222.24C661.011 223.201 661.783 221.471 661.397 223.777C661.011 226.082 658.316 223.777 662.361 227.042C666.404 230.31 666.982 230.887 668.329 231.846C669.678 232.807 670.641 233.96 669.487 233.96C668.329 233.96 664.671 233.96 664.287 233.383C663.901 232.807 662.169 232.422 661.012 231.078C659.858 229.734 657.354 228.772 656.778 227.62C656.199 226.466 655.429 226.082 654.466 226.082C653.504 226.082 652.541 227.235 651.192 228.58C649.843 229.925 650.423 227.813 648.688 228.388C646.954 228.965 645.031 228.195 644.066 227.427C643.103 226.659 643.297 225.506 641.757 226.082C640.215 226.659 639.254 226.274 639.831 225.122C640.409 223.968 640.023 222.432 640.023 222.432C640.023 222.432 640.602 220.51 639.254 220.127C637.906 219.743 637.906 218.398 636.558 218.012C635.208 217.629 633.092 216.668 633.092 216.668C633.092 216.668 632.899 216.668 632.321 216.476C631.743 216.283 631.743 216.283 630.202 215.9C628.662 215.515 627.506 215.898 626.736 214.938C625.965 213.978 626.351 212.633 626.351 212.633C626.351 212.633 629.431 213.017 626.351 210.711L623.27 208.407C623.27 208.407 623.653 208.214 623.461 207.83C623.264 207.437 625.386 207.821 625.386 207.821L625.384 207.83Z" fill="url(#paint4_linear_2004_29131)"/>
<path d="M538.726 191.875C538.726 191.875 539.689 192.837 541.229 192.644C542.769 192.451 543.924 195.718 544.889 196.87C545.85 198.024 546.43 198.6 548.547 199.945C550.665 201.29 550.472 198.792 553.362 202.827C556.25 206.861 554.902 204.364 556.25 206.861C557.598 209.361 558.369 210.705 559.139 211.283C559.908 211.859 560.487 213.395 560.68 213.972C560.872 214.548 562.22 216.276 562.22 216.853C562.22 217.43 562.605 218.967 561.45 220.311C560.295 221.657 559.331 221.849 559.331 221.849C559.331 221.849 557.02 220.696 556.25 219.543C555.479 218.391 554.518 217.43 553.168 215.125C551.821 212.818 550.28 210.321 549.51 209.168C548.74 208.014 547.584 206.861 547.006 205.71C546.429 204.555 544.888 201.098 544.118 200.713C543.348 200.328 543.155 199.177 541.806 197.832C540.459 196.486 540.651 195.334 540.074 194.566C539.496 193.797 538.148 192.066 538.148 192.066L538.713 191.878L538.726 191.875Z" fill="url(#paint5_linear_2004_29131)"/>
<path d="M164.164 341.744C162.816 340.976 159.928 339.631 158.965 338.862C158.002 338.094 155.114 333.865 155.114 333.865L152.995 329.83C152.995 329.83 150.492 326.756 151.07 325.604C151.647 324.451 152.803 323.683 152.803 323.106C152.803 322.53 153.958 320.992 152.995 320.417C152.032 319.84 152.032 319.648 151.454 317.919C150.876 316.19 150.876 314.651 150.106 314.268C149.335 313.885 148.758 311.386 147.988 311.194C147.218 311.001 146.447 309.657 146.447 309.657L145.291 294.094C145.291 294.094 144.905 286.986 144.521 285.447C144.135 283.911 145.099 280.645 144.135 277.762C143.173 274.881 144.328 271.423 143.75 270.269C143.173 269.116 144.135 265.851 143.558 262.777C142.98 259.703 145.869 255.86 143.558 254.708C141.247 253.554 142.98 251.825 141.054 251.825C139.129 251.825 137.781 250.864 136.047 249.521C134.314 248.175 131.039 245.677 130.077 244.716C129.114 243.756 126.033 241.258 125.07 240.489C124.107 239.721 123.144 236.454 122.374 235.493C121.604 234.534 121.219 231.652 120.063 229.922C118.907 228.194 117.367 225.312 116.981 224.735C116.596 224.159 112.359 219.163 112.359 219.163L112.744 216.09C112.744 216.09 115.633 214.36 115.248 213.784C114.863 213.207 115.441 212.63 114.092 211.478C112.744 210.324 112.936 208.211 114.092 207.251C115.248 206.289 116.98 203.215 116.98 203.215L119.869 198.413C119.869 198.413 122.181 195.913 122.181 194.185C122.181 192.456 125.454 191.304 123.528 189.767C121.602 188.228 122.566 186.884 121.987 185.731C121.409 184.578 121.795 183.81 123.528 182.657C125.262 181.504 128.343 177.277 128.343 177.277C128.343 177.277 130.654 176.7 131.231 176.7C131.809 176.7 132.772 170.551 134.505 174.586C136.239 178.621 136.816 176.507 136.239 179.389C135.66 182.271 137.009 181.696 137.779 180.927C138.549 180.157 137.393 181.504 138.934 178.044C140.474 174.586 139.897 173.434 140.86 174.395C141.822 175.356 142.207 175.548 143.941 176.124C145.673 176.7 146.252 176.507 146.829 177.661C147.406 178.814 147.214 177.277 150.488 177.854C153.761 178.431 158.383 176.7 157.806 178.621C157.228 180.542 156.072 178.429 158.768 180.542C161.464 182.657 161.85 183.04 163.39 183.425C164.93 183.809 166.279 183.617 168.59 185.923C170.901 188.228 171.479 188.42 172.056 189.572C172.634 190.726 173.596 189.957 174.56 191.109C175.522 192.263 176.871 192.263 178.218 192.263C179.566 192.263 178.218 191.109 180.337 192.648C182.456 194.184 183.996 194.375 184.959 197.45C185.921 200.526 187.847 200.333 186.306 203.407C184.766 206.482 181.685 207.827 183.033 207.634C184.38 207.442 186.885 206.288 187.655 206.481C188.425 206.672 188.81 205.905 189.966 206.481C191.122 207.057 191.314 205.713 191.121 207.057C190.928 208.403 190.928 207.057 190.928 208.403C190.928 209.747 190.543 207.057 192.854 207.634C195.165 208.211 193.817 206.48 196.513 208.979C199.209 211.477 199.209 210.709 200.171 212.054C201.134 213.397 202.097 211.286 202.675 211.862C203.254 212.437 204.986 212.053 206.72 212.438C208.453 212.821 207.297 211.285 209.994 213.014C212.689 214.743 215.386 214.166 215.964 215.704C216.541 217.24 218.083 216.664 218.852 217.625C219.621 218.586 220.007 217.24 220.778 218.586C221.548 219.93 223.86 219.546 223.474 220.89C223.088 222.236 224.051 221.467 223.666 223.388C223.281 225.311 221.932 228.385 220.778 229.152C219.622 229.922 219.623 230.882 218.852 231.842C218.082 232.804 218.274 230.882 217.311 233.572C216.349 236.262 216.541 236.646 215.771 239.143C215.001 241.64 215.579 239.143 215.001 241.641C214.423 244.138 214.808 245.676 214.231 248.558C213.653 251.439 213.846 251.44 213.461 253.554C213.076 255.667 214.423 252.594 212.69 257.012C210.957 261.432 210.765 261.238 210.187 263.16C209.609 265.083 210.38 263.545 208.262 264.698C206.143 265.852 207.299 265.466 204.795 266.235C202.292 267.003 199.21 267.773 198.248 267.965C197.285 268.156 193.433 269.309 194.589 271.614C195.745 273.92 195.745 274.304 194.589 277.187C193.433 280.068 191.701 281.03 191.701 282.374C191.701 283.718 190.93 285.063 190.738 286.024C190.545 286.985 192.471 285.063 190.161 287.945C187.85 290.827 187.657 290.059 186.886 291.788C186.116 293.517 186.886 292.171 186.116 293.517C185.346 294.861 183.42 295.437 183.42 295.437C183.42 295.437 183.612 296.399 182.842 296.014C182.071 295.631 182.264 296.206 179.375 295.437C176.487 294.669 176.102 292.749 175.717 294.093C175.332 295.437 175.909 296.207 177.643 297.552C179.375 298.897 182.264 299.28 181.494 300.626C180.724 301.972 180.724 301.972 180.146 302.74C179.568 303.509 180.916 302.932 179.568 303.509C178.22 304.085 177.449 306.584 176.872 306.584C176.294 306.584 175.908 307.544 175.138 307.16C174.368 306.775 172.443 305.431 172.057 306.199C171.672 306.966 170.901 305.238 171.094 307.927C171.287 310.617 171.672 312.155 170.709 312.732C169.746 313.308 167.435 312.732 167.435 312.732L167.049 311.77L165.702 312.155C165.702 312.155 165.124 314.46 166.087 314.844C167.049 315.228 166.857 315.612 167.82 316.765C168.783 317.918 168.205 320.032 168.205 320.032C168.205 320.032 168.205 320.609 167.243 321.569C166.28 322.529 165.894 323.298 165.702 323.875C165.509 324.451 164.354 326.949 166.087 326.756C167.82 326.564 169.169 325.603 169.169 328.678C169.169 331.752 169.939 330.984 168.976 333.097C168.013 335.211 167.243 335.403 167.05 337.323C166.859 339.245 167.244 339.437 167.629 340.59C168.014 341.743 168.977 341.166 168.014 341.743C167.055 342.29 164.172 341.718 164.172 341.718L164.164 341.744Z" fill="url(#paint6_linear_2004_29131)"/>
<path d="M114.478 185.345L113.131 183.425C113.131 183.425 112.553 182.271 111.59 182.079C110.627 181.888 108.508 179.39 108.508 179.39C108.508 179.39 107.546 178.621 107.546 177.277C107.546 175.932 106.775 173.819 107.352 171.513C107.931 169.209 108.123 166.326 107.931 165.557C107.737 164.789 108.893 164.597 107.546 163.827C106.197 163.059 103.501 162.867 101.768 162.867C100.035 162.867 97.916 163.444 97.531 163.635C97.146 163.827 99.6494 157.872 100.034 156.911C100.419 155.951 102.153 151.723 102.153 151.148C102.153 150.571 102.73 150.379 101.575 149.611C100.42 148.842 98.4944 148.458 97.3385 149.034C96.1834 149.611 96.3759 148.266 95.4134 150.571C94.4508 152.877 93.4875 155.375 92.3316 155.759C91.1765 156.144 88.8656 157.296 88.8656 157.296C88.8656 157.296 85.9771 157.104 85.0137 156.912C84.0512 156.72 80.0068 154.607 79.2368 153.262C78.4667 151.917 78.0817 149.034 78.0817 147.691C78.0817 146.345 80.1993 142.311 80.0068 141.35C79.8143 140.39 82.1261 136.547 81.9327 135.97C81.7394 135.394 82.3177 133.472 82.8953 132.704C83.4728 131.936 86.3621 130.974 87.1321 130.206C87.9022 129.437 89.2506 128.478 90.5981 128.093C91.9457 127.708 93.1024 127.324 94.065 127.324C95.0275 127.324 97.531 125.211 97.916 127.324C98.3019 129.437 100.035 128.669 100.998 128.861C101.96 129.054 102.154 130.014 103.694 127.516C105.235 125.018 106.775 124.25 106.775 124.826C106.775 125.403 109.278 124.635 109.663 125.211C110.048 125.787 110.819 124.826 112.167 125.979C113.515 127.132 115.44 127.324 115.248 127.9C115.055 128.476 116.018 128.476 116.018 129.053C116.018 129.629 116.789 127.708 116.789 131.166C116.789 134.624 117.751 136.738 117.751 136.738C117.751 136.738 119.099 139.621 119.676 139.044C120.254 138.467 121.409 136.931 121.409 136.931C121.409 136.931 123.335 135.778 121.987 131.743C120.639 127.708 121.602 126.555 121.217 125.21C120.831 123.865 120.831 123.095 123.142 121.367C125.453 119.638 131.038 115.795 132.386 115.027C133.734 114.259 136.814 112.145 136.814 112.145C136.814 112.145 137.97 111.569 138.163 110.032C138.355 108.495 142.014 105.805 142.207 105.036C142.401 104.268 144.904 102.348 144.904 102.348C144.904 102.348 147.599 100.809 147.407 99.8499C147.214 98.8895 150.874 97.161 151.451 97.161C152.029 97.161 155.11 98.1204 155.11 96.391C155.11 94.6624 155.11 94.2775 157.036 92.7409C158.961 91.2044 161.465 88.898 162.428 88.898C163.391 88.898 166.665 87.1703 168.013 86.7853C169.361 86.4003 173.598 84.4788 169.746 86.7853C165.894 89.09 168.398 87.7456 167.628 89.6671C166.859 91.5877 166.279 94.0863 169.939 91.2036C173.598 88.3218 173.405 87.7447 174.753 87.5535C176.101 87.3615 175.138 88.1297 178.027 87.1685C180.916 86.2082 181.108 85.8241 181.108 85.8241C181.108 85.8241 182.457 84.6709 181.686 84.0955C180.916 83.5185 182.457 82.7502 179.567 83.9026C176.679 85.0559 176.871 85.2479 174.946 84.6709C173.02 84.0947 170.131 84.2859 172.25 82.3644C174.368 80.4438 177.064 79.8667 175.331 79.0985C173.598 78.3302 169.169 79.2914 168.591 79.4826C168.013 79.6747 166.665 79.2905 165.509 79.4826C164.354 79.6747 164.739 77.9469 165.509 77.562C166.28 77.177 168.784 76.0238 171.865 75.2555C174.946 74.4873 182.457 74.2952 184.189 74.2952C185.922 74.2952 188.233 74.6802 189.581 73.719C190.929 72.7587 193.626 71.2222 194.011 70.4522C194.396 69.684 195.937 68.5316 195.937 68.5316C195.937 68.5316 197.669 66.8022 196.707 66.0339C195.744 65.2656 194.781 63.5362 194.011 63.9203C193.241 64.3045 193.819 66.6109 192.278 64.1124C190.737 61.6156 190.93 61.2306 190.16 60.6544C189.39 60.0782 188.619 60.4615 189.197 57.7726C189.775 55.0829 189.582 53.9296 189.582 53.9296C189.582 53.9296 190.16 51.6249 189.582 51.4328C189.004 51.2399 188.62 50.6646 187.657 51.2399C186.694 51.8161 181.302 54.5067 180.147 55.0829C178.991 55.6591 177.45 52.7773 178.027 51.4328C178.606 50.0867 178.22 50.8558 177.45 48.9351C176.68 47.0136 173.599 46.6287 172.443 46.6287C171.287 46.6287 168.592 44.8992 167.821 46.0525C167.051 47.2049 163.007 50.8549 162.236 51.2399C161.466 51.6249 160.311 47.974 159.733 53.9296C159.155 59.887 161.852 61.6156 158.771 61.9997C155.69 62.3838 152.993 64.1124 152.993 64.1124C152.993 64.1124 150.49 64.3053 150.49 65.8418C150.49 67.3801 149.528 71.0293 148.371 71.4134C147.216 71.7984 144.327 71.2222 143.364 70.0689C142.401 68.9157 143.557 64.6894 143.557 64.6894L145.29 62.96C145.29 62.96 132.965 61.0394 133.157 60.2703C133.35 59.502 129.498 58.1576 129.113 57.0044C128.728 55.8511 128.535 53.3534 128.921 52.3931C129.306 51.4328 134.505 46.8216 137.201 45.8613C139.897 44.9001 144.519 42.7874 145.867 42.4024C147.216 42.0183 149.526 42.2104 150.297 41.25C151.067 40.2889 151.259 38.5603 151.259 38.5603C151.259 38.5603 150.874 35.8697 151.644 36.2538C152.414 36.6388 153.763 37.215 153.955 37.7912C154.149 38.3674 154.149 39.7127 155.496 38.1745C156.845 36.638 158.578 36.0609 160.118 35.2935C161.659 34.5244 163.969 34.7173 165.318 33.9491C166.666 33.1808 168.977 32.4117 169.169 30.4902C169.362 28.5696 168.592 29.1458 167.629 28.9529C166.666 28.7616 168.014 29.1458 164.74 30.6823C161.466 32.2188 162.429 31.0664 160.118 32.2188C157.807 33.372 157.614 33.5641 157.422 32.6038C157.229 31.6426 157.807 30.1061 157.807 30.1061C157.807 30.1061 158.001 29.9132 156.652 29.5299C155.304 29.1458 155.304 29.722 155.111 27.9934C154.919 26.264 156.074 23.7663 154.149 24.5345C152.223 25.3028 150.49 23.9584 149.142 27.8005C147.793 31.6426 143.172 35.6785 142.016 34.7173C140.861 33.757 140.668 33.5641 139.705 33.5641C138.741 33.5641 137.394 32.4117 135.66 32.2196C133.927 32.0276 128.727 32.0276 127.38 32.2196C126.032 32.4126 124.491 31.4514 123.335 32.6046C122.18 33.757 120.447 35.2944 120.447 35.8714C120.447 36.4476 118.714 33.757 118.136 33.9499C117.559 34.142 116.017 33.1817 114.285 33.1817C112.552 33.1817 111.396 32.2205 110.819 32.2205C110.242 32.2205 111.396 30.6831 110.819 30.4911C110.242 30.2999 97.7226 29.9149 97.7226 29.9149C97.7226 29.9149 93.6791 28.3784 92.139 28.5704C90.5981 28.7625 86.3621 28.9537 83.0869 29.5308C79.8126 30.1069 74.9982 32.0284 73.4581 32.2205C71.9172 32.4134 68.4512 32.4134 67.8737 31.4522C67.2953 30.4919 68.0662 30.684 67.2953 30.4919C66.5253 30.3007 67.1036 29.9157 65.3702 28.5713C63.6368 27.226 66.1411 26.0736 62.6743 26.0736C59.2083 26.0736 57.0898 25.8807 54.0089 26.0736C50.927 26.2657 44.5726 27.8022 43.8025 27.6101C43.0325 27.4181 36.8697 28.5713 35.9063 27.9951C34.9438 27.4181 30.1285 30.1078 29.1668 29.9157C28.2043 29.7237 24.5449 30.1087 23.5824 30.6848C22.619 31.2619 17.9971 32.4134 19.538 33.3746C21.0781 34.3349 20.8856 35.2952 21.0781 35.8723C21.2714 36.4484 19.538 37.7929 19.538 37.7929C19.538 37.7929 19.1522 37.7929 17.0346 37.0246C14.9161 36.2555 12.6052 35.8723 11.6418 36.4485C10.6793 37.0246 8.94583 38.1787 9.33084 38.947C9.71671 39.7152 12.4118 41.4447 12.7977 40.8676C13.1827 40.2914 14.1461 39.139 15.3011 39.3311C16.457 39.524 18.1905 38.5629 16.6496 40.4843C15.1086 42.405 13.7602 43.3661 12.7977 43.5591C11.8352 43.7503 9.52421 43.9423 7.40577 44.1353C5.28647 44.3282 5.47898 43.367 3.5539 45.2885C1.62883 47.2091 0.857942 46.0567 0.472927 48.1703C0.0879122 50.283 -0.297103 50.283 0.472927 50.86C1.24296 51.4362 -1.06799 51.6283 0.665435 52.2045C2.398 52.7815 4.51644 53.3577 4.32393 53.933C4.13057 54.5101 6.24987 53.1656 5.09396 54.7013C3.93806 56.2395 3.16889 57.5831 5.47898 56.0466C7.78993 54.5101 9.13748 55.6616 11.0634 54.7013C12.9893 53.741 14.9153 53.5489 16.0703 52.7807C17.2262 52.0116 17.8037 50.86 19.5372 50.2821C21.2706 49.7059 20.1147 50.4751 20.3072 51.4354C20.4997 52.3957 20.3072 52.5878 21.4631 51.8186C22.6181 51.0504 22.6181 51.6274 24.1591 50.6663C25.6991 49.7059 27.4325 48.7448 28.5884 49.321C29.7435 49.898 30.1285 49.898 30.8994 49.898C31.6694 49.898 29.9369 49.7051 31.6694 49.898C33.4028 50.0892 30.8994 49.321 36.6763 50.6663C42.4541 52.0107 43.995 51.0504 44.3792 53.1639C44.7651 55.2775 45.5351 52.971 46.4976 54.3163C47.4602 55.6608 48.0386 54.5092 48.6161 56.814C49.1936 59.1205 48.6161 65.4603 48.2311 66.2285C47.846 66.9968 47.6535 66.9968 47.846 68.7262C48.0386 70.4548 50.3495 78.7178 49.5795 79.2931C48.8094 79.8684 47.076 80.0614 47.076 80.0614L46.1135 83.5193C46.1135 83.5193 44.5734 86.4011 43.225 87.9385C41.8766 89.475 40.144 91.3974 39.1806 92.7409C38.2181 94.0862 37.4472 96.3927 36.0997 97.7372C34.7521 99.0816 33.5962 98.5054 33.9812 101.387C34.3662 104.269 33.9812 107.343 34.3662 109.457C34.7521 111.571 35.7146 114.453 36.4847 115.606C37.2547 116.758 37.8331 116.758 39.1806 117.719C40.529 118.679 42.2625 119.833 42.0691 120.793C41.8766 121.754 42.2616 127.711 42.2616 127.711C42.2616 127.711 43.4175 129.632 43.6092 131.745C43.8025 133.86 45.1501 135.972 45.1501 135.972L46.306 138.471C46.306 138.471 46.8835 138.664 47.6544 140.199C48.4244 141.737 48.4244 141.737 48.6169 142.504C48.8103 143.274 48.8103 143.081 48.8103 143.274C48.8103 143.465 48.6169 140.007 48.2319 139.046C47.8469 138.086 47.8469 136.933 47.4619 135.78C47.0769 134.627 47.6544 133.282 46.4993 131.553C45.3443 129.825 45.3443 129.632 44.7668 127.902C44.1893 126.174 43.4184 124.252 44.1893 123.867C44.9593 123.484 45.5368 120.986 47.0777 123.867C48.6178 126.749 48.8111 125.982 49.0037 128.287C49.1953 130.593 49.7737 131.362 50.3512 132.321C50.9287 133.282 52.2763 136.549 53.0472 137.893C53.8172 139.238 53.0472 137.125 54.7797 139.814C56.5132 142.504 56.7065 143.08 57.6691 145.194C58.6316 147.307 59.21 147.307 59.7875 148.844C60.365 150.382 59.98 149.997 59.5941 151.726C59.2091 153.454 59.9792 155.377 59.9792 155.377C59.9792 155.377 62.6751 156.337 62.8676 156.913C63.0601 157.489 65.7561 158.45 66.142 159.219C66.527 159.988 69.0304 160.947 69.0304 160.947C69.0304 160.947 71.1489 162.293 71.9181 162.677C72.6889 163.061 75.0007 163.446 75.0007 163.446C75.0007 163.446 76.5408 163.831 77.1183 164.022C77.6958 164.214 79.4293 164.214 79.4293 164.214C79.4293 164.214 80.9702 163.062 81.5477 163.446C82.1252 163.829 83.4736 162.677 84.0512 163.637C84.6287 164.598 85.7846 164.598 86.3621 165.367C86.9396 166.136 87.5172 166.136 88.4805 167.096C89.4439 168.056 90.4065 167.864 91.369 168.632C92.3316 169.401 93.1016 169.401 94.2575 169.401C95.4125 169.401 95.4125 169.401 96.1834 169.594C96.9526 169.786 97.3385 169.017 98.1085 169.979C98.8785 170.939 99.456 171.515 100.034 172.475C100.611 173.436 101.959 173.436 102.152 174.973C102.345 176.51 102.73 176.319 102.73 177.663C102.73 179.008 103.5 179.584 104.078 179.969C104.655 180.353 106.773 182.273 106.773 182.273L109.662 182.85L111.972 184.58L114.411 185.348L114.478 185.345Z" fill="url(#paint7_linear_2004_29131)"/>
<path d="M176.201 6.85435L187.756 5.41344C187.756 5.41344 191.799 5.41344 193.822 3.97254C195.844 2.53164 193.822 2.53164 199.888 1.37926C205.954 0.226026 204.222 -0.350164 207.399 0.226026C210.576 0.80307 211.443 0.80307 214.91 1.37926C218.376 1.95545 219.242 1.09159 222.419 1.95545C225.597 2.82016 227.041 2.53164 229.641 2.53164H237.729C241.774 2.53164 245.529 0.226026 246.973 1.66693C248.417 3.10783 249.284 2.53164 254.195 3.10783C259.105 3.68402 261.128 2.53079 263.15 3.10783C265.172 3.68402 268.639 2.82016 272.683 3.10783C276.726 3.3955 278.749 2.82016 280.193 2.82016C281.637 2.82016 283.081 0.802216 285.103 2.53164C287.126 4.26106 289.725 1.95545 290.013 4.26106C290.303 6.56668 294.058 4.83725 290.303 6.56668C286.547 8.2961 287.125 8.00758 284.525 10.3132C281.925 12.6188 286.258 14.6359 280.77 16.6538C275.281 18.6709 274.414 15.5006 272.97 18.9595C271.526 22.4175 272.97 23.2822 272.682 25.0116C272.392 26.7402 271.815 27.0287 270.082 28.4696C268.349 29.9105 268.349 28.4696 264.305 29.3343C260.26 30.199 257.372 31.0637 255.639 31.0637C253.906 31.0637 250.151 32.5046 248.995 33.0808C247.839 33.6579 251.017 34.5217 244.95 36.2511C238.884 37.9806 237.439 37.6929 235.707 39.9977C233.973 42.3041 234.551 42.5926 233.396 44.0336C232.24 45.4745 228.774 51.2389 227.04 49.798C225.308 48.3571 224.44 48.6448 222.996 47.2039C221.552 45.763 220.685 43.7459 219.818 42.5926C218.952 41.4394 218.662 38.5576 218.374 36.8282C218.086 35.0988 215.485 31.0646 218.374 31.6408C221.262 32.217 222.996 31.9293 223.863 31.3531C224.729 30.7761 225.596 28.759 225.596 28.759C225.596 28.759 225.308 25.5886 224.44 23.8592C223.573 22.1298 224.152 20.6889 222.708 18.9603C221.263 17.2309 221.263 17.5194 219.241 15.79C217.219 14.0606 217.796 13.1959 214.619 12.9082C211.441 12.6205 210.574 11.755 209.419 12.0435C208.264 12.3311 204.508 10.0255 208.552 9.73786C212.596 9.44934 216.351 10.0255 216.351 10.0255C216.351 10.0255 221.551 7.71991 219.818 7.43224C218.086 7.14372 222.418 4.54959 218.374 5.4143C214.33 6.27901 209.709 7.43224 208.553 7.71991C207.398 8.00758 204.508 8.2961 201.62 9.16081C198.732 10.0255 195.265 9.73786 193.532 11.755C191.799 13.772 193.532 14.0606 191.799 13.772C190.066 13.4844 193.243 11.755 189.199 13.772C185.155 15.79 186.311 15.5015 184.289 14.9253C182.266 14.3491 180.822 13.4844 180.822 13.4844C180.822 13.4844 183.423 13.1959 179.667 12.9082C175.912 12.6205 175.912 12.6205 174.468 10.8902C173.024 9.16081 173.89 9.16081 174.756 8.58462C175.612 8.00758 176.193 6.85435 176.193 6.85435H176.201Z" fill="url(#paint8_linear_2004_29131)"/>
<path d="M169.845 19.8232C168.401 21.2641 164.934 23.2821 165.801 24.1468C166.668 25.0115 167.246 28.1818 168.979 27.3171C170.712 26.4524 168.69 23.5706 175.334 25.8762C181.978 28.1818 181.4 25.5886 182.844 29.0466C184.288 32.5045 185.443 35.0978 184.577 35.9634C183.711 36.8281 183.422 37.6928 180.532 38.5575C177.644 39.4222 176.488 40.5755 178.51 42.0155C180.532 43.4564 184.288 44.8973 186.021 45.7629C187.754 46.6268 192.954 46.9161 190.353 44.0343C187.753 41.1525 190.931 40.287 190.931 40.287C190.931 40.287 195.842 44.0343 194.11 39.7108C192.376 35.3881 191.22 35.3881 192.376 35.3881C193.532 35.3881 195.842 36.829 195.842 36.829L196.998 34.5233L195.842 30.7768L192.087 27.0303C192.087 27.0303 195.264 24.1485 190.931 23.5723C186.598 22.9961 186.887 22.9961 184.576 21.5544C182.265 20.1135 181.976 19.5373 177.643 20.402C173.31 21.2667 171.866 21.8429 171.866 21.8429L169.855 19.8232H169.845Z" fill="url(#paint9_linear_2004_29131)"/>
<path d="M105.426 23.2818C107.159 21.5524 111.781 17.5182 113.515 18.6706C115.247 19.823 117.846 17.8059 119.869 19.5353C121.891 21.2647 124.202 23.2818 125.935 23.858C127.669 24.4342 129.69 22.4171 131.424 23.2818C133.156 24.1465 139.222 18.9591 138.067 22.9941C136.911 27.0292 139.512 28.1816 136.334 28.4701C133.156 28.7586 129.69 31.0642 128.245 30.1995C126.801 29.3348 125.645 28.4701 123.334 29.6233C121.023 30.7757 122.179 30.7757 119.579 30.1995C116.98 29.6233 116.402 30.7757 115.825 29.911C115.246 29.0471 113.514 29.3348 113.802 26.7407C114.09 24.1474 114.957 24.435 113.224 24.435C111.491 24.435 110.047 24.7236 108.891 23.8589C107.744 22.9941 105.434 23.2818 105.434 23.2818H105.426Z" fill="url(#paint10_linear_2004_29131)"/>
</g>
<defs>
<linearGradient id="paint0_linear_2004_29131" x1="266.916" y1="14.331" x2="530.87" y2="393.387" gradientUnits="userSpaceOnUse">
<stop stop-color="#76C0DF"/>
<stop offset="1" stop-color="#184D6B"/>
</linearGradient>
<linearGradient id="paint1_linear_2004_29131" x1="410.03" y1="238.563" x2="437.553" y2="252.77" gradientUnits="userSpaceOnUse">
<stop stop-color="#76C0DF"/>
<stop offset="1" stop-color="#184D6B"/>
</linearGradient>
<linearGradient id="paint2_linear_2004_29131" x1="572.48" y1="235.673" x2="641.587" y2="328.132" gradientUnits="userSpaceOnUse">
<stop stop-color="#76C0DF"/>
<stop offset="1" stop-color="#184D6B"/>
</linearGradient>
<linearGradient id="paint3_linear_2004_29131" x1="570.57" y1="188.604" x2="596.039" y2="210.774" gradientUnits="userSpaceOnUse">
<stop stop-color="#76C0DF"/>
<stop offset="1" stop-color="#184D6B"/>
</linearGradient>
<linearGradient id="paint4_linear_2004_29131" x1="623.2" y1="207.125" x2="645.87" y2="248.193" gradientUnits="userSpaceOnUse">
<stop stop-color="#76C0DF"/>
<stop offset="1" stop-color="#184D6B"/>
</linearGradient>
<linearGradient id="paint5_linear_2004_29131" x1="538.113" y1="191.875" x2="567.573" y2="216.551" gradientUnits="userSpaceOnUse">
<stop stop-color="#76C0DF"/>
<stop offset="1" stop-color="#184D6B"/>
</linearGradient>
<linearGradient id="paint6_linear_2004_29131" x1="112.194" y1="173.214" x2="269.44" y2="281.192" gradientUnits="userSpaceOnUse">
<stop stop-color="#76C0DF"/>
<stop offset="1" stop-color="#184D6B"/>
</linearGradient>
<linearGradient id="paint7_linear_2004_29131" x1="-0.287745" y1="24.3915" x2="155.824" y2="223.158" gradientUnits="userSpaceOnUse">
<stop stop-color="#76C0DF"/>
<stop offset="1" stop-color="#184D6B"/>
</linearGradient>
<linearGradient id="paint8_linear_2004_29131" x1="173.52" y1="-1.61055e-05" x2="208.374" y2="85.7159" gradientUnits="userSpaceOnUse">
<stop stop-color="#76C0DF"/>
<stop offset="1" stop-color="#184D6B"/>
</linearGradient>
<linearGradient id="paint9_linear_2004_29131" x1="165.618" y1="19.8232" x2="191.557" y2="51.6889" gradientUnits="userSpaceOnUse">
<stop stop-color="#76C0DF"/>
<stop offset="1" stop-color="#184D6B"/>
</linearGradient>
<linearGradient id="paint10_linear_2004_29131" x1="105.377" y1="18.4668" x2="113.002" y2="39.9413" gradientUnits="userSpaceOnUse">
<stop stop-color="#76C0DF"/>
<stop offset="1" stop-color="#184D6B"/>
</linearGradient>
<clipPath id="clip0_2004_29131">
<rect width="670" height="342" fill="white"/>
</clipPath>
</defs>
</svg>
