<svg width="31" height="31" viewBox="0 0 31 31" fill="none" xmlns="http://www.w3.org/2000/svg">
<path d="M13.1467 0.0814657C7.68787 0.756484 3.04492 4.37223 0.996385 9.53759C0.567896 10.6059 0.186364 12.179 0.0572298 13.3881C-0.0190766 14.1218 -0.0190766 15.918 0.0572298 16.6517C0.644202 22.1927 4.29517 26.9648 9.5427 29.0485C10.611 29.477 12.1841 29.8586 13.3932 29.9877C14.127 30.064 15.9231 30.064 16.6568 29.9877C22.6204 29.3538 27.686 25.1569 29.4293 19.3987C29.8637 17.9724 30.0515 16.6517 30.0515 15.0199C30.0515 13.7931 29.9928 13.1181 29.7815 12.0557C28.7954 7.05469 25.3146 2.89893 20.5073 0.991272C19.439 0.562783 17.866 0.181251 16.6568 0.0521171C15.8879 -0.030059 13.9039 -0.0124499 13.1467 0.0814657ZM17.232 2.57023C19.8617 3.06915 22.0922 4.23723 23.9529 6.09793C25.8077 7.95276 26.9758 10.1774 27.4864 12.8422C27.598 13.4351 27.6156 13.7168 27.6156 15.0199C27.6156 16.323 27.598 16.6047 27.4864 17.1976C26.9758 19.8624 25.8136 22.0812 23.947 23.9477C22.0922 25.8026 19.8675 26.9707 17.2027 27.4813C16.6098 27.5928 16.3281 27.6105 15.025 27.6105C13.7219 27.6105 13.4402 27.5928 12.8474 27.4813C10.1825 26.9707 7.96374 25.8085 6.09717 23.9419C4.24234 22.087 3.07427 19.8624 2.5636 17.1976C2.45208 16.6047 2.43447 16.323 2.43447 15.0199C2.43447 13.7168 2.45208 13.4351 2.5636 12.8422C3.07427 10.1774 4.23647 7.95863 6.10304 6.09206C7.95787 4.23723 10.2823 3.0222 12.818 2.5761C13.7748 2.41174 13.763 2.41174 15.2305 2.42935C16.3105 2.44109 16.7096 2.47044 17.232 2.57023Z" fill="#42BFF8"/>
<path d="M20.6007 9.91357C20.4892 9.93118 20.3307 9.98401 20.2486 10.0251C20.1664 10.0662 18.4876 11.7097 16.5213 13.6761L12.9408 17.2507L11.444 15.7481C10.4872 14.7913 9.86502 14.2043 9.71241 14.1339C9.46001 14.0165 9.01391 13.9872 8.77912 14.0811C8.54434 14.1691 8.16867 14.5448 8.09824 14.762C7.99845 15.0554 8.01606 15.5074 8.13346 15.7363C8.26846 16.0063 12.1249 19.8745 12.4066 20.0212C12.6884 20.168 13.1521 20.1738 13.469 20.0447C13.7977 19.9038 21.7864 11.921 21.9214 11.5923C22.303 10.6766 21.5575 9.73748 20.6007 9.91357Z" fill="#42BFF8"/>
</svg>
