<svg width="725" height="336" viewBox="0 0 725 336" fill="none" xmlns="http://www.w3.org/2000/svg">
<g filter="url(#filter0_d_2847_3189)">
<rect x="177.855" y="63.0107" width="69.7338" height="224.324" rx="5.88117" fill="#42BFF8" fill-opacity="0.65" shape-rendering="crispEdges"/>
<rect x="178.276" y="63.4308" width="68.8937" height="223.484" rx="5.46108" stroke="url(#paint0_linear_2847_3189)" stroke-width="0.840166" shape-rendering="crispEdges"/>
</g>
<g filter="url(#filter1_d_2847_3189)">
<rect x="349.25" y="120.982" width="69.7338" height="166.353" rx="5.88117" fill="#42BFF8" fill-opacity="0.25" shape-rendering="crispEdges"/>
<rect x="349.67" y="121.403" width="68.8937" height="165.513" rx="5.46108" stroke="url(#paint1_linear_2847_3189)" stroke-width="0.840166" shape-rendering="crispEdges"/>
</g>
<g filter="url(#filter2_d_2847_3189)">
<rect x="527.365" y="172.232" width="69.7338" height="115.103" rx="5.88117" fill="#42BFF8" fill-opacity="0.25" shape-rendering="crispEdges"/>
<rect x="527.785" y="172.653" width="68.8937" height="114.263" rx="5.46108" stroke="url(#paint2_linear_2847_3189)" stroke-width="0.840166" shape-rendering="crispEdges"/>
</g>
<g opacity="0.6" filter="url(#filter3_b_2847_3189)">
<path fill-rule="evenodd" clip-rule="evenodd" d="M389.893 43.3255C387.227 40.5093 382.737 40.5282 380.094 43.3668L216.888 218.659C214.663 221.049 211.544 222.406 208.279 222.406H3.5205C2.12847 222.406 1 221.278 1 219.886C1 218.494 2.12847 217.365 3.5205 217.365H208.279C210.145 217.365 211.927 216.59 213.198 215.224L376.404 39.9318C381.029 34.9642 388.887 34.9311 393.554 39.8595L559.647 215.265C560.916 216.606 562.681 217.365 564.527 217.365H722.105C723.498 217.365 724.626 218.494 724.626 219.886C724.626 221.278 723.498 222.406 722.105 222.406H564.527C561.297 222.406 558.208 221.077 555.987 218.731L389.893 43.3255Z" fill="url(#paint3_linear_2847_3189)" fill-opacity="0.4"/>
<path fill-rule="evenodd" clip-rule="evenodd" d="M389.893 43.3255C387.227 40.5093 382.737 40.5282 380.094 43.3668L216.888 218.659C214.663 221.049 211.544 222.406 208.279 222.406H3.5205C2.12847 222.406 1 221.278 1 219.886C1 218.494 2.12847 217.365 3.5205 217.365H208.279C210.145 217.365 211.927 216.59 213.198 215.224L376.404 39.9318C381.029 34.9642 388.887 34.9311 393.554 39.8595L559.647 215.265C560.916 216.606 562.681 217.365 564.527 217.365H722.105C723.498 217.365 724.626 218.494 724.626 219.886C724.626 221.278 723.498 222.406 722.105 222.406H564.527C561.297 222.406 558.208 221.077 555.987 218.731L389.893 43.3255Z" stroke="url(#paint4_linear_2847_3189)" stroke-opacity="0.5" stroke-width="0.420083" stroke-linecap="round"/>
</g>
<g filter="url(#filter4_bd_2847_3189)">
<circle cx="562.231" cy="219.702" r="16.3832" fill="white" fill-opacity="0.2" shape-rendering="crispEdges"/>
</g>
<g filter="url(#filter5_bd_2847_3189)">
<circle cx="212.723" cy="218.021" r="16.3832" fill="white" fill-opacity="0.2" shape-rendering="crispEdges"/>
</g>
<g filter="url(#filter6_b_2847_3189)">
<circle cx="384.306" cy="35.9839" r="15.7383" fill="white" fill-opacity="0.4"/>
</g>
<path d="M191.506 41.3616C190.246 40.7065 189.616 39.6925 189.616 38.3194C189.616 37.6391 189.786 37.0219 190.127 36.4676C190.479 35.9007 191.002 35.4535 191.695 35.126C192.4 34.7859 193.257 34.6158 194.265 34.6158C195.272 34.6158 196.123 34.7859 196.816 35.126C197.521 35.4535 198.044 35.9007 198.384 36.4676C198.737 37.0219 198.913 37.6391 198.913 38.3194C198.913 39.0122 198.743 39.6232 198.403 40.1522C198.063 40.6687 197.609 41.0718 197.042 41.3616C197.735 41.6639 198.277 42.1048 198.667 42.6843C199.058 43.2637 199.253 43.9503 199.253 44.7439C199.253 45.6005 199.033 46.35 198.592 46.9925C198.164 47.6223 197.571 48.1073 196.816 48.4474C196.06 48.7875 195.209 48.9576 194.265 48.9576C193.32 48.9576 192.47 48.7875 191.714 48.4474C190.971 48.1073 190.379 47.6223 189.938 46.9925C189.509 46.35 189.295 45.6005 189.295 44.7439C189.295 43.9503 189.49 43.2637 189.881 42.6843C190.271 42.0922 190.813 41.6513 191.506 41.3616ZM196.343 38.6973C196.343 38.08 196.154 37.6013 195.776 37.2612C195.411 36.9211 194.907 36.751 194.265 36.751C193.635 36.751 193.131 36.9211 192.753 37.2612C192.388 37.6013 192.205 38.0863 192.205 38.7162C192.205 39.283 192.394 39.7365 192.772 40.0767C193.162 40.4168 193.66 40.5868 194.265 40.5868C194.869 40.5868 195.367 40.4168 195.757 40.0767C196.148 39.7239 196.343 39.2642 196.343 38.6973ZM194.265 42.5142C193.547 42.5142 192.961 42.6969 192.507 43.0622C192.067 43.4275 191.846 43.9503 191.846 44.6305C191.846 45.2604 192.06 45.7768 192.489 46.1799C192.929 46.5705 193.521 46.7657 194.265 46.7657C195.008 46.7657 195.594 46.5642 196.022 46.1611C196.45 45.7579 196.664 45.2478 196.664 44.6305C196.664 43.9629 196.444 43.4464 196.003 43.0811C195.562 42.7032 194.983 42.5142 194.265 42.5142ZM204.536 45.8776L202.325 51.1873H200.625L201.853 45.8776H204.536ZM209.201 44.7817C209.302 45.3359 209.529 45.7642 209.882 46.0666C210.247 46.3563 210.732 46.5012 211.337 46.5012C212.118 46.5012 212.684 46.1799 213.037 45.5375C213.39 44.8824 213.566 43.7865 213.566 42.2497C213.277 42.6528 212.867 42.9677 212.338 43.1944C211.822 43.4212 211.261 43.5346 210.656 43.5346C209.85 43.5346 209.12 43.3708 208.464 43.0433C207.822 42.7032 207.312 42.2056 206.934 41.5505C206.556 40.8829 206.367 40.0767 206.367 39.1319C206.367 37.7336 206.783 36.6251 207.614 35.8063C208.446 34.9748 209.579 34.5591 211.015 34.5591C212.804 34.5591 214.064 35.1323 214.795 36.2786C215.538 37.425 215.909 39.1508 215.909 41.456C215.909 43.0937 215.764 44.4353 215.475 45.4808C215.198 46.5264 214.713 47.32 214.02 47.8617C213.34 48.4033 212.407 48.6742 211.223 48.6742C210.291 48.6742 209.497 48.4978 208.842 48.1451C208.187 47.7798 207.683 47.3074 207.331 46.7279C206.991 46.1359 206.795 45.4871 206.745 44.7817H209.201ZM211.204 41.3805C211.859 41.3805 212.376 41.1789 212.754 40.7758C213.132 40.3727 213.321 39.831 213.321 39.1508C213.321 38.4076 213.119 37.8344 212.716 37.4313C212.325 37.0156 211.79 36.8077 211.11 36.8077C210.43 36.8077 209.888 37.0219 209.485 37.4502C209.094 37.8659 208.899 38.4201 208.899 39.113C208.899 39.7806 209.088 40.3286 209.466 40.7569C209.856 41.1726 210.436 41.3805 211.204 41.3805ZM217.855 45.9721V43.8936L224.034 35.0504H227.114V43.6668H228.777V45.9721H227.114V48.6553H224.469V45.9721H217.855ZM224.639 37.8848L220.765 43.6668H224.639V37.8848ZM230.159 38.2627C230.159 37.3053 230.436 36.5558 230.99 36.0141C231.557 35.4724 232.281 35.2016 233.163 35.2016C234.045 35.2016 234.763 35.4724 235.317 36.0141C235.884 36.5558 236.168 37.3053 236.168 38.2627C236.168 39.2327 235.884 39.9885 235.317 40.5302C234.763 41.0718 234.045 41.3427 233.163 41.3427C232.281 41.3427 231.557 41.0718 230.99 40.5302C230.436 39.9885 230.159 39.2327 230.159 38.2627ZM242.29 35.4283L234.864 48.6553H232.294L239.701 35.4283H242.29ZM233.144 36.7888C232.451 36.7888 232.105 37.2801 232.105 38.2627C232.105 39.2579 232.451 39.7554 233.144 39.7554C233.484 39.7554 233.749 39.6358 233.938 39.3964C234.127 39.1445 234.221 38.7666 234.221 38.2627C234.221 37.2801 233.862 36.7888 233.144 36.7888ZM238.454 45.802C238.454 44.8321 238.731 44.0825 239.285 43.5535C239.852 43.0118 240.576 42.7409 241.458 42.7409C242.34 42.7409 243.052 43.0118 243.593 43.5535C244.148 44.0825 244.425 44.8321 244.425 45.802C244.425 46.772 244.148 47.5278 243.593 48.0695C243.052 48.6112 242.34 48.882 241.458 48.882C240.564 48.882 239.84 48.6112 239.285 48.0695C238.731 47.5278 238.454 46.772 238.454 45.802ZM241.439 44.3282C240.721 44.3282 240.362 44.8195 240.362 45.802C240.362 46.7972 240.721 47.2948 241.439 47.2948C242.145 47.2948 242.498 46.7972 242.498 45.802C242.498 44.8195 242.145 44.3282 241.439 44.3282Z" fill="#42BFF8"/>
<path opacity="0.5" d="M536.743 155.662V153.583L542.921 144.74H546.001V153.356H547.664V155.662H546.001V158.345H543.356V155.662H536.743ZM543.526 147.574L539.652 153.356H543.526V147.574ZM552.542 155.567L550.331 160.877H548.63L549.858 155.567H552.542ZM554.033 155.662V153.583L560.211 144.74H563.291V153.356H564.954V155.662H563.291V158.345H560.646V155.662H554.033ZM560.816 147.574L556.942 153.356H560.816V147.574ZM569.699 154.471C569.8 155.025 570.027 155.454 570.38 155.756C570.745 156.046 571.23 156.191 571.834 156.191C572.615 156.191 573.182 155.869 573.535 155.227C573.888 154.572 574.064 153.476 574.064 151.939C573.774 152.342 573.365 152.657 572.836 152.884C572.319 153.111 571.759 153.224 571.154 153.224C570.348 153.224 569.617 153.06 568.962 152.733C568.32 152.393 567.81 151.895 567.432 151.24C567.054 150.572 566.865 149.766 566.865 148.821C566.865 147.423 567.281 146.315 568.112 145.496C568.943 144.664 570.077 144.249 571.513 144.249C573.302 144.249 574.562 144.822 575.292 145.968C576.036 147.115 576.407 148.84 576.407 151.146C576.407 152.783 576.262 154.125 575.973 155.17C575.695 156.216 575.21 157.009 574.518 157.551C573.837 158.093 572.905 158.364 571.721 158.364C570.789 158.364 569.995 158.187 569.34 157.835C568.685 157.469 568.181 156.997 567.829 156.417C567.489 155.825 567.293 155.177 567.243 154.471H569.699ZM571.702 151.07C572.357 151.07 572.874 150.868 573.252 150.465C573.63 150.062 573.818 149.521 573.818 148.84C573.818 148.097 573.617 147.524 573.214 147.121C572.823 146.705 572.288 146.497 571.608 146.497C570.927 146.497 570.386 146.711 569.983 147.14C569.592 147.555 569.397 148.11 569.397 148.803C569.397 149.47 569.586 150.018 569.964 150.446C570.354 150.862 570.934 151.07 571.702 151.07ZM578.164 147.952C578.164 146.995 578.441 146.245 578.995 145.704C579.562 145.162 580.287 144.891 581.168 144.891C582.05 144.891 582.768 145.162 583.322 145.704C583.889 146.245 584.173 146.995 584.173 147.952C584.173 148.922 583.889 149.678 583.322 150.22C582.768 150.761 582.05 151.032 581.168 151.032C580.287 151.032 579.562 150.761 578.995 150.22C578.441 149.678 578.164 148.922 578.164 147.952ZM590.295 145.118L582.869 158.345H580.299L587.706 145.118H590.295ZM581.149 146.478C580.457 146.478 580.11 146.97 580.11 147.952C580.11 148.947 580.457 149.445 581.149 149.445C581.49 149.445 581.754 149.325 581.943 149.086C582.132 148.834 582.226 148.456 582.226 147.952C582.226 146.97 581.867 146.478 581.149 146.478ZM586.459 155.492C586.459 154.522 586.736 153.772 587.29 153.243C587.857 152.701 588.582 152.43 589.463 152.43C590.345 152.43 591.057 152.701 591.599 153.243C592.153 153.772 592.43 154.522 592.43 155.492C592.43 156.461 592.153 157.217 591.599 157.759C591.057 158.301 590.345 158.571 589.463 158.571C588.569 158.571 587.845 158.301 587.29 157.759C586.736 157.217 586.459 156.461 586.459 155.492ZM589.444 154.018C588.726 154.018 588.367 154.509 588.367 155.492C588.367 156.487 588.726 156.984 589.444 156.984C590.15 156.984 590.503 156.487 590.503 155.492C590.503 154.509 590.15 154.018 589.444 154.018Z" fill="#42BFF8"/>
<path opacity="0.5" d="M371.727 97.9118L366.701 109.684H364.018L369.082 98.2141H362.619V95.9467H371.727V97.9118ZM376.505 106.906L374.294 112.216H372.593L373.821 106.906H376.505ZM378.94 106.698C380.15 105.69 381.113 104.853 381.831 104.185C382.549 103.505 383.148 102.799 383.626 102.069C384.105 101.338 384.344 100.62 384.344 99.9147C384.344 99.2723 384.193 98.7684 383.891 98.4031C383.589 98.0378 383.123 97.8551 382.493 97.8551C381.863 97.8551 381.378 98.0693 381.038 98.4976C380.698 98.9132 380.521 99.4864 380.509 100.217H377.939C377.989 98.7054 378.436 97.5591 379.28 96.7781C380.137 95.9971 381.22 95.6066 382.53 95.6066C383.967 95.6066 385.069 95.9908 385.837 96.7592C386.606 97.515 386.99 98.5164 386.99 99.7635C386.99 100.746 386.725 101.685 386.196 102.579C385.667 103.473 385.062 104.254 384.382 104.922C383.702 105.577 382.814 106.371 381.718 107.303H387.292V109.495H377.958V107.53L378.94 106.698ZM388.638 98.3464V95.9089H393.192V109.684H390.471V98.3464H388.638ZM395.503 99.2912C395.503 98.3338 395.78 97.5843 396.334 97.0426C396.901 96.5009 397.625 96.2301 398.507 96.2301C399.389 96.2301 400.107 96.5009 400.661 97.0426C401.228 97.5843 401.511 98.3338 401.511 99.2912C401.511 100.261 401.228 101.017 400.661 101.559C400.107 102.1 399.389 102.371 398.507 102.371C397.625 102.371 396.901 102.1 396.334 101.559C395.78 101.017 395.503 100.261 395.503 99.2912ZM407.633 96.4569L400.207 109.684H397.638L405.045 96.4569H407.633ZM398.488 97.8173C397.795 97.8173 397.449 98.3086 397.449 99.2912C397.449 100.286 397.795 100.784 398.488 100.784C398.828 100.784 399.093 100.664 399.282 100.425C399.471 100.173 399.565 99.795 399.565 99.2912C399.565 98.3086 399.206 97.8173 398.488 97.8173ZM403.798 106.83C403.798 105.86 404.075 105.111 404.629 104.582C405.196 104.04 405.92 103.769 406.802 103.769C407.684 103.769 408.395 104.04 408.937 104.582C409.491 105.111 409.769 105.86 409.769 106.83C409.769 107.8 409.491 108.556 408.937 109.098C408.395 109.64 407.684 109.91 406.802 109.91C405.908 109.91 405.183 109.64 404.629 109.098C404.075 108.556 403.798 107.8 403.798 106.83ZM406.783 105.357C406.065 105.357 405.706 105.848 405.706 106.83C405.706 107.826 406.065 108.323 406.783 108.323C407.489 108.323 407.841 107.826 407.841 106.83C407.841 105.848 407.489 105.357 406.783 105.357Z" fill="#42BFF8"/>
<path d="M197.051 306.507C197.051 307.316 196.785 307.969 196.254 308.464C195.723 308.959 194.927 309.206 193.865 309.206H191.962V313.228H191.018V303.794H193.865C194.918 303.794 195.71 304.041 196.241 304.536C196.781 305.031 197.051 305.688 197.051 306.507ZM193.865 308.396C195.341 308.396 196.079 307.766 196.079 306.507C196.079 305.877 195.903 305.4 195.552 305.076C195.202 304.752 194.639 304.59 193.865 304.59H191.962V308.396H193.865ZM199.581 307.168C199.788 306.709 200.103 306.354 200.525 306.102C200.957 305.85 201.484 305.724 202.105 305.724V306.709H201.848C201.164 306.709 200.615 306.893 200.202 307.262C199.788 307.631 199.581 308.248 199.581 309.111V313.228H198.636V305.859H199.581V307.168ZM203.998 304.469C203.809 304.469 203.647 304.401 203.512 304.266C203.377 304.131 203.31 303.965 203.31 303.767C203.31 303.569 203.377 303.407 203.512 303.281C203.647 303.146 203.809 303.078 203.998 303.078C204.187 303.078 204.349 303.146 204.484 303.281C204.619 303.407 204.687 303.569 204.687 303.767C204.687 303.965 204.619 304.131 204.484 304.266C204.349 304.401 204.187 304.469 203.998 304.469ZM204.471 305.859V313.228H203.526V305.859H204.471ZM209.229 312.31L211.712 305.859H212.711L209.755 313.228H208.689L205.733 305.859H206.745L209.229 312.31ZM213.559 309.53C213.559 308.774 213.708 308.113 214.005 307.546C214.311 306.97 214.729 306.529 215.26 306.223C215.8 305.908 216.407 305.751 217.082 305.751C217.784 305.751 218.387 305.913 218.891 306.237C219.403 306.561 219.772 306.974 219.997 307.478V305.859H220.942V313.228H219.997V311.595C219.763 312.099 219.39 312.517 218.877 312.85C218.373 313.174 217.77 313.336 217.069 313.336C216.403 313.336 215.8 313.179 215.26 312.864C214.729 312.549 214.311 312.103 214.005 311.527C213.708 310.952 213.559 310.286 213.559 309.53ZM219.997 309.543C219.997 308.95 219.876 308.428 219.633 307.978C219.39 307.528 219.057 307.181 218.634 306.938C218.22 306.696 217.761 306.574 217.257 306.574C216.736 306.574 216.268 306.691 215.854 306.925C215.44 307.159 215.111 307.501 214.869 307.951C214.635 308.392 214.518 308.918 214.518 309.53C214.518 310.133 214.635 310.664 214.869 311.123C215.111 311.572 215.44 311.919 215.854 312.162C216.268 312.396 216.736 312.513 217.257 312.513C217.761 312.513 218.22 312.391 218.634 312.148C219.057 311.905 219.39 311.559 219.633 311.109C219.876 310.659 219.997 310.137 219.997 309.543ZM224.327 306.655V311.23C224.327 311.68 224.413 311.991 224.584 312.162C224.755 312.333 225.056 312.418 225.488 312.418H226.352V313.228H225.339C224.674 313.228 224.179 313.075 223.855 312.769C223.531 312.454 223.369 311.941 223.369 311.23V306.655H222.343V305.859H223.369V304.01H224.327V305.859H226.352V306.655H224.327ZM234.577 309.165C234.577 309.489 234.568 309.737 234.55 309.908H228.436C228.463 310.466 228.598 310.943 228.841 311.338C229.084 311.734 229.404 312.036 229.799 312.243C230.195 312.441 230.627 312.54 231.095 312.54C231.707 312.54 232.22 312.391 232.634 312.094C233.057 311.797 233.336 311.397 233.471 310.893H234.469C234.289 311.613 233.902 312.202 233.309 312.661C232.724 313.111 231.986 313.336 231.095 313.336C230.402 313.336 229.781 313.183 229.233 312.877C228.684 312.562 228.252 312.121 227.937 311.554C227.631 310.979 227.478 310.308 227.478 309.543C227.478 308.779 227.631 308.108 227.937 307.532C228.243 306.956 228.67 306.516 229.219 306.21C229.768 305.904 230.393 305.751 231.095 305.751C231.797 305.751 232.409 305.904 232.931 306.21C233.462 306.516 233.866 306.929 234.145 307.451C234.433 307.964 234.577 308.536 234.577 309.165ZM233.619 309.138C233.628 308.59 233.516 308.122 233.282 307.735C233.057 307.348 232.746 307.055 232.35 306.858C231.954 306.66 231.523 306.561 231.055 306.561C230.353 306.561 229.754 306.786 229.26 307.235C228.765 307.685 228.49 308.32 228.436 309.138H233.619ZM182.179 331.228L179.844 327.287H178.103V331.228H177.158V321.794H179.993C181.045 321.794 181.842 322.046 182.381 322.55C182.93 323.053 183.205 323.715 183.205 324.534C183.205 325.217 183.007 325.802 182.611 326.288C182.224 326.765 181.648 327.075 180.883 327.219L183.313 331.228H182.179ZM178.103 326.518H180.006C180.744 326.518 181.297 326.338 181.666 325.978C182.044 325.618 182.233 325.136 182.233 324.534C182.233 323.913 182.053 323.436 181.693 323.103C181.333 322.761 180.766 322.59 179.993 322.59H178.103V326.518ZM191.747 327.165C191.747 327.489 191.738 327.737 191.72 327.908H185.606C185.633 328.466 185.768 328.943 186.011 329.338C186.254 329.734 186.573 330.036 186.969 330.243C187.365 330.441 187.797 330.54 188.265 330.54C188.877 330.54 189.39 330.391 189.804 330.094C190.227 329.797 190.505 329.397 190.64 328.893H191.639C191.459 329.613 191.072 330.202 190.478 330.661C189.894 331.111 189.156 331.336 188.265 331.336C187.572 331.336 186.951 331.183 186.402 330.877C185.854 330.562 185.422 330.121 185.107 329.554C184.801 328.979 184.648 328.308 184.648 327.543C184.648 326.779 184.801 326.108 185.107 325.532C185.413 324.956 185.84 324.516 186.389 324.21C186.938 323.904 187.563 323.751 188.265 323.751C188.967 323.751 189.579 323.904 190.101 324.21C190.631 324.516 191.036 324.929 191.315 325.451C191.603 325.964 191.747 326.536 191.747 327.165ZM190.789 327.138C190.798 326.59 190.685 326.122 190.451 325.735C190.227 325.348 189.916 325.055 189.52 324.858C189.124 324.66 188.692 324.561 188.224 324.561C187.523 324.561 186.924 324.786 186.429 325.235C185.935 325.685 185.66 326.32 185.606 327.138H190.789ZM193.044 327.53C193.044 326.774 193.192 326.113 193.489 325.546C193.795 324.97 194.214 324.529 194.744 324.223C195.284 323.908 195.892 323.751 196.566 323.751C197.268 323.751 197.871 323.913 198.375 324.237C198.888 324.561 199.257 324.974 199.482 325.478V323.859H200.427V331.228H199.482V329.595C199.248 330.099 198.874 330.517 198.362 330.85C197.858 331.174 197.255 331.336 196.553 331.336C195.887 331.336 195.284 331.179 194.744 330.864C194.214 330.549 193.795 330.103 193.489 329.527C193.192 328.952 193.044 328.286 193.044 327.53ZM199.482 327.543C199.482 326.95 199.36 326.428 199.117 325.978C198.874 325.528 198.542 325.181 198.119 324.938C197.705 324.696 197.246 324.574 196.742 324.574C196.22 324.574 195.752 324.691 195.338 324.925C194.924 325.159 194.596 325.501 194.353 325.951C194.119 326.392 194.002 326.918 194.002 327.53C194.002 328.133 194.119 328.664 194.353 329.123C194.596 329.572 194.924 329.919 195.338 330.162C195.752 330.396 196.22 330.513 196.742 330.513C197.246 330.513 197.705 330.391 198.119 330.148C198.542 329.905 198.874 329.559 199.117 329.109C199.36 328.659 199.482 328.137 199.482 327.543ZM203.528 321.24V331.228H202.583V321.24H203.528ZM210.316 322.563V326.086H213.893V326.869H210.316V330.445H214.298V331.228H209.371V321.78H214.298V322.563H210.316ZM218.697 331.336C217.851 331.336 217.158 331.143 216.618 330.756C216.087 330.36 215.791 329.824 215.728 329.15H216.699C216.744 329.563 216.938 329.901 217.28 330.162C217.631 330.414 218.098 330.54 218.683 330.54C219.196 330.54 219.597 330.418 219.885 330.175C220.181 329.932 220.33 329.631 220.33 329.271C220.33 329.019 220.249 328.812 220.087 328.65C219.925 328.488 219.718 328.362 219.466 328.272C219.223 328.173 218.89 328.07 218.467 327.962C217.919 327.818 217.473 327.674 217.131 327.53C216.789 327.386 216.497 327.174 216.254 326.896C216.02 326.608 215.903 326.225 215.903 325.748C215.903 325.388 216.011 325.055 216.227 324.75C216.443 324.444 216.749 324.201 217.145 324.021C217.541 323.841 217.99 323.751 218.494 323.751C219.286 323.751 219.925 323.953 220.411 324.358C220.897 324.754 221.158 325.303 221.194 326.005H220.249C220.222 325.573 220.051 325.226 219.736 324.965C219.43 324.696 219.007 324.561 218.467 324.561C217.99 324.561 217.604 324.673 217.307 324.898C217.01 325.123 216.861 325.402 216.861 325.735C216.861 326.023 216.947 326.261 217.118 326.45C217.298 326.63 217.518 326.774 217.779 326.882C218.04 326.981 218.391 327.093 218.832 327.219C219.363 327.363 219.786 327.503 220.101 327.638C220.415 327.773 220.685 327.971 220.91 328.232C221.135 328.493 221.252 328.839 221.261 329.271C221.261 329.667 221.153 330.022 220.937 330.337C220.721 330.643 220.42 330.886 220.033 331.066C219.646 331.246 219.201 331.336 218.697 331.336ZM224.268 324.655V329.23C224.268 329.68 224.353 329.991 224.524 330.162C224.695 330.333 224.997 330.418 225.429 330.418H226.292V331.228H225.28C224.614 331.228 224.119 331.075 223.795 330.769C223.472 330.454 223.31 329.941 223.31 329.23V324.655H222.284V323.859H223.31V322.01H224.268V323.859H226.292V324.655H224.268ZM227.419 327.53C227.419 326.774 227.567 326.113 227.864 325.546C228.17 324.97 228.588 324.529 229.119 324.223C229.659 323.908 230.266 323.751 230.941 323.751C231.643 323.751 232.246 323.913 232.75 324.237C233.263 324.561 233.632 324.974 233.857 325.478V323.859H234.801V331.228H233.857V329.595C233.623 330.099 233.249 330.517 232.736 330.85C232.233 331.174 231.63 331.336 230.928 331.336C230.262 331.336 229.659 331.179 229.119 330.864C228.588 330.549 228.17 330.103 227.864 329.527C227.567 328.952 227.419 328.286 227.419 327.53ZM233.857 327.543C233.857 326.95 233.735 326.428 233.492 325.978C233.249 325.528 232.916 325.181 232.493 324.938C232.08 324.696 231.621 324.574 231.117 324.574C230.595 324.574 230.127 324.691 229.713 324.925C229.299 325.159 228.971 325.501 228.728 325.951C228.494 326.392 228.377 326.918 228.377 327.53C228.377 328.133 228.494 328.664 228.728 329.123C228.971 329.572 229.299 329.919 229.713 330.162C230.127 330.396 230.595 330.513 231.117 330.513C231.621 330.513 232.08 330.391 232.493 330.148C232.916 329.905 233.249 329.559 233.492 329.109C233.735 328.659 233.857 328.137 233.857 327.543ZM238.187 324.655V329.23C238.187 329.68 238.272 329.991 238.443 330.162C238.614 330.333 238.915 330.418 239.347 330.418H240.211V331.228H239.199C238.533 331.228 238.038 331.075 237.714 330.769C237.39 330.454 237.228 329.941 237.228 329.23V324.655H236.202V323.859H237.228V322.01H238.187V323.859H240.211V324.655H238.187ZM248.437 327.165C248.437 327.489 248.428 327.737 248.41 327.908H242.296C242.323 328.466 242.458 328.943 242.7 329.338C242.943 329.734 243.263 330.036 243.659 330.243C244.055 330.441 244.487 330.54 244.954 330.54C245.566 330.54 246.079 330.391 246.493 330.094C246.916 329.797 247.195 329.397 247.33 328.893H248.329C248.149 329.613 247.762 330.202 247.168 330.661C246.583 331.111 245.845 331.336 244.954 331.336C244.262 331.336 243.641 331.183 243.092 330.877C242.543 330.562 242.111 330.121 241.796 329.554C241.49 328.979 241.337 328.308 241.337 327.543C241.337 326.779 241.49 326.108 241.796 325.532C242.102 324.956 242.53 324.516 243.078 324.21C243.627 323.904 244.253 323.751 244.954 323.751C245.656 323.751 246.268 323.904 246.79 324.21C247.321 324.516 247.726 324.929 248.005 325.451C248.293 325.964 248.437 326.536 248.437 327.165ZM247.478 327.138C247.487 326.59 247.375 326.122 247.141 325.735C246.916 325.348 246.606 325.055 246.21 324.858C245.814 324.66 245.382 324.561 244.914 324.561C244.212 324.561 243.614 324.786 243.119 325.235C242.624 325.685 242.35 326.32 242.296 327.138H247.478Z" fill="#D1D5D8"/>
<path opacity="0.75" d="M193.159 27.2812L191.206 23.929H189.913V27.2812H188.842V19.0829H191.489C192.108 19.0829 192.63 19.1888 193.053 19.4005C193.484 19.6122 193.806 19.8984 194.018 20.2591C194.229 20.6198 194.335 21.0315 194.335 21.4942C194.335 22.0588 194.171 22.5567 193.841 22.988C193.52 23.4193 193.034 23.7055 192.383 23.8466L194.441 27.2812H193.159ZM189.913 23.0703H191.489C192.069 23.0703 192.504 22.9292 192.794 22.6469C193.085 22.3568 193.23 21.9725 193.23 21.4942C193.23 21.008 193.085 20.6316 192.794 20.365C192.512 20.0984 192.077 19.9651 191.489 19.9651H189.913V23.0703ZM201.88 23.8114C201.88 24.0152 201.868 24.2309 201.844 24.4583H196.692C196.732 25.0935 196.947 25.5914 197.339 25.9521C197.739 26.305 198.221 26.4814 198.786 26.4814C199.249 26.4814 199.633 26.3756 199.939 26.1638C200.252 25.9443 200.472 25.6541 200.597 25.2934H201.75C201.578 25.9129 201.233 26.4187 200.715 26.8108C200.198 27.195 199.555 27.3871 198.786 27.3871C198.174 27.3871 197.626 27.2499 197.139 26.9754C196.661 26.701 196.285 26.3128 196.01 25.811C195.736 25.3013 195.598 24.7131 195.598 24.0466C195.598 23.3801 195.732 22.7959 195.998 22.294C196.265 21.7922 196.637 21.4079 197.116 21.1413C197.602 20.8669 198.159 20.7296 198.786 20.7296C199.398 20.7296 199.939 20.8629 200.409 21.1296C200.88 21.3962 201.24 21.7647 201.491 22.2352C201.75 22.6979 201.88 23.2232 201.88 23.8114ZM200.774 23.5879C200.774 23.1801 200.684 22.8312 200.503 22.541C200.323 22.2431 200.076 22.0196 199.762 21.8706C199.457 21.7137 199.115 21.6353 198.739 21.6353C198.198 21.6353 197.735 21.8078 197.351 22.1529C196.975 22.4979 196.759 22.9762 196.704 23.5879H200.774ZM204.598 21.7177V25.5169C204.598 25.8306 204.665 26.054 204.798 26.1874C204.931 26.3128 205.163 26.3756 205.492 26.3756H206.28V27.2812H205.316C204.72 27.2812 204.273 27.144 203.975 26.8696C203.677 26.5951 203.528 26.1442 203.528 25.5169V21.7177H202.693V20.8355H203.528V19.2123H204.598V20.8355H206.28V21.7177H204.598ZM213.293 20.8355V27.2812H212.223V26.3285C212.019 26.6578 211.733 26.9166 211.364 27.1048C211.004 27.2852 210.604 27.3753 210.165 27.3753C209.663 27.3753 209.212 27.2734 208.812 27.0695C208.412 26.8578 208.094 26.5441 207.859 26.1285C207.632 25.7129 207.518 25.2072 207.518 24.6112V20.8355H208.577V24.4701C208.577 25.1052 208.738 25.5953 209.059 25.9403C209.381 26.2775 209.82 26.4461 210.376 26.4461C210.949 26.4461 211.4 26.2697 211.729 25.9168C212.058 25.5639 212.223 25.0503 212.223 24.376V20.8355H213.293ZM216.171 21.8823C216.359 21.5138 216.626 21.2276 216.971 21.0237C217.324 20.8198 217.751 20.7179 218.253 20.7179V21.8235H217.971C216.771 21.8235 216.171 22.4744 216.171 23.7761V27.2812H215.101V20.8355H216.171V21.8823ZM222.629 20.7179C223.413 20.7179 224.048 20.957 224.535 21.4354C225.021 21.9059 225.264 22.5881 225.264 23.482V27.2812H224.205V23.6349C224.205 22.9919 224.045 22.5018 223.723 22.1646C223.402 21.8196 222.962 21.6471 222.406 21.6471C221.841 21.6471 221.39 21.8235 221.053 22.1764C220.724 22.5293 220.559 23.0429 220.559 23.7173V27.2812H219.489V20.8355H220.559V21.753C220.771 21.4236 221.057 21.1688 221.418 20.9884C221.786 20.808 222.19 20.7179 222.629 20.7179Z" fill="white"/>
<path d="M100.01 238.565L96.315 248.404H94.4462L90.7368 238.565H92.4641L95.3806 246.748L98.3113 238.565H100.01ZM104.744 248.532C104.008 248.532 103.342 248.367 102.747 248.036C102.153 247.696 101.686 247.224 101.346 246.62C101.006 246.007 100.836 245.299 100.836 244.497C100.836 243.704 101.011 243.001 101.36 242.387C101.709 241.774 102.186 241.302 102.79 240.971C103.394 240.641 104.069 240.476 104.815 240.476C105.56 240.476 106.235 240.641 106.839 240.971C107.443 241.302 107.92 241.774 108.269 242.387C108.618 243.001 108.793 243.704 108.793 244.497C108.793 245.29 108.614 245.993 108.255 246.606C107.896 247.22 107.405 247.696 106.782 248.036C106.169 248.367 105.489 248.532 104.744 248.532ZM104.744 247.13C105.159 247.13 105.546 247.031 105.905 246.833C106.273 246.635 106.57 246.337 106.797 245.941C107.023 245.544 107.136 245.063 107.136 244.497C107.136 243.93 107.028 243.454 106.811 243.067C106.594 242.67 106.306 242.373 105.947 242.175C105.588 241.977 105.202 241.878 104.786 241.878C104.371 241.878 103.984 241.977 103.625 242.175C103.276 242.373 102.998 242.67 102.79 243.067C102.582 243.454 102.478 243.93 102.478 244.497C102.478 245.337 102.691 245.988 103.116 246.451C103.55 246.904 104.092 247.13 104.744 247.13ZM112.002 237.927V248.404H110.388V237.927H112.002ZM113.583 244.468C113.583 243.685 113.744 242.991 114.065 242.387C114.395 241.783 114.839 241.316 115.396 240.986C115.962 240.646 116.585 240.476 117.265 240.476C117.878 240.476 118.411 240.599 118.864 240.844C119.327 241.08 119.695 241.377 119.969 241.736V240.603H121.597V248.404H119.969V247.243C119.695 247.611 119.322 247.918 118.85 248.164C118.378 248.409 117.84 248.532 117.236 248.532C116.566 248.532 115.953 248.362 115.396 248.022C114.839 247.673 114.395 247.191 114.065 246.578C113.744 245.955 113.583 245.252 113.583 244.468ZM119.969 244.497C119.969 243.959 119.855 243.492 119.629 243.095C119.412 242.699 119.124 242.397 118.765 242.189C118.407 241.981 118.02 241.878 117.604 241.878C117.189 241.878 116.802 241.981 116.443 242.189C116.085 242.387 115.792 242.685 115.566 243.081C115.348 243.468 115.24 243.93 115.24 244.468C115.24 245.006 115.348 245.478 115.566 245.884C115.792 246.29 116.085 246.602 116.443 246.819C116.811 247.026 117.198 247.13 117.604 247.13C118.02 247.13 118.407 247.026 118.765 246.819C119.124 246.611 119.412 246.309 119.629 245.913C119.855 245.507 119.969 245.035 119.969 244.497ZM125.6 241.92V246.238C125.6 246.531 125.666 246.743 125.798 246.875C125.94 246.998 126.176 247.059 126.506 247.059H127.497V248.404H126.223C125.496 248.404 124.939 248.234 124.552 247.895C124.165 247.555 123.972 247.003 123.972 246.238V241.92H123.051V240.603H123.972V238.664H125.6V240.603H127.497V241.92H125.6ZM129.806 239.57C129.513 239.57 129.268 239.471 129.069 239.272C128.871 239.074 128.772 238.829 128.772 238.536C128.772 238.244 128.871 237.998 129.069 237.8C129.268 237.602 129.513 237.503 129.806 237.503C130.089 237.503 130.329 237.602 130.528 237.8C130.726 237.998 130.825 238.244 130.825 238.536C130.825 238.829 130.726 239.074 130.528 239.272C130.329 239.471 130.089 239.57 129.806 239.57ZM130.598 240.603V248.404H128.984V240.603H130.598ZM134.332 237.927V248.404H132.718V237.927H134.332ZM137.272 239.57C136.979 239.57 136.734 239.471 136.536 239.272C136.337 239.074 136.238 238.829 136.238 238.536C136.238 238.244 136.337 237.998 136.536 237.8C136.734 237.602 136.979 237.503 137.272 237.503C137.555 237.503 137.796 237.602 137.994 237.8C138.192 237.998 138.291 238.244 138.291 238.536C138.291 238.829 138.192 239.074 137.994 239.272C137.796 239.471 137.555 239.57 137.272 239.57ZM138.065 240.603V248.404H136.451V240.603H138.065ZM142.067 241.92V246.238C142.067 246.531 142.133 246.743 142.265 246.875C142.406 246.998 142.642 247.059 142.973 247.059H143.964V248.404H142.69C141.963 248.404 141.406 248.234 141.019 247.895C140.632 247.555 140.438 247.003 140.438 246.238V241.92H139.518V240.603H140.438V238.664H142.067V240.603H143.964V241.92H142.067ZM152.474 240.603L147.688 252.071H146.018L147.603 248.277L144.531 240.603H146.329L148.524 246.55L150.803 240.603H152.474Z" fill="white"/>
<path opacity="0.5" d="M454.416 21.8389L451.19 16.2333H449.436V21.8389H447.137V7.82489H451.977C453.052 7.82489 453.959 8.01309 454.699 8.38948C455.451 8.76588 456.009 9.26998 456.372 9.90178C456.749 10.5336 456.937 11.2393 456.937 12.019C456.937 12.9331 456.668 13.7665 456.13 14.5193C455.606 15.2587 454.793 15.7628 453.69 16.0316L457.159 21.8389H454.416ZM449.436 14.3984H451.977C452.837 14.3984 453.482 14.1833 453.912 13.7531C454.356 13.3229 454.578 12.7449 454.578 12.019C454.578 11.2931 454.363 10.7285 453.932 10.3252C453.502 9.9085 452.85 9.70014 451.977 9.70014H449.436V14.3984ZM470.06 16.0115C470.06 16.4282 470.033 16.8046 469.98 17.1407H461.491C461.558 18.0279 461.887 18.7403 462.479 19.278C463.07 19.8157 463.796 20.0846 464.656 20.0846C465.893 20.0846 466.767 19.5671 467.278 18.532H469.758C469.422 19.5536 468.81 20.3938 467.923 21.0525C467.049 21.6977 465.96 22.0203 464.656 22.0203C463.594 22.0203 462.64 21.7851 461.793 21.3146C460.96 20.8307 460.301 20.1585 459.817 19.2982C459.346 18.4244 459.111 17.4162 459.111 16.2736C459.111 15.131 459.34 14.1295 459.797 13.2692C460.267 12.3954 460.919 11.7233 461.753 11.2528C462.6 10.7823 463.567 10.547 464.656 10.547C465.705 10.547 466.639 10.7756 467.459 11.2326C468.279 11.6897 468.918 12.3349 469.375 13.1683C469.832 13.9884 470.06 14.9361 470.06 16.0115ZM467.661 15.2856C467.647 14.4387 467.345 13.7598 466.753 13.249C466.162 12.7382 465.429 12.4828 464.556 12.4828C463.762 12.4828 463.084 12.7382 462.519 13.249C461.954 13.7464 461.618 14.4252 461.511 15.2856H467.661ZM475.004 12.6038V18.7538C475.004 19.1705 475.098 19.473 475.287 19.6612C475.488 19.8359 475.824 19.9233 476.295 19.9233H477.706V21.8389H475.891C474.856 21.8389 474.063 21.5969 473.512 21.113C472.961 20.629 472.685 19.8426 472.685 18.7538V12.6038H471.375V10.7285H472.685V7.96604H475.004V10.7285H477.706V12.6038H475.004ZM489.887 10.7285V21.8389H487.588V20.5282C487.225 20.9853 486.748 21.3482 486.156 21.6171C485.578 21.8725 484.96 22.0002 484.301 22.0002C483.428 22.0002 482.641 21.8187 481.942 21.4558C481.257 21.0928 480.712 20.5551 480.309 19.8426C479.919 19.1302 479.724 18.2698 479.724 17.2616V10.7285H482.003V16.9189C482.003 17.9136 482.251 18.6798 482.749 19.2175C483.246 19.7418 483.925 20.0039 484.785 20.0039C485.646 20.0039 486.324 19.7418 486.822 19.2175C487.333 18.6798 487.588 17.9136 487.588 16.9189V10.7285H489.887ZM495.218 12.3416C495.554 11.777 495.998 11.3401 496.549 11.031C497.114 10.7083 497.779 10.547 498.545 10.547V12.9264H497.961C497.06 12.9264 496.374 13.1549 495.904 13.612C495.447 14.069 495.218 14.8621 495.218 15.9913V21.8389H492.92V10.7285H495.218V12.3416ZM506.264 10.547C507.138 10.547 507.917 10.7285 508.603 11.0915C509.302 11.4544 509.846 11.9921 510.236 12.7046C510.626 13.417 510.821 14.2774 510.821 15.2856V21.8389H508.542V15.6284C508.542 14.6336 508.294 13.8741 507.796 13.3498C507.299 12.8121 506.62 12.5433 505.76 12.5433C504.9 12.5433 504.214 12.8121 503.703 13.3498C503.206 13.8741 502.957 14.6336 502.957 15.6284V21.8389H500.658V10.7285H502.957V11.9988C503.333 11.5418 503.811 11.1856 504.389 10.9301C504.98 10.6747 505.605 10.547 506.264 10.547ZM523.286 19.7821L526.432 10.7285H528.871L524.637 21.8389H521.895L517.68 10.7285H520.14L523.286 19.7821ZM534.642 22.0203C533.768 22.0203 532.982 21.8658 532.283 21.5566C531.597 21.2339 531.053 20.8038 530.649 20.2661C530.246 19.7149 530.031 19.1033 530.004 18.4312H532.383C532.424 18.9016 532.646 19.2982 533.049 19.6208C533.466 19.93 533.983 20.0846 534.601 20.0846C535.247 20.0846 535.744 19.9636 536.094 19.7216C536.457 19.4662 536.638 19.1436 536.638 18.7538C536.638 18.3371 536.436 18.0279 536.033 17.8262C535.643 17.6246 535.018 17.4028 534.158 17.1608C533.324 16.9323 532.646 16.7105 532.121 16.4954C531.597 16.2803 531.14 15.951 530.75 15.5074C530.374 15.0638 530.186 14.479 530.186 13.7531C530.186 13.1616 530.36 12.6239 530.71 12.14C531.059 11.6426 531.557 11.2528 532.202 10.9705C532.861 10.6882 533.613 10.547 534.46 10.547C535.724 10.547 536.739 10.8697 537.505 11.5149C538.285 12.1467 538.701 13.0138 538.755 14.1161H536.457C536.416 13.6187 536.215 13.2221 535.852 12.9264C535.489 12.6306 534.998 12.4828 534.38 12.4828C533.775 12.4828 533.311 12.597 532.988 12.8256C532.666 13.0541 532.504 13.3565 532.504 13.7329C532.504 14.0287 532.612 14.2774 532.827 14.479C533.042 14.6806 533.304 14.842 533.613 14.9629C533.923 15.0705 534.38 15.2116 534.985 15.3864C535.791 15.6015 536.45 15.8233 536.961 16.0518C537.485 16.2669 537.935 16.5895 538.312 17.0197C538.688 17.4498 538.883 18.0212 538.896 18.7336C538.896 19.3654 538.722 19.93 538.372 20.4274C538.023 20.9248 537.525 21.3146 536.88 21.5969C536.248 21.8792 535.502 22.0203 534.642 22.0203ZM542.308 21.98C541.891 21.98 541.542 21.8389 541.259 21.5566C540.977 21.2743 540.836 20.9248 540.836 20.508C540.836 20.0913 540.977 19.7418 541.259 19.4595C541.542 19.1772 541.891 19.0361 542.308 19.0361C542.711 19.0361 543.054 19.1772 543.336 19.4595C543.618 19.7418 543.76 20.0913 543.76 20.508C543.76 20.9248 543.618 21.2743 543.336 21.5566C543.054 21.8389 542.711 21.98 542.308 21.98ZM563.56 7.82489L558.297 21.8389H555.636L550.353 7.82489H552.813L556.966 19.4797L561.14 7.82489H563.56ZM570.302 22.0203C569.253 22.0203 568.305 21.7851 567.459 21.3146C566.612 20.8307 565.946 20.1585 565.462 19.2982C564.978 18.4244 564.736 17.4162 564.736 16.2736C564.736 15.1444 564.985 14.1429 565.482 13.2692C565.98 12.3954 566.659 11.7233 567.519 11.2528C568.379 10.7823 569.341 10.547 570.402 10.547C571.464 10.547 572.426 10.7823 573.286 11.2528C574.146 11.7233 574.825 12.3954 575.322 13.2692C575.82 14.1429 576.069 15.1444 576.069 16.2736C576.069 17.4028 575.813 18.4043 575.302 19.278C574.792 20.1518 574.092 20.8307 573.205 21.3146C572.331 21.7851 571.364 22.0203 570.302 22.0203ZM570.302 20.0241C570.893 20.0241 571.444 19.883 571.955 19.6007C572.479 19.3184 572.903 18.8949 573.225 18.3303C573.548 17.7657 573.709 17.0802 573.709 16.2736C573.709 15.467 573.555 14.7882 573.246 14.237C572.936 13.6724 572.526 13.249 572.016 12.9667C571.505 12.6844 570.954 12.5433 570.362 12.5433C569.771 12.5433 569.22 12.6844 568.709 12.9667C568.211 13.249 567.815 13.6724 567.519 14.237C567.223 14.7882 567.075 15.467 567.075 16.2736C567.075 17.47 567.378 18.3975 567.983 19.0562C568.601 19.7015 569.374 20.0241 570.302 20.0241ZM580.64 6.91751V21.8389H578.341V6.91751H580.64ZM582.891 16.2333C582.891 15.1175 583.12 14.1295 583.577 13.2692C584.047 12.4088 584.679 11.7434 585.472 11.2729C586.279 10.789 587.166 10.547 588.134 10.547C589.008 10.547 589.767 10.7218 590.413 11.0713C591.071 11.4074 591.596 11.8308 591.985 12.3416V10.7285H594.304V21.8389H591.985V20.1854C591.596 20.7097 591.065 21.1466 590.392 21.4961C589.72 21.8456 588.954 22.0203 588.094 22.0203C587.139 22.0203 586.266 21.7784 585.472 21.2944C584.679 20.7971 584.047 20.1115 583.577 19.2377C583.12 18.3505 582.891 17.349 582.891 16.2333ZM591.985 16.2736C591.985 15.5074 591.824 14.842 591.501 14.2774C591.192 13.7128 590.782 13.2826 590.271 12.9869C589.761 12.6911 589.209 12.5433 588.618 12.5433C588.026 12.5433 587.475 12.6911 586.965 12.9869C586.454 13.2692 586.037 13.6926 585.714 14.2572C585.405 14.8084 585.251 15.467 585.251 16.2333C585.251 16.9995 585.405 17.6716 585.714 18.2497C586.037 18.8277 586.454 19.2713 586.965 19.5805C587.489 19.8762 588.04 20.0241 588.618 20.0241C589.209 20.0241 589.761 19.8762 590.271 19.5805C590.782 19.2848 591.192 18.8546 591.501 18.29C591.824 17.712 591.985 17.0398 591.985 16.2736ZM600.005 12.6038V18.7538C600.005 19.1705 600.099 19.473 600.288 19.6612C600.489 19.8359 600.825 19.9233 601.296 19.9233H602.707V21.8389H600.892C599.857 21.8389 599.064 21.5969 598.513 21.113C597.962 20.629 597.686 19.8426 597.686 18.7538V12.6038H596.376V10.7285H597.686V7.96604H600.005V10.7285H602.707V12.6038H600.005ZM605.995 9.25653C605.579 9.25653 605.229 9.11539 604.947 8.83309C604.665 8.55079 604.523 8.20129 604.523 7.78456C604.523 7.36784 604.665 7.01833 604.947 6.73604C605.229 6.45374 605.579 6.31259 605.995 6.31259C606.399 6.31259 606.741 6.45374 607.024 6.73604C607.306 7.01833 607.447 7.36784 607.447 7.78456C607.447 8.20129 607.306 8.55079 607.024 8.83309C606.741 9.11539 606.399 9.25653 605.995 9.25653ZM607.125 10.7285V21.8389H604.826V10.7285H607.125ZM612.441 6.91751V21.8389H610.143V6.91751H612.441ZM616.629 9.25653C616.212 9.25653 615.863 9.11539 615.58 8.83309C615.298 8.55079 615.157 8.20129 615.157 7.78456C615.157 7.36784 615.298 7.01833 615.58 6.73604C615.863 6.45374 616.212 6.31259 616.629 6.31259C617.032 6.31259 617.375 6.45374 617.657 6.73604C617.939 7.01833 618.081 7.36784 618.081 7.78456C618.081 8.20129 617.939 8.55079 617.657 8.83309C617.375 9.11539 617.032 9.25653 616.629 9.25653ZM617.758 10.7285V21.8389H615.459V10.7285H617.758ZM623.458 12.6038V18.7538C623.458 19.1705 623.552 19.473 623.74 19.6612C623.942 19.8359 624.278 19.9233 624.748 19.9233H626.16V21.8389H624.345C623.31 21.8389 622.517 21.5969 621.966 21.113C621.414 20.629 621.139 19.8426 621.139 18.7538V12.6038H619.828V10.7285H621.139V7.96604H623.458V10.7285H626.16V12.6038H623.458ZM638.28 10.7285L631.464 27.0613H629.085L631.343 21.6574L626.968 10.7285H629.529L632.654 19.1974L635.9 10.7285H638.28Z" fill="white"/>
<path opacity="0.75" d="M367.595 88.6128L365.643 85.2605H364.349V88.6128H363.279V80.4144H365.925C366.545 80.4144 367.066 80.5203 367.49 80.732C367.921 80.9438 368.242 81.23 368.454 81.5907C368.666 81.9514 368.772 82.3631 368.772 82.8257C368.772 83.3903 368.607 83.8883 368.278 84.3195C367.956 84.7508 367.47 85.037 366.819 85.1782L368.878 88.6128H367.595ZM364.349 84.4019H365.925C366.505 84.4019 366.941 84.2607 367.231 83.9784C367.521 83.6883 367.666 83.3041 367.666 82.8257C367.666 82.3395 367.521 81.9632 367.231 81.6965C366.948 81.4299 366.513 81.2966 365.925 81.2966H364.349V84.4019ZM376.316 85.1429C376.316 85.3468 376.304 85.5624 376.281 85.7898H371.129C371.168 86.425 371.384 86.9229 371.776 87.2836C372.176 87.6365 372.658 87.813 373.222 87.813C373.685 87.813 374.069 87.7071 374.375 87.4954C374.689 87.2758 374.908 86.9857 375.034 86.625H376.187C376.014 87.2444 375.669 87.7502 375.152 88.1423C374.634 88.5265 373.991 88.7187 373.222 88.7187C372.611 88.7187 372.062 88.5814 371.576 88.307C371.097 88.0325 370.721 87.6444 370.447 87.1425C370.172 86.6328 370.035 86.0447 370.035 85.3782C370.035 84.7116 370.168 84.1274 370.435 83.6256C370.701 83.1237 371.074 82.7395 371.552 82.4729C372.038 82.1984 372.595 82.0612 373.222 82.0612C373.834 82.0612 374.375 82.1945 374.846 82.4611C375.316 82.7277 375.677 83.0963 375.928 83.5668C376.187 84.0294 376.316 84.5548 376.316 85.1429ZM375.21 84.9194C375.21 84.5117 375.12 84.1627 374.94 83.8726C374.759 83.5746 374.512 83.3511 374.199 83.2021C373.893 83.0453 373.552 82.9669 373.175 82.9669C372.634 82.9669 372.172 83.1394 371.787 83.4844C371.411 83.8294 371.195 84.3078 371.141 84.9194H375.21ZM379.034 83.0492V86.8484C379.034 87.1621 379.101 87.3856 379.234 87.5189C379.368 87.6444 379.599 87.7071 379.928 87.7071H380.716V88.6128H379.752C379.156 88.6128 378.709 88.4756 378.411 88.2011C378.113 87.9267 377.964 87.4758 377.964 86.8484V83.0492H377.129V82.167H377.964V80.5438H379.034V82.167H380.716V83.0492H379.034ZM387.73 82.167V88.6128H386.659V87.66C386.456 87.9894 386.169 88.2482 385.801 88.4364C385.44 88.6167 385.04 88.7069 384.601 88.7069C384.099 88.7069 383.648 88.605 383.248 88.4011C382.848 88.1893 382.531 87.8757 382.296 87.4601C382.068 87.0445 381.955 86.5387 381.955 85.9427V82.167H383.013V85.8016C383.013 86.4368 383.174 86.9269 383.495 87.2719C383.817 87.6091 384.256 87.7777 384.813 87.7777C385.385 87.7777 385.836 87.6012 386.165 87.2484C386.495 86.8955 386.659 86.3819 386.659 85.7075V82.167H387.73ZM390.607 83.2139C390.796 82.8453 391.062 82.5591 391.407 82.3552C391.76 82.1514 392.188 82.0494 392.689 82.0494V83.1551H392.407C391.207 83.1551 390.607 83.8059 390.607 85.1076V88.6128H389.537V82.167H390.607V83.2139ZM397.066 82.0494C397.85 82.0494 398.485 82.2886 398.971 82.7669C399.457 83.2374 399.7 83.9196 399.7 84.8136V88.6128H398.642V84.9665C398.642 84.3235 398.481 83.8334 398.159 83.4962C397.838 83.1512 397.399 82.9786 396.842 82.9786C396.277 82.9786 395.827 83.1551 395.489 83.5079C395.16 83.8608 394.995 84.3744 394.995 85.0488V88.6128H393.925V82.167H394.995V83.0845C395.207 82.7552 395.493 82.5003 395.854 82.3199C396.223 82.1396 396.626 82.0494 397.066 82.0494Z" fill="white"/>
<path opacity="0.75" d="M539.831 133.982L537.878 130.63H536.584V133.982H535.514V125.784H538.161C538.78 125.784 539.301 125.89 539.725 126.102C540.156 126.313 540.478 126.6 540.689 126.96C540.901 127.321 541.007 127.733 541.007 128.195C541.007 128.76 540.842 129.258 540.513 129.689C540.191 130.12 539.705 130.407 539.054 130.548L541.113 133.982H539.831ZM536.584 129.772H538.161C538.741 129.772 539.176 129.63 539.466 129.348C539.756 129.058 539.901 128.674 539.901 128.195C539.901 127.709 539.756 127.333 539.466 127.066C539.184 126.8 538.749 126.666 538.161 126.666H536.584V129.772ZM548.551 130.513C548.551 130.716 548.54 130.932 548.516 131.159H543.364C543.403 131.795 543.619 132.293 544.011 132.653C544.411 133.006 544.893 133.183 545.458 133.183C545.92 133.183 546.305 133.077 546.611 132.865C546.924 132.645 547.144 132.355 547.269 131.995H548.422C548.249 132.614 547.904 133.12 547.387 133.512C546.869 133.896 546.226 134.088 545.458 134.088C544.846 134.088 544.297 133.951 543.811 133.677C543.333 133.402 542.956 133.014 542.682 132.512C542.407 132.002 542.27 131.414 542.27 130.748C542.27 130.081 542.404 129.497 542.67 128.995C542.937 128.493 543.309 128.109 543.788 127.842C544.274 127.568 544.831 127.431 545.458 127.431C546.069 127.431 546.611 127.564 547.081 127.831C547.552 128.097 547.912 128.466 548.163 128.936C548.422 129.399 548.551 129.924 548.551 130.513ZM547.446 130.289C547.446 129.881 547.355 129.532 547.175 129.242C546.995 128.944 546.748 128.721 546.434 128.572C546.128 128.415 545.787 128.337 545.411 128.337C544.87 128.337 544.407 128.509 544.023 128.854C543.646 129.199 543.431 129.677 543.376 130.289H547.446ZM551.27 128.419V132.218C551.27 132.532 551.336 132.755 551.47 132.889C551.603 133.014 551.834 133.077 552.164 133.077H552.952V133.982H551.987C551.391 133.982 550.944 133.845 550.646 133.571C550.348 133.296 550.199 132.845 550.199 132.218V128.419H549.364V127.537H550.199V125.913H551.27V127.537H552.952V128.419H551.27ZM559.965 127.537V133.982H558.895V133.03C558.691 133.359 558.405 133.618 558.036 133.806C557.675 133.986 557.276 134.077 556.836 134.077C556.335 134.077 555.884 133.975 555.484 133.771C555.084 133.559 554.766 133.245 554.531 132.83C554.304 132.414 554.19 131.908 554.19 131.312V127.537H555.249V131.171C555.249 131.806 555.409 132.296 555.731 132.642C556.052 132.979 556.491 133.147 557.048 133.147C557.621 133.147 558.071 132.971 558.401 132.618C558.73 132.265 558.895 131.751 558.895 131.077V127.537H559.965ZM562.843 128.584C563.031 128.215 563.298 127.929 563.643 127.725C563.996 127.521 564.423 127.419 564.925 127.419V128.525H564.642C563.443 128.525 562.843 129.176 562.843 130.477V133.982H561.772V127.537H562.843V128.584ZM569.301 127.419C570.085 127.419 570.72 127.658 571.206 128.137C571.693 128.607 571.936 129.289 571.936 130.183V133.982H570.877V130.336C570.877 129.693 570.716 129.203 570.395 128.866C570.073 128.521 569.634 128.348 569.077 128.348C568.513 128.348 568.062 128.525 567.725 128.878C567.395 129.23 567.231 129.744 567.231 130.418V133.982H566.16V127.537H567.231V128.454C567.442 128.125 567.729 127.87 568.089 127.69C568.458 127.509 568.862 127.419 569.301 127.419Z" fill="white"/>
<path d="M377.183 303.794V309.732C377.183 310.668 377.403 311.361 377.844 311.811C378.294 312.261 378.906 312.486 379.68 312.486C380.453 312.486 381.056 312.265 381.488 311.824C381.929 311.374 382.15 310.677 382.15 309.732V303.794H383.094V309.719C383.094 310.916 382.775 311.815 382.136 312.418C381.506 313.021 380.683 313.323 379.666 313.323C378.649 313.323 377.822 313.021 377.183 312.418C376.553 311.815 376.238 310.916 376.238 309.719V303.794H377.183ZM388.063 313.323C387.442 313.323 386.893 313.215 386.416 312.999C385.948 312.783 385.58 312.481 385.31 312.094C385.04 311.707 384.896 311.275 384.878 310.799H385.876C385.921 311.257 386.124 311.662 386.484 312.013C386.844 312.355 387.37 312.526 388.063 312.526C388.702 312.526 389.206 312.364 389.575 312.04C389.953 311.707 390.141 311.289 390.141 310.785C390.141 310.38 390.038 310.056 389.831 309.813C389.624 309.561 389.368 309.377 389.062 309.26C388.756 309.134 388.333 308.999 387.793 308.855C387.163 308.684 386.664 308.518 386.295 308.356C385.926 308.194 385.611 307.942 385.35 307.6C385.089 307.258 384.959 306.795 384.959 306.21C384.959 305.724 385.085 305.292 385.337 304.914C385.589 304.527 385.944 304.226 386.403 304.01C386.862 303.794 387.388 303.686 387.982 303.686C388.855 303.686 389.557 303.902 390.088 304.334C390.627 304.756 390.938 305.305 391.019 305.98H389.993C389.93 305.593 389.719 305.251 389.359 304.954C388.999 304.649 388.513 304.496 387.901 304.496C387.334 304.496 386.862 304.649 386.484 304.954C386.106 305.251 385.917 305.661 385.917 306.183C385.917 306.579 386.02 306.898 386.227 307.141C386.434 307.384 386.691 307.568 386.997 307.694C387.312 307.82 387.735 307.955 388.265 308.099C388.877 308.27 389.372 308.441 389.75 308.612C390.128 308.774 390.447 309.026 390.708 309.368C390.969 309.71 391.1 310.169 391.1 310.745C391.1 311.186 390.983 311.604 390.749 312C390.515 312.396 390.168 312.715 389.71 312.958C389.251 313.201 388.702 313.323 388.063 313.323ZM360.201 322.563V326.086H363.777V326.869H360.201V330.445H364.182V331.228H359.256V321.78H364.182V322.563H360.201ZM365.612 327.53C365.612 326.774 365.765 326.113 366.071 325.546C366.377 324.97 366.795 324.529 367.326 324.223C367.866 323.908 368.473 323.751 369.148 323.751C369.841 323.751 370.444 323.917 370.957 324.25C371.469 324.574 371.834 324.983 372.05 325.478V323.859H372.995V334.71H372.05V329.608C371.834 330.103 371.465 330.517 370.943 330.85C370.43 331.174 369.823 331.336 369.121 331.336C368.455 331.336 367.852 331.179 367.312 330.864C366.782 330.549 366.363 330.103 366.057 329.527C365.76 328.952 365.612 328.286 365.612 327.53ZM372.05 327.543C372.05 326.95 371.928 326.428 371.685 325.978C371.442 325.528 371.11 325.181 370.687 324.938C370.273 324.696 369.814 324.574 369.31 324.574C368.788 324.574 368.32 324.691 367.906 324.925C367.492 325.159 367.164 325.501 366.921 325.951C366.687 326.392 366.57 326.918 366.57 327.53C366.57 328.133 366.687 328.664 366.921 329.123C367.164 329.572 367.492 329.919 367.906 330.162C368.32 330.396 368.788 330.513 369.31 330.513C369.814 330.513 370.273 330.391 370.687 330.148C371.11 329.905 371.442 329.559 371.685 329.109C371.928 328.659 372.05 328.137 372.05 327.543ZM381.536 323.859V331.228H380.591V329.932C380.375 330.391 380.042 330.742 379.592 330.985C379.142 331.228 378.638 331.349 378.08 331.349C377.199 331.349 376.479 331.08 375.921 330.54C375.363 329.991 375.084 329.199 375.084 328.164V323.859H376.015V328.056C376.015 328.857 376.213 329.469 376.609 329.892C377.014 330.315 377.563 330.526 378.256 330.526C378.967 330.526 379.533 330.301 379.956 329.851C380.379 329.401 380.591 328.74 380.591 327.867V323.859H381.536ZM384.165 322.469C383.976 322.469 383.814 322.401 383.679 322.266C383.544 322.131 383.477 321.965 383.477 321.767C383.477 321.569 383.544 321.407 383.679 321.281C383.814 321.146 383.976 321.078 384.165 321.078C384.354 321.078 384.516 321.146 384.651 321.281C384.786 321.407 384.853 321.569 384.853 321.767C384.853 321.965 384.786 322.131 384.651 322.266C384.516 322.401 384.354 322.469 384.165 322.469ZM384.637 323.859V331.228H383.692V323.859H384.637ZM388.005 324.655V329.23C388.005 329.68 388.09 329.991 388.261 330.162C388.432 330.333 388.734 330.418 389.166 330.418H390.029V331.228H389.017C388.351 331.228 387.856 331.075 387.533 330.769C387.209 330.454 387.047 329.941 387.047 329.23V324.655H386.021V323.859H387.047V322.01H388.005V323.859H390.029V324.655H388.005ZM392.06 322.469C391.871 322.469 391.709 322.401 391.574 322.266C391.439 322.131 391.372 321.965 391.372 321.767C391.372 321.569 391.439 321.407 391.574 321.281C391.709 321.146 391.871 321.078 392.06 321.078C392.249 321.078 392.411 321.146 392.546 321.281C392.681 321.407 392.748 321.569 392.748 321.767C392.748 321.965 392.681 322.131 392.546 322.266C392.411 322.401 392.249 322.469 392.06 322.469ZM392.532 323.859V331.228H391.588V323.859H392.532ZM401.339 327.165C401.339 327.489 401.33 327.737 401.312 327.908H395.198C395.225 328.466 395.36 328.943 395.603 329.338C395.846 329.734 396.166 330.036 396.561 330.243C396.957 330.441 397.389 330.54 397.857 330.54C398.469 330.54 398.982 330.391 399.396 330.094C399.819 329.797 400.098 329.397 400.233 328.893H401.231C401.051 329.613 400.664 330.202 400.071 330.661C399.486 331.111 398.748 331.336 397.857 331.336C397.164 331.336 396.543 331.183 395.995 330.877C395.446 330.562 395.014 330.121 394.699 329.554C394.393 328.979 394.24 328.308 394.24 327.543C394.24 326.779 394.393 326.108 394.699 325.532C395.005 324.956 395.432 324.516 395.981 324.21C396.53 323.904 397.155 323.751 397.857 323.751C398.559 323.751 399.171 323.904 399.693 324.21C400.224 324.516 400.628 324.929 400.907 325.451C401.195 325.964 401.339 326.536 401.339 327.165ZM400.381 327.138C400.39 326.59 400.278 326.122 400.044 325.735C399.819 325.348 399.508 325.055 399.112 324.858C398.716 324.66 398.285 324.561 397.817 324.561C397.115 324.561 396.516 324.786 396.022 325.235C395.527 325.685 395.252 326.32 395.198 327.138H400.381ZM405.605 331.336C404.759 331.336 404.067 331.143 403.527 330.756C402.996 330.36 402.699 329.824 402.636 329.15H403.608C403.653 329.563 403.846 329.901 404.188 330.162C404.539 330.414 405.007 330.54 405.592 330.54C406.105 330.54 406.505 330.418 406.793 330.175C407.09 329.932 407.238 329.631 407.238 329.271C407.238 329.019 407.157 328.812 406.995 328.65C406.833 328.488 406.627 328.362 406.375 328.272C406.132 328.173 405.799 328.07 405.376 327.962C404.827 327.818 404.382 327.674 404.04 327.53C403.698 327.386 403.405 327.174 403.162 326.896C402.928 326.608 402.811 326.225 402.811 325.748C402.811 325.388 402.919 325.055 403.135 324.75C403.351 324.444 403.657 324.201 404.053 324.021C404.449 323.841 404.899 323.751 405.403 323.751C406.195 323.751 406.833 323.953 407.319 324.358C407.805 324.754 408.066 325.303 408.102 326.005H407.157C407.13 325.573 406.959 325.226 406.645 324.965C406.339 324.696 405.916 324.561 405.376 324.561C404.899 324.561 404.512 324.673 404.215 324.898C403.918 325.123 403.77 325.402 403.77 325.735C403.77 326.023 403.855 326.261 404.026 326.45C404.206 326.63 404.427 326.774 404.687 326.882C404.948 326.981 405.299 327.093 405.74 327.219C406.271 327.363 406.694 327.503 407.009 327.638C407.324 327.773 407.594 327.971 407.819 328.232C408.044 328.493 408.161 328.839 408.17 329.271C408.17 329.667 408.062 330.022 407.846 330.337C407.63 330.643 407.328 330.886 406.941 331.066C406.555 331.246 406.109 331.336 405.605 331.336Z" fill="#D1D5D8"/>
<path d="M536.365 303.794V309.732C536.365 310.668 536.586 311.361 537.027 311.811C537.477 312.261 538.089 312.486 538.862 312.486C539.636 312.486 540.239 312.265 540.671 311.824C541.112 311.374 541.332 310.677 541.332 309.732V303.794H542.277V309.719C542.277 310.916 541.958 311.815 541.319 312.418C540.689 313.021 539.866 313.323 538.849 313.323C537.832 313.323 537.004 313.021 536.365 312.418C535.736 311.815 535.421 310.916 535.421 309.719V303.794H536.365ZM547.246 313.323C546.625 313.323 546.076 313.215 545.599 312.999C545.131 312.783 544.762 312.481 544.492 312.094C544.222 311.707 544.078 311.275 544.06 310.799H545.059C545.104 311.257 545.307 311.662 545.667 312.013C546.027 312.355 546.553 312.526 547.246 312.526C547.885 312.526 548.388 312.364 548.757 312.04C549.135 311.707 549.324 311.289 549.324 310.785C549.324 310.38 549.221 310.056 549.014 309.813C548.807 309.561 548.55 309.377 548.245 309.26C547.939 309.134 547.516 308.999 546.976 308.855C546.346 308.684 545.847 308.518 545.478 308.356C545.109 308.194 544.794 307.942 544.533 307.6C544.272 307.258 544.141 306.795 544.141 306.21C544.141 305.724 544.267 305.292 544.519 304.914C544.771 304.527 545.127 304.226 545.586 304.01C546.045 303.794 546.571 303.686 547.165 303.686C548.038 303.686 548.739 303.902 549.27 304.334C549.81 304.756 550.121 305.305 550.202 305.98H549.176C549.113 305.593 548.901 305.251 548.541 304.954C548.182 304.649 547.696 304.496 547.084 304.496C546.517 304.496 546.045 304.649 545.667 304.954C545.289 305.251 545.1 305.661 545.1 306.183C545.1 306.579 545.203 306.898 545.41 307.141C545.617 307.384 545.874 307.568 546.18 307.694C546.494 307.82 546.917 307.955 547.448 308.099C548.06 308.27 548.555 308.441 548.933 308.612C549.311 308.774 549.63 309.026 549.891 309.368C550.152 309.71 550.283 310.169 550.283 310.745C550.283 311.186 550.166 311.604 549.932 312C549.698 312.396 549.351 312.715 548.892 312.958C548.433 313.201 547.885 313.323 547.246 313.323ZM560.914 303.794V304.577H556.757V308.099H560.266V308.882H556.757V313.228H555.812V303.794H560.914ZM562.941 304.469C562.752 304.469 562.59 304.401 562.455 304.266C562.32 304.131 562.252 303.965 562.252 303.767C562.252 303.569 562.32 303.407 562.455 303.281C562.59 303.146 562.752 303.078 562.941 303.078C563.129 303.078 563.291 303.146 563.426 303.281C563.561 303.407 563.629 303.569 563.629 303.767C563.629 303.965 563.561 304.131 563.426 304.266C563.291 304.401 563.129 304.469 562.941 304.469ZM563.413 305.859V313.228H562.468V305.859H563.413ZM569.412 313.228L567.509 310.259L565.674 313.228H564.675L567.051 309.543L564.702 305.859H565.768L567.644 308.788L569.466 305.859H570.452L568.103 309.503L570.479 313.228H569.412ZM578.428 309.165C578.428 309.489 578.419 309.737 578.401 309.908H572.287C572.314 310.466 572.449 310.943 572.692 311.338C572.935 311.734 573.254 312.036 573.65 312.243C574.046 312.441 574.478 312.54 574.946 312.54C575.558 312.54 576.07 312.391 576.484 312.094C576.907 311.797 577.186 311.397 577.321 310.893H578.32C578.14 311.613 577.753 312.202 577.159 312.661C576.574 313.111 575.836 313.336 574.946 313.336C574.253 313.336 573.632 313.183 573.083 312.877C572.534 312.562 572.102 312.121 571.787 311.554C571.481 310.979 571.328 310.308 571.328 309.543C571.328 308.779 571.481 308.108 571.787 307.532C572.093 306.956 572.521 306.516 573.07 306.21C573.618 305.904 574.244 305.751 574.946 305.751C575.647 305.751 576.259 305.904 576.781 306.21C577.312 306.516 577.717 306.929 577.996 307.451C578.284 307.964 578.428 308.536 578.428 309.165ZM577.47 309.138C577.479 308.59 577.366 308.122 577.132 307.735C576.907 307.348 576.597 307.055 576.201 306.858C575.805 306.66 575.373 306.561 574.905 306.561C574.203 306.561 573.605 306.786 573.11 307.235C572.615 307.685 572.341 308.32 572.287 309.138H577.47ZM579.724 309.53C579.724 308.774 579.877 308.113 580.183 307.546C580.489 306.97 580.908 306.529 581.439 306.223C581.978 305.908 582.586 305.751 583.261 305.751C583.909 305.751 584.493 305.908 585.015 306.223C585.537 306.538 585.92 306.947 586.163 307.451V303.24H587.107V313.228H586.163V311.581C585.938 312.094 585.569 312.517 585.056 312.85C584.543 313.174 583.94 313.336 583.247 313.336C582.572 313.336 581.965 313.179 581.425 312.864C580.894 312.549 580.476 312.103 580.17 311.527C579.873 310.952 579.724 310.286 579.724 309.53ZM586.163 309.543C586.163 308.95 586.041 308.428 585.798 307.978C585.555 307.528 585.222 307.181 584.799 306.938C584.385 306.696 583.927 306.574 583.423 306.574C582.901 306.574 582.433 306.691 582.019 306.925C581.605 307.159 581.277 307.501 581.034 307.951C580.8 308.392 580.683 308.918 580.683 309.53C580.683 310.133 580.8 310.664 581.034 311.123C581.277 311.572 581.605 311.919 582.019 312.162C582.433 312.396 582.901 312.513 583.423 312.513C583.927 312.513 584.385 312.391 584.799 312.148C585.222 311.905 585.555 311.559 585.798 311.109C586.041 310.659 586.163 310.137 586.163 309.543ZM537.928 321.794V331.228H536.984V321.794H537.928ZM543.523 323.724C544.405 323.724 545.125 323.998 545.682 324.547C546.24 325.087 546.519 325.874 546.519 326.909V331.228H545.588V327.017C545.588 326.216 545.386 325.604 544.981 325.181C544.585 324.759 544.04 324.547 543.348 324.547C542.637 324.547 542.07 324.772 541.647 325.222C541.224 325.672 541.013 326.333 541.013 327.206V331.228H540.068V323.859H541.013V325.114C541.247 324.664 541.584 324.322 542.025 324.088C542.466 323.845 542.965 323.724 543.523 323.724ZM548.177 327.543C548.177 326.779 548.33 326.113 548.636 325.546C548.942 324.97 549.365 324.529 549.904 324.223C550.444 323.908 551.061 323.751 551.754 323.751C552.662 323.751 553.409 323.976 553.994 324.426C554.588 324.876 554.97 325.487 555.141 326.261H554.129C554.003 325.73 553.729 325.316 553.306 325.019C552.892 324.714 552.374 324.561 551.754 324.561C551.259 324.561 550.813 324.673 550.417 324.898C550.021 325.123 549.707 325.46 549.473 325.91C549.248 326.351 549.135 326.896 549.135 327.543C549.135 328.191 549.248 328.74 549.473 329.19C549.707 329.64 550.021 329.977 550.417 330.202C550.813 330.427 551.259 330.54 551.754 330.54C552.374 330.54 552.892 330.391 553.306 330.094C553.729 329.788 554.003 329.365 554.129 328.826H555.141C554.97 329.581 554.588 330.189 553.994 330.648C553.4 331.107 552.653 331.336 551.754 331.336C551.061 331.336 550.444 331.183 549.904 330.877C549.365 330.562 548.942 330.121 548.636 329.554C548.33 328.979 548.177 328.308 548.177 327.543ZM560.112 331.336C559.419 331.336 558.794 331.183 558.236 330.877C557.687 330.562 557.251 330.121 556.927 329.554C556.612 328.979 556.454 328.308 556.454 327.543C556.454 326.779 556.616 326.113 556.94 325.546C557.264 324.97 557.705 324.529 558.263 324.223C558.821 323.908 559.446 323.751 560.139 323.751C560.832 323.751 561.457 323.908 562.015 324.223C562.582 324.529 563.023 324.97 563.338 325.546C563.662 326.113 563.824 326.779 563.824 327.543C563.824 328.299 563.662 328.965 563.338 329.541C563.014 330.117 562.568 330.562 562.001 330.877C561.435 331.183 560.805 331.336 560.112 331.336ZM560.112 330.513C560.598 330.513 561.048 330.405 561.462 330.189C561.876 329.964 562.208 329.631 562.46 329.19C562.721 328.74 562.852 328.191 562.852 327.543C562.852 326.896 562.726 326.351 562.474 325.91C562.222 325.46 561.889 325.127 561.475 324.911C561.061 324.687 560.611 324.574 560.125 324.574C559.64 324.574 559.19 324.687 558.776 324.911C558.362 325.127 558.029 325.46 557.777 325.91C557.534 326.351 557.413 326.896 557.413 327.543C557.413 328.191 557.534 328.74 557.777 329.19C558.029 329.631 558.357 329.964 558.762 330.189C559.176 330.405 559.626 330.513 560.112 330.513ZM574.319 323.724C575.183 323.724 575.884 323.998 576.424 324.547C576.973 325.087 577.248 325.874 577.248 326.909V331.228H576.316V327.017C576.316 326.216 576.123 325.604 575.736 325.181C575.349 324.759 574.823 324.547 574.157 324.547C573.464 324.547 572.911 324.777 572.497 325.235C572.083 325.694 571.876 326.36 571.876 327.233V331.228H570.945V327.017C570.945 326.216 570.751 325.604 570.364 325.181C569.977 324.759 569.446 324.547 568.772 324.547C568.079 324.547 567.525 324.777 567.111 325.235C566.698 325.694 566.491 326.36 566.491 327.233V331.228H565.546V323.859H566.491V325.127C566.725 324.669 567.057 324.322 567.489 324.088C567.921 323.845 568.403 323.724 568.933 323.724C569.572 323.724 570.13 323.877 570.607 324.183C571.093 324.489 571.444 324.938 571.66 325.532C571.858 324.947 572.195 324.502 572.672 324.196C573.158 323.881 573.707 323.724 574.319 323.724ZM586.013 327.165C586.013 327.489 586.004 327.737 585.986 327.908H579.872C579.899 328.466 580.034 328.943 580.277 329.338C580.52 329.734 580.839 330.036 581.235 330.243C581.631 330.441 582.063 330.54 582.531 330.54C583.143 330.54 583.656 330.391 584.07 330.094C584.493 329.797 584.772 329.397 584.907 328.893H585.905C585.725 329.613 585.338 330.202 584.745 330.661C584.16 331.111 583.422 331.336 582.531 331.336C581.838 331.336 581.217 331.183 580.668 330.877C580.12 330.562 579.688 330.121 579.373 329.554C579.067 328.979 578.914 328.308 578.914 327.543C578.914 326.779 579.067 326.108 579.373 325.532C579.679 324.956 580.106 324.516 580.655 324.21C581.204 323.904 581.829 323.751 582.531 323.751C583.233 323.751 583.845 323.904 584.367 324.21C584.898 324.516 585.302 324.929 585.581 325.451C585.869 325.964 586.013 326.536 586.013 327.165ZM585.055 327.138C585.064 326.59 584.951 326.122 584.718 325.735C584.493 325.348 584.182 325.055 583.786 324.858C583.39 324.66 582.958 324.561 582.491 324.561C581.789 324.561 581.19 324.786 580.695 325.235C580.201 325.685 579.926 326.32 579.872 327.138H585.055Z" fill="#D1D5D8"/>
<defs>
<filter id="filter0_d_2847_3189" x="161.052" y="49.5681" width="103.34" height="257.931" filterUnits="userSpaceOnUse" color-interpolation-filters="sRGB">
<feFlood flood-opacity="0" result="BackgroundImageFix"/>
<feColorMatrix in="SourceAlpha" type="matrix" values="0 0 0 0 0 0 0 0 0 0 0 0 0 0 0 0 0 0 127 0" result="hardAlpha"/>
<feOffset dy="3.36067"/>
<feGaussianBlur stdDeviation="8.40167"/>
<feComposite in2="hardAlpha" operator="out"/>
<feColorMatrix type="matrix" values="0 0 0 0 0.137255 0 0 0 0 0.694118 0 0 0 0 0.721569 0 0 0 0.25 0"/>
<feBlend mode="normal" in2="BackgroundImageFix" result="effect1_dropShadow_2847_3189"/>
<feBlend mode="normal" in="SourceGraphic" in2="effect1_dropShadow_2847_3189" result="shape"/>
</filter>
<filter id="filter1_d_2847_3189" x="332.447" y="107.54" width="103.34" height="199.96" filterUnits="userSpaceOnUse" color-interpolation-filters="sRGB">
<feFlood flood-opacity="0" result="BackgroundImageFix"/>
<feColorMatrix in="SourceAlpha" type="matrix" values="0 0 0 0 0 0 0 0 0 0 0 0 0 0 0 0 0 0 127 0" result="hardAlpha"/>
<feOffset dy="3.36067"/>
<feGaussianBlur stdDeviation="8.40167"/>
<feComposite in2="hardAlpha" operator="out"/>
<feColorMatrix type="matrix" values="0 0 0 0 0.137255 0 0 0 0 0.694118 0 0 0 0 0.721569 0 0 0 0.25 0"/>
<feBlend mode="normal" in2="BackgroundImageFix" result="effect1_dropShadow_2847_3189"/>
<feBlend mode="normal" in="SourceGraphic" in2="effect1_dropShadow_2847_3189" result="shape"/>
</filter>
<filter id="filter2_d_2847_3189" x="510.562" y="158.79" width="103.34" height="148.71" filterUnits="userSpaceOnUse" color-interpolation-filters="sRGB">
<feFlood flood-opacity="0" result="BackgroundImageFix"/>
<feColorMatrix in="SourceAlpha" type="matrix" values="0 0 0 0 0 0 0 0 0 0 0 0 0 0 0 0 0 0 127 0" result="hardAlpha"/>
<feOffset dy="3.36067"/>
<feGaussianBlur stdDeviation="8.40167"/>
<feComposite in2="hardAlpha" operator="out"/>
<feColorMatrix type="matrix" values="0 0 0 0 0.137255 0 0 0 0 0.694118 0 0 0 0 0.721569 0 0 0 0.25 0"/>
<feBlend mode="normal" in2="BackgroundImageFix" result="effect1_dropShadow_2847_3189"/>
<feBlend mode="normal" in="SourceGraphic" in2="effect1_dropShadow_2847_3189" result="shape"/>
</filter>
<filter id="filter3_b_2847_3189" x="-0.890294" y="34.2943" width="727.407" height="190.002" filterUnits="userSpaceOnUse" color-interpolation-filters="sRGB">
<feFlood flood-opacity="0" result="BackgroundImageFix"/>
<feGaussianBlur in="BackgroundImageFix" stdDeviation="0.840166"/>
<feComposite in2="SourceAlpha" operator="in" result="effect1_backgroundBlur_2847_3189"/>
<feBlend mode="normal" in="SourceGraphic" in2="effect1_backgroundBlur_2847_3189" result="shape"/>
</filter>
<filter id="filter4_bd_2847_3189" x="532.405" y="189.876" width="59.6519" height="59.6519" filterUnits="userSpaceOnUse" color-interpolation-filters="sRGB">
<feFlood flood-opacity="0" result="BackgroundImageFix"/>
<feGaussianBlur in="BackgroundImageFix" stdDeviation="6.30125"/>
<feComposite in2="SourceAlpha" operator="in" result="effect1_backgroundBlur_2847_3189"/>
<feColorMatrix in="SourceAlpha" type="matrix" values="0 0 0 0 0 0 0 0 0 0 0 0 0 0 0 0 0 0 127 0" result="hardAlpha"/>
<feOffset/>
<feGaussianBlur stdDeviation="6.72133"/>
<feComposite in2="hardAlpha" operator="out"/>
<feColorMatrix type="matrix" values="0 0 0 0 0.0862745 0 0 0 0 0.172549 0 0 0 0 0.243137 0 0 0 0.1 0"/>
<feBlend mode="normal" in2="effect1_backgroundBlur_2847_3189" result="effect2_dropShadow_2847_3189"/>
<feBlend mode="normal" in="SourceGraphic" in2="effect2_dropShadow_2847_3189" result="shape"/>
</filter>
<filter id="filter5_bd_2847_3189" x="182.897" y="188.196" width="59.6519" height="59.6519" filterUnits="userSpaceOnUse" color-interpolation-filters="sRGB">
<feFlood flood-opacity="0" result="BackgroundImageFix"/>
<feGaussianBlur in="BackgroundImageFix" stdDeviation="6.30125"/>
<feComposite in2="SourceAlpha" operator="in" result="effect1_backgroundBlur_2847_3189"/>
<feColorMatrix in="SourceAlpha" type="matrix" values="0 0 0 0 0 0 0 0 0 0 0 0 0 0 0 0 0 0 127 0" result="hardAlpha"/>
<feOffset/>
<feGaussianBlur stdDeviation="6.72133"/>
<feComposite in2="hardAlpha" operator="out"/>
<feColorMatrix type="matrix" values="0 0 0 0 0.0862745 0 0 0 0 0.172549 0 0 0 0 0.243137 0 0 0 0.1 0"/>
<feBlend mode="normal" in2="effect1_backgroundBlur_2847_3189" result="effect2_dropShadow_2847_3189"/>
<feBlend mode="normal" in="SourceGraphic" in2="effect2_dropShadow_2847_3189" result="shape"/>
</filter>
<filter id="filter6_b_2847_3189" x="351.764" y="3.44227" width="65.0832" height="65.0832" filterUnits="userSpaceOnUse" color-interpolation-filters="sRGB">
<feFlood flood-opacity="0" result="BackgroundImageFix"/>
<feGaussianBlur in="BackgroundImageFix" stdDeviation="8.40167"/>
<feComposite in2="SourceAlpha" operator="in" result="effect1_backgroundBlur_2847_3189"/>
<feBlend mode="normal" in="SourceGraphic" in2="effect1_backgroundBlur_2847_3189" result="shape"/>
</filter>
<linearGradient id="paint0_linear_2847_3189" x1="212.722" y1="63.0107" x2="212.722" y2="287.335" gradientUnits="userSpaceOnUse">
<stop stop-color="#42BFF8" stop-opacity="0"/>
<stop offset="1" stop-color="#42BFF8"/>
</linearGradient>
<linearGradient id="paint1_linear_2847_3189" x1="384.117" y1="120.982" x2="384.117" y2="287.335" gradientUnits="userSpaceOnUse">
<stop stop-color="#42BFF8" stop-opacity="0"/>
<stop offset="1" stop-color="#42BFF8"/>
</linearGradient>
<linearGradient id="paint2_linear_2847_3189" x1="562.232" y1="172.232" x2="562.232" y2="287.335" gradientUnits="userSpaceOnUse">
<stop stop-color="#42BFF8" stop-opacity="0"/>
<stop offset="1" stop-color="#42BFF8"/>
</linearGradient>
<linearGradient id="paint3_linear_2847_3189" x1="678.594" y1="217.182" x2="103.08" y2="222.643" gradientUnits="userSpaceOnUse">
<stop stop-color="white" stop-opacity="0"/>
<stop offset="0.494792" stop-color="white"/>
<stop offset="1" stop-color="white" stop-opacity="0"/>
</linearGradient>
<linearGradient id="paint4_linear_2847_3189" x1="58.9715" y1="222.643" x2="692.877" y2="222.643" gradientUnits="userSpaceOnUse">
<stop stop-color="white" stop-opacity="0"/>
<stop offset="0.515625" stop-color="white"/>
<stop offset="1" stop-color="white" stop-opacity="0"/>
<stop offset="1" stop-color="white" stop-opacity="0"/>
</linearGradient>
</defs>
</svg>
