<svg width="40" height="36" viewBox="0 0 40 36" fill="none" xmlns="http://www.w3.org/2000/svg">
<path fill-rule="evenodd" clip-rule="evenodd" d="M32.2897 0C31.5362 0 30.9254 0.574372 30.9254 1.28289C30.9254 1.99142 31.5362 2.56579 32.2897 2.56579H34.3136C27.5019 7.67369 22.3187 10.9084 17.3904 13.0577C12.3015 15.2771 7.41972 16.3673 1.19157 17.1156C0.444135 17.2054 -0.0843547 17.848 0.0111521 18.5508C0.106659 19.2536 0.789995 19.7505 1.53743 19.6607C7.9379 18.8917 13.1145 17.7508 18.5385 15.3853C23.8419 13.0724 29.3191 9.61592 36.3828 4.29532V6.41447C36.3828 7.123 36.9936 7.69737 37.7471 7.69737C38.5006 7.69737 39.1115 7.123 39.1115 6.41447V2.99342C39.1115 1.3402 37.6862 0 35.928 0H32.2897ZM37.7472 15.1843C37.7472 13.175 36.1183 11.5461 34.1089 11.5461C32.0996 11.5461 30.4707 13.175 30.4707 15.1843V31.8552C30.4707 33.8645 32.0996 35.4934 34.1089 35.4934C36.1183 35.4934 37.7472 33.8645 37.7472 31.8552V15.1843ZM8.6411 28.8685C8.6411 26.8592 7.01219 25.2303 5.00283 25.2303C2.99348 25.2303 1.36457 26.8592 1.36457 28.8685L1.36457 31.8552C1.36457 33.8645 2.99348 35.4934 5.00283 35.4934C7.01219 35.4934 8.6411 33.8645 8.6411 31.8552V28.8685ZM19.5559 18.3882C21.5652 18.3882 23.1941 20.0171 23.1941 22.0264V31.8552C23.1941 33.8645 21.5652 35.4934 19.5559 35.4934C17.5465 35.4934 15.9176 33.8645 15.9176 31.8552L15.9176 22.0264C15.9176 20.0171 17.5465 18.3882 19.5559 18.3882Z" fill="white"/>
</svg>
