<svg width="49" height="35" viewBox="0 0 49 35" fill="none" xmlns="http://www.w3.org/2000/svg">
<path fill-rule="evenodd" clip-rule="evenodd" d="M39.2682 0.995941C37.9264 2.16082 37.5407 3.47467 38.0727 5.06844C39.5155 9.39205 45.6893 8.20196 45.6893 3.60006C45.6893 2.47414 45.486 2.02528 44.5637 1.11315C43.6122 0.17221 43.204 0 41.9267 0C40.7147 0 40.1879 0.197419 39.2682 0.995941ZM35.8595 7.26102C35.2494 7.42144 34.4863 7.98686 34.0546 8.59844C33.643 9.18153 33.1858 9.74138 33.0385 9.8432C32.8915 9.94502 30.9435 9.56131 28.7101 8.99033C24.0996 7.8117 23.1766 7.88766 23.1766 9.44378C23.1766 9.96794 23.363 10.5471 23.5905 10.7308C23.8182 10.9148 25.5686 11.4727 27.4805 11.971C29.3924 12.4693 31.0047 12.9122 31.0633 12.9551C31.2736 13.1103 29.6249 15.3795 29.3014 15.3805C29.1193 15.3808 28.1509 15.0007 27.1495 14.5358C23.4243 12.8061 22.1841 12.4179 21.516 12.7714C21.1684 12.9554 19.8133 14.3632 18.5049 15.8997C17.124 17.521 15.6736 18.8804 15.0482 19.1387C13.2671 19.8747 13.2373 21.6933 14.9903 22.6507C16.0855 23.2488 29.9897 22.8261 33.9867 22.0735C34.3787 21.9995 35.2034 21.2386 35.8192 20.3821C37.748 17.7004 40.712 12.8985 41.0759 11.8659C41.9817 9.29645 38.7991 6.48738 35.8595 7.26102ZM46.2922 7.63753C46.0518 7.87653 43.4718 11.6334 40.5587 15.9862L35.263 23.9H18.0295C5.06748 23.9 0.698032 23.9972 0.399077 24.2929C-0.259419 24.9441 -0.0730265 26.4301 0.737761 26.9916C1.3807 27.4372 3.62369 27.5007 18.5327 27.4968C27.9152 27.4945 35.9191 27.4058 36.3191 27.2997C37.1414 27.0813 49 9.83797 49 8.86036C49 8.16529 47.9892 7.20274 47.2596 7.20274C46.9682 7.20274 46.5329 7.3982 46.2922 7.63753ZM24.7429 17.7397C25.7023 18.1329 26.4873 18.5749 26.4873 18.7219C26.4873 18.8689 25.37 18.9891 24.0043 18.9891C21.3852 18.9891 21.0416 18.7464 22.0692 17.6235C22.7472 16.8822 22.6396 16.8777 24.7429 17.7397ZM4.86189 29.7113C2.13388 34.0251 1.79685 35.2031 3.35718 34.9726C3.84749 34.9002 4.61491 33.9678 5.84152 31.9546C6.81784 30.3524 7.61638 28.9157 7.61638 28.7625C7.61638 28.609 7.17142 28.4836 6.62748 28.4836C5.84318 28.4836 5.47734 28.738 4.86189 29.7113ZM30.7912 28.6686C30.7912 29.0058 34.2012 34.378 34.6478 34.7447C35.2183 35.2129 36.0883 34.8754 36.0883 34.1859C36.0883 33.8896 35.3894 32.4854 34.5353 31.0654C33.0951 28.6708 32.9031 28.4836 31.8867 28.4836C31.2842 28.4836 30.7912 28.5667 30.7912 28.6686Z" fill="white"/>
</svg>
