<svg width="34" height="42" viewBox="0 0 34 42" fill="none" xmlns="http://www.w3.org/2000/svg">
<path fill-rule="evenodd" clip-rule="evenodd" d="M10.2279 10.0623C10.2279 6.32291 13.2593 3.2915 16.9987 3.2915C20.7381 3.2915 23.7695 6.32291 23.7695 10.0623V12.6665H10.2279V10.0623ZM7.10286 12.8128V10.0623C7.10286 4.59702 11.5334 0.166504 16.9987 0.166504C22.464 0.166504 26.8945 4.59702 26.8945 10.0623V12.8128C30.75 13.5441 33.6654 16.9315 33.6654 20.9998V33.4998C33.6654 38.1022 29.9344 41.8332 25.332 41.8332H8.66536C4.06299 41.8332 0.332031 38.1022 0.332031 33.4998V20.9998C0.332031 16.9315 3.24735 13.5441 7.10286 12.8128ZM16.9987 23.604C17.8616 23.604 18.5612 24.3036 18.5612 25.1665V29.3332C18.5612 30.1961 17.8616 30.8957 16.9987 30.8957C16.1358 30.8957 15.4362 30.1961 15.4362 29.3332V25.1665C15.4362 24.3036 16.1358 23.604 16.9987 23.604Z" fill="white"/>
</svg>
