<svg width="45" height="42" viewBox="0 0 45 42" fill="none" xmlns="http://www.w3.org/2000/svg">
<path fill-rule="evenodd" clip-rule="evenodd" d="M27.0793 13.3005C26.1737 12.8453 25.1951 12.5402 24.1865 12.3953V3.73243C26.7049 3.91052 29.1615 4.58019 31.3975 5.70402C34.0359 7.03005 36.2857 8.94744 37.9477 11.2863C39.6098 13.6252 40.6327 16.3135 40.9259 19.1129C40.9397 19.2441 40.9518 19.3753 40.9623 19.5066H31.7494C31.55 18.2797 31.0666 17.1068 30.3311 16.0718C29.506 14.9107 28.3891 13.9588 27.0793 13.3005ZM12.7156 6.56701C15.3277 4.92588 18.3405 3.95287 21.4578 3.73242V12.3953C20.1565 12.5823 18.9087 13.0355 17.8049 13.7289C16.3198 14.662 15.1623 15.9882 14.4788 17.5399C13.7953 19.0915 13.6164 20.7989 13.9649 22.4462C14.2238 23.6704 14.7655 24.8205 15.545 25.818L9.0305 31.9436C6.99194 29.715 5.59329 27.0238 4.98041 24.1266C4.27849 20.8085 4.63874 17.3692 6.0156 14.2436C7.39246 11.118 9.72408 8.44656 12.7156 6.56701ZM10.96 33.7579C12.8747 35.3064 15.1153 36.4662 17.5416 37.1582C20.4043 37.9748 23.4371 38.1149 26.3712 37.5661C29.278 37.0224 31.999 35.8193 34.298 34.0617L26.0991 28.7025C25.6096 28.8817 25.1028 29.021 24.584 29.118C23.1275 29.3905 21.6219 29.3209 20.2007 28.9156C19.218 28.6353 18.2967 28.2004 17.4745 27.6323L10.96 33.7579ZM31.1656 24.0391C31.4447 23.4056 31.6401 22.7452 31.7494 22.0724H40.9623C40.818 23.876 40.37 25.6529 39.6288 27.3354C38.8304 29.1479 37.709 30.8117 36.3191 32.258L28.6716 27.2592C29.7621 26.3874 30.6173 25.2839 31.1656 24.0391Z" fill="white"/>
</svg>
