<svg width="41" height="41" viewBox="0 0 41 41" fill="none" xmlns="http://www.w3.org/2000/svg">
<path fill-rule="evenodd" clip-rule="evenodd" d="M34.5941 19.6457C34.5941 27.9012 27.9017 34.5936 19.6462 34.5936C11.3907 34.5936 4.69824 27.9012 4.69824 19.6457C4.69824 11.3902 11.3907 4.69775 19.6462 4.69775C27.9017 4.69775 34.5941 11.3902 34.5941 19.6457ZM19.6462 37.1561C29.3169 37.1561 37.1566 29.3164 37.1566 19.6457C37.1566 9.97494 29.3169 2.13525 19.6462 2.13525C9.97542 2.13525 2.13574 9.97494 2.13574 19.6457C2.13574 29.3164 9.97542 37.1561 19.6462 37.1561ZM35.0743 33.2604C34.5739 32.76 33.7627 32.76 33.2623 33.2604C32.762 33.7607 32.762 34.572 33.2623 35.0723L36.6789 38.4889C37.1793 38.9893 37.9905 38.9893 38.4909 38.4889C38.9913 37.9886 38.9913 37.1773 38.4909 36.677L35.0743 33.2604Z" fill="white"/>
<rect x="29" y="16" width="13" height="3" rx="1.5" transform="rotate(90 29 16)" fill="white"/>
<rect x="14" y="23" width="6" height="3" rx="1.5" transform="rotate(90 14 23)" fill="white"/>
<rect x="22" y="20" width="9" height="4" rx="2" transform="rotate(90 22 20)" fill="white"/>
<path fill-rule="evenodd" clip-rule="evenodd" d="M25.0233 10.7174C25.0233 10.3212 25.32 10 25.6861 10H27.4535C28.3076 10 29 10.7494 29 11.6739V13.5869C29 13.9831 28.7033 14.3043 28.3372 14.3043C27.9712 14.3043 27.6744 13.9831 27.6744 13.5869V12.4019C24.243 15.3772 21.5822 17.31 19.0059 18.6034C16.3709 19.9261 13.8562 20.5641 10.7469 20.9941C10.3838 21.0444 10.0518 20.7665 10.0054 20.3735C9.95902 19.9805 10.2158 19.6212 10.5789 19.5709C13.6044 19.1525 15.976 18.5428 18.4481 17.3018C20.8422 16.0999 23.3602 14.2911 26.6692 11.4348H25.6861C25.32 11.4348 25.0233 11.1136 25.0233 10.7174Z" fill="white"/>
</svg>
