<svg width="45" height="42" viewBox="0 0 45 42" fill="none" xmlns="http://www.w3.org/2000/svg">
<path d="M19.2436 6.01707C20.7074 3.11736 24.9369 3.11736 26.4007 6.01706L28.9306 11.0285C29.5119 12.18 30.6355 12.9781 31.9353 13.1627L37.5923 13.9664C40.8655 14.4314 42.1725 18.3639 39.804 20.621L35.7106 24.5218C34.77 25.4181 34.3408 26.7095 34.5629 27.9751L35.5292 33.4832C36.0883 36.6703 32.6666 39.1007 29.7389 37.596L24.6792 34.9954C23.5166 34.3979 22.1277 34.3979 20.9652 34.9954L15.9054 37.596C12.9777 39.1007 9.55602 36.6703 10.1152 33.4832L11.0815 27.9751C11.3035 26.7095 10.8743 25.4181 9.93378 24.5218L5.84035 20.621C3.47183 18.3639 4.77881 14.4314 8.05203 13.9664L13.709 13.1627C15.0088 12.9781 16.1324 12.18 16.7137 11.0285L19.2436 6.01707Z" fill="white"/>
</svg>
