<svg width="38" height="42" viewBox="0 0 38 42" fill="none" xmlns="http://www.w3.org/2000/svg">
<path fill-rule="evenodd" clip-rule="evenodd" d="M5.10934 5.81378L15.6058 0.925239C17.778 -0.0864067 20.2575 -0.0864085 22.4296 0.925238L32.8845 5.79439C35.9418 7.21827 37.9486 10.4185 37.7344 13.9172C36.9127 27.3372 33.2513 33.4039 23.3539 40.442C20.7419 42.2994 17.2964 42.2949 14.6825 40.4405C4.81542 33.4404 1.01815 27.4583 0.262844 13.8701C0.0696459 10.3944 2.07323 7.22779 5.10934 5.81378ZM26.4258 17.8621C26.9941 17.2127 26.9283 16.2255 26.2788 15.6573C25.6294 15.089 24.6423 15.1548 24.074 15.8043L18.0951 22.6374C17.9115 22.8471 17.5954 22.8752 17.3777 22.7011L13.726 19.7797C13.0522 19.2407 12.0689 19.3499 11.5298 20.0238C10.9907 20.6976 11.1 21.6809 11.7738 22.22L15.4256 25.1413C16.9491 26.3601 19.1621 26.1635 20.4469 24.6952L26.4258 17.8621Z" fill="white"/>
</svg>
