<svg width="97" height="113" viewBox="0 0 97 113" fill="none" xmlns="http://www.w3.org/2000/svg">
<g filter="url(#filter0_d_1251_2228)">
<path d="M25.9647 22.2679C24.3842 22.8439 23.1921 23.9154 22.4286 25.4692L22 26.3532V56.2893V86.2253L22.4286 87.1093C23.2055 88.7033 24.411 89.7614 26.0317 90.3106C26.8085 90.5785 27.1702 90.5785 48.3196 90.5517L69.8174 90.5115L70.755 90.0561C71.9872 89.4533 73.0454 88.3952 73.6481 87.1629L74.1035 86.2253L74.1437 64.1517L74.1705 42.0914H67.3126C63.5355 42.0914 59.986 42.0244 59.4502 41.9574C56.691 41.5958 54.5747 39.4795 54.2131 36.7203C54.1461 36.1845 54.0792 32.6351 54.0792 28.8579V22.0001H40.3903C27.2104 22.0135 26.6612 22.0135 25.9647 22.2679ZM61.004 50.5565C61.5799 50.878 61.9817 51.5745 61.9817 52.271C61.9817 52.9675 61.6603 53.5434 61.0441 53.9185L60.5753 54.2132H48.0518C35.7693 54.2132 35.5148 54.2132 35.0862 53.9453C34.4834 53.5836 34.1218 52.9675 34.1218 52.2844C34.1218 51.3066 34.6843 50.6235 35.6621 50.3824C35.8764 50.3288 41.5823 50.302 48.3196 50.302C59.6511 50.3288 60.6021 50.3422 61.004 50.5565ZM61.004 58.5931C61.5799 58.9145 61.9817 59.611 61.9817 60.3075C61.9817 61.004 61.6603 61.58 61.0441 61.955L60.5753 62.2497H48.0518C35.7693 62.2497 35.5148 62.2497 35.0862 61.9818C34.4834 61.6202 34.1218 61.004 34.1218 60.3209C34.1218 59.3431 34.6843 58.66 35.6621 58.4189C35.8764 58.3654 41.5823 58.3386 48.3196 58.3386C59.6511 58.3654 60.6021 58.3788 61.004 58.5931ZM61.004 66.6296C61.5799 66.951 61.9817 67.6476 61.9817 68.344C61.9817 69.0405 61.6603 69.6165 61.0441 69.9915L60.5753 70.2862H48.0518C35.7693 70.2862 35.5148 70.2862 35.0862 70.0183C34.4834 69.6567 34.1218 69.0405 34.1218 68.3574C34.1218 67.3797 34.6843 66.6966 35.6621 66.4555C35.8764 66.4019 41.5823 66.3751 48.3196 66.3751C59.6511 66.4019 60.6021 66.4153 61.004 66.6296ZM52.9674 74.6661C54.2533 75.376 54.2667 77.278 52.9808 78.0549C52.5522 78.3093 52.2977 78.3227 44.0335 78.3227C35.7693 78.3227 35.5148 78.3093 35.0862 78.0549C34.4834 77.6932 34.1218 77.0771 34.1218 76.394C34.1218 75.4162 34.6709 74.7331 35.6621 74.492C35.8764 74.4384 39.7741 74.3982 44.3014 74.4116C51.8289 74.4384 52.579 74.4518 52.9674 74.6661Z" fill="#42BFF8"/>
<path d="M57 29.2304C57 37.1405 57.0161 37.4768 57.3214 37.9731C57.9964 39.062 57.7714 39.03 66.8518 38.9819L72.5996 38.948C73.4885 38.9428 73.9293 37.8671 73.2995 37.2396L66 29.9669L58.7058 22.6995C58.0753 22.0714 57 22.5179 57 23.4079V29.2304Z" fill="#2EA5DC"/>
</g>
<defs>
<filter id="filter0_d_1251_2228" x="0" y="0" width="96.1699" height="112.563" filterUnits="userSpaceOnUse" color-interpolation-filters="sRGB">
<feFlood flood-opacity="0" result="BackgroundImageFix"/>
<feColorMatrix in="SourceAlpha" type="matrix" values="0 0 0 0 0 0 0 0 0 0 0 0 0 0 0 0 0 0 127 0" result="hardAlpha"/>
<feOffset/>
<feGaussianBlur stdDeviation="11"/>
<feComposite in2="hardAlpha" operator="out"/>
<feColorMatrix type="matrix" values="0 0 0 0 0.137255 0 0 0 0 0.511216 0 0 0 0 0.721569 0 0 0 0.25 0"/>
<feBlend mode="normal" in2="BackgroundImageFix" result="effect1_dropShadow_1251_2228"/>
<feBlend mode="normal" in="SourceGraphic" in2="effect1_dropShadow_1251_2228" result="shape"/>
</filter>
</defs>
</svg>
