<svg width="116" height="115" viewBox="0 0 116 115" fill="none" xmlns="http://www.w3.org/2000/svg">
<g filter="url(#filter0_d_1251_2185)">
<path fill-rule="evenodd" clip-rule="evenodd" d="M67.1599 22L93.9995 36.2066V92.4645H67.1599H46.5117L55.7038 85.2823V53.1617L46.9494 49.4053L46.5117 48.14V32.9465L67.1599 22ZM89.7292 40.185L70.8195 30.5246V37.3437L89.7292 45.8676V40.185ZM89.7292 52.1185L70.8195 44.1629V50.4137L89.7292 57.8012V52.1185ZM70.8195 57.8012L89.7292 64.6203V70.3029L70.8195 64.052V57.8012ZM89.7292 77.1221L70.8195 71.4395V77.6903L89.7292 82.8047V77.1221ZM63.5006 30.5239V37.3431L51.3008 41.8892V35.6383L63.5006 30.5239ZM63.5006 44.1622V50.4131L55.7038 52.9553V52.2029L51.3008 50.7647V48.14L63.5006 44.1622ZM63.5006 64.0514V57.8005L55.7038 59.9795L56.5535 60.2513V66.5021L55.7038 66.2304L63.5006 64.0514ZM63.5006 71.4388V77.6897L55.7038 79.8687L56.5535 80.1404V73.8896L55.7038 73.6179L63.5006 71.4388Z" fill="#2EA5DC"/>
<path fill-rule="evenodd" clip-rule="evenodd" d="M37.3942 39.9297L57.4043 50.5213V92.4643H37.3942H22V48.0908L37.3942 39.9297ZM54.2205 53.4878L40.1224 46.2855V51.3695L54.2205 57.7245V53.4878ZM54.2205 62.3848L40.1224 56.4535V61.1138L54.2205 66.6214V62.3848ZM40.1224 66.6214L54.2205 71.7054V75.9421L40.1224 71.2818V66.6214ZM54.2205 81.0261L40.1224 76.7894V81.4497L54.2205 85.2627V81.0261ZM34.666 46.2853V51.3693L25.5705 54.7586V50.0983L34.666 46.2853ZM34.666 56.4533V61.1136L25.5705 64.0793V59.419L34.666 56.4533ZM34.666 71.2816V66.6213L25.5705 69.1633V73.8236L34.666 71.2816ZM34.666 76.7893V81.4496L25.5705 83.9916V79.3313L34.666 76.7893Z" fill="#42BFF8"/>
</g>
<defs>
<filter id="filter0_d_1251_2185" x="0" y="0" width="116" height="114.464" filterUnits="userSpaceOnUse" color-interpolation-filters="sRGB">
<feFlood flood-opacity="0" result="BackgroundImageFix"/>
<feColorMatrix in="SourceAlpha" type="matrix" values="0 0 0 0 0 0 0 0 0 0 0 0 0 0 0 0 0 0 127 0" result="hardAlpha"/>
<feOffset/>
<feGaussianBlur stdDeviation="11"/>
<feComposite in2="hardAlpha" operator="out"/>
<feColorMatrix type="matrix" values="0 0 0 0 0.137255 0 0 0 0 0.511216 0 0 0 0 0.721569 0 0 0 0.25 0"/>
<feBlend mode="normal" in2="BackgroundImageFix" result="effect1_dropShadow_1251_2185"/>
<feBlend mode="normal" in="SourceGraphic" in2="effect1_dropShadow_1251_2185" result="shape"/>
</filter>
</defs>
</svg>
