<svg width="107" height="102" viewBox="0 0 107 102" fill="none" xmlns="http://www.w3.org/2000/svg">
<g filter="url(#filter0_d_1251_2217)">
<path d="M66.444 22.2619C66.2373 22.3996 65.9342 22.7027 65.7965 22.9094C65.452 23.4467 65.4383 24.6866 65.7965 25.2101C66.2649 25.9265 66.5955 26.0643 68.0696 26.1332L69.4335 26.202L47.8866 37.7608C36.0386 44.1257 25.4855 49.7879 24.4385 50.3528C22.2618 51.5514 22 51.8269 22 53.0117C22 54.3067 22.7577 55.0645 24.039 55.0645C24.7554 55.0645 25.5269 54.6511 48.2861 42.4449C61.2226 35.5014 72.0649 29.6738 72.3956 29.4809L72.988 29.1503L72.3542 30.3902C71.8583 31.3959 71.7343 31.7816 71.7343 32.3603C71.7343 33.6415 72.5058 34.3992 73.787 34.3992C75.1647 34.3992 75.1785 34.3855 77.7272 29.288C79.8075 25.1412 80.0004 24.7004 80.0004 24.0391C80.0004 23.2262 79.7248 22.6752 79.0911 22.2619C78.7191 22.0139 78.3334 22.0001 72.7675 22.0001C67.2017 22.0001 66.816 22.0139 66.444 22.2619Z" fill="#42BFF8"/>
<path d="M72.6456 38.7936C72.4389 38.9313 72.1359 39.2344 71.9981 39.4411C71.7501 39.8268 71.7363 40.4743 71.7363 59.2659C71.7363 78.0575 71.7501 78.705 71.9981 79.0907C72.1359 79.2974 72.4389 79.6005 72.6456 79.7382C73.0176 79.9862 73.3758 80 78.0048 80C82.6338 80 82.992 79.9862 83.364 79.7382C83.5706 79.6005 83.8737 79.2974 84.0115 79.0907C84.2594 78.705 84.2732 78.0575 84.2732 59.2659C84.2732 40.4743 84.2594 39.8268 84.0115 39.4411C83.8737 39.2344 83.5706 38.9313 83.364 38.7936C82.992 38.5456 82.6338 38.5318 78.0048 38.5318C73.3758 38.5318 73.0176 38.5456 72.6456 38.7936Z" fill="#42BFF8"/>
<path d="M56.1104 47.0596C55.9038 47.1974 55.6007 47.5005 55.4629 47.7072C55.2149 48.0929 55.2012 48.644 55.2012 63.3989C55.2012 78.1539 55.2149 78.705 55.4629 79.0907C55.6007 79.2974 55.9038 79.6005 56.1104 79.7382C56.4824 79.9862 56.8406 80 61.4007 80C65.9609 80 66.3191 79.9862 66.691 79.7382C66.8977 79.6005 67.2008 79.2974 67.3385 79.0907C67.5865 78.705 67.6003 78.1539 67.6003 63.3989C67.6003 48.644 67.5865 48.0929 67.3385 47.7072C67.2008 47.5005 66.8977 47.1974 66.691 47.0596C66.3191 46.8117 65.9609 46.7979 61.4007 46.7979C56.8406 46.7979 56.4824 46.8117 56.1104 47.0596Z" fill="#2EA5DC"/>
<path d="M39.5782 55.3257C39.3716 55.4635 39.0685 55.7666 38.9307 55.9732C38.6827 56.359 38.6689 56.8274 38.6689 67.532C38.6689 78.2366 38.6827 78.705 38.9307 79.0907C39.0685 79.2974 39.3716 79.6005 39.5782 79.7382C39.9502 79.9862 40.3084 80 44.8685 80C49.4286 80 49.7868 79.9862 50.1588 79.7382C50.3655 79.6005 50.6685 79.2974 50.8063 79.0907C51.0543 78.705 51.0681 78.2366 51.0681 67.532C51.0681 56.8274 51.0543 56.359 50.8063 55.9732C50.6685 55.7666 50.3655 55.4635 50.1588 55.3257C49.7868 55.0777 49.4286 55.064 44.8685 55.064C40.3084 55.064 39.9502 55.0777 39.5782 55.3257Z" fill="#42BFF8"/>
<path d="M22.9093 63.5918C22.7026 63.7296 22.3995 64.0327 22.2618 64.2393C22.0138 64.6113 22 65.0108 22 71.665C22 78.3192 22.0138 78.7188 22.2618 79.0907C22.3995 79.2974 22.7026 79.6005 22.9093 79.7382C23.2812 79.9862 23.6394 80 28.2684 80C32.8975 80 33.2557 79.9862 33.6276 79.7382C33.8343 79.6005 34.1374 79.2974 34.2751 79.0907C34.5231 78.7188 34.5369 78.3192 34.5369 71.665C34.5369 65.0108 34.5231 64.6113 34.2751 64.2393C34.1374 64.0327 33.8343 63.7296 33.6276 63.5918C33.2557 63.3438 32.8975 63.3301 28.2684 63.3301C23.6394 63.3301 23.2812 63.3438 22.9093 63.5918Z" fill="#2EA5DC"/>
</g>
<defs>
<filter id="filter0_d_1251_2217" x="0" y="0" width="106.273" height="102" filterUnits="userSpaceOnUse" color-interpolation-filters="sRGB">
<feFlood flood-opacity="0" result="BackgroundImageFix"/>
<feColorMatrix in="SourceAlpha" type="matrix" values="0 0 0 0 0 0 0 0 0 0 0 0 0 0 0 0 0 0 127 0" result="hardAlpha"/>
<feOffset/>
<feGaussianBlur stdDeviation="11"/>
<feComposite in2="hardAlpha" operator="out"/>
<feColorMatrix type="matrix" values="0 0 0 0 0.137255 0 0 0 0 0.511216 0 0 0 0 0.721569 0 0 0 0.25 0"/>
<feBlend mode="normal" in2="BackgroundImageFix" result="effect1_dropShadow_1251_2217"/>
<feBlend mode="normal" in="SourceGraphic" in2="effect1_dropShadow_1251_2217" result="shape"/>
</filter>
</defs>
</svg>
