<svg width="104" height="104" viewBox="0 0 104 104" fill="none" xmlns="http://www.w3.org/2000/svg">
<g filter="url(#filter0_d_1251_2231)">
<path d="M79.8442 52.0001C79.8442 67.378 67.3779 79.8443 52 79.8443C36.6221 79.8443 24.1558 67.378 24.1558 52.0001C24.1558 36.6221 36.6221 24.1558 52 24.1558C67.3779 24.1558 79.8442 36.6221 79.8442 52.0001Z" stroke="#2EA5DC" stroke-width="4.31164"/>
<path fill-rule="evenodd" clip-rule="evenodd" d="M51.9999 80.0651C67.4995 80.0651 80.0645 67.5001 80.0645 52.0005C80.0645 36.5008 67.4995 23.9359 51.9999 23.9359C36.5003 23.9359 23.9354 36.5008 23.9354 52.0005C23.9354 67.5001 36.5003 80.0651 51.9999 80.0651ZM50.074 37.1716C50.074 35.4689 50.2802 35.0683 51.3246 34.6927C52.1884 34.3922 53.2456 34.7177 53.684 35.4313C53.9032 35.7569 53.9419 36.0698 53.9419 37.1716C53.9419 38.386 53.9677 38.5237 54.1739 38.5237C54.651 38.5237 55.979 38.9243 56.8944 39.35C60.0016 40.7647 61.7938 43.2186 61.6519 45.8477C61.6133 46.6239 61.5617 46.8243 61.2909 47.0997C60.0016 48.4393 57.9774 47.7883 57.7453 45.9479C57.5519 44.408 56.5721 43.3563 54.6897 42.6802L53.9419 42.4048V46.0981C53.9419 49.5661 53.9548 49.7914 54.1739 49.7914C54.651 49.7914 55.979 50.1921 56.8944 50.6177C60.0274 52.045 61.6777 54.3236 61.6777 57.1906C61.6777 59.1812 60.9557 60.671 59.2538 62.211C58.145 63.2 56.701 63.9262 55.0765 64.3393L53.9419 64.6273V65.9418C53.9419 67.3816 53.8 67.7447 53.0909 68.2079C52.5881 68.5334 51.4277 68.5334 50.9249 68.2079C50.2158 67.7447 50.074 67.3816 50.074 65.9418V64.6273L48.9523 64.3393C45.0585 63.3628 42.3381 60.4958 42.3381 57.3784C42.3381 55.9636 42.9828 55.25 44.2721 55.25C45.4324 55.25 46.1029 55.901 46.2705 57.153C46.3221 57.5411 46.4639 58.0669 46.5928 58.3048C47.057 59.1937 48.5139 60.2203 49.7258 60.4958L50.074 60.5834V56.9777V53.3595L48.9523 53.0716C45.8708 52.3079 43.3567 50.2296 42.596 47.8133C42.106 46.2984 42.2865 44.3579 43.0472 42.8931C44.0658 40.965 46.5155 39.2373 49.0683 38.6865L50.074 38.4611V37.1716ZM50.074 49.3157V45.8602C50.074 43.9573 50.0611 42.4048 50.0482 42.4173C49.1328 42.6552 47.8821 43.3187 47.3277 43.8446C46.3479 44.771 46.0513 46.0105 46.5799 47.0121C47.057 47.926 48.501 48.9401 49.7258 49.228L50.074 49.3157ZM57.4359 58.2798C58.0934 57.0153 57.4617 55.4503 55.8887 54.4988C55.6309 54.3361 55.0894 54.0857 54.6897 53.948L53.9419 53.6725V57.128V60.5834L54.3029 60.4958C55.5148 60.2078 56.9589 59.1937 57.4359 58.2798Z" fill="#42BFF8"/>
</g>
<defs>
<filter id="filter0_d_1251_2231" x="0" y="0" width="104" height="104" filterUnits="userSpaceOnUse" color-interpolation-filters="sRGB">
<feFlood flood-opacity="0" result="BackgroundImageFix"/>
<feColorMatrix in="SourceAlpha" type="matrix" values="0 0 0 0 0 0 0 0 0 0 0 0 0 0 0 0 0 0 127 0" result="hardAlpha"/>
<feOffset/>
<feGaussianBlur stdDeviation="11"/>
<feComposite in2="hardAlpha" operator="out"/>
<feColorMatrix type="matrix" values="0 0 0 0 0.137255 0 0 0 0 0.511216 0 0 0 0 0.721569 0 0 0 0.25 0"/>
<feBlend mode="normal" in2="BackgroundImageFix" result="effect1_dropShadow_1251_2231"/>
<feBlend mode="normal" in="SourceGraphic" in2="effect1_dropShadow_1251_2231" result="shape"/>
</filter>
</defs>
</svg>
