<svg width="110" height="95" viewBox="0 0 110 95" fill="none" xmlns="http://www.w3.org/2000/svg">
<g filter="url(#filter0_d_1251_2212)">
<path d="M30.2704 22.2462C29.6605 22.5246 29.223 22.9621 29.0241 23.4925C28.8253 24.0228 28.8253 61.3296 29.0241 61.8599C29.2098 62.377 29.9124 63.0664 30.3897 63.2122C30.6151 63.2917 31.9408 63.4111 33.3196 63.4906C41.2874 63.9546 47.3859 66.2747 52.0658 70.5967L53.0071 71.4717V52.0228C53.0071 34.2576 52.9939 32.5474 52.795 32.1629C51.9863 30.5985 49.3613 27.7747 47.492 26.4754C44.1908 24.1553 39.9882 22.7235 34.9768 22.1932C32.3783 21.9148 30.9465 21.9413 30.2704 22.2462Z" fill="#42BFF8"/>
<path d="M74.6175 22.1932C69.7387 22.7368 65.4697 24.2084 62.2614 26.4489C60.3656 27.7747 57.7538 30.5853 56.9318 32.1629C56.733 32.5474 56.7197 34.2576 56.7197 52.0228V71.4717L57.661 70.5967C62.3409 66.2747 68.4394 63.9546 76.4072 63.4906C77.7993 63.4111 79.1118 63.2917 79.3372 63.2122C79.8145 63.0664 80.5171 62.377 80.7027 61.8599C80.9016 61.3296 80.9016 24.0228 80.7027 23.4925C80.5038 22.9621 80.0663 22.5246 79.4565 22.2462C78.8201 21.9546 77.0038 21.9281 74.6175 22.1932Z" fill="#42BFF8"/>
<path d="M23.7082 29.5781C23.0453 29.7637 22.5415 30.1614 22.2498 30.758C21.9847 31.2618 21.9847 31.5402 22.0112 51.4133L22.051 71.5649L22.3294 71.9361C22.7139 72.4399 23.3767 72.8774 23.9468 72.9834C24.2783 73.0497 25.2328 72.9171 26.9563 72.5857C31.7555 71.6709 35.2688 71.313 39.7101 71.313C43.7802 71.313 46.7499 71.6312 50.4222 72.4399C50.8067 72.5194 50.7802 72.4929 50.1173 71.8565C48.4866 70.3054 45.4506 68.6217 42.6003 67.6936C39.7234 66.7524 37.3502 66.3546 33.5851 66.1425C32.1798 66.0762 30.9733 65.9436 30.6552 65.8243C28.64 65.1217 27.3275 63.8357 26.5453 61.8205C26.3067 61.1974 26.2934 60.455 26.2536 45.2883L26.2139 29.419L25.193 29.4322C24.6362 29.4322 23.9601 29.4985 23.7082 29.5781Z" fill="#2EA5DC"/>
<path d="M83.3416 45.156C83.3018 60.3227 83.2886 61.0651 83.0499 61.6882C82.2677 63.7034 80.9552 64.9894 78.9401 65.692C78.6219 65.8113 77.4155 65.9439 76.0101 66.0102C69.8719 66.3416 65.2715 67.6674 61.4798 70.1863C59.9419 71.2072 58.5764 72.4401 59.1067 72.3208C62.5404 71.5386 65.8813 71.1806 69.8719 71.1806C74.3264 71.1806 77.8397 71.5386 82.6389 72.4534C84.3624 72.7848 85.317 72.9174 85.6484 72.8511C86.2185 72.745 86.8814 72.3075 87.2658 71.8038L87.5443 71.4325L87.584 51.281C87.6105 31.4079 87.6105 31.1295 87.3454 30.6257C86.8681 29.6711 85.9931 29.2867 84.3359 29.2867H83.3814L83.3416 45.156Z" fill="#2EA5DC"/>
</g>
<defs>
<filter id="filter0_d_1251_2212" x="0" y="0" width="109.596" height="95" filterUnits="userSpaceOnUse" color-interpolation-filters="sRGB">
<feFlood flood-opacity="0" result="BackgroundImageFix"/>
<feColorMatrix in="SourceAlpha" type="matrix" values="0 0 0 0 0 0 0 0 0 0 0 0 0 0 0 0 0 0 127 0" result="hardAlpha"/>
<feOffset/>
<feGaussianBlur stdDeviation="11"/>
<feComposite in2="hardAlpha" operator="out"/>
<feColorMatrix type="matrix" values="0 0 0 0 0.137255 0 0 0 0 0.511216 0 0 0 0 0.721569 0 0 0 0.25 0"/>
<feBlend mode="normal" in2="BackgroundImageFix" result="effect1_dropShadow_1251_2212"/>
<feBlend mode="normal" in="SourceGraphic" in2="effect1_dropShadow_1251_2212" result="shape"/>
</filter>
</defs>
</svg>
