<svg width="97" height="111" viewBox="0 0 97 111" fill="none" xmlns="http://www.w3.org/2000/svg">
<g filter="url(#filter0_d_480_1345)">
<path fill-rule="evenodd" clip-rule="evenodd" d="M37.7344 33.6749C37.7344 27.7517 42.5543 22.95 48.5 22.95C54.4456 22.95 59.2655 27.7517 59.2655 33.6749V37.8H37.7344V33.6749ZM32.7656 38.0317V33.6749C32.7656 25.0179 39.8102 18 48.5 18C57.1898 18 64.2343 25.0179 64.2343 33.6749V38.0317C70.3645 39.1901 75 44.5557 75 50.9999V70.7999C75 78.0901 69.0677 84 61.7499 84H35.25C27.9322 84 22 78.0901 22 70.7999V50.9999C22 44.5557 26.6354 39.1901 32.7656 38.0317ZM48.5 55.125C49.872 55.125 50.9843 56.2331 50.9843 57.6V64.2C50.9843 65.5668 49.872 66.675 48.5 66.675C47.128 66.675 46.0156 65.5668 46.0156 64.2V57.6C46.0156 56.2331 47.128 55.125 48.5 55.125Z" fill="#42BFF8"/>
</g>
<defs>
<filter id="filter0_d_480_1345" x="0.32653" y="0.661224" width="96.3469" height="109.347" filterUnits="userSpaceOnUse" color-interpolation-filters="sRGB">
<feFlood flood-opacity="0" result="BackgroundImageFix"/>
<feColorMatrix in="SourceAlpha" type="matrix" values="0 0 0 0 0 0 0 0 0 0 0 0 0 0 0 0 0 0 127 0" result="hardAlpha"/>
<feOffset dy="4.33469"/>
<feGaussianBlur stdDeviation="10.8367"/>
<feComposite in2="hardAlpha" operator="out"/>
<feColorMatrix type="matrix" values="0 0 0 0 0.392157 0 0 0 0 0.72549 0 0 0 0 0.878431 0 0 0 0.25 0"/>
<feBlend mode="normal" in2="BackgroundImageFix" result="effect1_dropShadow_480_1345"/>
<feBlend mode="normal" in="SourceGraphic" in2="effect1_dropShadow_480_1345" result="shape"/>
</filter>
</defs>
</svg>
