<svg width="566" height="671" viewBox="0 0 566 671" fill="none" xmlns="http://www.w3.org/2000/svg">
<path d="M213.331 25.5452C179.801 39.56 120.86 64.0532 82.3516 80.0328C7.56212 111.075 3.89469 113.04 1.01314 122.863C0.0962786 126.138 -0.165681 155.477 0.0962786 217.3C0.751178 316.582 0.882157 318.94 10.5747 361.377C40.831 494.977 135.66 609.453 261.663 664.596C280.262 672.716 285.632 672.716 303.969 664.465C404.038 620.193 484.853 539.641 528.469 440.751C544.448 404.47 555.451 366.486 562 324.703C564.881 306.235 565.012 302.96 565.012 213.894V128.051C565.012 124.179 563.722 120.418 561.345 117.362C559.249 114.611 556.237 111.599 554.534 110.42C552.7 109.241 492.58 83.9622 420.803 54.0988C295.849 2.23071 289.824 -0.126892 282.227 0.00408936C274.892 0.135071 268.867 2.36176 213.331 25.5452ZM399.192 103.609L488.707 140.788C503.788 147.051 513.547 161.853 513.362 178.181L512.882 220.574C512.096 294.316 511.179 307.021 504.761 338.325C486.948 425.95 438.224 506.503 368.935 562.431C345.49 581.292 291.002 614.168 283.013 614.168C277.642 614.168 245.16 596.617 222.369 581.292C146.925 530.734 89.0316 449.134 66.1101 361.377C54.9768 318.416 53.536 304.008 52.6192 220.574L52.1389 178.15C51.9542 161.837 61.695 147.047 76.7547 140.773L165.655 103.74C228.263 77.6751 280.655 56.3254 282.096 56.3254C283.537 56.1945 336.19 77.5441 399.192 103.609Z" fill="url(#paint0_linear_663_1385)"/>
<defs>
<linearGradient id="paint0_linear_663_1385" x1="292" y1="31.17" x2="97.5" y2="740.17" gradientUnits="userSpaceOnUse">
<stop stop-color="#4CBCEF" stop-opacity="0.24"/>
<stop offset="1" stop-color="#4CBCEF" stop-opacity="0"/>
</linearGradient>
</defs>
</svg>
