<svg width="372" height="442" viewBox="0 0 372 442" fill="none" xmlns="http://www.w3.org/2000/svg">
<path d="M140.5 17.1705C118.438 26.3918 79.6572 42.5074 54.3203 53.0213C5.11175 73.4458 2.69873 74.7385 0.802775 81.202C0.199517 83.3565 0.0271578 102.661 0.199517 143.338C0.630415 208.662 0.716594 210.213 7.09389 238.135C27.0014 326.038 89.3955 401.359 172.3 437.641C184.538 442.984 188.071 442.984 200.136 437.555C265.978 408.426 319.15 355.426 347.848 290.36C358.362 266.488 365.601 241.496 369.91 214.005C371.806 201.854 371.892 199.699 371.892 141.097V84.6153C371.892 82.0679 371.043 79.5932 369.479 77.5825C368.1 75.7727 366.118 73.7905 364.998 73.0149C363.791 72.2393 324.235 55.6066 277.009 35.9577C194.793 1.83054 190.829 0.279297 185.83 0.365479C181.004 0.45166 177.04 1.91672 140.5 17.1705ZM262.789 68.5336L325.009 94.3757C332.924 97.6631 338.046 105.432 337.949 114.002L337.593 145.492C337.076 194.011 336.473 202.371 332.25 222.968C320.529 280.622 288.47 333.622 242.881 370.421C227.455 382.831 191.605 404.462 186.348 404.462C182.814 404.462 161.442 392.914 146.446 382.831C96.8069 349.565 58.7155 295.876 43.6341 238.135C36.3088 209.868 35.3608 200.388 34.7576 145.492L34.4009 113.985C34.304 105.424 39.4164 97.6607 47.3204 94.3681L109.131 68.6198C150.324 51.47 184.796 37.4227 185.744 37.4227C186.692 37.3365 221.337 51.3839 262.789 68.5336Z" fill="url(#paint0_linear_807_4343)"/>
<defs>
<linearGradient id="paint0_linear_807_4343" x1="192.631" y1="456.272" x2="193.821" y2="2.86967" gradientUnits="userSpaceOnUse">
<stop stop-color="#4CBCEF" stop-opacity="0"/>
<stop offset="0.46875" stop-color="#4CBCEF" stop-opacity="0.1275"/>
<stop offset="1" stop-color="#4CBCEF" stop-opacity="0"/>
</linearGradient>
</defs>
</svg>
