<svg width="678" height="422" viewBox="0 0 678 422" fill="none" xmlns="http://www.w3.org/2000/svg">
<mask id="mask0_3280_3214" style="mask-type:alpha" maskUnits="userSpaceOnUse" x="0" y="0" width="678" height="422">
<rect width="678" height="422" fill="url(#paint0_linear_3280_3214)"/>
</mask>
<g mask="url(#mask0_3280_3214)">
<g opacity="0.5">
<path opacity="0.5" d="M86.3779 109.388L405.536 123.007" stroke="#A8B3BC" stroke-width="0.748967"/>
<path opacity="0.5" d="M86.3779 109.388L334.64 426.525" stroke="#A8B3BC" stroke-width="0.748967"/>
<path opacity="0.5" d="M555.702 324.948L335.068 427.088" stroke="#A8B3BC" stroke-width="0.748967"/>
<circle cx="50.9298" cy="50.9298" r="50.9298" transform="matrix(-0.990507 -0.137462 -0.137462 0.990507 145.651 60.5723)" fill="#1A3A50"/>
<circle cx="55.5" cy="55.5" r="55.5" transform="matrix(-0.990507 -0.137462 -0.137462 0.990507 626.641 275.732)" fill="#1A3A50"/>
<circle cx="74.5222" cy="74.5222" r="74.5222" transform="matrix(-0.990507 -0.137462 -0.137462 0.990507 426.707 356.011)" fill="#1A3A50"/>
<circle cx="74.5222" cy="74.5222" r="74.5222" transform="matrix(-0.990507 -0.137462 -0.137462 0.990507 489.624 55.4243)" fill="#1A3A50"/>
</g>
</g>
<defs>
<linearGradient id="paint0_linear_3280_3214" x1="339" y1="4.25253e-06" x2="384.42" y2="337.928" gradientUnits="userSpaceOnUse">
<stop stop-color="#D9D9D9"/>
<stop offset="1" stop-color="#D9D9D9" stop-opacity="0"/>
</linearGradient>
</defs>
</svg>
